<?xml version="1.0" encoding="UTF-8"?>
<svg id="Layer_2" data-name="Layer 2" xmlns="http://www.w3.org/2000/svg" viewBox="0 0 128.61 131.86">
  <g id="Layer_1-2" data-name="Layer 1">
    <g>
      <path d="M108.39,101.68c-.47,0-.96,0-1.5-.02-.53,0-1.07-.02-1.68-.02-4.61-.03-14.09-.31-16.21-.88-1.04-.28-4-1.67-7.21-3.38-2.26-1.21-6.47-3.56-9.39-5.78-2.71-2.07-3.75-3.76-4.43-4.87-.58-.95-.81-1.28-1.43-1.32-1.1-.07-1.84-.59-2.39-1.66-.53-1.02-.89-2.59-1.28-4.63-.27-1.44-.49-2.75-.68-3.91-.17-1.06-.32-1.97-.46-2.65-.19-.9-.31-1.09-.34-1.13-.03-.03-.06-.06-.1-.09-.36-.32-1.1-.99-1.8-2.1-.87-1.38-1.38-2.97-1.52-4.73-.27-3.52.75-5.14,1.19-5.67l-2.42-7.55c-.61-.46-3.48-2.77-4.18-5.73-.6-2.54-.29-3.87-.1-4.38l-3.27-5.18c-.49.02-1.63,0-3.05-.45-1.27-.4-2.71-2.22-3.27-2.98-.83-1.12-1.78-2.71-1.73-3.5.05-.92.12-2.5.14-3l-6.11-7.54c-.07-.09-.71-.96.2-2.99.15-.34.3-.74.47-1.21.7-1.93,1.76-4.83,5.06-7.96-.11-.22-.25-.54-.39-.89-.48-1.23-.38-1.7-.26-1.94.21-.42.89-1.13,1.47-1.64.58-.51,1.39-1.14,1.96-1.18.41-.03.8,0,1.11.02.13.01.3.02.4.02.01-.03.03-.06.05-.08.13-.23.36-.66.89-.7.31-.02,6.03.19,13.22.98,6.54.72,15.69,2.09,22.09,4.52,4.23,1.61,7.31,3.11,9.43,4.58,1.8,1.25,2.49,2.21,2.99,2.9.25.35.44.6.68.77.67.46,1.5,1.2,2.24,1.84.53.47,1.25,1.1,1.48,1.22.26,0,.67.05.98.11.72.14.92.3,1.02.45.04.05.19.17.31.28.28.24.66.57.95.89.17.19.68.77.34,1.28-.08.12-.22.31-.39.55-.25.35-.83,1.15-1.11,1.62.59.13,1.64.48,2.76,1.46.87.76,1.6,1.75,2.19,2.95.67,1.37,1.14,3.01,1.41,4.89.51-.01,1.48-.03,2.46-.03.84,0,1.52.03,2.03.07.96.08,1.21.21,1.35.42.11.17.24.51.49,1.22.42,1.15,1.12,3.07,1.75,3.71.85.88,1.43,2.78,1.89,4.3.12.39.23.76.33,1.07.24.71.19,1.88.13,3.36-.07,1.89-.16,4.24.42,5.85.85,2.33,1.8,4.64,3.07,5.76.08.07.16.14.24.21,1.29,1.12,3.45,2.99,3.45,6.82,0,2.34-.33,3.33-.54,3.93-.13.39-.15.46-.06.66.07.16.27.38.49.64.73.84,1.95,2.26,1.71,4.69-.16,1.58-.9,2.27-1.68,2.99-.82.76-1.75,1.63-2.31,3.86-1.1,4.43-4.97,13.58-7.17,17.44-.97,1.7-1.91,2.61-3.16,3.04-.89.31-1.92.38-3.2.38ZM59.9,59.26s-.36.34-.66,1.1c-.29.74-.6,2.04-.45,4.1.29,3.8,2.37,5.67,3.05,6.28.05.04.09.08.12.11.4.38.6,1.5,1.05,4.24.19,1.15.4,2.45.67,3.89.37,1.97.72,3.47,1.2,4.4.42.81.92,1.17,1.72,1.22,1.07.07,1.49.76,2.07,1.71.65,1.07,1.64,2.67,4.23,4.65,4.83,3.69,14.43,8.52,16.31,9.02,1.86.5,10.64.82,16,.85.61,0,1.15.01,1.69.02,4.03.07,5.39.1,7.14-2.99,2.17-3.82,6-12.86,7.09-17.24.62-2.47,1.69-3.47,2.55-4.26.75-.7,1.29-1.2,1.42-2.47.21-2.08-.79-3.24-1.51-4.08-.26-.31-.49-.57-.61-.83-.23-.49-.11-.83.03-1.26.18-.55.49-1.46.49-3.66,0-3.45-1.91-5.11-3.17-6.2-.09-.08-.17-.15-.25-.22-1.33-1.17-2.28-3.28-3.3-6.09-.64-1.76-.55-4.2-.47-6.16.05-1.29.1-2.51-.09-3.07-.11-.33-.22-.7-.34-1.09-.44-1.44-.98-3.23-1.69-3.97-.75-.77-1.43-2.64-1.93-4-.14-.38-.3-.81-.38-.99-.17-.05-.78-.17-2.92-.17-1.33,0-2.59.04-2.6.04-.21,0-.39-.15-.42-.36-.44-3.48-1.61-6.14-3.37-7.69-1.42-1.25-2.72-1.34-2.73-1.34-.18,0-.34-.1-.42-.25-.13-.26-.03-.56.44-1.28.28-.43.64-.92.93-1.31.14-.19.26-.36.34-.47-.02-.06-.1-.2-.35-.46-.23-.24-.52-.49-.75-.68-.24-.21-.36-.31-.43-.4-.21-.11-1.07-.26-1.37-.25-.33.02-.67-.25-2-1.42-.72-.63-1.53-1.35-2.16-1.78-.36-.25-.6-.58-.88-.97-.91-1.26-2.6-3.6-12.04-7.2-6.29-2.39-15.32-3.75-21.78-4.46-7.28-.8-12.89-1-13.18-.99-.07,0-.12.09-.22.27-.08.15-.16.3-.31.4-.22.14-.49.12-.91.09-.28-.02-.63-.05-.98-.02-.2.02-.75.33-1.48.98-.65.58-1.16,1.16-1.28,1.39,0,0-.11.26.29,1.28.22.57.49,1.08.49,1.08.09.16.05.37-.08.49-3.33,3.08-4.38,5.95-5.07,7.85-.17.48-.33.89-.49,1.26-.67,1.49-.33,2.1-.3,2.15l6.2,7.65c.06.08.1.18.09.27,0,.02-.09,2.06-.15,3.17-.02.37.57,1.61,1.58,2.96,1.05,1.43,2.15,2.46,2.86,2.68,1.7.54,2.95.4,2.97.4.16-.02.31.05.39.19l3.52,5.57c.08.13.09.29,0,.42-.03.06-.58,1.21.08,4.02.69,2.95,3.94,5.31,3.97,5.33.07.05.12.12.15.21l2.53,7.91c.05.16,0,.33-.13.44ZM61.4,71.44s0,0,0,0c0,0,0,0,0,0ZM111.93,32.28h0,0ZM99.85,21.92s.01,0,.03,0c0,0-.02,0-.03,0ZM35.82,18.02h0s0,0,0,0ZM99.63,17.9h0,0ZM100.26,17.41s0,0,0,0c0,0,0,0,0,0ZM100.24,17.38s0,0,0,0c0,0,0,0,0,0Z"/>
      <path d="M49.07,35.79c-1.94-3.07-7.61-9.52-7.67-9.58l.61-.54c.23.27,5.76,6.56,7.74,9.69l-.69.44Z"/>
      <path d="M56.71,51.15c-1.26-4.19-4.11-9.77-4.13-9.82l.73-.37c.03.06,2.91,5.7,4.19,9.96l-.78.23Z"/>
      <path d="M61.69,72.35c-.85-6.56-2.44-13.24-2.46-13.31l.8-.19c.02.07,1.62,6.79,2.47,13.39l-.81.11Z"/>
      <path d="M65.54,84.9l-.46-.68s2.39-1.61,4.17-3.25c.24-.22.67-.84.89-2.51.2-1.54.18-3.6-.07-6.11-.61-6.23-2.52-14.8-5.68-25.49-5.96-20.15-16.28-27.44-20.17-30.19-.7-.49-1.16-.82-1.4-1.08-1.04-1.17-2.58-2.12-3.8-1.29-1.27.87-3.28,2.44-3.3,2.46l-.51-.64s2.05-1.61,3.34-2.49c1.38-.95,3.25-.4,4.87,1.42.17.19.65.53,1.26.96,1.93,1.37,5.54,3.91,9.43,8.68,4.76,5.83,8.48,13.22,11.06,21.94,3.17,10.74,5.1,19.36,5.71,25.64.49,4.98.11,8.2-1.09,9.3-1.83,1.68-4.17,3.26-4.26,3.33Z"/>
      <path d="M41.98,14.24l-.37-.17s.8-1.78,1.18-3.54c.36-1.69-1.51-3.9-1.52-3.92l.31-.27c.08.1,2.01,2.39,1.61,4.27-.38,1.81-1.19,3.61-1.2,3.63Z"/>
      <path d="M50.42,8.06c-.13,0-.33-.1-.78-.43-.32-.23-.75-.56-1.27-.99-.89-.72-1.76-1.47-1.76-1.47-.06-.05-.08-.12-.07-.2.02-.07.07-.13.14-.15.88-.27,2.19,0,2.89.2.98.27,1.94.67,2.34.98.11.08.25.21.24.38,0,.16-.09.43-.74.99-.35.31-.73.58-.87.66-.04.02-.07.03-.12.03ZM47.18,5.13c1.39,1.18,2.85,2.35,3.21,2.51.15-.1.46-.32.75-.57.46-.41.57-.61.59-.68-.13-.15-.85-.55-1.99-.89-1.02-.31-1.92-.43-2.55-.36Z"/>
      <path d="M52.07,10.44l-3.52-.11c-.07,0-.13-.04-.16-.09-.31-.47-3-4.61-3.16-5.21-.06-.23,0-.61,1.01-1.5.52-.46,1.06-.84,1.08-.86l.24.33s-.54.39-1.05.83c-.94.82-.88,1.07-.88,1.08.11.4,1.86,3.18,3.05,5.01l3.42.11v.41Z"/>
      <path d="M54.54,17.19c-.07,0-.14,0-.18,0-4.72-.35-7.71-1.7-9.38-2.77-1.83-1.17-2.53-2.25-2.56-2.29l.35-.22-.17.11.17-.11s.69,1.06,2.46,2.18c1.63,1.04,4.55,2.34,9.17,2.69.39.03.45-.06.46-.07.02-.03.05-.16-.2-.6-.2-.35-.5-.77-.86-1.26-.76-1.05-1.7-2.35-2.01-3.57-.4-1.56,1.3-2.25,3.1-2.98,1.63-.66,3.49-1.41,3.98-2.89.11-.35.08-.64-.11-.9-.33-.45-1.33-1.03-4.19-1.25-1.94-.15-4.07-.1-5.35-.06-.46.01-.83.02-1.04.02-1.62-.03-2.87-1.85-2.92-1.93l.34-.23s1.18,1.72,2.59,1.75c.2,0,.56,0,1.02-.02,2.79-.08,8.6-.23,9.88,1.48.27.37.33.8.17,1.27-.55,1.66-2.49,2.45-4.21,3.14-1.7.69-3.18,1.29-2.86,2.5.3,1.14,1.21,2.42,1.95,3.44.8,1.12,1.34,1.85,1.08,2.3-.14.24-.45.29-.67.29Z"/>
      <path d="M48.73,10.23l-.35-.22c.37-.6,1.91-2.23,1.98-2.3l.3.28s-1.57,1.67-1.93,2.24Z"/>
      <path d="M67.92,18c-.98,0-1.78-.83-1.78-1.84s.8-1.84,1.78-1.84,1.78.83,1.78,1.84-.8,1.84-1.78,1.84ZM67.92,14.72c-.75,0-1.37.64-1.37,1.43s.61,1.43,1.37,1.43,1.37-.64,1.37-1.43-.61-1.43-1.37-1.43Z"/>
      <path d="M67.55,17.36c-.69,0-1.25-.56-1.25-1.26s.56-1.26,1.25-1.26,1.25.56,1.25,1.26-.56,1.26-1.25,1.26ZM67.55,15.26c-.47,0-.84.38-.84.85s.38.85.84.85.84-.38.84-.85-.38-.85-.84-.85Z"/>
      <path d="M67.09,16.86c-.42,0-.75-.36-.75-.8s.34-.8.75-.8.75.36.75.8-.34.8-.75.8ZM67.09,15.67c-.19,0-.35.18-.35.39s.16.39.35.39.35-.18.35-.39-.16-.39-.35-.39Z"/>
      <path d="M62.19,22.8c-.91,0-1.85-.27-2.8-.79-.83-.46-1.68-1.13-2.51-1.98-1.41-1.44-2.29-2.88-2.33-2.95l.35-.21s.89,1.47,2.27,2.88c1.26,1.28,3.19,2.77,5.29,2.63,1.67-.11,2.93-.95,3.74-2.5.61-1.17.73-2.31.73-2.32l.41.04s-.13,1.24-.78,2.48c-.87,1.66-2.28,2.6-4.08,2.72-.1,0-.2,0-.3,0Z"/>
      <path d="M69.05,29.9c-.64,0-.75-.08-.81-.18-.05-.08-.05-.17,0-.25.02-.07.05-.41-.42-2.09-.3-1.08-.7-2.35-1.02-3.37-.07-.24-.14-.46-.21-.66-.67-2.13,3.27-3.93,3.44-4,.06-.03.13-.02.19.01.06.04.09.1.1.17.15,3.71,4.38,9.52,4.42,9.58.04.06.05.14.02.2-.03.07-.09.11-.16.12-.01,0-1.51.18-3,.32-.88.08-1.59.13-2.12.15-.16,0-.3,0-.42,0ZM68.63,29.48c.61.08,3.15-.13,5.56-.41-.37-.52-1.17-1.71-1.99-3.15-1.38-2.45-2.15-4.48-2.29-6.06-.85.43-3.42,1.87-2.95,3.38.06.2.13.43.21.66.33,1.05.74,2.35,1.04,3.45.37,1.35.44,1.88.42,2.14ZM68.22,29.47s0,0,0,0c0,0,0,0,0,0Z"/>
      <rect x="75.7" y="27.71" width=".41" height="2.89" transform="translate(43.44 103.71) rotate(-87.48)"/>
      <path d="M96.58,101.05l-.4-.09c.02-.08,1.79-7.98,2.49-15.56.36-3.92.2-7.14-.48-9.57-.7-2.51-1.94-4.04-3.66-4.53-1.72-.49-2.52.18-3.53,1.03-1.04.87-2.32,1.96-5,1.89-1.38-.03-2.72-.48-3.78-1.26-1.03-.75-1.75-1.77-2.01-2.86-.23-.95-.1-1.91.36-2.78.51-.97,1.41-1.8,2.68-2.48,1.84-.99,3.46-1.69,4.76-2.25,2.94-1.27,4.11-1.84,3.75-3.38-.29-1.23-1.09-1.78-2.19-2.55-1.11-.77-2.49-1.73-3.86-3.75-1.86-2.73-1.93-5.92-1.96-7.28,0-.08,0-.16,0-.24-.52.66-1.88,1.87-3.34,2.95-1.27.94-3.68,2.58-5.61,2.97-.9.18-1.59.07-2.08-.32-.83-.68-1.12-1.49-.9-2.56.19-.94.77-2.01,1.43-3.25.59-1.1,1.25-2.35,1.8-3.77.59-1.53.42-2.96-.5-4.27-1.29-1.83-3.76-2.91-4.97-2.88-.01,0-.03,0-.04,0-2.06,0-5.95-3.9-6.11-4.06-.06-.06-.07-.14-.05-.22.03-.07.1-.13.18-.13l4.79-.37.03.41-4.34.34c.98.94,3.97,3.67,5.53,3.63,1.27-.03,3.9,1.04,5.32,3.05.99,1.41,1.18,3.02.55,4.65-.56,1.45-1.23,2.7-1.83,3.81-1.3,2.44-2.17,4.05-.64,5.3.38.31.97.39,1.74.24,1.85-.38,4.2-1.98,5.44-2.9,1.9-1.41,3.19-2.69,3.39-3.07.06-.11.17-.32.37-.27.19.04.21.26.22.39.01.13.02.32.02.55.03,1.44.1,4.42,1.89,7.06,1.33,1.96,2.68,2.89,3.76,3.64,1.13.79,2.03,1.41,2.35,2.79.22.93-.03,1.61-.8,2.22-.69.55-1.79,1.02-3.19,1.63-1.29.56-2.9,1.25-4.72,2.23-2.24,1.21-3.28,2.96-2.84,4.81.51,2.14,2.78,3.74,5.4,3.8,2.52.06,3.69-.92,4.73-1.8,1.01-.85,1.97-1.66,3.9-1.11,1.87.53,3.2,2.15,3.94,4.81.69,2.47.86,5.74.49,9.71-.7,7.61-2.48,15.53-2.5,15.61Z"/>
      <path d="M72.12,48.81l-.25-.32s4.68-3.59,9.31-7.32c2.72-2.19,4.9-4,6.48-5.4,2.56-2.25,3.03-2.93,3.08-3.14.38-1.58-.3-2-.33-2.02l.2-.36s.99.57.53,2.47c-.07.29-.48.95-3.21,3.35-1.59,1.4-3.78,3.22-6.5,5.41-4.63,3.73-9.27,7.29-9.31,7.32Z"/>
      <path d="M107.19,70.41c-3.56,0-8.96-.02-10.39-.11-1.04-.07-1.92-.65-2.54-1.68-1.01-1.68-1.19-4.37-.4-6.13,1.03-2.32,1.46-3.38.81-4.3-.33-.46-.6-.54-1.21-.7-.59-.16-1.41-.38-2.61-1.11-1.2-.72-2.23-1.93-3.06-3.6-.72-1.46-1.27-3.23-1.58-5.13-.31-1.92-.21-3.51-.06-4.5.16-1.07.41-1.84.54-2.04,1.08-1.68,3.21-2.87,4.7-3.37,1.7-.57,5.57-.6,10.34-.08,4.51.49,8.48,1.34,10.12,2.15.05.03.1.06.13.1.05.06,1.3,1.6.05,4.13-.26.52-.46.9-.62,1.21-.54,1.01-.55,1.03-.48,2.45.02.34.03.72.04,1.12.05,1.85.11,4.14.92,5.32.28.41,1.37.83,2.42,1.24,1.23.48,2.62,1.01,3.65,1.8,1.26.96,1.73,2.15,1.43,3.52-.71,3.17.74,6.98,1.28,8.42.07.2.13.35.17.46.05.14.15.45-.1.64-.12.09-.13.1-1.17.12-.58.01-1.39.02-2.41.03-2.04.02-4.76.03-7.45.04-.58,0-1.46,0-2.5,0ZM87.39,41.54c-.04.09-.28.7-.43,1.79-.13.92-.22,2.39.07,4.18.63,3.89,2.22,6.94,4.25,8.17,1.11.67,1.83.86,2.41,1.02.65.18,1.16.32,1.66,1.01.96,1.34.32,2.76-.73,5.11-.68,1.52-.52,3.93.35,5.38.48.8,1.12,1.23,1.89,1.28,1.21.08,5.9.12,12.56.11,5.1,0,9.16-.05,10.52-.08-.01-.03-.03-.07-.04-.1-.57-1.5-2.08-5.48-1.32-8.89.5-2.23-1.67-3.26-4.57-4.39-1.33-.51-2.37-.92-2.8-1.54-.94-1.37-1.01-3.8-1.06-5.76-.01-.39-.02-.76-.04-1.1-.08-1.6-.02-1.75.57-2.88.16-.3.36-.67.61-1.18.88-1.79.28-2.91.1-3.19-3.46-1.63-16.28-3.15-19.75-1.98-1.36.46-3.3,1.52-4.27,3.03ZM87.38,41.54s0,0,0,0h0s0,0,0,0Z"/>
      <path d="M78.3,15.83c-1.34,0-3.25-1.43-5.7-4.27-.04-.05-.08-.1-.11-.13-.08-.09-.49-.39-2.63-.65-.91-.11-1.79-.16-2.23-.18.37.56,1.52,2.01,2.6,3.31l-.31.26s-.72-.86-1.42-1.74c-1.48-1.85-1.44-1.96-1.38-2.1.03-.08.09-.13.17-.14.18-.03,1.43.04,2.59.17,2.48.29,2.81.67,2.92.79.03.04.07.08.11.13,3.22,3.73,4.87,4.28,5.68,4.09.49-.11.79-.31.9-.58.25-.6-.37-1.6-.92-2.47l-.1-.16c-.2-.32-.36-.57-.49-.77-.43-.67-.49-.77-.43-.93.02-.05.07-.13.18-.16.04-.01.1-.03,1.72.11.66.06,2,.18,3.54.36,5.21.59,5.57.92,5.69,1.03.27.24.43.44.54.58.18.22.24.29.5.33.53.08,1.6.09,1.61.09v.41s-1.11,0-1.68-.09c-.42-.07-.56-.24-.76-.48-.11-.14-.25-.31-.5-.53-.06-.06-.62-.37-5.36-.91-2.17-.25-4.31-.43-5.02-.48.07.11.17.27.29.46.13.2.29.46.49.78l.1.16c.6.96,1.28,2.05.96,2.85-.16.4-.56.68-1.18.82-.12.03-.25.04-.38.04Z"/>
      <path d="M106.32,32.12c-.2-.02-20.1-1.87-26.09-1.71-.05,0-.1,0-.15,0-3.78,0-6.58-3.68-7.89-10.38-.02-.1-.04-.21-.05-.23-.1-.37.1-.66.29-.94.31-.45.78-1.13.78-2.77,0-.46-.13-.8-.39-1.06-.7-.67-2.22-.61-3.12-.57-.34.01-.59.02-.76,0-.68-.11-1.73-1.35-3.42-3.6-.08-.1-.15-.2-.22-.29-.38-.5-.85-1.24-.53-1.87.26-.52.95-.76,2.16-.74,2.42.03,19.1,1.77,21.39,2.38,2.17.58,4.17,3.51,4.66,4.28l2.8.2-.06.82-3.01-.22c-.13,0-.25-.08-.32-.2-.02-.03-2.15-3.52-4.29-4.09-2.26-.61-18.79-2.32-21.19-2.35-1.23-.02-1.4.26-1.42.29-.02.04-.1.28.45,1.01.07.09.14.18.22.29.44.59,1.05,1.39,1.63,2.07.94,1.11,1.24,1.2,1.27,1.21.09.01.35,0,.6,0,1.04-.04,2.77-.12,3.72.8.43.41.65.96.65,1.65,0,1.9-.58,2.74-.93,3.23-.07.1-.15.22-.17.28.01.05.03.13.06.27.72,3.68,2.61,9.84,7.22,9.72,6.04-.16,25.99,1.7,26.19,1.71l-.08.81Z"/>
      <path d="M89.48,17.86s0,0-.01,0c-.03,0-2.64-.16-5.33-.38-5.48-.45-5.9-.72-6.04-.81-.9-.59-.92-1.31-.93-1.34h.41s.03.54.74,1c.56.37,7.12.88,11.14,1.12.15-.04.98-.33.97-1.65-.02-1.52-1.23-2.85-1.24-2.87l.3-.28c.05.06,1.32,1.46,1.35,3.14.01.91-.34,1.42-.64,1.69-.33.3-.67.37-.68.37-.01,0-.03,0-.04,0Z"/>
      <path d="M74.65,22.31c-.05,0-.1-.02-.14-.06-.04-.04-.06-.09-.06-.15v-1.39s.01-.08.04-.12c.01-.01,1.01-1.47,1.22-1.83.11-.26.11-2.34.04-4.21l.41-.02s.04,1,.05,2.03c.02,2.12-.09,2.31-.14,2.4-.19.33-1.01,1.53-1.2,1.81v1.11c.75-.04,1.53-.09,1.82-.14v-1.52s.01-.08.03-.11l.9-1.46.15-2.36.41.03-.16,2.41s-.01.07-.03.09l-.9,1.46v1.61c0,.22-.23.25-.53.28-.19.02-.45.04-.78.07-.55.04-1.11.06-1.12.06,0,0,0,0,0,0Z"/>
      <path d="M81.18,30.14s-1.58-1.54-3.12-3.05c-.91-.89-1.63-1.59-2.14-2.1-.31-.3-.54-.54-.71-.7-.09-.09-.15-.15-.2-.2-.08-.09-.16-.16-.12-.28,0-.17-.05-1.05-.1-1.83l.41-.03s.04.47.07.94c.03.51.04.77.04.91.48.49,3.87,3.81,6.16,6.04l-.29.29ZM75.09,23.67c-.1,0-.16.07-.19.13l.19-.13Z"/>
      <path d="M90.6,15.83c-3.71-.49-10.77-1.43-10.91-1.45l.02-.2h0s-.15-.14-.15-.14c.07-.08.12-.07.3-.05.08.01.2.03.35.05.3.04.73.1,1.24.16,1.02.14,2.39.32,3.75.5,2.73.36,5.46.73,5.46.73l-.05.41Z"/>
      <path d="M103.46,31.55c-.28-.67-2.05-1.97-3.77-3.24-1.94-1.42-3.94-2.9-4.39-3.86-.59-1.25-.35-1.63.18-2.46.27-.43.65-1.02,1.05-1.96.32-.76.35-1.44.09-2.02-.4-.88-1.36-1.28-1.52-1.34l-4.5-.38.03-.41,4.53.38s.03,0,.05,0c.05.02,1.28.44,1.78,1.56.31.69.28,1.48-.09,2.35-.41.97-.8,1.58-1.08,2.02-.5.79-.65,1.02-.16,2.07.41.87,2.45,2.37,4.26,3.7,1.92,1.41,3.58,2.63,3.9,3.41l-.38.16Z"/>
      <path d="M100.8,29.14c-1.97-1.89-3.41-5.91-3.47-6.08-.02-.05-.02-.1,0-.15l.93-2.23c.86-2.07-.16-3.27-.21-3.32l.3-.27c.05.06,1.25,1.42.28,3.75l-.9,2.16c.21.56,1.58,4.16,3.34,5.84l-.28.3Z"/>
      <path d="M93.54,20.09c-.11,0-.3-.02-.68-.05-.41-.04-1.01-.09-1.79-.17-1.31-.13-3.13-.31-5.41-.54-3.88-.39-7.81-.79-7.85-.8l.04-.41c4.13.42,14.77,1.5,15.65,1.55,0,0,0,0,0,0,.17-.1.67-.41.72-.98.05-.56-.61-.77-.7-.79l-3.42-.43.05-.41,3.44.44s.02,0,.02,0c.38.09,1.08.47,1.02,1.22-.06.77-.7,1.17-.91,1.3-.01,0-.02.01-.03.02-.03.03-.06.05-.16.05ZM93.71,20.03s0,0,0,0c0,0,0,0,0,0ZM93.42,19.74s0,0,0,0c0,0,0,0,0,0Z"/>
      <rect x="89.65" y="18.27" width="2.32" height=".41" transform="translate(58.29 105.25) rotate(-80.95)"/>
      <path d="M87.31,24.82s-.01,0-.02,0l-8.05-.83c-.1-.01-.18-.1-.18-.2v-1.51l-1.02-.87s-.07-.1-.07-.16l.1-2.87h.41s-.1,2.79-.1,2.79l1.02.86s.07.1.07.16v1.42l7.66.79.1-1.41c0-.05.03-.1.07-.14.4-.37,1.47-1.35,1.64-1.53.08-.17.1-1.07.09-1.82h.41s.01.44,0,.91c-.02.93-.11,1.1-.18,1.19-.16.18-1.33,1.25-1.62,1.51l-.11,1.54c0,.06-.03.11-.07.14-.04.03-.08.05-.13.05Z"/>
      <path d="M96.45,31.03c-4.51-4.06-9.12-7.84-9.16-7.88l.26-.32s4.67,3.83,9.18,7.89l-.27.3Z"/>
      <rect x="82.13" y="22.52" width=".41" height="8.81" transform="translate(3.99 63.89) rotate(-43.37)"/>
      <path d="M90.55,55.92c-1.07-1.51-1.12-6.08-1.14-9.1,0-.98-.02-1.75-.06-2.1-.17-1.32-2.11-3.65-2.13-3.67l.31-.26c.08.1,2.04,2.45,2.22,3.88.05.37.05,1.15.06,2.14.03,2.79.07,7.47,1.07,8.87l-.33.24Z"/>
      <path d="M99.43,69.97l-.41-.02c.08-1.97-.19-2.4-.51-2.9-.19-.29-.4-.63-.55-1.26-.27-1.14.16-2.01.7-3.11.3-.61.65-1.3.92-2.15.7-2.17-3.13-3.93-3.17-3.95-.07-.03-.12-.11-.12-.19.12-5.69-1.48-10.16-2.84-12.9-1.47-2.97-2.99-4.61-3.01-4.63l.3-.28c.06.07,1.57,1.7,3.07,4.73.88,1.77,1.57,3.66,2.05,5.6.59,2.38.87,4.86.83,7.36.3.15,1.1.57,1.85,1.18,1.27,1.04,1.76,2.15,1.41,3.21-.29.88-.64,1.58-.94,2.2-.53,1.06-.91,1.83-.67,2.83.14.57.32.86.5,1.14.34.54.66,1.04.57,3.14Z"/>
      <path d="M96.51,56.2l-2.39-.1c-.11,0-.19-.09-.2-.2-.1-5.72-2.27-10.38-2.65-11.17l-1.61.1-.03-.41,1.74-.11c.08,0,.16.04.19.11.03.05.67,1.29,1.34,3.33.6,1.85,1.33,4.71,1.42,7.95l2.2.09-.02.41Z"/>
      <rect x="92" y="55.98" width="2.24" height=".41" transform="translate(-13.59 35.18) rotate(-19.97)"/>
      <path d="M101.96,70.01c-.05-3.05-.28-6.08-.69-9l.41-.06c.41,2.94.64,5.98.69,9.05h-.41Z"/>
      <path d="M101.04,59.48c-1.19-7.3-3.32-12.8-4.9-16.13-1.71-3.61-3.16-5.51-3.18-5.53l.32-.25s1.49,1.95,3.22,5.59c1.59,3.35,3.75,8.9,4.95,16.26l-.4.07Z"/>
      <path d="M106.43,39.97s0,0,0,0l-11.03-.35c-.1,0-.19-.08-.2-.19l-.16-1.72.41-.04.14,1.54,10.64.34v-.83h.41v1.05c0,.06-.02.11-.06.15-.04.04-.09.06-.14.06Z"/>
      <path d="M106.04,38.81l-.26-.32,1.28-1.03-9.57-1.2-2.69,1.62-.21-.35,2.75-1.65s.09-.03.13-.03l10.12,1.26c.08.01.15.07.17.15.02.08,0,.16-.07.22l-1.66,1.33Z"/>
      <path d="M82.46,42.98l-.26-.32c.36-.29,8.78-7.11,10.29-7.75l.16.38c-1.45.62-10.1,7.63-10.19,7.7Z"/>
      <path d="M113.85,36.42c-.1-.07-.69-.26-4.12-.61-2.12-.21-4.54-.4-5.98-.51-1.34-.11-1.34-.11-1.39-.13l.15-.38s-.03,0-.03-.01c.07.01.61.05,1.31.11,1.47.11,3.92.31,6.05.52,3.95.39,4.18.6,4.29.7l-.27.3s0,0,0,0Z"/>
      <path d="M114.13,55.92s-.57-.81-1.8-2.99c-.88-1.57.12-5.2.85-7.85.29-1.05.56-2.05.52-2.28-.11-.59-1.14-.77-1.52-.79l.02-.41c.07,0,1.7.1,1.9,1.12.06.31-.14,1.06-.52,2.47-.67,2.44-1.68,6.13-.89,7.55,1.22,2.16,1.77,2.95,1.78,2.96l-.33.24Z"/>
      <path d="M116.82,50.1h-2.67c-.06,0-.12-.03-.16-.07-.04-.05-.05-.11-.04-.17.23-1.21,1.02-5.18,1.27-5.54.3-.43,1.29-.24,1.59-.17l-.09.4s0,0,0,0h0c-.47-.11-1.06-.13-1.16,0-.15.24-.7,2.78-1.16,5.14h2.42v.41Z"/>
      <path d="M109.17,70.01h-.41c.09-3.21.04-6.26-.16-9.07l.41-.03c.2,2.82.25,5.88.16,9.1Z"/>
      <path d="M108.48,59.37c-.74-8.22-2.65-13.11-4.12-15.77-1.59-2.87-3.02-3.81-3.03-3.82l.22-.34c.06.04,1.51.99,3.15,3.93.95,1.71,1.78,3.76,2.44,6.08.83,2.89,1.42,6.22,1.75,9.89l-.41.04Z"/>
      <path d="M67.54,85.5l-.2-.36c1.9-1.05,6.81-4.2,6.72-6.12-.11-2.04-.3-5.84,1.24-9.11.38-.8.68-1.55.95-2.21.59-1.45.97-2.41,1.62-2.65.26-.09.55-.06.86.11,1.38.75,2.2,2.08,2.23,2.14l-.35.21s-.8-1.29-2.08-1.99c-.2-.11-.37-.14-.52-.08-.48.17-.87,1.16-1.38,2.41-.27.67-.57,1.42-.95,2.23-1.5,3.17-1.3,6.91-1.2,8.91.06,1.1-1.1,2.53-3.45,4.25-1.71,1.26-3.46,2.23-3.48,2.24Z"/>
      <path d="M65.13,47.24l-.13-.39s.59-.22,1.07-1.12c.45-.84.89-2.47.43-5.42-.8-5.15-4.24-6.58-5.37-7.05-.15-.06-.26-.11-.33-.15-.02,0-.03,0-.03,0,0,0-.17.08-.31.86-.08.46-.1.91-.1.91l-.41-.02c.02-.42.13-1.83.62-2.1.13-.07.28-.07.42,0,.06.03.16.07.29.13,1.18.49,4.78,1.99,5.62,7.37.39,2.49.22,4.41-.5,5.72-.56,1.01-1.25,1.26-1.28,1.27Z"/>
      <path d="M56.25,27.99l-.39-.12c.5-1.68.38-3.61-.34-5.43-.64-1.62-1.72-3.01-2.87-3.71-.92-.56-2.01-.7-3.24-.4-.93.22-1.59.62-1.6.63l-.21-.35s.72-.43,1.71-.67c1.32-.32,2.56-.16,3.56.45,1.23.75,2.36,2.21,3.04,3.91.76,1.91.88,3.93.35,5.7Z"/>
      <path d="M65.77,29.95l-.4-.07c.49-2.95.22-4.86-.1-5.95-.35-1.17-.81-1.65-.82-1.65l.29-.29s.53.53.91,1.78c.34,1.13.64,3.11.13,6.17Z"/>
      <path d="M63.27,28.56c-.54,0-6.67-.84-6.93-.88l.06-.41c1.73.24,6.25.85,6.84.87.05-.07.25-.41.41-2.04.09-.94.13-1.83.13-2.13-.17-.08-.91-.29-4.04-.61-1.88-.19-3.72-.33-3.74-.33l.03-.41s2.01.15,3.98.36c1.16.12,2.08.24,2.75.35,1.21.2,1.41.33,1.42.56.01.22-.1,3.97-.66,4.56-.09.1-.19.12-.25.12Z"/>
      <path d="M84.53,71.77c-.18,0-.37-.03-.55-.09-.45-.15-.83-.48-1.09-.91-.52-.91-.29-2.02.51-2.49.39-.23.86-.27,1.32-.11.45.15.83.48,1.09.91.25.43.34.93.25,1.4-.09.48-.36.86-.76,1.09-.24.14-.5.21-.77.21ZM84.18,68.48c-.2,0-.39.05-.57.15h0c-.61.35-.77,1.22-.36,1.93.2.35.51.61.86.73.35.12.7.09.99-.08.29-.17.49-.46.56-.82.07-.37,0-.76-.2-1.11-.2-.35-.51-.61-.86-.73-.14-.05-.28-.07-.42-.07Z"/>
      <path d="M58.46,15.1c-.46,0-.98-.27-1.39-.75-.28-.34-.46-.73-.5-1.1-.05-.41.07-.75.33-.96.26-.21.61-.27,1.01-.15.36.11.72.35,1,.69.61.73.69,1.64.17,2.07-.17.14-.39.21-.62.21ZM57.52,12.47c-.14,0-.26.04-.35.12-.15.12-.21.34-.18.6.03.3.18.61.41.89.45.54,1.1.76,1.43.49.33-.27.22-.95-.23-1.49-.23-.28-.51-.48-.8-.56-.1-.03-.19-.04-.27-.04Z"/>
      <path d="M110.31,46.62c-.69-3.3-4.05-6.83-4.09-6.87l.3-.28c.14.15,3.48,3.65,4.19,7.07l-.4.08Z"/>
      <path d="M118.13,69.99l-.4-.07c.15-.9-.03-1.16-.33-1.59-.28-.4-.66-.94-.89-2.17-.25-1.33.03-1.84.38-2.49.33-.61.74-1.36.83-3.2.08-1.48-.74-2.79-2.43-3.89-1.28-.84-2.6-1.22-2.61-1.23l.11-.39c.06.02,1.39.41,2.72,1.28,1.79,1.17,2.7,2.64,2.62,4.25-.1,1.93-.53,2.73-.88,3.37-.34.62-.56,1.03-.34,2.22.21,1.15.55,1.63.82,2.02.32.46.58.83.4,1.89Z"/>
      <path d="M99.65,61.19v-.41s16.01-.11,16.01-.11l-.06-1.21-15.79.21v-.41s15.98-.21,15.98-.21c0,0,0,0,0,0,.11,0,.2.09.2.19l.09,1.62c0,.06-.02.11-.06.15-.04.04-.09.06-.15.06l-16.23.11Z"/>
      <path d="M90.25,98.6c-.94,0-1.87-.35-2.78-.7-.36-.14-.7-.27-1.05-.38-1.33-.42-5.18-2.67-8.6-5.23-3.14-2.36-7.04-5.78-7.76-8.7l.4-.1c.54,2.19,3.24,5.2,7.61,8.47,3.7,2.77,7.36,4.81,8.48,5.16.35.11.72.25,1.07.38,1.05.4,2.13.81,3.16.63,1.16-.21,2.12-1.17,2.95-2.95.91-1.94,1.67-5.12,1.95-8.1.33-3.54-.04-6.39-1.03-8.02-.62-1.03-1.5-1.58-2.6-1.63-2.84-.13-5.48.08-7.64.6-2.16.52-3.78,1.34-4.68,2.36-.82.94-2.22,1.39-4.06,1.3-1.37-.07-2.48-.4-2.52-.42l.12-.39s4.37,1.29,6.16-.76c.95-1.09,2.64-1.95,4.89-2.49,2.19-.53,4.88-.74,7.76-.61,1.25.06,2.23.67,2.93,1.82,1.03,1.71,1.42,4.64,1.08,8.27-.28,3.02-1.06,6.25-1.98,8.23-.89,1.91-1.95,2.95-3.25,3.18-.2.04-.4.05-.6.05Z"/>
      <path d="M81.31,89.67c-.2,0-.79-.09-3.06-2.85-1.19-1.45-2.3-2.97-2.5-3.34-.44-.78.08-2,.1-2.05l.38.16s-.46,1.08-.12,1.69c.18.32,1.25,1.8,2.46,3.28,2.1,2.56,2.66,2.7,2.75,2.7,0,0,0,0,0,0,1.15-.02,1.88-.2,2.02-.38.05-.41-.66-3.39-1.36-6.02-.02-.06,0-.12.03-.17.04-.05.09-.08.15-.09.82-.06,1.73-.14,2.07-.19-.02-.36-.05-1.2-.1-2.52l-2.4.1s-.03,0-.05,0c-.31-.06-1.22-.17-1.61.03l-.19-.36c.56-.29,1.64-.12,1.85-.08l2.59-.11c.05,0,.11.02.15.05.04.04.06.09.07.14.04,1.08.1,2.73.11,2.86,0,.06,0,.11-.04.16-.07.09-.09.12-1.3.23-.33.03-.65.05-.87.07.12.48.42,1.59.69,2.72.74,3.08.64,3.25.57,3.36-.3.49-1.62.58-2.37.59,0,0-.01,0-.02,0ZM84.25,82.57s0,.02,0,.04c0,0,0-.02,0-.04ZM84.66,82.53s0,0,0,0c0,0,0,0,0,0ZM76.22,81.59l-.19-.08.19.08s0,0,0,0h0Z"/>
      <rect x="80.37" y="80.56" width=".41" height="9.26" transform="translate(-26.46 37.3) rotate(-22.49)"/>
      <rect x="79.93" y="83.06" width="2.34" height=".41" transform="translate(-12.06 13.76) rotate(-9.03)"/>
      <path d="M80.87,82.26c-.6,0-1.09-.49-1.09-1.09s.49-1.09,1.09-1.09,1.09.49,1.09,1.09-.49,1.09-1.09,1.09ZM80.87,80.48c-.38,0-.68.31-.68.69s.31.69.68.69.68-.31.68-.69-.31-.69-.68-.69Z"/>
      <rect x="86.75" y="87.63" width=".41" height="11.84" transform="translate(-38.02 67.18) rotate(-35.18)"/>
      <path d="M66.37,84.07l-.22-.35s4.41-2.76,5.4-4.79c.7-1.44.58-2.81.44-4.54-.06-.75-.13-1.53-.14-2.41-.02-1.48.36-2.13.89-3.03.55-.94,1.31-2.24,2.03-5.21,1.07-4.41-2.42-7.05-4.73-8.8-.68-.51-1.26-.95-1.63-1.36-1.63-1.8-1.89-8.75-1.9-9.05h.41c0,.06.26,7.09,1.79,8.77.34.37.91.8,1.57,1.3,2.39,1.81,6.01,4.55,4.88,9.22-.73,3.04-1.51,4.36-2.07,5.33-.53.91-.85,1.45-.83,2.82,0,.87.07,1.64.14,2.38.14,1.73.27,3.22-.48,4.75-1.04,2.14-5.37,4.85-5.55,4.96Z"/>
      <path d="M52.73,131.86c-7.13,0-14.04-1.63-20.55-4.83-3.13-1.54-6.14-3.45-8.96-5.66-2.79-2.2-5.42-4.72-7.8-7.5-2.38-2.78-4.55-5.83-6.43-9.08-1.9-3.28-3.54-6.78-4.85-10.42-2.74-7.56-4.14-15.58-4.14-23.86,0-6.73.93-13.34,2.76-19.65,1.77-6.11,4.36-11.83,7.69-17.02,3.29-5.13,7.23-9.61,11.72-13.33,4.54-3.77,9.54-6.65,14.84-8.58l.28.77C15.48,20.63.82,43.86.82,70.52c0,33.37,23.29,60.52,51.91,60.52,18.43,0,35.64-11.56,44.92-30.16l.73.37c-4.55,9.14-11.1,16.8-18.92,22.16-3.96,2.72-8.22,4.82-12.64,6.24-4.56,1.47-9.3,2.21-14.08,2.21Z"/>
      <path d="M46.32,131.41l-.02-.82c17.38-.38,28.17-8.58,34.16-15.39,3.39-3.86,5.64-7.69,6.93-10.22,1.39-2.74,1.99-4.58,2-4.6l.78.25c-.02.08-.62,1.92-2.05,4.72-1.31,2.58-3.6,6.47-7.05,10.39-3.88,4.41-8.41,7.96-13.47,10.54-6.32,3.23-13.48,4.95-21.28,5.12Z"/>
      <path d="M33.86,83.7c-2.68,0-5.2-1.3-7.09-3.65-1.88-2.34-2.91-5.45-2.91-8.75s1.03-6.41,2.91-8.75c1.89-2.35,4.41-3.65,7.09-3.65s5.2,1.3,7.09,3.65c1.88,2.34,2.91,5.45,2.91,8.75s-1.03,6.41-2.91,8.75c-1.89,2.35-4.41,3.65-7.09,3.65ZM33.86,59.31c-5.29,0-9.59,5.38-9.59,11.99s4.3,11.99,9.59,11.99,9.59-5.38,9.59-11.99-4.3-11.99-9.59-11.99Z"/>
      <path d="M40.68,105.93c-3.86,0-7.6-.93-11.12-2.77-3.39-1.77-6.44-4.31-9.05-7.54-2.61-3.22-4.66-6.97-6.09-11.15-1.48-4.32-2.23-8.9-2.23-13.63s.75-9.31,2.23-13.63c1.43-4.17,3.48-7.92,6.09-11.15,2.61-3.23,5.66-5.76,9.05-7.54,3.52-1.84,7.26-2.77,11.12-2.77s7.63.94,11.17,2.8l-.38.72c-3.42-1.79-7.05-2.71-10.79-2.71-15.25,0-27.66,15.37-27.66,34.26s12.41,34.26,27.66,34.26c10.89,0,20.81-7.96,25.26-20.28l.77.28c-2.21,6.1-5.77,11.29-10.3,14.99-4.66,3.81-10.1,5.83-15.73,5.83Z"/>
      <path d="M34.4,100.02c-3.03,0-5.98-.76-8.75-2.26-2.67-1.44-5.06-3.5-7.11-6.13-2.05-2.62-3.65-5.66-4.77-9.05-1.16-3.5-1.75-7.22-1.75-11.06s.59-7.56,1.75-11.06c1.12-3.39,2.73-6.43,4.77-9.05,2.05-2.62,4.45-4.68,7.11-6.13,2.77-1.5,5.71-2.26,8.75-2.26s5.98.76,8.75,2.26c2.67,1.44,5.06,3.5,7.11,6.13,2.05,2.62,3.65,5.66,4.77,9.05,1.16,3.5,1.75,7.22,1.75,11.06s-.59,7.56-1.75,11.06c-1.12,3.39-2.73,6.43-4.77,9.05-2.05,2.62-4.45,4.68-7.11,6.13-2.77,1.5-5.71,2.26-8.75,2.26ZM34.4,43.86c-5.74,0-11.14,2.87-15.21,8.07-4.09,5.23-6.35,12.19-6.35,19.6s2.25,14.37,6.35,19.6c4.07,5.2,9.47,8.07,15.21,8.07s11.14-2.87,15.21-8.07c4.09-5.23,6.35-12.19,6.35-19.6s-2.25-14.37-6.35-19.6c-4.07-5.2-9.47-8.07-15.21-8.07Z"/>
      <path d="M30.48,54.63c-1.33,0-2.41-1.41-2.41-3.13s1.08-3.13,2.41-3.13,2.41,1.41,2.41,3.13-1.08,3.13-2.41,3.13ZM30.48,48.78c-1.11,0-2,1.22-2,2.72s.9,2.72,2,2.72,2-1.22,2-2.72-.9-2.72-2-2.72Z"/>
      <path d="M31.36,54.35c-.91-.31-1.55-1.39-1.55-2.64,0-.71.2-1.38.57-1.89.38-.53.89-.83,1.45-.84v.41c-.88.02-1.61,1.06-1.61,2.32,0,1.06.53,2.01,1.27,2.26l-.13.39Z"/>
      <path d="M47.59,64.79c-1.33,0-2.41-1.41-2.41-3.13s1.08-3.13,2.41-3.13,2.41,1.41,2.41,3.13-1.08,3.13-2.41,3.13ZM47.59,58.93c-1.11,0-2,1.22-2,2.72s.9,2.72,2,2.72,2-1.22,2-2.72-.9-2.72-2-2.72Z"/>
      <path d="M48.47,64.5c-.91-.31-1.55-1.39-1.55-2.64,0-.71.2-1.38.57-1.89.38-.53.89-.83,1.45-.84v.41c-.88.02-1.61,1.06-1.61,2.32,0,1.06.53,2.01,1.27,2.26l-.13.39Z"/>
      <path d="M44.38,89.14c-1.33,0-2.41-1.41-2.41-3.13s1.08-3.13,2.41-3.13,2.41,1.41,2.41,3.13-1.08,3.13-2.41,3.13ZM44.38,83.29c-1.11,0-2,1.22-2,2.72s.9,2.72,2,2.72,2-1.22,2-2.72-.9-2.72-2-2.72Z"/>
      <path d="M45.25,88.86c-.91-.31-1.55-1.39-1.55-2.64,0-.71.2-1.38.57-1.89.38-.53.89-.83,1.45-.84v.41c-.88.02-1.61,1.06-1.61,2.32,0,1.06.53,2.01,1.27,2.26l-.13.39Z"/>
      <path d="M36.07,94.13c-1.33,0-2.41-1.41-2.41-3.13s1.08-3.13,2.41-3.13,2.41,1.41,2.41,3.13-1.08,3.13-2.41,3.13ZM36.07,88.27c-1.11,0-2,1.22-2,2.72s.9,2.72,2,2.72,2-1.22,2-2.72-.9-2.72-2-2.72Z"/>
      <path d="M36.94,93.84c-.91-.31-1.55-1.39-1.55-2.64,0-.71.2-1.38.57-1.89.38-.53.89-.83,1.45-.84v.41c-.88.02-1.61,1.06-1.61,2.32,0,1.06.53,2.01,1.27,2.26l-.13.39Z"/>
      <path d="M25.86,92.07c-1.33,0-2.41-1.41-2.41-3.13s1.08-3.13,2.41-3.13,2.41,1.41,2.41,3.13-1.08,3.13-2.41,3.13ZM25.86,86.22c-1.11,0-2,1.22-2,2.72s.9,2.72,2,2.72,2-1.22,2-2.72-.9-2.72-2-2.72Z"/>
      <path d="M26.73,91.79c-.91-.31-1.55-1.39-1.55-2.64,0-.71.2-1.38.57-1.89.38-.53.89-.83,1.45-.84v.41c-.88.02-1.61,1.06-1.61,2.32,0,1.06.53,2.01,1.27,2.26l-.13.39Z"/>
      <path d="M17.99,71.73c-1.33,0-2.41-1.41-2.41-3.13s1.08-3.13,2.41-3.13,2.41,1.41,2.41,3.13-1.08,3.13-2.41,3.13ZM17.99,65.88c-1.11,0-2,1.22-2,2.72s.9,2.72,2,2.72,2-1.22,2-2.72-.9-2.72-2-2.72Z"/>
      <path d="M18.86,71.45c-.91-.31-1.55-1.39-1.55-2.64,0-.71.2-1.38.57-1.89.38-.53.89-.83,1.45-.84v.41c-.88.02-1.61,1.06-1.61,2.32,0,1.06.53,2.01,1.27,2.26l-.13.39Z"/>
      <path d="M34.66,82.42c-2.47,0-4.78-1.18-6.52-3.32-1.73-2.13-2.68-4.96-2.68-7.97s.95-5.84,2.68-7.97c1.74-2.14,4.05-3.32,6.52-3.32s4.78,1.18,6.52,3.32c1.73,2.13,2.68,4.96,2.68,7.97s-.95,5.84-2.68,7.97c-1.74,2.14-4.05,3.32-6.52,3.32ZM34.66,60.24c-4.85,0-8.79,4.88-8.79,10.89s3.94,10.89,8.79,10.89,8.79-4.88,8.79-10.89-3.94-10.89-8.79-10.89Z"/>
      <path d="M38.77,112.59c-.41,0-.67,0-.72,0-.12,0-.24-.06-.31-.16-.08-.1-.1-.22-.07-.34,0-.02.38-1.67-.39-2.89-.38-.61-1-1.01-1.83-1.2-1.31-.29-2.53-.19-3.63.32-.82.38-1.26.86-1.26.86-.14.15-.38.18-.54.06l-8.95-6.49c-.14-.1-.2-.28-.15-.44.04-.14.16-.25.3-.29.06-.03.42-.3.81-1.62.49-1.63-1.73-4.19-3.51-5.41-.65-.45-1.26-.62-1.74-.49-.34.09-.52.29-.54.32-.08.11-.21.17-.34.16-.14,0-.26-.09-.33-.2-1.91-3.22-3.19-6.43-3.92-8.57-.79-2.31-1.13-3.85-1.14-3.91-.03-.13,0-.27.09-.37.09-.1.22-.15.35-.13.06,0,.77.04,1.36-.75.47-.63.03-2.5-.36-4.15-.14-.59-.28-1.2-.39-1.78-.16-.81-.44-1.37-.82-1.61-.27-.17-.52-.13-.55-.12-.12.04-.24.02-.35-.05-.11-.07-.16-.19-.17-.32-.27-4.92.11-8.43.48-10.51.4-2.28.86-3.37.88-3.42.06-.14.18-.24.33-.25.15-.01.29.05.37.17.03.04.36.4,1.08.39.21-.05,1.1-.52,1.24-.62,0,0,0,0,0,0l.51.64c-.08.06-1.29.78-1.71.79-.55.01-.96-.13-1.24-.29-.17.52-.42,1.44-.65,2.77-.34,1.97-.7,5.27-.48,9.87.2.02.44.08.69.23.6.36,1.01,1.09,1.22,2.17.11.57.25,1.17.39,1.76.49,2.09.91,3.89.22,4.82-.51.69-1.12.95-1.55,1.04.38,1.49,1.75,6.42,4.62,11.37.13-.08.29-.16.48-.22.52-.15,1.37-.18,2.48.59,1.97,1.35,4.46,4.21,3.83,6.32-.27.92-.57,1.46-.82,1.77l8.24,5.97c.24-.21.65-.52,1.22-.78.87-.41,2.31-.82,4.19-.4,1.06.24,1.85.76,2.35,1.57.66,1.06.64,2.32.57,3,1.7,0,7.61-.07,11.5-1.24-.11-.45-.25-1.23-.16-2.13.13-1.3.76-3.09,3.05-4.24,1.33-.67,2.55-.78,3.63-.34,1.2.48,1.93,1.53,2.29,2.21l8.9-10.6c-.51-.69-1.71-2.58-1.39-4.62.21-1.37,1.06-2.53,2.53-3.45l.43.69c-1.25.78-1.98,1.75-2.15,2.88-.33,2.14,1.4,4.22,1.42,4.24.13.15.13.38,0,.53l-9.52,11.35c-.09.11-.24.17-.39.14-.14-.03-.26-.13-.31-.27,0-.02-.64-1.76-2.11-2.34-.86-.34-1.85-.24-2.95.32-1.57.79-2.45,2-2.61,3.59-.12,1.2.23,2.17.23,2.18.04.1.03.22-.02.32-.05.1-.13.18-.24.21-3.88,1.28-9.84,1.4-11.9,1.4ZM21.26,102.02s0,0,0,0c0,0,0,0,0,0Z"/>
      <path d="M15.78,53.81c-.06-.57-1.24-1.56-2.06-2.09-.16-.1-.23-.31-.16-.49.77-2.08,2.2-4.57,4.24-7.4,1.51-2.1,2.82-3.62,2.83-3.63.1-.12.26-.17.41-.13.15.04.26.15.3.31.02.06.27.91,1.53,1.35.22.08.67.03,1.58-.61.72-.51,1.52-1.24,2.21-1.88.75-.69,1.4-1.29,1.86-1.52.06-.03.06-.05.07-.06,0-.04,0-.39-.89-1.29-.51-.51-1.03-.93-1.04-.93-.11-.08-.16-.21-.16-.35,0-.13.08-.26.19-.33,3.19-1.96,6.33-3.09,8.4-3.7,2.25-.66,3.72-.86,3.79-.87.13-.02.26.03.35.12.09.09.13.22.11.35,0,.03-.47,3.34,1.65,3.91,2.18.58,3.2-.87,3.25-.94l.68.45s-.35.53-1.04.93c-.62.37-1.67.73-3.1.34-1.19-.32-1.96-1.27-2.22-2.76-.1-.58-.1-1.13-.08-1.51-.61.11-1.74.34-3.17.76-1.91.56-4.76,1.59-7.69,3.32.19.17.43.38.66.62.82.82,1.17,1.44,1.12,1.95-.03.31-.21.56-.51.71-.36.18-1,.77-1.68,1.39-1.58,1.45-3.37,3.1-4.62,2.66-.95-.33-1.47-.86-1.75-1.28-1.21,1.47-4.85,6.06-6.41,10,.22.15.53.38.85.66.82.71,1.25,1.31,1.3,1.85l-.81.08Z"/>
      <path d="M68.26,92.4c-.86,0-1.55-.72-1.55-1.61s.7-1.61,1.55-1.61,1.55.72,1.55,1.61-.7,1.61-1.55,1.61ZM68.26,89.6c-.63,0-1.14.54-1.14,1.2s.51,1.2,1.14,1.2,1.14-.54,1.14-1.2-.51-1.2-1.14-1.2Z"/>
      <path d="M56.42,130.03c-.11,0-.2-.08-.2-.19,0-.11.07-.21.19-.22.02,0,.57-.05,1.46-.14,8-1,15.1-5.68,19.76-9.56,5.36-4.46,8.72-8.83,8.75-8.88.04-.06.12-.09.19-.08.66.09,1.33.12,1.52.05-.03-.14-.26-.52-.82-1.14-.12-.13-.05-.28.13-.63.12-.22.3-.54.53-.95.4-.68.97-1.61,1.69-2.76,1.23-1.97,2.5-3.94,2.51-3.96.04-.06.11-.1.19-.09,1.16.08,2.92.2,3.01.21.06,0,.13.03.16.09.04.05.05.12.03.19-.01.04-1.3,3.73-4.64,8.6-1.96,2.86-4.24,5.56-6.78,8.02-3.17,3.08-6.74,5.81-10.62,8.1l-.21-.35c8.72-5.15,14.2-11.54,17.26-15.99,2.82-4.1,4.16-7.36,4.51-8.27-.58-.04-1.9-.13-2.63-.18-1.76,2.74-4.49,7.07-4.77,7.78.6.66.89,1.14.86,1.41,0,.1-.05.18-.13.24-.28.22-1.24.12-1.75.06-.52.67-3.79,4.72-8.74,8.85-3.17,2.64-6.4,4.78-9.61,6.39-1.95.97-3.9,1.75-5.82,2.31,3.55-.49,7.77-1.22,10.02-2.2l.16.38c-3.55,1.53-11.57,2.46-14.82,2.78-.46.06-.93.1-1.39.13,0,0,0,0-.01,0Z"/>
      <rect x="87.51" y="108.89" width="4.34" height=".41" transform="translate(-15.5 14.85) rotate(-8.72)"/>
      <rect x="88.25" y="110.86" width="2.12" height=".41" transform="translate(-10.76 9.59) rotate(-5.8)"/>
      <rect x="80.9" y="116.87" width="4.62" height=".41" transform="translate(-9.58 7.44) rotate(-4.84)"/>
      <rect x="81.56" y="116.35" width=".41" height="4.27" transform="translate(-37.89 198.53) rotate(-89.18)"/>
      <path d="M44.75,113.26c-.91,0-1.71-.04-2.38-.1-2.2-.19-3.51-.57-3.56-.59l.23-.78s0,0,0,0h0s1.31.38,3.44.56c1.97.16,5.08.19,8.72-.62,6.43-1.43,15.79-5.81,23.85-18.53l.69.44c-3.63,5.73-7.82,10.29-12.46,13.55-3.72,2.62-7.74,4.42-11.94,5.35-2.5.55-4.75.72-6.58.72Z"/>
      <path d="M42.43,34.3c-1.1,0-1.99-.9-1.99-2,0-.94.66-1.76,1.57-1.96l.09.4c-.72.16-1.25.81-1.25,1.56,0,.88.71,1.59,1.58,1.59.53,0,1.03-.27,1.32-.72l.34.22c-.37.56-.99.9-1.66.9Z"/>
      <path d="M125.26,88.55c-.23,0-.45-.04-.61-.13-.28-.17-2.85-2.8-4.35-4.34l.59-.57c1.46,1.5,3.84,3.92,4.19,4.21.23.06,1.22-.03,1.65-.63.01-.01.24-.37-.31-2.23-.29-1.01-.67-1.93-.67-1.94-.04-.1-.04-.22,0-.32.04-.1.13-.18.23-.22,0,0,.55-.21,1.04-.65.61-.54.86-1.16.74-1.86-.06-.36-.23-.48-.35-.53-.64-.31-2.05.23-2.8.64-.11.06-.24.07-.35.02-.11-.05-.2-.14-.24-.26l-.8-2.66.78-.23.66,2.2c.74-.34,2.17-.88,3.1-.44.3.14.68.46.8,1.13.17.99-.18,1.9-1.02,2.63-.32.28-.65.48-.9.61.14.37.36.99.55,1.65.59,2.01.41,2.62.19,2.93-.31.43-.82.75-1.44.9-.2.05-.45.09-.69.09Z"/>
      <path d="M125.44,82.64c-.42,0-.86-.05-1.25-.21-.54-.22-.94-1.07-1.24-2.62-.21-1.09-.29-2.15-.29-2.16l.41-.03c.11,1.56.56,4.13,1.28,4.42,1.03.42,2.68-.04,2.69-.04l.11.39s-.84.23-1.71.23Z"/>
      <path d="M126.47,87.82s-1.86-3.61-2.14-4.09c-.35-.59.28-1.42.36-1.51l.32.26-.16-.13.16.13c-.14.18-.5.75-.33,1.05.29.49,2.07,3.96,2.15,4.11l-.36.19Z"/>
      <path d="M87.8,74l-.36-.2c1.14-2.02,1.39-3.8.75-5.3-1.1-2.57-4.5-3.46-4.54-3.47l.1-.4s.92.24,1.95.8c1.38.76,2.37,1.76,2.86,2.91.69,1.62.43,3.52-.77,5.66Z"/>
      <path d="M88.6,61.1c-.91,0-1.76-.23-1.95-.8-.06-.2-.04-.4.06-.6.48-.91,2.63-1.58,2.87-1.66,0,0,0,0,0,0,.63-.16,1.05-.13,1.32.09.4.33.36.95.32,1.68v.07c-.04.58-.75,1.02-1.92,1.17-.24.03-.48.05-.72.05ZM89.71,58.44c-.62.19-2.29.81-2.62,1.46-.05.1-.07.19-.04.29.13.39,1.15.61,2.22.47.9-.12,1.54-.44,1.56-.79v-.07c.04-.62.07-1.15-.17-1.34-.16-.13-.48-.14-.96-.02Z"/>
      <path d="M89.93,60.92c-.43-.1-.96-.42-1.05-1.44-.05-.57.06-1.09.07-1.11l.4.09s-.39,1.82.67,2.06l-.09.4Z"/>
      <path d="M94.21,71.02l-.4-.08s0,0,0,.01c0,0,.03-.46-.91-1.78-1.1-1.55-1.65-3.84-1.79-4.83-.11-.77.07-1.14.37-1.76.15-.32.35-.71.56-1.28.48-1.3-.38-2.49-.39-2.5l.33-.24c.04.06,1.01,1.38.45,2.88-.22.59-.42.99-.57,1.32-.29.6-.42.87-.33,1.53.13.96.66,3.16,1.71,4.65,1.04,1.47,1,2,.98,2.09Z"/>
      <path d="M44.03,5.51c-.05,0-.1-.02-.14-.06-.28-.27-.96-.93-1.05-1.17-.05-.12-.05-.32.49-1.02.27-.36.6-.72.75-.83.07-.05.22-.17,1.53-.14.01,0,1.22.03,1.43.13l-.17.37s0,0,.01,0c-.09-.03-.62-.08-1.27-.09-.86-.02-1.21.03-1.29.06-.24.19-1.01,1.14-1.08,1.4.09.14.49.57.87.93l1.45-.15.04.41-1.54.16s-.01,0-.02,0ZM44.32,2.76s0,0,0,0h0Z"/>
      <path d="M27.38,23.78c-.56,0-1.02-.5-1.02-1.11s.46-1.11,1.02-1.11,1.02.5,1.02,1.11-.46,1.11-1.02,1.11ZM27.38,21.96c-.34,0-.61.32-.61.7s.27.7.61.7.61-.32.61-.7-.27-.7-.61-.7Z"/>
      <path d="M19.27,28.01c-.56,0-1.02-.5-1.02-1.11s.46-1.11,1.02-1.11,1.02.5,1.02,1.11-.46,1.11-1.02,1.11ZM19.27,26.2c-.34,0-.61.32-.61.7s.27.7.61.7.61-.32.61-.7-.27-.7-.61-.7Z"/>
      <path d="M14.57,35.92c-.56,0-1.02-.5-1.02-1.11s.46-1.11,1.02-1.11,1.02.5,1.02,1.11-.46,1.11-1.02,1.11ZM14.57,34.1c-.34,0-.61.32-.61.7s.27.7.61.7.61-.32.61-.7-.27-.7-.61-.7Z"/>
      <g>
        <path d="M8.51,43.27c-.56,0-1.02-.5-1.02-1.11s.46-1.11,1.02-1.11,1.02.5,1.02,1.11-.46,1.11-1.02,1.11ZM8.51,41.45c-.34,0-.61.32-.61.7s.27.7.61.7.61-.32.61-.7-.27-.7-.61-.7Z"/>
        <path d="M11.61,43.1c-.56,0-1.02-.5-1.02-1.11s.46-1.11,1.02-1.11,1.02.5,1.02,1.11-.46,1.11-1.02,1.11ZM11.61,41.28c-.34,0-.61.32-.61.7s.27.7.61.7.61-.32.61-.7-.27-.7-.61-.7Z"/>
        <path d="M14.17,43.1c-.56,0-1.02-.5-1.02-1.11s.46-1.11,1.02-1.11,1.02.5,1.02,1.11-.46,1.11-1.02,1.11ZM14.17,41.28c-.34,0-.61.32-.61.7s.27.7.61.7.61-.32.61-.7-.27-.7-.61-.7Z"/>
        <path d="M16.94,43.27c-.56,0-1.02-.5-1.02-1.11s.46-1.11,1.02-1.11,1.02.5,1.02,1.11-.46,1.11-1.02,1.11ZM16.94,41.45c-.34,0-.61.32-.61.7s.27.7.61.7.61-.32.61-.7-.27-.7-.61-.7Z"/>
      </g>
      <g>
        <path d="M6.71,52.2c-.48,0-.93-.37-1.03-.91-.06-.29-.01-.58.13-.82.15-.25.38-.42.65-.47.55-.11,1.1.29,1.22.89h0c.12.6-.23,1.18-.78,1.29-.06.01-.12.02-.19.02ZM6.64,50.39s-.07,0-.11.01c-.16.03-.29.13-.38.28-.09.16-.12.34-.08.53.08.38.41.64.74.57.33-.07.54-.43.46-.81-.07-.34-.34-.58-.63-.58Z"/>
        <path d="M9.72,51.42c-.48,0-.93-.37-1.03-.91-.12-.6.23-1.18.78-1.29.27-.05.55.01.78.18.23.17.38.42.44.71.06.29.01.58-.13.82-.15.25-.38.42-.65.47-.06.01-.12.02-.19.02ZM9.65,49.61s-.07,0-.11.01c-.33.07-.54.43-.46.81.08.38.41.64.74.57.16-.03.29-.13.38-.28.09-.16.12-.34.08-.53h0c-.04-.19-.14-.35-.28-.46-.11-.08-.23-.12-.35-.12Z"/>
        <path d="M12.22,50.92c-.48,0-.93-.37-1.03-.91-.06-.29-.01-.58.13-.82.15-.25.38-.42.65-.47.55-.11,1.1.29,1.22.89h0c.06.29.01.58-.13.82-.15.25-.38.42-.65.47-.06.01-.12.02-.19.02ZM12.16,49.11s-.07,0-.11.01c-.16.03-.29.13-.38.28-.09.16-.12.34-.08.53.08.38.41.64.74.57.16-.03.29-.13.38-.28.09-.16.12-.34.08-.53h0c-.07-.34-.34-.58-.63-.58Z"/>
      </g>
      <g>
        <path d="M2.73,62.02c-.39,0-.77-.23-.98-.62-.29-.54-.11-1.2.38-1.46.5-.26,1.14-.03,1.42.51h0c.29.54.11,1.2-.38,1.46-.14.07-.29.11-.44.11ZM2.58,60.24c-.09,0-.17.02-.25.06-.3.16-.39.56-.21.91.18.34.57.5.87.34.3-.16.39-.56.21-.91-.13-.25-.38-.4-.62-.4Z"/>
        <path d="M5.39,60.42c-.12,0-.24-.02-.36-.07-.26-.1-.48-.29-.62-.55-.14-.26-.17-.55-.11-.83.07-.28.24-.51.49-.64.5-.26,1.14-.03,1.42.51h0c.29.54.11,1.2-.38,1.46-.14.07-.29.11-.44.11ZM5.24,58.64c-.09,0-.17.02-.25.06-.14.07-.24.21-.28.37-.04.17-.02.36.07.53.09.17.23.3.4.36.16.06.33.05.47-.02.3-.16.39-.56.21-.91-.13-.25-.38-.4-.62-.4Z"/>
        <path d="M7.66,59.23c-.12,0-.24-.02-.36-.07-.26-.1-.48-.29-.62-.55-.14-.26-.17-.55-.11-.83.07-.28.24-.51.49-.64.24-.13.53-.14.8-.04.26.1.48.29.62.55.14.26.17.55.11.83-.07.28-.24.51-.49.64-.14.07-.29.11-.44.11ZM7.51,57.45c-.09,0-.18.02-.25.06-.14.07-.24.21-.28.37-.04.17-.02.36.07.53.09.17.23.3.4.36.16.06.33.05.47-.02.14-.07.24-.21.28-.37.04-.17.02-.36-.07-.53-.09-.17-.23-.3-.4-.36-.07-.03-.14-.04-.21-.04Z"/>
        <path d="M10.19,58.08c-.39,0-.77-.23-.98-.62-.14-.26-.17-.55-.11-.83.07-.28.24-.51.49-.64.5-.26,1.14-.03,1.42.51h0c.14.26.17.55.11.83-.07.28-.24.51-.49.64-.14.07-.29.11-.44.11ZM10.04,56.3c-.09,0-.17.02-.25.06-.14.07-.24.21-.28.37-.04.17-.02.36.07.53.18.34.57.5.87.34.14-.07.24-.21.28-.37.04-.17.02-.36-.07-.53-.13-.25-.38-.4-.62-.4Z"/>
      </g>
      <g>
        <path d="M3.53,71.1c-.07,0-.15,0-.22-.02-.28-.06-.52-.22-.69-.46-.36-.5-.28-1.17.17-1.5.46-.33,1.12-.2,1.48.3h0c.36.5.28,1.17-.17,1.5-.17.12-.36.18-.57.18ZM3.35,69.35c-.12,0-.23.03-.33.1-.27.2-.31.62-.08.93.11.16.27.26.45.3.17.04.33,0,.46-.09.27-.2.31-.62.08-.93h0c-.15-.2-.37-.31-.58-.31Z"/>
        <path d="M5.94,69.14c-.07,0-.15,0-.22-.02-.28-.06-.52-.22-.69-.46-.17-.24-.25-.52-.22-.8.03-.29.17-.54.39-.7.22-.16.5-.22.79-.16.28.06.52.22.69.46h0c.36.5.28,1.17-.17,1.5-.17.12-.36.18-.57.18ZM5.76,67.39c-.12,0-.23.04-.33.1-.13.09-.21.24-.23.41-.02.18.03.36.15.52.11.16.27.26.45.3.17.04.33,0,.46-.09.27-.2.31-.62.08-.93h0c-.11-.16-.27-.26-.45-.3-.05,0-.09-.01-.13-.01Z"/>
        <path d="M8.01,67.64c-.34,0-.69-.17-.91-.48-.17-.24-.25-.52-.22-.8.03-.29.17-.54.39-.7.22-.16.5-.22.79-.16.28.06.52.22.69.46h0c.17.24.25.52.22.8-.03.29-.17.54-.39.7-.17.12-.37.18-.57.18ZM7.83,65.88c-.12,0-.23.04-.33.1-.13.09-.21.24-.23.41-.02.18.03.36.15.52.23.31.64.41.91.21.13-.09.21-.24.23-.41.02-.18-.03-.36-.15-.52h0c-.11-.16-.27-.26-.45-.3-.05,0-.09-.01-.13-.01Z"/>
      </g>
      <g>
        <path d="M2.85,81.17c-.28,0-.56-.11-.79-.32-.21-.2-.35-.46-.37-.74-.03-.29.06-.56.25-.76.38-.41,1.06-.41,1.51,0h0c.45.42.5,1.09.12,1.51-.19.2-.45.31-.72.31ZM2.67,79.45c-.16,0-.31.06-.42.18-.11.12-.16.28-.14.45.02.18.1.35.24.48.28.26.7.28.93.03.23-.25.18-.66-.1-.93-.15-.14-.33-.21-.51-.21Z"/>
        <path d="M4.84,78.79c-.28,0-.56-.11-.79-.32-.21-.2-.35-.46-.37-.74-.03-.29.06-.56.25-.76.19-.2.45-.31.74-.31.28,0,.55.12.77.32.45.42.5,1.09.12,1.51-.19.2-.45.31-.72.31ZM4.65,77.07c-.17,0-.32.06-.42.18-.11.12-.16.28-.14.45.02.18.1.35.24.48.28.26.7.28.93.03.23-.25.18-.66-.1-.93-.14-.13-.32-.2-.5-.21,0,0,0,0-.01,0Z"/>
        <path d="M6.58,76.91s-.01,0-.02,0c-.28,0-.55-.12-.77-.32-.45-.42-.5-1.09-.12-1.51.19-.2.45-.31.74-.31.28,0,.55.12.77.32.45.42.5,1.09.12,1.51-.18.2-.44.31-.72.31ZM6.39,75.19c-.17,0-.32.06-.42.18-.23.25-.18.66.1.93.14.13.32.2.5.21.17,0,.33-.06.43-.18.23-.25.18-.66-.1-.93-.14-.13-.32-.2-.5-.21,0,0,0,0-.01,0Z"/>
        <path d="M8.59,75c-.28,0-.56-.11-.79-.32-.21-.2-.35-.46-.37-.74-.03-.29.06-.56.25-.76.19-.2.45-.31.74-.31.28,0,.55.12.77.32h0c.45.42.5,1.09.12,1.51-.19.2-.45.31-.72.31ZM8.4,73.28c-.17,0-.32.06-.42.18-.11.12-.16.28-.14.45.02.18.1.35.24.48.28.26.7.28.93.03.23-.25.18-.66-.1-.93-.14-.13-.32-.2-.5-.21,0,0,0,0-.01,0Z"/>
      </g>
      <g>
        <path d="M6.06,89.04c-.21,0-.42-.06-.6-.17-.25-.15-.44-.38-.52-.65-.09-.28-.06-.56.09-.8s.38-.4.66-.46c.28-.05.57,0,.82.15h0c.25.15.44.38.52.65.09.28.06.56-.09.8-.14.24-.38.4-.66.46-.07.01-.14.02-.21.02ZM5.9,87.36s-.09,0-.14.01c-.17.03-.31.13-.39.26-.08.14-.1.3-.05.47.05.17.17.32.34.42.17.1.35.13.53.1.17-.03.31-.13.39-.26.08-.14.1-.3.05-.47-.05-.17-.17-.32-.34-.42-.12-.07-.26-.11-.4-.11Z"/>
        <path d="M7.5,86.29c-.21,0-.42-.06-.6-.17-.25-.15-.44-.38-.52-.65-.09-.28-.06-.56.09-.8.29-.48.95-.62,1.48-.31h0c.53.31.72.96.43,1.45-.14.24-.38.4-.66.46-.07.01-.14.02-.21.02ZM7.34,84.61c-.22,0-.41.1-.52.28-.08.14-.1.3-.05.47.05.17.17.32.34.42.17.1.35.13.53.1.17-.03.31-.13.39-.26.17-.29.04-.69-.29-.89h0c-.13-.08-.26-.11-.4-.11Z"/>
        <path d="M8.81,84.09c-.21,0-.42-.06-.6-.17-.53-.31-.72-.96-.43-1.45.14-.24.38-.4.66-.46.28-.05.57,0,.82.15.53.31.72.96.43,1.45-.14.24-.38.4-.66.46-.07.01-.14.02-.21.02ZM8.65,82.41s-.09,0-.14.01c-.17.03-.31.13-.39.26-.17.29-.04.69.29.89.17.1.35.13.53.1.17-.03.31-.13.39-.26.17-.29.04-.69-.29-.89-.12-.07-.26-.11-.4-.11Z"/>
      </g>
      <g>
        <path d="M8.44,99.05c-.15,0-.31-.03-.45-.09-.27-.11-.49-.31-.61-.56-.13-.26-.14-.55-.03-.8.1-.26.31-.45.58-.55.26-.09.56-.09.83.02h0c.57.23.86.84.65,1.37-.1.26-.31.45-.58.55-.12.04-.25.07-.38.07ZM8.3,97.39c-.08,0-.16.01-.24.04-.16.06-.28.17-.34.32-.06.15-.05.31.02.47.08.16.22.29.4.36.18.07.37.08.54.02.16-.06.28-.17.34-.32.13-.31-.06-.69-.42-.83-.1-.04-.2-.06-.3-.06Z"/>
        <path d="M9.45,96.11c-.15,0-.31-.03-.45-.09-.27-.11-.49-.31-.61-.56-.13-.26-.14-.55-.03-.8.21-.52.85-.76,1.42-.52h0c.57.23.86.84.65,1.37-.1.26-.31.45-.58.55-.12.04-.25.07-.38.07ZM9.31,94.45c-.26,0-.49.13-.59.36-.06.15-.05.31.02.47.08.16.22.29.4.36.18.07.37.08.54.02.16-.06.28-.17.34-.32.13-.31-.06-.69-.42-.83-.1-.04-.2-.06-.3-.06Z"/>
        <path d="M10.41,93.74c-.15,0-.3-.03-.45-.09-.57-.23-.86-.84-.65-1.37.1-.26.31-.45.58-.55.26-.09.56-.09.83.02.57.23.86.84.65,1.37-.16.38-.54.61-.97.61ZM10.28,92.08c-.08,0-.16.01-.24.04-.16.06-.28.17-.34.32-.13.31.06.69.42.83.36.15.76.01.88-.3.13-.31-.06-.69-.42-.83-.1-.04-.2-.06-.3-.06Z"/>
        <path d="M11.62,91.24c-.15,0-.31-.03-.45-.09-.27-.11-.49-.31-.61-.56-.13-.26-.14-.55-.03-.8.1-.26.31-.45.58-.55.26-.09.56-.09.83.02.27.11.49.31.61.56.13.26.14.55.03.8-.1.26-.31.45-.58.55-.12.04-.25.07-.38.07ZM11.49,89.58c-.08,0-.16.01-.24.04-.16.06-.28.17-.34.32-.06.15-.05.31.02.47.08.16.22.29.4.36.18.07.37.08.54.02.16-.06.28-.17.34-.32.06-.15.05-.31-.02-.47-.08-.16-.22-.29-.4-.36h0c-.1-.04-.2-.06-.3-.06Z"/>
      </g>
      <g>
        <path d="M13.78,106.28c-.06,0-.11,0-.17-.01-.61-.09-1.02-.67-.93-1.29.05-.3.2-.56.44-.74.24-.18.54-.25.83-.21.61.09,1.02.67.93,1.29-.09.56-.56.96-1.1.96ZM13.79,104.43c-.15,0-.29.05-.42.14-.15.11-.25.28-.28.47-.06.39.2.76.59.82.38.06.75-.21.81-.61.06-.39-.2-.76-.59-.82h0s-.07,0-.11,0Z"/>
        <path d="M14.15,102.78c-.06,0-.11,0-.17-.01-.29-.05-.55-.21-.73-.45-.17-.24-.25-.54-.2-.84.1-.62.67-1.04,1.27-.95.29.05.55.21.73.45.17.24.25.54.2.84-.05.3-.2.56-.44.74-.19.15-.42.22-.66.22ZM14.16,100.93c-.34,0-.65.26-.7.61-.03.19.02.38.13.54.11.15.27.25.46.28.19.03.37-.02.52-.13.15-.11.25-.28.28-.47.03-.19-.02-.38-.13-.54-.11-.15-.27-.25-.46-.28h0s-.07,0-.11,0Z"/>
        <path d="M14.59,99.91c-.06,0-.11,0-.17-.01-.29-.05-.55-.21-.73-.45-.17-.24-.25-.54-.2-.84.1-.62.67-1.04,1.27-.95.29.05.55.21.73.45.17.24.25.54.2.84-.09.56-.56.96-1.1.96ZM14.6,98.06c-.34,0-.65.26-.7.61-.03.19.02.38.13.54.11.15.27.25.46.28.38.06.75-.21.81-.61.03-.19-.02-.38-.13-.54-.11-.15-.27-.25-.46-.28h0s-.07,0-.11,0Z"/>
      </g>
      <g>
        <path d="M18.3,115.93s-.05,0-.07,0c-.61-.04-1.07-.66-1.02-1.38.05-.72.59-1.27,1.21-1.22.61.04,1.07.66,1.02,1.38-.05.69-.55,1.22-1.14,1.22ZM18.35,113.73c-.37,0-.7.37-.73.84-.03.49.25.92.64.94.39.03.74-.35.77-.84.03-.49-.25-.92-.64-.94-.01,0-.03,0-.04,0Z"/>
        <path d="M18.43,111.75s-.05,0-.07,0c-.61-.04-1.07-.66-1.02-1.38.02-.34.16-.65.38-.88.23-.24.52-.36.83-.34.31.02.58.18.77.45.19.26.27.59.25.93-.02.34-.16.65-.38.88-.21.22-.48.34-.76.34ZM18.48,109.56c-.17,0-.33.08-.46.21-.15.16-.25.38-.27.63-.03.49.25.92.64.94.18.01.36-.06.5-.21.15-.16.25-.38.27-.63.02-.25-.04-.48-.17-.66-.12-.17-.29-.27-.47-.28-.01,0-.03,0-.04,0Z"/>
        <path d="M18.67,108.32s-.05,0-.07,0c-.61-.04-1.07-.66-1.02-1.38.05-.72.59-1.27,1.21-1.22.61.04,1.07.66,1.02,1.38-.05.69-.55,1.22-1.14,1.22ZM18.72,106.12c-.37,0-.7.37-.73.84-.03.49.25.92.64.94.39.03.74-.35.77-.84.03-.49-.25-.92-.64-.94-.01,0-.03,0-.04,0Z"/>
        <path d="M19.11,104.6s-.05,0-.07,0c-.61-.04-1.07-.66-1.02-1.38.02-.34.16-.65.38-.88.23-.24.52-.36.83-.34.61.04,1.07.66,1.02,1.38-.02.34-.16.65-.38.88-.21.22-.48.34-.76.34ZM19.15,102.4c-.17,0-.33.08-.46.21-.15.16-.25.38-.27.63-.03.49.25.92.64.94.18.01.36-.06.5-.21.15-.16.25-.38.27-.63.03-.49-.25-.92-.64-.94-.01,0-.03,0-.04,0Z"/>
      </g>
      <path d="M17.33,36.45c-.56,0-1.02-.5-1.02-1.11s.46-1.11,1.02-1.11,1.02.5,1.02,1.11-.46,1.11-1.02,1.11ZM17.33,34.63c-.34,0-.61.32-.61.7s.27.7.61.7.61-.32.61-.7-.27-.7-.61-.7Z"/>
      <path d="M19.77,37.11c-.56,0-1.02-.5-1.02-1.11s.46-1.11,1.02-1.11,1.02.5,1.02,1.11-.46,1.11-1.02,1.11ZM19.77,35.29c-.34,0-.61.32-.61.7s.27.7.61.7.61-.32.61-.7-.27-.7-.61-.7Z"/>
      <path d="M22.11,29.47c-.56,0-1.02-.5-1.02-1.11s.46-1.11,1.02-1.11,1.02.5,1.02,1.11-.46,1.11-1.02,1.11ZM22.11,27.66c-.34,0-.61.32-.61.7s.27.7.61.7.61-.32.61-.7-.27-.7-.61-.7Z"/>
      <path d="M24.59,30.8c-.56,0-1.02-.5-1.02-1.11s.46-1.11,1.02-1.11,1.02.5,1.02,1.11-.46,1.11-1.02,1.11ZM24.59,28.98c-.34,0-.61.32-.61.7s.27.7.61.7.61-.32.61-.7-.27-.7-.61-.7Z"/>
      <path d="M27.04,32.62c-.56,0-1.02-.5-1.02-1.11s.46-1.11,1.02-1.11,1.02.5,1.02,1.11-.46,1.11-1.02,1.11ZM27.04,30.8c-.34,0-.61.32-.61.7s.27.7.61.7.61-.32.61-.7-.27-.7-.61-.7Z"/>
      <path d="M29.71,25.85c-.56,0-1.02-.5-1.02-1.11s.46-1.11,1.02-1.11,1.02.5,1.02,1.11-.46,1.11-1.02,1.11ZM29.71,24.03c-.34,0-.61.32-.61.7s.27.7.61.7.61-.32.61-.7-.27-.7-.61-.7Z"/>
      <path d="M31.91,28.01c-.56,0-1.02-.5-1.02-1.11s.46-1.11,1.02-1.11,1.02.5,1.02,1.11-.46,1.11-1.02,1.11ZM31.91,26.2c-.34,0-.61.32-.61.7s.27.7.61.7.61-.32.61-.7-.27-.7-.61-.7Z"/>
      <path d="M24.83,111.98c-.64,0-1.15-.54-1.15-1.2s.52-1.2,1.15-1.2,1.15.54,1.15,1.2-.52,1.2-1.15,1.2ZM24.83,109.99c-.41,0-.75.35-.75.79s.33.79.75.79.75-.35.75-.79-.33-.79-.75-.79Z"/>
      <path d="M25.08,115.82c-.64,0-1.15-.54-1.15-1.2s.52-1.2,1.15-1.2,1.15.54,1.15,1.2-.52,1.2-1.15,1.2ZM25.08,113.84c-.41,0-.75.35-.75.79s.33.79.75.79.75-.35.75-.79-.33-.79-.75-.79Z"/>
      <path d="M25.4,119.56c-.64,0-1.15-.54-1.15-1.2s.52-1.2,1.15-1.2,1.15.54,1.15,1.2-.52,1.2-1.15,1.2ZM25.4,117.57c-.41,0-.75.35-.75.79s.33.79.75.79.75-.35.75-.79-.33-.79-.75-.79Z"/>
      <path d="M30.34,114.25c-.74,0-1.34-.6-1.34-1.34s.6-1.34,1.34-1.34,1.34.6,1.34,1.34-.6,1.34-1.34,1.34ZM30.34,111.99c-.51,0-.93.42-.93.93s.42.93.93.93.93-.42.93-.93-.42-.93-.93-.93Z"/>
      <path d="M30.88,118.35c-.74,0-1.34-.6-1.34-1.34s.6-1.34,1.34-1.34,1.34.6,1.34,1.34-.6,1.34-1.34,1.34ZM30.88,116.09c-.51,0-.93.42-.93.93s.42.93.93.93.93-.42.93-.93-.42-.93-.93-.93Z"/>
      <path d="M37.79,119.48c-.74,0-1.34-.6-1.34-1.34s.6-1.34,1.34-1.34,1.34.6,1.34,1.34-.6,1.34-1.34,1.34ZM37.79,117.22c-.51,0-.93.42-.93.93s.42.93.93.93.93-.42.93-.93-.42-.93-.93-.93Z"/>
      <path d="M40.93,126.5c-.74,0-1.34-.6-1.34-1.34s.6-1.34,1.34-1.34,1.34.6,1.34,1.34-.6,1.34-1.34,1.34ZM40.93,124.23c-.51,0-.93.42-.93.93s.42.93.93.93.93-.42.93-.93-.42-.93-.93-.93Z"/>
      <path d="M39.28,122.99c-.74,0-1.34-.6-1.34-1.34s.6-1.34,1.34-1.34,1.34.6,1.34,1.34-.6,1.34-1.34,1.34ZM39.28,120.73c-.51,0-.93.42-.93.93s.42.93.93.93.93-.42.93-.93-.42-.93-.93-.93Z"/>
      <path d="M31.87,122.21c-.74,0-1.34-.6-1.34-1.34s.6-1.34,1.34-1.34,1.34.6,1.34,1.34-.6,1.34-1.34,1.34ZM31.87,119.95c-.51,0-.93.42-.93.93s.42.93.93.93.93-.42.93-.93-.42-.93-.93-.93Z"/>
      <path d="M33,125.85c-.74,0-1.34-.6-1.34-1.34s.6-1.34,1.34-1.34,1.34.6,1.34,1.34-.6,1.34-1.34,1.34ZM33,123.58c-.51,0-.93.42-.93.93s.42.93.93.93.93-.42.93-.93-.42-.93-.93-.93Z"/>
      <path d="M44.07,118.88c-.77,0-1.39-.62-1.39-1.39s.62-1.39,1.39-1.39,1.39.62,1.39,1.39-.62,1.39-1.39,1.39ZM44.07,116.51c-.54,0-.98.44-.98.98s.44.98.98.98.98-.44.98-.98-.44-.98-.98-.98Z"/>
      <path d="M45.76,122.24c-.77,0-1.39-.62-1.39-1.39s.62-1.39,1.39-1.39,1.39.62,1.39,1.39-.62,1.39-1.39,1.39ZM45.76,119.87c-.54,0-.98.44-.98.98s.44.98.98.98.98-.44.98-.98-.44-.98-.98-.98Z"/>
      <path d="M48.08,125.76c-.77,0-1.39-.62-1.39-1.39s.62-1.39,1.39-1.39,1.39.62,1.39,1.39-.62,1.39-1.39,1.39ZM48.08,123.39c-.54,0-.98.44-.98.98s.44.98.98.98.98-.44.98-.98-.44-.98-.98-.98Z"/>
      <path d="M50.51,128.99c-.77,0-1.39-.62-1.39-1.39s.62-1.39,1.39-1.39,1.39.62,1.39,1.39-.62,1.39-1.39,1.39ZM50.51,126.62c-.54,0-.98.44-.98.98s.44.98.98.98.98-.44.98-.98-.44-.98-.98-.98Z"/>
      <path d="M52.9,120.1c-.84,0-1.53-.69-1.53-1.53s.69-1.53,1.53-1.53,1.53.69,1.53,1.53-.69,1.53-1.53,1.53ZM52.9,117.45c-.62,0-1.12.5-1.12,1.12s.5,1.12,1.12,1.12,1.12-.5,1.12-1.12-.5-1.12-1.12-1.12Z"/>
      <path d="M55.54,122.88c-.84,0-1.53-.69-1.53-1.53s.69-1.53,1.53-1.53,1.53.69,1.53,1.53-.69,1.53-1.53,1.53ZM55.54,120.23c-.62,0-1.12.5-1.12,1.12s.5,1.12,1.12,1.12,1.12-.5,1.12-1.12-.5-1.12-1.12-1.12Z"/>
      <path d="M58.26,125.76c-.84,0-1.53-.69-1.53-1.53s.69-1.53,1.53-1.53,1.53.69,1.53,1.53-.69,1.53-1.53,1.53ZM58.26,123.11c-.62,0-1.12.5-1.12,1.12s.5,1.12,1.12,1.12,1.12-.5,1.12-1.12-.5-1.12-1.12-1.12Z"/>
      <path d="M58.51,116.2c-.76,0-1.37-.62-1.37-1.37s.62-1.37,1.37-1.37,1.37.62,1.37,1.37-.62,1.37-1.37,1.37ZM58.51,113.86c-.53,0-.96.43-.96.96s.43.96.96.96.96-.43.96-.96-.43-.96-.96-.96Z"/>
      <path d="M61.51,118.54c-.76,0-1.37-.62-1.37-1.37s.62-1.37,1.37-1.37,1.37.62,1.37,1.37-.62,1.37-1.37,1.37ZM61.51,116.2c-.53,0-.96.43-.96.96s.43.96.96.96.96-.43.96-.96-.43-.96-.96-.96Z"/>
      <path d="M64.69,120.97c-.76,0-1.37-.62-1.37-1.37s.62-1.37,1.37-1.37,1.37.62,1.37,1.37-.62,1.37-1.37,1.37ZM64.69,118.63c-.53,0-.96.43-.96.96s.43.96.96.96.96-.43.96-.96-.43-.96-.96-.96Z"/>
      <path d="M68.04,123.16c-.76,0-1.37-.62-1.37-1.37s.62-1.37,1.37-1.37,1.37.62,1.37,1.37-.62,1.37-1.37,1.37ZM68.04,120.82c-.53,0-.96.43-.96.96s.43.96.96.96.96-.43.96-.96-.43-.96-.96-.96Z"/>
      <path d="M67.41,112.74c-.82,0-1.49-.67-1.49-1.49s.67-1.49,1.49-1.49,1.49.67,1.49,1.49-.67,1.49-1.49,1.49ZM67.41,110.17c-.6,0-1.08.49-1.08,1.08s.49,1.08,1.08,1.08,1.08-.49,1.08-1.08-.49-1.08-1.08-1.08Z"/>
      <path d="M71.46,106.23c-.82,0-1.49-.67-1.49-1.49s.67-1.49,1.49-1.49,1.49.67,1.49,1.49-.67,1.49-1.49,1.49ZM71.46,103.66c-.6,0-1.08.49-1.08,1.08s.49,1.08,1.08,1.08,1.08-.49,1.08-1.08-.49-1.08-1.08-1.08Z"/>
      <path d="M78.69,98.27c-.82,0-1.49-.67-1.49-1.49s.67-1.49,1.49-1.49,1.49.67,1.49,1.49-.67,1.49-1.49,1.49ZM78.69,95.69c-.6,0-1.08.49-1.08,1.08s.49,1.08,1.08,1.08,1.08-.49,1.08-1.08-.49-1.08-1.08-1.08Z"/>
      <path d="M75.05,107.15c-.82,0-1.49-.67-1.49-1.49s.67-1.49,1.49-1.49,1.49.67,1.49,1.49-.67,1.49-1.49,1.49ZM75.05,104.57c-.6,0-1.08.49-1.08,1.08s.49,1.08,1.08,1.08,1.08-.49,1.08-1.08-.49-1.08-1.08-1.08Z"/>
      <path d="M78.69,107.96c-.82,0-1.49-.67-1.49-1.49s.67-1.49,1.49-1.49,1.49.67,1.49,1.49-.67,1.49-1.49,1.49ZM78.69,105.38c-.6,0-1.08.49-1.08,1.08s.49,1.08,1.08,1.08,1.08-.49,1.08-1.08-.49-1.08-1.08-1.08Z"/>
      <path d="M83.08,108.44c-.82,0-1.49-.67-1.49-1.49s.67-1.49,1.49-1.49,1.49.67,1.49,1.49-.67,1.49-1.49,1.49ZM83.08,105.86c-.6,0-1.08.49-1.08,1.08s.49,1.08,1.08,1.08,1.08-.49,1.08-1.08-.49-1.08-1.08-1.08Z"/>
      <path d="M70.83,114.3c-.82,0-1.49-.67-1.49-1.49s.67-1.49,1.49-1.49,1.49.67,1.49,1.49-.67,1.49-1.49,1.49ZM70.83,111.72c-.6,0-1.08.49-1.08,1.08s.49,1.08,1.08,1.08,1.08-.49,1.08-1.08-.49-1.08-1.08-1.08Z"/>
      <path d="M74.45,115.67c-.82,0-1.49-.67-1.49-1.49s.67-1.49,1.49-1.49,1.49.67,1.49,1.49-.67,1.49-1.49,1.49ZM74.45,113.09c-.6,0-1.08.49-1.08,1.08s.49,1.08,1.08,1.08,1.08-.49,1.08-1.08-.49-1.08-1.08-1.08Z"/>
      <path d="M70.23,19.81l-.25-.32s1.2-.97.86-2.99c-.1-.62-.35-1.06-.74-1.32-.58-.39-1.31-.22-1.32-.22l-.1-.4s.9-.21,1.63.27c.49.32.8.86.92,1.6.38,2.27-.96,3.33-1.02,3.38Z"/>
      <path d="M72.64,19.52c-.94-.29-1.71-.17-2.04-.12-.15.02-.22.04-.3-.02l.23-.34c-.05-.04-.1-.03-.1-.03.01,0,.06,0,.11-.02.33-.05,1.19-.19,2.22.13l-.12.39Z"/>
      <path d="M59.34,17.52c-.32,0-.66-.05-1.01-.16-.96-.29-1.9-.94-2.66-1.85-.75-.9-1.23-1.95-1.34-2.94-.11-1.03.17-1.88.8-2.41.63-.53,1.52-.65,2.51-.35.96.29,1.9.94,2.66,1.85.75.9,1.23,1.95,1.34,2.94.11,1.03-.17,1.88-.8,2.41-.41.34-.92.51-1.5.51ZM56.65,10.05c-.48,0-.91.13-1.25.42-1.1.92-.84,3.06.59,4.78,1.43,1.71,3.49,2.36,4.59,1.44.52-.44.75-1.16.66-2.05-.1-.92-.55-1.89-1.25-2.73-.99-1.18-2.28-1.86-3.34-1.86Z"/>
      <path d="M85.29,58.1c-.78,0-1.67-.1-2.63-.35-1.05-.28-1.95-.89-2.68-1.8-.58-.72-1.05-1.64-1.4-2.73-.59-1.84-.64-3.51-.64-3.58h.41s.05,1.67.63,3.46c.76,2.36,2.04,3.79,3.79,4.25,4.25,1.13,6.88-.92,6.9-.94l.26.32s-.72.57-1.96.96c-.67.21-1.57.41-2.68.41Z"/>
      <path d="M97.63,70.05l-.4-.09c.34-1.46-.03-2.06-.5-2.81-.28-.46-.61-.97-.8-1.75-.3-1.19.19-1.88.72-2.62.43-.61.87-1.23,1.03-2.24.35-2.19-2.92-4.47-2.96-4.49l.23-.34c.14.1,3.52,2.45,3.13,4.9-.18,1.1-.67,1.8-1.1,2.42-.51.72-.91,1.28-.65,2.29.18.71.47,1.18.75,1.63.48.77.93,1.49.55,3.12Z"/>
      <path d="M89.22,28.09s0,0,0,0l-6.13-.16v-.41s5.75.15,5.75.15l-1.96-2.94.34-.23,2.17,3.26c.04.06.05.15,0,.21-.04.07-.1.11-.18.11Z"/>
      <rect x="94.53" y="22.53" width=".41" height="11.22" transform="translate(60.09 120.7) rotate(-86.03)"/>
      <rect x="96.32" y="21.46" width=".41" height="2.28" transform="translate(68.92 117.82) rotate(-87.01)"/>
      <rect x="95.39" y="23.76" width="2.52" height=".41"/>
      <rect x="78.49" y="17.43" width="1.7" height=".41" transform="translate(53.08 94.55) rotate(-83.69)"/>
      <path d="M103.25,59.59c-.86-6.81-2.59-11.89-3.88-14.95-1.41-3.32-2.63-5.04-2.64-5.06l.33-.24c.05.07,1.25,1.77,2.68,5.12,1.31,3.09,3.06,8.21,3.92,15.07l-.41.05Z"/>
      <path d="M104.56,69.92h-.41c.09-3.73-.54-8.95-.54-9l.41-.05c0,.05.64,5.3.55,9.05Z"/>
      <path d="M71.83,66.84c-.09,0-.18-.07-.2-.16l-2.24-10.24c-.02-.07,0-.14.06-.19.05-.05.12-.07.19-.05l.94.22c.08.02.14.08.15.16l1.94,9.91c.01.05,0,.11-.03.16-.03.05-.08.08-.13.09l-.64.11s-.02,0-.03,0ZM69.86,56.67l2.13,9.74.24-.04-1.88-9.58-.49-.12Z"/>
      <path d="M68.43,53.81s-.23-.93.2-1.5c.21-.28.53-.44.95-.46.39-.02,1.15.05,2.11.13,1.21.1,2.73.23,4.01.23,1.79,0,2.39-.26,2.58-.48l.31.27c-.74.84-3.7.66-6.94.39-.91-.08-1.69-.14-2.06-.13-.3.01-.51.11-.64.29-.26.35-.18.95-.13,1.16l-.4.1Z"/>
      <path d="M92.33,97.8l-.4-.1c1.08-4.19.52-9.55-1.31-12.47-.63-1-1.36-1.61-2.13-1.77-1.26-.25-2.47.35-3.61,1.8-.87,1.1-1.36,2.31-1.37,2.32l-.38-.15c.02-.05.51-1.26,1.42-2.41,1.23-1.56,2.61-2.23,4.02-1.95.88.18,1.7.85,2.39,1.95,1.88,3,2.46,8.5,1.35,12.79Z"/>
      <g>
        <path d="M13.44,57.46c-1.03,0-1.87-.84-1.87-1.87s.84-1.87,1.87-1.87,1.87.84,1.87,1.87-.84,1.87-1.87,1.87ZM13.44,54.13c-.81,0-1.46.66-1.46,1.46s.66,1.46,1.46,1.46,1.46-.65,1.46-1.46-.66-1.46-1.46-1.46Z"/>
        <path d="M13.49,56.52c-.51,0-.93-.42-.93-.93s.42-.93.93-.93.93.42.93.93-.42.93-.93.93ZM13.49,55.07c-.29,0-.52.23-.52.52s.23.52.52.52.52-.23.52-.52-.23-.52-.52-.52Z"/>
      </g>
      <g>
        <path d="M24.99,40.82c-1.03,0-1.87-.84-1.87-1.87s.84-1.87,1.87-1.87,1.87.84,1.87,1.87-.84,1.87-1.87,1.87ZM24.99,37.49c-.81,0-1.46.66-1.46,1.46s.66,1.46,1.46,1.46,1.46-.66,1.46-1.46-.65-1.46-1.46-1.46Z"/>
        <path d="M25.04,39.88c-.51,0-.93-.42-.93-.93s.42-.93.93-.93.93.42.93.93-.42.93-.93.93ZM25.04,38.43c-.29,0-.52.23-.52.52s.23.52.52.52.52-.23.52-.52-.23-.52-.52-.52Z"/>
      </g>
      <g>
        <path d="M10.55,79.89c-1.03,0-1.87-.84-1.87-1.87s.84-1.87,1.87-1.87,1.87.84,1.87,1.87-.84,1.87-1.87,1.87ZM10.55,76.56c-.81,0-1.46.66-1.46,1.46s.65,1.46,1.46,1.46,1.46-.65,1.46-1.46-.66-1.46-1.46-1.46Z"/>
        <path d="M10.59,78.95c-.51,0-.93-.42-.93-.93s.42-.93.93-.93.93.42.93.93-.42.93-.93.93ZM10.59,77.51c-.29,0-.52.23-.52.52s.23.52.52.52.52-.23.52-.52-.23-.52-.52-.52Z"/>
      </g>
      <g>
        <path d="M18.88,99.88c-1.03,0-1.87-.84-1.87-1.87s.84-1.87,1.87-1.87,1.87.84,1.87,1.87-.84,1.87-1.87,1.87ZM18.88,96.55c-.81,0-1.46.66-1.46,1.46s.66,1.46,1.46,1.46,1.46-.66,1.46-1.46-.65-1.46-1.46-1.46Z"/>
        <path d="M18.93,98.94c-.51,0-.93-.42-.93-.93s.42-.93.93-.93.93.42.93.93-.42.93-.93.93ZM18.93,97.49c-.29,0-.52.23-.52.52s.23.52.52.52.52-.23.52-.52-.23-.52-.52-.52Z"/>
      </g>
      <g>
        <path d="M34.68,111.66c-1.03,0-1.87-.84-1.87-1.87s.84-1.87,1.87-1.87,1.87.84,1.87,1.87-.84,1.87-1.87,1.87ZM34.68,108.33c-.81,0-1.46.66-1.46,1.46s.66,1.46,1.46,1.46,1.46-.65,1.46-1.46-.66-1.46-1.46-1.46Z"/>
        <path d="M34.73,110.72c-.51,0-.93-.42-.93-.93s.42-.93.93-.93.93.42.93.93-.42.93-.93.93ZM34.73,109.27c-.29,0-.52.23-.52.52s.23.52.52.52.52-.23.52-.52-.23-.52-.52-.52Z"/>
      </g>
      <g>
        <path d="M53.91,109.06c-1.03,0-1.87-.84-1.87-1.87s.84-1.87,1.87-1.87,1.87.84,1.87,1.87-.84,1.87-1.87,1.87ZM53.91,105.73c-.81,0-1.46.66-1.46,1.46s.66,1.46,1.46,1.46,1.46-.66,1.46-1.46-.65-1.46-1.46-1.46Z"/>
        <path d="M53.96,108.11c-.51,0-.93-.42-.93-.93s.42-.93.93-.93.93.42.93.93-.42.93-.93.93ZM53.96,106.67c-.29,0-.52.23-.52.52s.23.52.52.52.52-.23.52-.52-.23-.52-.52-.52Z"/>
      </g>
      <path d="M42.45,33.5c-.59,0-1.07-.5-1.07-1.11,0-.56.41-1.04.95-1.1l.05.41c-.33.04-.59.34-.59.69,0,.38.3.7.66.7.23,0,.45-.13.57-.35l.36.2c-.19.34-.55.56-.93.56Z"/>
    </g>
  </g>
</svg>