<?xml version="1.0" encoding="UTF-8"?>
<svg id="Layer_2" data-name="Layer 2" xmlns="http://www.w3.org/2000/svg" viewBox="0 0 25.38 24.96">
  <defs>
    <style>
      .cls-1 {
        fill: #fff;
      }
    </style>
  </defs>
  <g id="Layer_1-2" data-name="Layer 1">
    <path class="cls-1" d="M23.03,7.09h-12.2c-1.3,0-2.35-1.05-2.35-2.35v-2.35C8.49,1.1,9.54.05,10.84.05c.26,0,.47.21.47.47s-.21.47-.47.47c-.78,0-1.41.63-1.41,1.41v2.35c0,.78.63,1.41,1.41,1.41h12.2c.78,0,1.41-.63,1.41-1.41v-2.35c0-.78-.63-1.41-1.41-1.41h-8.91c-.26,0-.47-.21-.47-.47s.21-.47.47-.47h8.91c1.3,0,2.35,1.05,2.35,2.35v2.35c0,1.3-1.05,2.35-2.35,2.35Z"/>
    <path class="cls-1" d="M23.03,16h-12.2c-1.3,0-2.35-1.05-2.35-2.35h0v-2.35c0-1.3,1.05-2.35,2.35-2.35h12.2c.26,0,.47.21.47.47s-.21.47-.47.47h-12.2c-.78,0-1.41.63-1.41,1.41v2.35c0,.78.63,1.41,1.41,1.41h12.2c.78,0,1.41-.63,1.41-1.41v-2.35c0-.26.21-.47.47-.47s.47.21.47.47v2.35c0,1.3-1.05,2.35-2.35,2.35Z"/>
    <path class="cls-1" d="M23.03,24.91c-.26,0-.47-.21-.47-.47s.21-.47.47-.47c.78,0,1.41-.63,1.41-1.41v-2.35c0-.78-.63-1.41-1.41-1.41h-12.2c-.78,0-1.41.63-1.41,1.41h0v2.35c0,.78.63,1.41,1.41,1.41h9.38c.26,0,.47.21.47.47s-.21.47-.47.47h-9.38c-1.3,0-2.35-1.05-2.35-2.35v-2.35c0-1.3,1.05-2.35,2.35-2.35h12.2c1.3,0,2.35,1.05,2.35,2.35v2.35c0,1.3-1.05,2.35-2.35,2.35Z"/>
    <g>
      <path class="cls-1" d="M3.57,17.82c-1.97,0-3.57,1.6-3.57,3.57s1.6,3.57,3.57,3.57,3.57-1.6,3.57-3.57-1.6-3.57-3.57-3.57ZM6.1,21.39c0,1.4-1.14,2.53-2.53,2.53s-2.53-1.13-2.53-2.53,1.13-2.53,2.53-2.53c1.39,0,2.53,1.14,2.53,2.53Z"/>
      <path class="cls-1" d="M4.74,0h-2.35C1.07,0,0,1.07,0,2.39v2.35c0,1.32,1.07,2.4,2.4,2.4h2.35c1.32,0,2.4-1.07,2.4-2.4v-2.35c0-1.32-1.07-2.39-2.4-2.39ZM6.1,2.39v2.35c0,.75-.61,1.36-1.36,1.36h-2.35c-.75,0-1.36-.61-1.36-1.36v-2.35c0-.75.61-1.36,1.36-1.36h2.35c.75,0,1.36.61,1.36,1.36Z"/>
      <path class="cls-1" d="M4.74,8.91h-2.35c-1.32,0-2.4,1.07-2.4,2.4v2.34c0,1.32,1.07,2.4,2.4,2.4h2.35c1.32,0,2.4-1.07,2.4-2.4v-2.34c0-1.32-1.07-2.4-2.4-2.4ZM6.1,11.31v2.34c0,.75-.61,1.36-1.36,1.36h-2.35c-.75,0-1.36-.61-1.36-1.36v-2.34c0-.75.61-1.36,1.36-1.36h2.35c.75,0,1.36.61,1.36,1.36Z"/>
    </g>
  </g>
</svg>