<?xml version="1.0" encoding="UTF-8"?>
<svg id="Layer_2" data-name="Layer 2" xmlns="http://www.w3.org/2000/svg" viewBox="0 0 47.57 42.53">
  <g id="Layer_1-2" data-name="Layer 1">
    <g>
      <path d="M30.83,10.75h-14.08c-2.66,0-4.76,2.09-4.76,4.76v14.08c0,2.66,2.09,4.76,4.76,4.76h14.08c2.66,0,4.76-2.09,4.76-4.76v-14.08c0-2.66-2.09-4.76-4.76-4.76h0ZM34.04,29.84c0,1.68-1.28,2.96-2.96,2.96h-14.59c-1.68,0-2.96-1.28-2.96-2.96v-14.59c0-1.68,1.28-2.96,2.96-2.96h14.59c1.68,0,2.96,1.28,2.96,2.96v14.59Z"/>
      <path d="M42.81,2.57h-3.04V.95c0-.57-.38-.95-.95-.95s-.95.38-.95.95v1.52h-4.09V.95c0-.57-.38-.95-.95-.95s-.95.38-.95.95v1.52h-4.09V.95c0-.57-.38-.95-.95-.95s-.95.38-.95.95v1.52h-4.09V.95c0-.57-.38-.95-.95-.95s-.95.38-.95.95v1.52h-4.09V.95c0-.57-.38-.95-.95-.95s-.95.38-.95.95v1.52h-4.09V.95c0-.57-.38-.95-.95-.95s-.95.38-.95.95v1.52h-3.14C2.09,2.47,0,4.57,0,7.23v30.54c0,2.66,2.09,4.76,4.76,4.76h38.06c2.66,0,4.76-2.09,4.76-4.76V7.33c0-2.66-2.09-4.76-4.76-4.76ZM45.95,38.06c0,1.64-1.25,2.89-2.89,2.89H4.51c-1.64,0-2.89-1.25-2.89-2.89V7.13c0-1.64,1.25-2.89,2.89-2.89h3.08v1.54c0,.58.39.96.96.96s.96-.39.96-.96v-1.54h4.14v1.54c0,.58.39.96.96.96s.96-.39.96-.96v-1.54h4.14v1.54c0,.58.39.96.96.96s.96-.39.96-.96v-1.54h4.14v1.54c0,.58.39.96.96.96s.96-.39.96-.96v-1.54h4.14v1.54c0,.58.39.96.96.96s.96-.39.96-.96v-1.54h4.14v1.54c0,.58.39.96.96.96s.96-.39.96-.96v-1.54h3.18c1.64,0,2.89,1.25,2.89,2.89v30.93Z"/>
      <path d="M29.3,17.7l-7.71,7.71-3.23-2.95c-.38-.38-.95-.29-1.33.1s-.29.95.1,1.33l3.9,3.62c.19.19.38.29.67.29s.48-.1.67-.29l8.37-8.37c.38-.38.38-.95,0-1.33s-1.05-.48-1.43-.1h0Z"/>
    </g>
  </g>
</svg>