<?xml version="1.0" encoding="UTF-8"?>
<svg id="Layer_2" xmlns="http://www.w3.org/2000/svg" version="1.1" viewBox="0 0 621.1 202.1">
  <!-- Generator: Adobe Illustrator 30.3.0, SVG Export Plug-In . SVG Version: 2.1.3 Build 182)  -->
  <defs>
    <style>
      .st0 {
        fill: #fafafd;
      }

      .st1 {
        fill: #6b696f;
      }

      .st2 {
        fill: #12121a;
      }

      .st3 {
        fill: #6b6e7c;
      }

      .st4 {
        fill: #8c8b94;
      }

      .st5 {
        fill: #dcdde5;
      }

      .st6 {
        fill: #36353a;
      }

      .st7 {
        fill: #242428;
      }

      .st8 {
        fill: #4d4c52;
      }

      .st9 {
        fill: #afaeb3;
      }

      .st10 {
        fill: #807f85;
      }

      .st11 {
        fill: #222227;
      }

      .st12 {
        fill: #27262b;
      }

      .st13 {
        fill: #e2e3e9;
      }

      .st14 {
        fill: #76757d;
      }

      .st15 {
        fill: #444349;
      }

      .st16 {
        fill: #1f1e23;
      }

      .st17 {
        fill: #dfdfe6;
      }

      .st18 {
        fill: #4a484d;
      }

      .st19 {
        fill: #838288;
      }

      .st20 {
        fill: #616166;
      }

      .st21 {
        fill: #c4c3c8;
      }

      .st22 {
        fill: #29282d;
      }

      .st23 {
        fill: #5b5b5d;
      }

      .st24 {
        fill: #dcdce6;
      }

      .st25 {
        fill: #76757a;
      }

      .st26 {
        fill: #fafafc;
      }

      .st27 {
        fill: #414045;
      }

      .st28 {
        fill: #16151b;
      }

      .st29 {
        fill: #dfdfe8;
      }

      .st30 {
        fill: #27282d;
      }

      .st31 {
        fill: #bebdcb;
      }

      .st32 {
        fill: #434146;
      }

      .st33 {
        fill: #2e2e33;
      }

      .st34 {
        fill: #6b696c;
      }

      .st35 {
        fill: #504f57;
      }

      .st36 {
        fill: #6c6b72;
      }

      .st37 {
        fill: #44444d;
      }

      .st38 {
        fill: #231f20;
      }

      .st39 {
        fill: #dcdbe2;
      }

      .st40 {
        fill: #504f59;
      }

      .st41 {
        fill: #3d3b3e;
      }

      .st42 {
        fill: #0e0d12;
      }

      .st43 {
        fill: #726e75;
      }

      .st44 {
        fill: #1b1a1f;
      }

      .st45 {
        fill: #cbc8cf;
      }

      .st46 {
        fill: #dde0ec;
      }

      .st47 {
        fill: #131418;
      }

      .st48 {
        fill: #8a898f;
      }

      .st49 {
        fill: #363739;
      }

      .st50 {
        fill: #4f5052;
      }

      .st51 {
        fill: #434347;
      }

      .st52 {
        fill: #7c7c80;
      }

      .st53 {
        fill: #62616f;
      }

      .st54 {
        fill: #64646f;
      }

      .st55 {
        fill: #a1a0a6;
      }

      .st56 {
        fill: #383840;
      }

      .st57 {
        fill: #636468;
      }

      .st58 {
        fill: #232429;
      }

      .st59 {
        fill: #e0e1e7;
      }

      .st60 {
        fill: #424243;
      }

      .st61 {
        fill: #949597;
      }

      .st62 {
        fill: #46454c;
      }

      .st63 {
        fill: #b3b3b9;
      }

      .st64 {
        fill: #e3e3e8;
      }

      .st65 {
        fill: #8e8f93;
      }

      .st66 {
        fill: #36373c;
      }

      .st67 {
        fill: #37383c;
      }

      .st68 {
        fill: #32292c;
      }

      .st69 {
        fill: #e6e4e5;
      }

      .st70 {
        fill: #505154;
      }

      .st71 {
        fill: #747277;
      }

      .st72 {
        fill: #1c1c24;
      }

      .st73 {
        fill: #c7c6ce;
      }

      .st74 {
        fill: #1e1f24;
      }

      .st75 {
        fill: #131317;
      }

      .st76 {
        fill: #232327;
      }

      .st77 {
        fill: #212126;
      }

      .st78 {
        fill: #14141c;
      }

      .st79 {
        fill: #a89a93;
      }

      .st80 {
        fill: #e0e0ea;
      }

      .st81 {
        fill: #2e2d32;
      }

      .st82 {
        fill: #464448;
      }

      .st83 {
        fill: #232428;
      }

      .st84 {
        fill: #202124;
      }

      .st85 {
        fill: #a9a9af;
      }

      .st86 {
        fill: #aaa9ae;
      }

      .st87 {
        fill: #24252a;
      }

      .st88 {
        fill: #4c4c4e;
      }

      .st89 {
        fill: #7a7b80;
      }

      .st90 {
        fill: #7d7c80;
      }

      .st91 {
        fill: #29292c;
      }

      .st92 {
        fill: #242529;
      }

      .st93 {
        fill: #67686c;
      }

      .st94 {
        fill: #c8c9ce;
      }

      .st95 {
        fill: #dbdce1;
      }

      .st96 {
        fill: #e3e2e8;
      }

      .st97 {
        fill: #2b2a2e;
      }

      .st98 {
        fill: #1e1e23;
      }

      .st99 {
        fill: #111014;
      }

      .st100 {
        fill: #665f67;
      }

      .st101 {
        fill: #7b7c81;
      }

      .st102 {
        fill: #75747b;
      }

      .st103 {
        fill: #545359;
      }

      .st104 {
        fill: #202126;
      }

      .st105 {
        fill: #141519;
      }

      .st106 {
        fill: #252529;
      }

      .st107 {
        fill: #bfbec6;
      }

      .st108 {
        fill: #101216;
      }

      .st109 {
        fill: #dad8de;
      }

      .st110 {
        fill: #26252a;
      }

      .st111 {
        fill: #bbbac3;
      }

      .st112 {
        fill: #3d3d3f;
      }

      .st113 {
        fill: #222325;
      }

      .st114 {
        fill: #939499;
      }

      .st115 {
        fill: #3c3b40;
      }

      .st116 {
        fill: #e1e1e9;
      }

      .st117 {
        fill: #a8a7ad;
      }

      .st118 {
        fill: #c3c2c8;
      }

      .st119 {
        fill: #757577;
      }

      .st120 {
        fill: #66656d;
      }

      .st121 {
        fill: #5d5e65;
      }

      .st122 {
        fill: #4f4e55;
      }

      .st123 {
        fill: #212227;
      }

      .st124 {
        fill: #414149;
      }

      .st125 {
        fill: #55555f;
      }

      .st126 {
        fill: #37383d;
      }

      .st127 {
        fill: #85858b;
      }

      .st128 {
        fill: #9c9ca6;
      }

      .st129 {
        fill: #54575e;
      }

      .st130 {
        fill: #00ffec;
        stroke: #231f20;
        stroke-miterlimit: 10;
      }

      .st131 {
        fill: #65646a;
      }

      .st132 {
        fill: #27272a;
      }

      .st133 {
        fill: #dfe0e2;
      }

      .st134 {
        fill: #b6b5bc;
      }

      .st135 {
        fill: #dfdfe9;
      }

      .st136 {
        fill: #92929b;
      }

      .st137 {
        fill: #232328;
      }

      .st138 {
        fill: #2f2e34;
      }

      .st139 {
        fill: #1c1b21;
      }

      .st140 {
        fill: #818085;
      }

      .st141 {
        fill: #212026;
      }

      .st142 {
        fill: #39383e;
      }

      .st143 {
        fill: #403c42;
      }

      .st144 {
        fill: #615555;
      }

      .st145 {
        fill: #232228;
      }

      .st146 {
        fill: #e4e4ec;
      }

      .st147 {
        fill: #58575f;
      }

      .st148 {
        fill: #555560;
      }

      .st149 {
        fill: #7c7b82;
      }

      .st150 {
        fill: #cfced4;
      }

      .st151 {
        fill: #7c7d81;
      }

      .st152 {
        fill: #4b4b4d;
      }

      .st153 {
        fill: #45454c;
      }

      .st154 {
        fill: #212124;
      }

      .st155 {
        fill: #38393e;
      }

      .st156 {
        fill: #242329;
      }

      .st157 {
        fill: #242426;
      }

      .st158 {
        fill: #242328;
      }

      .st159 {
        fill: #363638;
      }

      .st160 {
        fill: #313137;
      }

      .st161 {
        fill: #b09d99;
      }

      .st162 {
        fill: #646671;
      }

      .st163 {
        fill: #7f7d81;
      }
    </style>
  </defs>
  <g id="Layer_1-2">
    <path class="st130" d="M22.2,17.3h57.1c3.9,0,7.1,3.2,7.1,7.1v49.8c-25.4,4.9-26.8,8.1-47.4,18l-16.4,12.6c-3.9,0-7.6,7.9-7.6,4V24.4c0-3.9,3.2-7.1,7.1-7.1h0Z"/>
    <g>
      <path class="st38" d="M102.9,41.9l-2.2-3.9h-1.2v3.9h-1.6v-9.7h3.4c.8,0,1.4,0,1.9.4.5.3.9.6,1.2,1,.3.4.4.9.4,1.5s-.2,1.2-.6,1.7-.9.9-1.7,1.1l2.4,4h-2ZM99.4,36.7h1.8c.6,0,1.1-.2,1.3-.5.3-.3.5-.7.5-1.2s-.2-.9-.4-1.2-.8-.4-1.4-.4h-1.8v3.3Z"/>
      <path class="st38" d="M113.7,38.6h-5.9c0,.6.3,1.1.7,1.5s.9.6,1.5.6c.9,0,1.5-.4,1.8-1.1h1.7c-.2.7-.7,1.3-1.3,1.7-.6.5-1.4.7-2.3.7s-1.4-.2-2-.5-1-.8-1.4-1.4-.5-1.3-.5-2.1.2-1.5.5-2.1.8-1.1,1.4-1.4c.6-.3,1.2-.5,2-.5s1.4.2,1.9.5,1,.8,1.3,1.3c.3.6.5,1.2.5,2v.8h.1ZM112.1,37.3c0-.6-.2-1.1-.6-1.4-.4-.3-.9-.5-1.5-.5s-1,.2-1.4.5-.6.8-.7,1.4h4.3-.1Z"/>
      <path class="st38" d="M121.2,36.1v1.3h-5.8v-1.3h5.8Z"/>
      <path class="st38" d="M125.1,32.1v9.7h-1.6v-9.7h1.6Z"/>
      <path class="st38" d="M132.7,34.4c.5.2.9.6,1.1,1.1.3.5.4,1.1.4,1.8v4.5h-1.6v-4.3c0-.7-.2-1.2-.5-1.6s-.8-.5-1.4-.5-1.1.2-1.4.5c-.4.4-.5.9-.5,1.6v4.3h-1.6v-7.7h1.6v.9c.3-.3.6-.6,1-.7s.8-.3,1.3-.3,1.1,0,1.6.4h0Z"/>
      <path class="st38" d="M137.5,41.7c-.5-.2-.9-.5-1.1-.9s-.4-.8-.4-1.3h1.6c0,.3.2.6.5.8s.6.3,1.1.3.8,0,1-.3.4-.4.4-.7-.1-.5-.4-.6c-.3,0-.7-.3-1.3-.5s-1.1-.3-1.4-.5c-.4-.2-.7-.4-.9-.7-.3-.3-.4-.7-.4-1.2s.1-.8.4-1.1.6-.6,1-.8,1-.3,1.6-.3c.9,0,1.6.2,2.1.7.5.4.8,1,.9,1.8h-1.6c0-.3-.2-.6-.4-.8s-.6-.3-1-.3-.7,0-1,.2c-.2.2-.3.4-.3.6s0,.4.2.5.3.2.6.3c.2,0,.5.2.9.3.6.2,1,.3,1.4.5s.7.4.9.7.4.7.4,1.2-.1.8-.4,1.2-.6.6-1,.8-1,.3-1.6.3-1.1,0-1.6-.3h-.2Z"/>
      <path class="st38" d="M146.5,34.4c.5-.2,1-.4,1.6-.4s1.3.2,1.8.5c.6.3,1,.8,1.3,1.4.3.6.5,1.3.5,2.1s-.2,1.5-.5,2.1-.8,1.1-1.3,1.4-1.2.5-1.8.5-1.1,0-1.6-.4-.8-.5-1.1-.9v4.8h-1.6v-11.4h1.6v1.1c.3-.3.6-.7,1.1-.9h0ZM149.7,36.6c-.2-.4-.5-.7-.9-.9s-.7-.3-1.1-.3-.8,0-1.1.3c-.4.2-.6.5-.9.9-.2.4-.3.8-.3,1.4s.1,1,.3,1.4.5.7.9.9.7.3,1.1.3.8,0,1.1-.3.6-.5.9-.9c.2-.4.3-.9.3-1.4s-.1-1-.3-1.4Z"/>
      <path class="st38" d="M160.3,38.6h-5.9c0,.6.3,1.1.7,1.5s.9.6,1.5.6c.9,0,1.5-.4,1.8-1.1h1.7c-.2.7-.7,1.3-1.3,1.7s-1.4.7-2.3.7-1.4-.2-2-.5-1-.8-1.4-1.4-.5-1.3-.5-2.1.2-1.5.5-2.1.8-1.1,1.4-1.4c.6-.3,1.2-.5,2-.5s1.4.2,1.9.5c.6.3,1,.8,1.3,1.3.3.6.5,1.2.5,2v.8h.1ZM158.7,37.3c0-.6-.2-1.1-.6-1.4s-.9-.5-1.5-.5-1,.2-1.4.5-.6.8-.7,1.4h4.3-.1Z"/>
      <path class="st38" d="M161.9,35.9c.3-.6.8-1.1,1.3-1.4.6-.3,1.2-.5,2-.5s1.7.2,2.3.7,1,1.1,1.2,1.9h-1.7c-.1-.4-.4-.7-.7-.9s-.7-.3-1.2-.3-1.2.2-1.6.7-.6,1.1-.6,1.9.2,1.5.6,2,.9.7,1.6.7,1.5-.4,1.8-1.2h1.7c-.2.8-.6,1.4-1.3,1.9s-1.4.7-2.3.7-1.4-.2-2-.5-1-.8-1.3-1.4-.5-1.3-.5-2.1.2-1.5.5-2.1h.2Z"/>
      <path class="st38" d="M172.2,35.5v4.3c0,.3,0,.5.2.6.1,0,.4.2.7.2h1v1.3h-1.3c-.7,0-1.3-.2-1.6-.5s-.6-.9-.6-1.6v-4.3h-.9v-1.3h.9v-1.9h1.6v1.9h1.9v1.3h-1.9,0Z"/>
      <path class="st38" d="M175.6,32.8c-.2-.2-.3-.4-.3-.7s.1-.5.3-.7.4-.3.7-.3.5.1.7.3c.2.2.3.4.3.7s-.1.5-.3.7-.4.3-.7.3-.5,0-.7-.3ZM177.1,34.2v7.7h-1.6v-7.7h1.6Z"/>
      <path class="st38" d="M180.6,41.5c-.6-.3-1.1-.8-1.4-1.4s-.5-1.3-.5-2.1.2-1.5.5-2.1.8-1.1,1.4-1.4c.6-.3,1.3-.5,2-.5s1.4.2,2,.5,1.1.8,1.4,1.4c.4.6.5,1.3.5,2.1s-.2,1.5-.5,2.1-.8,1.1-1.4,1.4c-.6.3-1.3.5-2,.5s-1.4-.2-2-.5h0ZM183.7,40.3c.4-.2.6-.5.9-.9.2-.4.3-.9.3-1.4s-.1-1-.3-1.4-.5-.7-.9-.9-.7-.3-1.1-.3-.8,0-1.1.3c-.4.2-.6.5-.8.9s-.3.9-.3,1.4c0,.8.2,1.5.6,1.9s1,.7,1.6.7.8,0,1.1-.3h0Z"/>
      <path class="st38" d="M193.7,34.4c.5.2.9.6,1.1,1.1.3.5.4,1.1.4,1.8v4.5h-1.6v-4.3c0-.7-.2-1.2-.5-1.6s-.8-.5-1.4-.5-1.1.2-1.4.5c-.4.4-.5.9-.5,1.6v4.3h-1.6v-7.7h1.6v.9c.3-.3.6-.6,1-.7s.8-.3,1.3-.3,1.1,0,1.6.4h0Z"/>
      <path class="st38" d="M103.7,46.7c.8.4,1.4,1,1.8,1.7s.6,1.6.6,2.6-.2,1.8-.6,2.6-1,1.3-1.8,1.7-1.7.6-2.7.6h-3.2v-9.7h3.2c1,0,1.9.2,2.7.6h0ZM103.6,53.6c.6-.6.9-1.5.9-2.6s-.3-2-.9-2.7c-.6-.6-1.5-1-2.6-1h-1.6v7.1h1.6c1.1,0,2-.3,2.6-.9h0Z"/>
      <path class="st38" d="M107.8,46.8c-.2-.2-.3-.4-.3-.7s0-.5.3-.7c.2-.2.4-.3.7-.3s.5,0,.7.3c.2.2.3.4.3.7s0,.5-.3.7c-.2.2-.4.3-.7.3s-.5,0-.7-.3ZM109.4,48.2v7.7h-1.6v-7.7h1.6Z"/>
      <path class="st38" d="M112.6,55.7c-.5-.2-.9-.5-1.1-.9s-.4-.8-.4-1.3h1.7c0,.3.2.6.5.8s.6.3,1.1.3.8,0,1-.3.4-.4.4-.7,0-.5-.4-.6-.7-.3-1.3-.5c-.6-.2-1.1-.3-1.4-.5-.4-.2-.7-.4-.9-.7-.3-.3-.4-.7-.4-1.2s0-.8.4-1.1.6-.6,1-.8,1-.3,1.6-.3c.9,0,1.6.2,2.1.7.5.4.8,1,.9,1.8h-1.6c0-.3-.2-.6-.4-.8-.2-.2-.6-.3-1-.3s-.7,0-1,.2c-.2.2-.3.4-.3.6s0,.4.2.5.3.2.6.3c.2,0,.5.2.9.3.6.2,1,.3,1.4.5s.7.4.9.7.4.7.4,1.2,0,.8-.4,1.2-.6.6-1,.8-1,.3-1.6.3-1.2,0-1.6-.3h-.3Z"/>
      <path class="st38" d="M118.9,49.9c.3-.6.8-1.1,1.3-1.4.6-.3,1.2-.5,2-.5s1.7.2,2.3.7,1,1.1,1.2,1.9h-1.7c0-.4-.4-.7-.7-.9s-.7-.3-1.2-.3-1.2.2-1.6.7-.6,1.1-.6,1.9.2,1.5.6,2,.9.7,1.6.7,1.5-.4,1.8-1.2h1.7c-.2.8-.6,1.4-1.3,1.9s-1.4.7-2.3.7-1.4-.2-2-.5-1-.8-1.3-1.4-.5-1.3-.5-2.1.2-1.5.5-2.1h.2Z"/>
      <path class="st38" d="M128.7,55.5c-.6-.3-1.1-.8-1.4-1.4s-.5-1.3-.5-2.1.2-1.5.5-2.1.8-1.1,1.4-1.4c.6-.3,1.3-.5,2-.5s1.4.2,2,.5,1.1.8,1.4,1.4c.4.6.5,1.3.5,2.1s-.2,1.5-.5,2.1-.8,1.1-1.4,1.4c-.6.3-1.3.5-2,.5s-1.4-.2-2-.5h0ZM131.8,54.3c.4-.2.6-.5.9-.9.2-.4.3-.9.3-1.4s-.1-1-.3-1.4-.5-.7-.9-.9-.7-.3-1.1-.3-.8,0-1.1.3c-.4.2-.6.5-.8.9s-.3.9-.3,1.4c0,.8.2,1.5.6,1.9s1,.7,1.6.7.8,0,1.1-.3h0Z"/>
      <path class="st38" d="M143.2,48.2v7.7h-1.6v-.9c-.2.3-.6.6-1,.8s-.8.3-1.3.3-1.1,0-1.6-.4c-.5-.2-.9-.6-1.1-1.1-.3-.5-.4-1.1-.4-1.8v-4.5h1.6v4.3c0,.7.2,1.2.5,1.6.3.4.8.5,1.4.5s1.1-.2,1.4-.5c.4-.4.5-.9.5-1.6v-4.3h1.6Z"/>
      <path class="st38" d="M150.9,48.4c.5.2.9.6,1.1,1.1.3.5.4,1.1.4,1.8v4.5h-1.6v-4.3c0-.7-.2-1.2-.5-1.6s-.8-.5-1.4-.5-1.1.2-1.4.5c-.4.4-.5.9-.5,1.6v4.3h-1.6v-7.7h1.6v.9c.3-.3.6-.6,1-.7s.8-.3,1.3-.3,1.1,0,1.6.4h0Z"/>
      <path class="st38" d="M156.3,49.5v4.3c0,.3,0,.5.2.6.1,0,.4.2.7.2h1v1.3h-1.3c-.7,0-1.3-.2-1.6-.5s-.6-.9-.6-1.6v-4.3h-.9v-1.3h.9v-1.9h1.6v1.9h1.9v1.3h-1.9,0Z"/>
    </g>
    <g>
      <path class="st38" d="M24.2,35.3c.9-.9,2-1.3,3.4-1.3s2.5.4,3.4,1.3c.9.9,1.3,2,1.3,3.6s-.4,2.7-1.3,3.6c-.9.9-2,1.3-3.4,1.3s-2.5-.4-3.4-1.3c-.9-.9-1.3-2.1-1.3-3.6s.4-2.7,1.3-3.6ZM25.7,38.8c0,1.8.7,2.8,2,2.8s1.1-.2,1.5-.7c.3-.5.5-1.1.5-2.1,0-1.8-.7-2.7-2-2.7s-2,.9-2,2.7h0ZM42,34.4l-12.5,21.7h-3.5l12.5-21.7h3.5ZM37,48c.9-.9,2-1.3,3.4-1.3s2.5.4,3.4,1.3c.9.9,1.3,2.1,1.3,3.6s-.4,2.7-1.3,3.6-2,1.3-3.4,1.3-2.5-.4-3.4-1.3c-.9-.9-1.3-2.1-1.3-3.6s.4-2.7,1.3-3.6ZM38.4,51.6c0,1.8.7,2.7,2,2.7s2-.9,2-2.7-.7-2.7-2-2.7-2,.9-2,2.7Z"/>
      <path class="st38" d="M47.8,36.6v-3.2h6.5v22.8h-3.6v-19.5h-2.9Z"/>
      <path class="st38" d="M73.9,36.4h-10.5v6.2c.4-.6,1.1-1.1,1.9-1.5s1.8-.6,2.8-.6c1.8,0,3.2.4,4.3,1.1s1.9,1.7,2.3,2.8c.5,1.1.7,2.3.7,3.6s-.3,2.9-.9,4.1c-.6,1.2-1.5,2.1-2.7,2.8s-2.6,1-4.3,1-4.1-.6-5.5-1.7-2.2-2.6-2.5-4.5h3.5c.2,1,.7,1.8,1.5,2.3.8.6,1.8.9,3,.9s2.6-.5,3.3-1.3,1.1-2.1,1.1-3.6-.4-2.7-1.1-3.5-1.8-1.2-3.3-1.2-1.9.2-2.6.8-1.2,1.2-1.5,2.1h-3.4v-13.1h13.7v3.1h0l.2.2Z"/>
    </g>
    <path class="st76" d="M312.9,3c13-2.5,26.3-3.3,39.5-2.9,15.2.4,30.3,1.9,45.3,4.3,13.8,2.5,27.7,5.1,41.3,8.5,15,4.3,30,8.9,44.8,13.9,9.9,3.5,20,6.5,29.9,10,10.4,3.4,20.7,7.3,31.2,10.5,11,3.5,22.3,6.2,33.3,9.6,2.5.6,5,1.8,7.6,1.4-4.7-1.7-9.8-2.4-14.5-4.2,5-1.2,10.2-1.7,15.4-2.4,3.8-.4,7.7-1.4,11.5-.7,1.8.5,4.2,1.4,4.5,3.6,0,2.1-1.3,4-1.6,6-.4,2.9-.5,5.9-.6,8.8-.2,2,1.8,3.2,2.9,4.6,2.8,3.2,6.3,6,7.8,10.1-1.7,1.9-3.7,3.9-6.5,3.5-5.2,0-10.4.3-15.6.6-5.9,0-11.8.2-17.6,0-5.4,0-9.3-4.2-13.4-7.1,4.8-1.5,9.8-1.5,14.8-2.3,8.6-1,17-2.5,25.6-3.5-.7-.8-1.4-1.5-2.2-2.3-.7.2-1.4.5-2.1.7-.4,0-1.2-.2-1.6-.2,1.2-.7,2.4-1.4,3.8-.8-.9-1.3-1.7-2.7-2.5-4.1-2.2,1.8-4,4.4-6.7,5.4-10.3,2-20.8,2.3-30.9,5.3.7,0,2,.3,2.6.4,0,.2,0,.6,0,.8-1.5,0-3-.9-4.5-.4-7.4,2.2-14.6,5-21.8,7.7-5.6-3.4-11.8-5.9-18.3-6.8.5-.4.9-.7,1.4-1.1,3.9.8,7.7,2.1,11.7,2.7,4.6,0,9-1.6,13.2-3.3,2.2-1.1,4.7-1.9,6.1-3.9,1-2.4-1.4-4.2-3.1-5.5-5.1-3.4-10.9-5.7-17-6.5,7.6.3,15.1,2.2,22.5,4,6.4,1.6,13.1,2.9,19.8,1.8,2.6-.5,2.5-3.6,3.1-5.6-6.7-2.5-13.9-3.2-20.9-4.5-10.1-1.3-20.2-3.3-30.5-3,1.8-.9,3.9-1.4,5.5-2.8,1.3-1.6-.6-3.5-2-4.1-7.4-3.8-15.4-6.2-23.2-9.2-6-2.1-11.9-4.7-17.8-7-6.6-2.7-13.5-4.9-20-7.8-7.7-3.9-16.2-5.5-24.3-8.2,0,.4.2,1.1.2,1.5-29.6-7.9-60.1-13-90.8-13.5-13.3,0-26.9.8-39.8,4.4-7.1,1.8-14,4.2-20.7,7-.3,0-1,.2-1.3.3-.8-2.1-1.6-4.3-2.5-6.4,9.4-3,19-5.6,28.7-7.4M438.7,16.1c4.8,1.7,9.8,3.1,14.7,4.7,27.5,8.4,54.7,17.7,81.8,27.1,2.1.5,3.4,2.3,5,3.6,14.8,4.2,29.8,8.1,44.7,11.9,3,.9,6.5,1.4,8.8,3.8,3.6,3.9,6.7,8.4,10.8,11.8-5.9.6-11.8,1.8-17.7,2.1v.4c2,.5,4.2-.2,6.2,0-.3,0-.8.4-1.1.6-4.5.5-9,1.2-13.5,1.3.5,1.4,2.4,1.2,3.6,1.4,7.7,0,15.4.3,23.1,0,1.3,0,2.7-.5,3-1.9.2-1-.7-1.3-1.4-.8-2.4-2.2-5.9-.7-8.8-.7v-.9c3.1,0,6.2-1.1,9.1,0-1.5-1.6-3.2-3.1-4.8-4.7-2.8-2.7-4.9-6-7.7-8.7,2.7-2.6,5-5.3,6.8-8.5.2-1.4.3-2.8.3-4.2-1.5,1.7-3.4,2.9-5.3,4-1.5.8-2.7,2.7-4.7,2.2,0-.4-.2-1.1-.3-1.4-1.6-.2-3.4-1-4.8-.5.9,1.5,3.3.7,4.8,1.5-2,0-4-.4-5.9-1.1-4.3,0-8.5-1.4-12.8-2.1-.4.3-.8.6-1.1.9,5.7,1,11.4,2.4,17,3.8,1.6.3,3.1,1.2,4,2.6,2.3-1.8,4.8-3.5,6.7-5.7-2,1.4-3.8,3.2-6.1,3.9,1.5-3,4.8-4.6,7.7-6-.8,4.1-3.8,7.3-6.8,10-2-1.9-4.8-2.5-7.4-3.3-15.5-4.1-31.2-8.1-46.6-12.5-.8-1.2-1.2-2.8-2.7-3.3-7.2-2.8-14.5-5.2-21.8-7.8-25.4-8.5-50.7-17.5-76.5-24.8,0,.3-.2,1-.2,1.3M569.2,82.5c1.4.4,2.8.3,4.2.2,4.1-.3,8.3-.3,12.4-.6v-.4c-5.5-.4-11.1.5-16.6.8h0Z"/>
    <path class="st116" d="M308.6,9.5c12.9-3.6,26.4-4.4,39.8-4.4,30.7.4,61.2,5.6,90.8,13.5,0-.4-.2-1.1-.2-1.5,8.1,2.7,16.6,4.3,24.3,8.2,6.5,2.9,13.4,5,20,7.8,6,2.3,11.8,4.9,17.8,7,7.7,3,15.7,5.4,23.2,9.2,1.4.7,3.3,2.5,2,4.1-1.6,1.3-3.7,1.9-5.5,2.8,10.2-.3,20.3,1.7,30.5,3,7,1.2,14.2,2,20.9,4.5-.6,2-.6,5.1-3.1,5.6-6.6,1.1-13.3-.3-19.8-1.8-7.4-1.8-14.8-3.6-22.5-4,6,.9,11.9,3.1,17,6.5,1.7,1.2,4,3.1,3.1,5.5-1.5,2-4,2.8-6.1,3.9-4.2,1.7-8.6,3.4-13.2,3.3-4-.6-7.8-1.9-11.7-2.7-.5.3-1,.7-1.4,1.1,6.5,1,12.7,3.4,18.3,6.8,7.2-2.7,14.4-5.5,21.8-7.7,1.5-.5,3,.3,4.5.4,0-.2,0-.6,0-.8-.7,0-2-.3-2.6-.4,10.1-3,20.7-3.3,30.9-5.3.4.3,1.2.8,1.5,1.1,1.9-.3,3.7-.8,5.5-1.4.7-.2,1.4-.5,2.1-.7.7.8,1.4,1.5,2.2,2.3-8.6,1-17,2.5-25.6,3.5-4.9.7-10,.8-14.8,2.3,4.1,3,8,7.1,13.4,7.1,5.9.2,11.7,0,17.6,0,4.1.5,8.3-.4,12.4.6-9.3-.2-18.7,0-28,0-2.3,0-4.7.2-6.8-1-3.9-2.1-7.2-5.2-11-7.5-7.6,2.2-14.9,5.1-22.3,7.8,7.5,4.6,14.5,10.2,19.8,17.2,8.2,10.3,13.1,23.2,14.3,36.3.3,4,.7,8.1-.2,12.1-.3-4.1,0-8.2-.5-12.2-1.1-10.5-4.3-20.9-10-29.8-5.8-9.7-14.5-17.5-24.3-23.1-2.6.8-5,2.1-7.6,3,4.4,2.2,8.7,4.5,12.6,7.6,10.1,8.1,17.7,19.3,20.8,31.9,2.2,8.9,3,18.1,2.2,27.3,0-1-.3-2-.5-3.1.2-11.3-1-22.9-5.6-33.3-5.2-11.5-14.1-21.6-25.5-27.4-21-11.7-48.9-9.1-67.3,6.4-8.2,7.1-15,16.1-18.4,26.5-5.4,14.8-5.7,31.1-2.4,46.4h-.7c-3.3-15.6-3.1-32.1,2.6-47.1,3.2-9.6,9.3-17.9,16.6-24.8,9.7-8.9,22.5-14.1,35.6-15.3,10.1-.9,20.2,1.2,29.7,4.6,2.3-1.2,4.7-2.1,7-3.1-4.2-3.1-9.2-4.8-14.2-6-14.5-3.7-30.2-2.6-43.9,3.5-10.9,4.7-20.6,12.3-27.4,22-1.9,2.5-3.1,5.4-5.2,7.7,9.5-19.7,30-32.9,51.5-35.5,7-.4,14-.6,20.9.7.5-.3,1-.7,1.5-1-10.2-1.8-20.7-2-30.8.3-7.8,1.7-15.2,4.8-22.3,8.3-4,1.9-8.1,4.3-12.6,3.5-2.9-.3-5.8-2.5-5.9-5.6.7-4.7,5.5-7.4,6.6-11.9.1-1.1-1.4-1.3-2.1-1.4-3.8-.2-7.6.8-11.3,1.4-6.8,1.2-13.6,2.7-20.3,4.3-1.6.2-3.5.9-4.9-.3v-2.2c-5.6-.8-11.2-.9-16.8-.8.5,9.8-1.3,19.6-4.7,28.7-4.2,12.4-10,24.3-17.2,35.3-2.7,3.9-5.4,7.8-9,10.9-2.8,2.4-6.5,3.7-10.3,3.8,2.8-.9,5.8-1.3,8.3-3,3.8-2.6,6.5-6.3,9.1-10,8.5-12.3,14.9-25.9,19.5-40.1,2.7-8.5,4-17.4,3.7-26.3-.9-5.5-3.9-10.7-8-14.5,3.1,0,6.1-.4,9.2-.2,2.8.7,5.7-.5,8.5-.3,2.5-.2,5.3.7,7.4-1.2,5-.5,10,.5,15,0,2-.2,4.4.4,6-1.3,4.6,0,9.1-.8,13.7-.9,5-1,10.2,0,15.2-1,4.2-.9,8.6-.5,12.6-2.3,4.4-1.3,8.8-2.5,13.1-3.9,1.5-.6,3.4-1.3,4.2-2.9,1-2.2-.8-4.8-3.1-5.1-5.6-.9-10.9-2.9-16.1-5-40.4-16-83.7-24.9-127.2-25.2-13.5,0-27.1.9-40.1,4.8-8.2,2.4-16.1,5.8-23.6,9.9-5.8,2.9-11.3,6.5-16.7,10-5.2,3.6-10.7,6.8-15.7,10.7-4.9,3.8-10.2,7.1-15.2,11-3.9,3-7.7,6.1-11.5,9.2-.5-.2-1-.4-1.5-.6-2.1.6-4.4.7-6.1,2.2-5.1,3.8-8.9,9.3-11.4,15.1-.8,0-1.6.3-2.5.4-8.5.7-17.3,0-25.5,3-2.9.9-4.7,3.6-7,5.4-2.7,1.6-6,1.7-9.1,2.4,10,7.1,18.6,16.5,23.7,27.7,1.4,3.1,2.9,6.1,3.5,9.5-1.3-1.9-1.7-4.2-2.6-6.2-4.1-9.6-10.3-18.5-18.3-25.2-20.8-18.7-54.3-20.1-77.2-4.5-4.3,2.7-8,6.4-12,9.6,2.9-.2,5.8,0,8.7-.2,2.4-1.3,4.3-3.2,6.7-4.7,10.8-6.6,23.5-10.3,36.1-9.3,11.9.9,23.6,5.2,33,12.6,8.9,7.1,15.3,17,18.9,27.7,2.9,9.2,3.6,18.8,4.6,28.4,7.7,0,15.4-.3,23.2-.4-2.1-10.1-4.1-20.2-5.5-30.5.1-.8.2-1.6.4-2.4,1.2,11,3.6,21.9,5.8,32.8h7.8c.4.1,1.3.5,1.7.6-11.1.2-22.2.4-33.3.3.2,2.4.5,4.8.4,7.2-.8-1.1-.7-2.6-.9-3.9-1.1-12.4-2-25-6.6-36.7-4.8-11.6-13.4-21.6-24.5-27.6-8.6-4.8-18.3-7.4-28.1-7.6-15.7,0-31.7,6.2-42.5,17.7-6.6,6.7-10.6,15.4-13.3,24.3-3.4,12.1-3.7,24.8-2.1,37.1,0,.4-.2,1.3-.3,1.7-2.1-12.2-1.6-25,1.3-37.1,2.2-8.7,6.1-17.1,11.7-24.2,1.7-2,3.7-3.6,5.3-5.6-2.1.2-3.4,2-5.1,3-2,.5-4.1.2-6.1.2-.4.4-1.1,1.4-1.4,1.8,2.3.2,4.7.4,7,.8-2.5,0-5,0-7.6,0-5.9,8.6-9.3,18.5-11,28.7-1.1,6.9-1.6,14-1,21,.3,2.5.4,5,.4,7.6-4.8-.6-9.7-.4-14.4-1.6,4.6-.1,9.2.6,13.8.9-.3-6.7-1.2-13.4-.4-20.1.7-10.7,3.3-21.4,8.5-30.9,1.1-1.9,2.3-3.8,3.4-5.8-6.5-1.7-12.2-5.3-18-8.6-6.6,4.2-12.6,9.5-20.3,11.4-8.6,2.1-17.2,4-25.5,6.8,3.6-5.3,9-8.9,13.9-12.9,7.9-6.4,16.4-11.8,24.9-17.2,1.7-1.1,3.5-2.1,5.4-2.8-8.2,5.2-16.4,10.4-24.3,16.1-3.8,2.8-7.4,5.7-11.1,8.7-2.6,2.1-5.2,4.2-7.2,7,4.7-1.3,9.3-2.8,14.1-3.9,5.2-1.3,10.6-2.1,15.4-4.5,7.8-3.7,14-10.2,22.2-13.2,4.1-5.3,10.9-7.6,15.4-12.4-2.6,1.5-4.9,3.7-7.9,4.5-2.6.8-5.3,1-8,1.5-.2-.9-.3-1.8-.5-2.6v2.4c-1.2.2-2.5.5-3.3,1.4-5.7,5.3-11.3,10.6-17.2,15.8-1.3,1.3-3.2,1.5-5,1.9,2-3.2,4.4-6.2,6.5-9.4-4.4,1.5-4.3,7.3-8.4,9.2-1.6.7-4,1.5-5.2-.3-1.4-1.9-.3-4.4,1.4-5.7,2.8-1.8,6.3-4.1,9.7-2.4,4.7-4.6,9-9.8,14.8-13.2,2.5-1.7,4.5-3.9,6.8-5.7,1.7-1.4,3.8-2.2,5.8-3.1,4.9-1.2,10-2.1,15-2.6-1.5,2.8-3.2,5.4-4.5,8.3,2.4-2.8,3.9-6.2,5.8-9.2,3.6-1,7.3-1.8,11-2.4,14.7-2.7,29.7-4.2,44.7-4.7,15.1-.6,30.2-1,45.4-.7,8.8.7,17.5-.4,26.3-.5,2,0,3.9-.3,5.9-.7-.2-.3-.5-1-.6-1.3,3.5-1.6,6.2-4.4,9.2-6.7,11.9-9.3,24.1-18.2,36.8-26.3,8.8-5.5,17.6-11,27-15.5.5-.3,1.1-.5,1.6-.7,6.7-2.9,13.6-5.2,20.7-7M578.3,76.6c.2,1.2,2.9.5,3.5,0-1.1-.4-2.5-.5-3.5,0M561,78.7c-1.2-.8-2.3,2.6,0,1,5.3-.9,10.8-1.3,16.1-2.3,0,0,.4-.3.5-.4-1.8-.6-3.6,0-5.4,0-3.7.3-7.4.9-11.1,1.6M59.3,88c4.4-1.3,8.9-1.8,13.3-2.9.8-1.6,1.7-3.2,2.6-4.7-5.6,2-10.7,5-15.9,7.6M38.6,100.8c.7,0,1.3-.2,1.9-.4,1.4-2.2,3.5-3.8,5.2-5.8-3,1.1-4.6,4.3-7.1,6.1M52.7,101.5c1.8,1.4,3.9,2.7,6.1,3.4,1.8-.4,3.6-.9,5.4-1.3-3.1,0-4.1-3.2-4.3-5.8-2.6.7-4.8,2.5-7.2,3.7M59.4,105.2c.7,1.5,2.7,1.1,4,.8,1.4-.4,3.2-.3,4.2-1.6-2.7,0-5.4.6-8.1.8M67.8,104.9c-1.7,1.5-4.2.9-6,2.3.6.2,1.8.5,2.4.7,2.6-.8,5.3-.9,7.9-1.5-2.4,1.3-5.5.2-7.7,2,1.9.8,3.9,1.4,5.8,1.9,1.7-1.6,3.1-3.5,4.4-5.4-2.3,0-4.5.2-6.8,0M75,105.5c-.7.8-1.4,1.6-2.1,2.4,1.8.2,3.7.4,5.5,0,1.2-.7,2.2-1.7,3.3-2.6-2.2-.3-4.5,0-6.7.3h0Z"/>
    <path class="st84" d="M304.3,15.5c13-3.9,26.6-4.8,40.1-4.8,43.5.3,86.8,9.2,127.2,25.2,5.2,2.1,10.5,4.1,16.1,5,2.3.2,4.1,2.9,3.1,5.1-.8,1.6-2.6,2.2-4.2,2.9-4.3,1.4-8.8,2.5-13.1,3.9-.2,0-.6,0-.8-.2,2.1-.7,4.5-.9,6.2-2.3,2-2.3,1.5-5.9,0-8.4-2-3.2-5.8-4.2-9-5.5-12.4-5-25.2-9.1-38.2-12.5-16.7-4.8-33.9-7.9-51.1-10-16.4-1.8-32.9-3-49.4-1.9-9.8.5-19.6,2-29,5.1-7.6,2.4-14.9,5.8-22.1,9.4l.5-1c7.5-4.1,15.4-7.5,23.6-9.9M126.3,140.2c1.9-10.4,3.9-21,9.3-30.2,7.8,1.7,14.8,7,19,13.7-2.6,1.9-5.1,4-7.7,5.9-2.2-1-3.9,1.6-6.1,1.7-.6-.9-1.2-1.8-1.9-2.7-1.9-2.1-4.3-4-7-4.8-1.3,2.6-3,6.7-.1,8.8,2.1-1,3.5-3.4,5.8-3.9.3.3.8.8,1,1.1.2.9.5,1.9.8,2.8-1.2.7-2.4,1.3-3.8,1.5-.2-.7-.4-1.7-1.2-1.9-1,.2-.1,1.6.3,2h-1.5c-.3.2-.9.6-1.2.8,0,.2.2.8.2,1v1l-.6,1c-.9-1.1-1.6-2.5-3.2-2.6.1,1.2,1.8,1.4,2,2.5-.3,0-1,.3-1.4.4-.2-.3-.5-1-.7-1.3-.2.7-.6,2.1-.8,2.8.4.4.9.7,1.3,1.1-.7.3-1.5.6-2.2.9,0-.4-.2-1.2-.3-1.6M135.9,111.1c-1.4,3.7-3.3,7.3-4.1,11.2.3,0,.8.4,1.1.6.9-2.9,2.2-5.7,3.9-8.2.8-1.8,4,.9,4.4-1-1.4-1.5-3.4-2.1-5.3-2.6M137.1,133.1c1.2,0,1.1-2.1,0-2.2-1,.1-1,1.9,0,2.2M130.1,134.3c.2,2.2,1.9-1.1,0,0h0Z"/>
    <path class="st92" d="M232.4,35.9c16.4-9.4,33.1-18.5,50.9-25.1,1.6,1.7,2,4.4,3,6.5-9.4,4.4-18.2,10-27,15.5-12.7,8.2-24.9,17.1-36.8,26.3-3,2.3-5.7,5.1-9.2,6.7h-1.6c10.1-9.2,21.2-17.3,32.3-25.2,8.4-6,17.2-11.3,26-16.7-4.1-.3-8.1,0-12.2.5,4.4-2.6,9.1-4.6,13.5-7.1-7.4,2.6-13.8,7.3-20.9,10.8-18.1,9.9-36,20-53.7,30.6,2.7-.3,5.4-1,8.1-1.6,8.4-1.7,16.2-5.1,24.5-6.9-6.5,5-12.9,10.1-19.1,15.6-9.2-1.3-18.5-2.3-27.8-3.4-1.2,0-2.4-.5-3.5-1,4.1-.4,8.3-.5,12.2-1.7,13.7-7.9,27.2-16.1,41.1-23.7M468.4,122.5c4.5-7,11.8-12.1,19.8-14.3,1.7,4.7,3.9,9.3,5.2,14.2,1.6,5.4,2.1,11.1,3.6,16.6-.5.3-1,.7-1.6,1-1.2-.8-2.7-1.3-3.4-2.7-1.6,0-2.9-.9-4.2-1.6-2.3-1.2-4.6-2.5-6.6-4.1,3.2.5,5.7,2.8,8.6,4.1-.3-.7-.6-1.3-.8-2,.2-1.1.3-2.1-.8-2.6,0-.8,0-1.6-.1-2.5.7.9,1.3,2,1.9,3,1.1-.8,2.2-1.5,3.4-2.1-.7.9-1.4,1.8-2,2.7.4.5.8,1,1.2,1.5.6-.4,1.3-.7,1.9-1-.2-3.6-1.5-7.1-4-9.8-1.5.7-3,1.5-4.2,2.6l-.4.3c-1.2,1.5-2.1,3.3-2.8,5.2-3.3-1.7-5.6-4.8-9.1-6,1.2,1.4,2.6,2.5,4,3.6.1.3.4.9.5,1.2-3.4-2.3-6.6-4.8-9.9-7.2M495.5,138.8c-.3-1.7-.6-3.4-.7-5.2-2.5.5-1.4,4.6.7,5.2h0Z"/>
    <path class="st24" d="M331.3,11.9c16.5-1.1,33,.2,49.4,1.9,17.2,2.1,34.4,5.1,51.1,10,13,3.4,25.7,7.5,38.2,12.5,3.2,1.3,7.1,2.3,9,5.5,1.5,2.5,2,6.1,0,8.4-1.7,1.5-4.1,1.7-6.2,2.3.2,0,.6,0,.8.2-4,1.8-8.4,1.4-12.6,2.3-5,1.1-10.2,0-15.2,1-4.6.2-9.1,1-13.7.9-1.6,1.6-4,1-6,1.3-5,.6-10-.5-15,0-2,1.8-4.9,1-7.4,1.2-2.9,0-5.7,1.1-8.5.3l-.9-.2c-5-.3-10,.4-15,0-2.6-.2-5.2,0-7.8,0s-1.9,0-2.5-.6c4.6-.2,9.3-.3,13.9-.7,2.7-7.8,5.6-15.4,8.5-23l.6-.7c-2.4,8.1-5.8,15.8-8.6,23.8,23.3-1.4,46.5-2.9,69.7-5.3,6.2-.7,12.4-1.4,18.4-2.8,1.8-.5,4-1.1,4.7-3,.6-2.8-.9-5.9-3.5-7.1-2.7-1.4-5.5-3-8.5-3.5h-.4l-.2-.3c-2.9-1.7-6.1-2.4-9.2-3.7-13.4-4.5-26.9-8.6-40.7-11.6-12.9-2.7-25.9-4.8-39-6.2-17.4-1.8-35.1-2.5-52.6-.5-20.5,2.2-39.6,11.3-56.4,22.9-4.9,3.1-9.6,6.4-14.5,9.5-1.3,0-.5,1.2-.4,1.9-.6.9-1.2,1.8-1.8,2.6-.4-.2-1.1-.6-1.4-.8.9-.5,1.9-1,2.8-1.5-.7,0-1.4-.4-2.1-.2-6.7,4.4-13,9.3-19.4,14v-1.2c6.4-5.3,13.4-9.8,20-14.8,4.1-3.2,8.5-5.9,12.8-8.8,6.1-4.2,12.3-8.2,18.8-11.8,7.1-3.6,14.4-7,22.1-9.4,9.4-3.1,19.2-4.6,29-5.1h0l-.3.2Z"/>
    <path class="st42" d="M322,14.5c17.5-2,35.1-1.2,52.6.5,13.1,1.4,26.1,3.5,39,6.2,13.8,3.1,27.3,7.2,40.7,11.6,3.1,1.2,6.4,1.9,9.2,3.7l.2.2c-1,.2-2,0-3-.4-20.6-7.4-41.8-13.8-63.4-17.2h-.5c-16.2-2.7-32.6-4.3-49-4.8-16.6-.2-33.6.8-49.3,6.7-11.7,4.4-22.8,10.4-33,17.6l.3-1.2c16.8-11.5,35.9-20.6,56.4-22.9h-.2Z"/>
    <path class="st117" d="M298.4,21c15.7-5.9,32.7-6.9,49.3-6.7,16.4.5,32.8,2,49,4.8-1.5,3.6-2.4,7.4-3.9,11-1.1-1.2-2.9-1-4.4-1.3-15.9-2.1-32-3.4-48-3.1-15.1.1-30.5,2-44.5,8.1-3.3,1.5-6.8,2.9-9.8,5-.1,0-.4.2-.5.3-9,.6-17.9,2.2-26.7,4.1,2.1-1.6,4.4-2.9,6.5-4.5,10.3-7.1,21.3-13.2,33-17.5M173.1,61.8c2-.4,4-.7,6-.6,1.1.6,2.3.9,3.5,1,9.3,1,18.5,2.1,27.8,3.4.3,0,1,0,1.4,0h1.6c.2.3.5,1,.6,1.3-1.9.3-3.9.6-5.9.7,1.3,0,2.6-.5,3.8-1.1-8.7-1.3-17.4-2.1-26.1-3.3-4.3-.4-8.4-1.6-12.7-1.5M120.8,149.9c-.7-1.1-1.9-2.2-1.4-3.6.2,1.1.8,1.7,1.8,1.9v-.9h.6c-.3.7-.6,1.5-.9,2.2,1.4.3,2.8,0,4.1-.7-.9,1.5-2.9,1-4.4,1M107,149.7c.4-1.1,2.9.3,2.4,1.4-.9.2-1.8-.7-2.4-1.4M503.8,150.5c1.4.5,1.5,1.8,1.7,3.1.4,0,1.2.2,1.6.2.1.4.3,1,.4,1.4-.5.2-.9.5-1.4.7-.7-1.8-1.7-3.6-2.4-5.4M494.3,163.9c.7.4,1.3.9,2,1.3-1.4,1.2-2.6,2.7-3.6,4.3,0-2,.9-3.8,1.6-5.6M503.9,164.7h1.3c1.1,0,1.2,1.4,1.6,2.2-.2.8-.3,1.6-.5,2.4-.1-1.9-.7-3.7-2.5-4.7M213.2,171.2c15.7-.2,31.4,0,47.1-.6-.9.3-1.7.6-2.6.9-11.7-.1-23.4.3-35,0-3.1,0-6.3,0-9.4-.4h0Z"/>
    <path class="st5" d="M438.7,16.1c0-.3.2-1,.2-1.3,25.8,7.3,51.1,16.2,76.5,24.8,7.3,2.6,14.6,5,21.8,7.8,1.5.5,1.9,2.2,2.7,3.3,15.5,4.4,31.1,8.4,46.6,12.5,2.6.8,5.4,1.3,7.4,3.3,3.1-2.7,6-5.8,6.8-10-2.9,1.5-6.2,3-7.7,6,2.4-.8,4.1-2.5,6.1-3.9-1.9,2.2-4.4,3.9-6.7,5.7-.9-1.4-2.3-2.3-4-2.6-5.6-1.4-11.3-2.8-17-3.8.3-.3.7-.6,1.1-.9,4.3.6,8.4,2,12.8,2.1,1.9.7,3.9.9,5.9,1.1-1.5-.9-3.9,0-4.8-1.5,1.4-.5,3.2.4,4.8.5,0,.4.2,1.1.3,1.4,1.9.5,3.2-1.4,4.7-2.2,1.9-1.1,3.8-2.3,5.3-4,0,1.4,0,2.8-.3,4.2-1.8,3.2-4.2,6-6.8,8.5,2.8,2.7,4.9,6,7.7,8.7,1.6,1.6,3.2,3.1,4.8,4.7-2.9-1.2-6-.2-9,0v.9c2.8,0,6.3-1.6,8.7.7.8-.5,1.6-.2,1.4.8-.3,1.4-1.7,2-3,1.9-7.7.2-15.4,0-23.1,0-1.2-.2-3.1,0-3.6-1.4,4.5-.2,9-.8,13.5-1.3.3,0,.8-.4,1.1-.6-2.1-.2-4.2.6-6.2,0v-.4c6-.2,11.8-1.5,17.7-2.1-4.1-3.5-7.2-7.9-10.8-11.8-2.3-2.4-5.8-2.9-8.8-3.8-15-3.8-29.9-7.7-44.7-11.9-1.6-1.3-2.9-3-5-3.6-27.1-9.5-54.4-18.7-81.9-27.1-4.9-1.6-9.8-2.9-14.7-4.7M593.4,81.3c.7.8,3.6.5,4.3-.4-1.4-.3-3,0-4.3.4h0Z"/>
    <path class="st63" d="M250.6,27.9c7-3.4,13.4-8.1,20.9-10.8-4.4,2.6-9.1,4.6-13.5,7.1,4-.5,8.1-.7,12.2-.5-8.8,5.4-17.6,10.7-26,16.7-11.1,7.9-22.2,16-32.3,25.2-.3,0-1,0-1.4,0,6.1-5.4,12.6-10.5,19.1-15.6-8.3,1.7-16.2,5.2-24.5,6.9-2.7.6-5.3,1.3-8.1,1.6,17.6-10.6,35.6-20.8,53.7-30.6M587.5,131.3c8.1-3.2,16.7-6.1,25.5-5.1,2.6,0,5,2.3,4.3,5-1.3.9-3,.9-4.5,1.3-9.8,1.4-19.7,1.6-29.5,1.4.9-1.6,2.8-1.9,4.3-2.6M591.2,130.7c-2,.8-4.3,1.2-6,2.7,10.4-.6,21,0,31.2-2.4.3-1.8-.5-3.6-2.5-3.8-7.7-1.2-15.5,1-22.7,3.6h0Z"/>
    <path class="st158" d="M396.7,19h.5c-1.5,4.7-3.2,9.4-4.7,14.1,5.8-.4,11.5,0,17.3,0,0,.6-.2,1.8-.3,2.4-1.2,5.5-3.3,10.8-3.8,16.5,6.8,0,13.5-.6,20.2-1,9.7-.5,19.4-.9,29-2.3,2-.3,4-1,5.8-1.9,0-1.3-1.5-1.7-2.4-2.3-10.1-4.7-21.3-6.1-31.9-9.2.2,0,.8-.2,1-.3,4.5-.2,9.1.5,13.6.9,6.1.7,12.3,1.3,18.5,2.2,3.2.3,6.3,1,9.4,1.6-1.7-1.1-3.9-1.5-5.2-3.1h.4c3.1.5,5.8,2.1,8.5,3.5,2.6,1.2,4.1,4.3,3.5,7.1-.7,2-2.9,2.5-4.7,3-6.1,1.4-12.3,2-18.4,2.8-23.2,2.4-46.5,3.9-69.7,5.3,2.8-8,6.1-15.7,8.6-23.8.2-1.5.3-3.1.9-4.5,1.5-3.6,2.4-7.4,3.9-11M248.1,48.9c.7-.2,1.4,0,2.1.2-.9.5-1.9,1-2.8,1.5-3,1.7-6.2,3.8-7.3,7.2,1.8-.2,3.6-.5,5.4-.7,9-.9,18-1.7,27-2.2.3.7.6,1.5.9,2.2-4.4.7-8.9.9-13.3,1.5-6.2.6-12.3,1.7-18.5,2.4-.9,0-1.7.3-2.3.9,4.1,0,8.2-.9,12.3-1.3,6.9-1.2,13.9-1.5,20.8-2.4.1,1.5,0,3.1-.1,4.6,2.2,0,4.4-.2,6.6-.3.5-3.1,1.5-7-1.1-9.5-2-2.3-5.1-2.2-7.9-2.5-.2-.3-.5-.9-.7-1.3,2.3-.5,4.6-.8,6.9-.6,2.5.7,5.5,1.2,6.8,3.7s1.3,5.5,1.6,8.2c0,.5-.1,1.5-.2,2-4.2-.2-8.4.7-12.6.5-.4.7-.7,1.5-1,2.2l-.4.8c-5.4,1.2-10.8,2.3-16.3,3.1,3,2.7,7.6,0,10.8,1.9,1.2,2,2.2,4.9,5.1,4.6,41.1.3,82.3-.3,123.4-.3-1.2-5.7-3.6-11.5-8.2-15.1-1.2-.2-2.5,0-3.8,0-.8-.2-1.5-.3-2.3-.5,5,.2,10-.4,15,0l.9.2c-3.1-.2-6.1,0-9.2.2,4.1,3.8,7.1,8.9,8,14.5.3,8.9-1,17.8-3.7,26.3-4.6,14.2-11,27.8-19.5,40.1-2.6,3.7-5.4,7.4-9.1,10-2.5,1.7-5.5,2.1-8.3,3,3.7,0,7.5-1.3,10.3-3.8,3.6-3.1,6.3-7,9-10.9,7.2-10.9,13-22.9,17.2-35.3,3.3-9.2,5.1-19,4.7-28.7,5.6,0,11.2,0,16.8.8v2.2c1.4,1.1,3.3.5,4.9.3,6.7-1.6,13.5-3.1,20.3-4.3,3.8-.6,7.5-1.6,11.3-1.4.8.2,2.2.3,2.1,1.4-1.1,4.5-6,7.2-6.6,11.9.1,3.1,3,5.2,5.9,5.6,4.5.8,8.7-1.6,12.6-3.5,7.1-3.5,14.5-6.6,22.3-8.3,10.1-2.3,20.6-2.1,30.8-.3-.5.3-1,.7-1.5,1-6.9-1.3-13.9-1.1-20.9-.7-21.4,2.6-42,15.8-51.5,35.5,2.1-2.3,3.3-5.3,5.2-7.7,6.8-9.7,16.5-17.3,27.4-22,13.7-6.1,29.4-7.2,43.9-3.5,5,1.2,10,2.9,14.2,6-2.3,1-4.8,1.9-7,3.1-9.5-3.5-19.6-5.6-29.7-4.6-13.1,1.2-25.9,6.4-35.6,15.3-7.3,6.9-13.4,15.2-16.6,24.8-5.7,15-5.9,31.5-2.6,47.1-3.8-.3-7.7-.1-11.5-.1-19.1,0-38.1.3-57.2.4-14,0-27.9.6-41.9.4-1.4-.4-2.8-.8-4.3-.7-9.1.3-18.3,0-27.4-.2-.3-.3-.8-.8-1-1.1,3.7,0,7.4-.2,11.1,0,5.5,1.1,11.1.4,16.7.7,7.5-.2,15,0,22.4-.6-2.8-.1-5.5-.1-8.2-.6,7.3-.3,14.7,0,22-.4,3.5,0,7.1-.4,10.6.3v-1.2c-3.4,0-6.8,0-10.1.2,1.3-.2,2.6-.4,3.9-.7,6.2-.2,12.6-.7,18.8.2-4.2,0-8.5.3-12.7-.2.4.4.9.8,1.3,1.2,16-.1,32-.4,48.1-.7-2.6-.4-5.3-.7-8-.7-6.4.3-12.9.4-19.3.1l-.8-.3h15.4c1.4,0,2.9,0,4.2-.7-7.8-.6-15.6-.2-23.4-.1-7.8-.2-15.6,0-23.5-.1-12.1.1-24.2.7-36.3.7s-9,0-13.6.4c-13.5.3-27,.3-40.5.3s-10-.2-15,.2c-15.7.5-31.4.3-47.1.6-5,0-10.2.2-15,1.8-1.1.2-2.2.3-3.4.5,1,.1,2,.2,3,.3-3.9.9-7.9.7-11.8.5-.1-.5-.4-1.4-.6-1.8-.3.9-.5,1.8-.8,2.7-.5-2.9,0-6-.9-8.8-.3,2.8,0,5.6.2,8.4-5.3,0-10.5-.1-15.8-.1,5.7-9.8,8.5-21.3,7.4-32.6-.8-9.8-4.8-19.2-10.7-27.1-7.9-10.1-19.6-17.2-32.3-19.3-4.2-.9-8.6-.8-12.9-1.1v1.2c11-.7,22.2,2.1,31.6,7.9,9.8,6.1,17.2,15.7,21,26.6,4,11.6,3.5,24.6-1,36-4.1,11.4-13,20.4-23.2,26.4,33-.8,66-.9,99-1.3,3.4,0,6.9-.1,10.3,0,4.6,1.1,9.4.4,14.1.7h94.1c1.5,0,2.9-.3,4.3-.7,35.6,0,71.3.7,107,1.2-19.7-10-31.7-33.2-28-55,1.7-11.4,7.6-21.9,15.9-29.9,7.5-7,17.2-11.3,27.2-13,10.5-1.9,21.3.2,31,4.5,11.5,5.3,20.4,15.4,25.3,27,4.1,10.1,4.7,21.7,1.9,32.3-3.7,14.5-14,26.9-26.9,34.3,21.6.2,43.2.9,64.8,1.8,7.5.4,14.9.7,22.4,1.4,1.2.1,2.4.4,3.5.7-9,1.3-18.1,1.4-27.2,1.9-14,.6-28,.9-42,1.3-14.8.3-29.6.6-44.4.9-87.8.7-175.6,1.6-263.4.8-.7-1-1.9-1.1-2.9-1-9.2,0-18.4-.1-27.7,0-3.4,0-6.9-.4-10.2.7-16.1.1-32.2-.4-48.3-.4s-14.8-.1-22.2-.2c-18.4-.6-36.8-.8-55.2-1.1-19.8-.7-39.6-.7-59.4-2.8.2,0,.6-.2.9-.3,9.3-1.3,18.7-1.4,28-1.9,20-.7,40-1.3,60.1-1.5-5.9-3.2-11-7.7-15.6-12.7-5.9-6.5-9.5-14.8-11.6-23.3-1.2-4.8-1.2-9.7-1-14.6-.3,0-.9.1-1.2.2-.5,11.8,2.9,23.5,8.9,33.6-4,.7-7.9,1.6-11.7,3.1-.6-3-1.2-6-1.7-9.1-1.6-12.4-1.2-25.1,2.1-37.1,2.7-8.9,6.7-17.6,13.3-24.3,10.8-11.5,26.8-17.6,42.5-17.7,9.8.2,19.6,2.8,28.1,7.6,11.1,6,19.7,16,24.5,27.6,4.6,11.7,5.5,24.3,6.6,36.7.2,1.3.1,2.7.9,3.9,0-2.4-.2-4.8-.4-7.2,11.1,0,22.2,0,33.3-.3,17.4-.2,34.8-.7,52.2-.8,3.2,1.2,6.9-.1,9.9,1.5-28.8,1.5-57.6,2.8-86.3,4.6v.6c8.9-.9,17.8-.4,26.7-1.1,34.2-.7,68.4-2.1,102.6-3.2,23.5-.9,47-2.9,70.5-4.6,1.1-.1,2.2-.4,3.2-.7,1.1,0,2.2.2,3.4.3-7-2.6-14.5-1.9-21.8-2.1-7-.1-14.1-1-21,.5-2.1.5-4.5.2-6.2,1.8.1-.7.3-1.4.4-2,.6,0,1.8.3,2.4.4v-.7c-2.4.1-4.8.4-7,1.1,1.4.1,2.9,0,4.3-.1-.2.3-.5.9-.7,1.2-11.2,1.8-22.6,1.4-33.9,2.4-.9,0-1.9-.2-2.7-.5-.3-.2-.9-.6-1.2-.8,6.3,0,12.6-.6,19-.6,4.6-.2,9.3-.2,13.9-1v-.2c-2.6-.6-5.3.3-7.9.2-11.2.2-22.4,1-33.6,1-19.9.6-39.9,1.4-59.8,1.6-9.3.4-18.6.2-27.9.6h-7.8c-2.2-10.9-4.6-21.8-5.8-32.8-1.2-14.2-1.9-28.8,2.1-42.7.9,0,1.7-.2,2.6-.3,7-.5,14-.7,21-1.1,9.2-.4,18.4-1.2,27.6-1.1-5.3-1.8-10.7-3.4-15.5-6.3-1.5-.7-2.3-2.9-1-4.2,1.7-1.4,3.8-2.3,5.5-3.6-6.6-1.6-13.4.2-20.1-.3.8-.2,1.5-.3,2.3-.4.5-1.4,1.5-2.3,2.5-3.2,6.4-4.8,12.7-9.7,19.4-14M226.7,65.1l-.3,1.2c5.2,0,10.3-.3,15.5-.4-.9-1.8-3.2-1.2-4.8-1.3-3.4.2-7-.2-10.4.5M362.8,84.1c-4,1.3-8.2,2.1-12,4.1-2.3,1.9-.5,5.6,2.1,6.1,5.2,1.4,10.7.9,16.1,1h1.4v-.4c3.4-.4,6.8-.7,9.9-2,2.6-.9,4.7-3.4,4.4-6.2,0-1.1-1.2-1.1-2-1.2l-.3-.4c-2.5-.3-5.1-.3-7.7-.8-3.8-1.4-8-.7-11.9-.2M404.1,93.2c-1.9,1.6-2.4,4.2-3.4,6.4-4.7,13.9-10,27.5-16.1,40.8,4.5-.3,9.1-.4,13.6-1.2,3.2-.5,6.2-2.2,8.3-4.7,3.6-4.2,6.2-9.3,8.8-14.2,3.5-6.9,6.8-13.9,9-21.3.5-2.2,1.3-4.5.9-6.7-1-1.8-3.3-1.8-5-2-5.4-.2-11.1.4-16,2.9M87,109.1c-8.9,8.4-14.6,20-16.1,32.2.4.4.7.9,1.1,1.3,0-5.9,2-11.5,4.2-16.8,7.5-16.7,24.6-29.2,43.1-29.8-.4-.4-.9-.7-1.3-1.1-11.5,1.2-22.5,6.2-30.9,14.2M492.2,105.8c-6.4,1.4-12.4,4.5-17.6,8.5-8.5,7.1-14.2,17.5-15.1,28.5-.3,6.7.8,13.6,3.8,19.6,4.6,8.8,12.1,15.8,20.9,20.3,7.6,3.4,16.2,4.5,24.3,2.5,8.7-2.1,16.8-7,22.6-13.9,4.7-5.2,7.5-11.9,8.9-18.7,1.7-8.4.2-17.2-3.4-25-4.1-8-10.8-14.6-18.8-18.6-7.9-3.7-16.9-5.2-25.5-3.3M116.4,107.1c-6.7,1.2-13.1,4.3-18.5,8.4-8.9,7.5-15,18.8-15.1,30.6-.2,10.8,4.1,21.6,12.1,28.9,2.9,3.6,7,5.9,10.9,8.2,5.3,2.8,11.4,4.3,17.4,4.4,6.9,0,13.7-2.2,19.8-5.4,5-2.9,9.2-7,12.9-11.4,4.3-5.4,6.6-12.2,7.6-18.9,2.5-18.2-9.2-37.3-26.7-43-6.4-2.6-13.5-2.9-20.3-1.8M533.4,88c7.4-2.7,14.7-5.5,22.3-7.8,3.8,2.3,7.1,5.4,11,7.5,2.1,1.2,4.5.9,6.8,1,9.3,0,18.7,0,28,0,.6.2,1.3.4,1.9.6-9.8,0-19.5.2-29.3,0-1.5-.3-2.4.9-3.2,1.9,3.2,4.3,8.5,6.6,13.8,6.4h22.3c2.7,0,5.4.2,8-.7-1.6-2.9-2.9-6.3-6-8-.8-.2-1.7-.4-2.4-.7l-.7-.4c2.3-.2,4.3-1.7,5.4-3.7,1.8,3,3.9,5.8,6,8.6,1.2,1.7,2.8,3.3,2.7,5.5.2,5-.2,10-.4,15,0,.7,0,1.3,0,2,0,2.3-.3,4.5-.3,6.8-.2,3,2,5.5,1.9,8.5.2,7.2-3.6,13.5-6.8,19.6-1.7,3.3-4.9,6.1-5.2,10-16.6,4.7-33.5,8.5-50.6,10.7.9-4.3,1.6-8.7,2-13.1.8-9.1,0-18.4-2.2-27.3-3.1-12.6-10.7-23.8-20.8-31.9-3.8-3.1-8.2-5.4-12.6-7.6,2.5-.9,5-2.2,7.6-3,9.8,5.6,18.5,13.4,24.3,23.1,5.7,8.9,8.9,19.3,10,29.8.6,4.1,0,8.1.5,12.2.9-3.9.5-8.1.2-12.1-1.2-13.1-6.1-25.9-14.3-36.3-5.3-7.1-12.3-12.6-19.8-17.2M587.5,131.3c-1.5.7-3.4,1.1-4.3,2.6,9.8.2,19.8,0,29.5-1.4,1.5-.4,3.2-.4,4.5-1.3.7-2.7-1.7-5-4.3-5-8.8-1-17.4,2-25.5,5.1M618.7,129c0,1.3,0,2.6-.2,3.9-.9,2.3-3.5,3.1-5.6,3.7-8.2,2.1-16.6,2.8-24.9,4.2-3.4.6-7.1.7-10.2,2.4-2.2,1.2-1.4,4.1-1.3,6.1.6,2.6,1.6,5.5,4.2,6.7,7.8-.4,15.6-1.5,23.3-2.7-1.6,1.8-3.1,3.7-5.2,5-2.9,1.6-6.3,2.1-9.6,2.5-6.6.9-13.2,1.8-19.8,2.7-1,.1-1.9.4-2.7.8,2.6,0,5.2-.6,7.8-.9,7-1.1,14.1-1.6,21-3.2,2.7-.6,5-2.2,6.8-4.3,2.1-2.5,5-4.1,7.1-6.7,3.2-3.8,6.1-8,7.6-12.8.5-1.4,1.6-2.4,2.1-3.8,0-1.2.4-2.7-.5-3.6M174.7,86.3c8.1-3,17-2.3,25.5-3,.9,0,1.8,0,2.8,0-.7,2.2-1.4,4.4-1.8,6.7-2.1,12.7-2.1,25.7.1,38.4,1.4,10.2,3.4,20.4,5.5,30.5-7.7,0-15.4.4-23.2.4-1-9.5-1.8-19.2-4.6-28.4-3.5-10.7-10-20.6-18.9-27.7-9.4-7.4-21.1-11.7-33-12.6-12.7-.9-25.4,2.7-36.1,9.3-2.3,1.4-4.3,3.4-6.7,4.7-2.9,0-5.8,0-8.7.2,4-3.2,7.7-6.8,12-9.6,22.9-15.6,56.4-14.2,77.2,4.5,8.1,6.8,14.2,15.6,18.3,25.2.9,2.1,1.4,4.3,2.6,6.2-.6-3.3-2.2-6.4-3.5-9.5-5.1-11.3-13.7-20.6-23.7-27.7,3-.6,6.3-.7,9.1-2.4,2.3-1.8,4-4.5,7-5.4M460.3,145c4.5-.8,9.1-1.7,13.8-1.8,5.8,0,11.5,1,17.2,2.2,1.3.3,1.7,1.7,2.5,2.6-1.1.9-2.2,1.9-3.2,2.9-.3-.3-.6-.6-.9-.8-.6.3-1.2.7-1.8,1.1-.6.3-1.2.7-1.8,1.1,0-.9-.1-1.8-.2-2.7.3.1.8.3,1,.4l1.1.4c.8-.8,1.5-1.8,1.6-3-.4.3-1.1.9-1.5,1.2l-.7-.3v-2.4c-.6,0-1.1-.1-1.7-.2-.9,2.1-2.6,3.8-3.7,5.8-.5.9.5,1.8.7,2.7-.6.6-1.2,1.2-1.8,1.8,0-.8.1-1.5.1-2.3-1.2,1.4-1.6,3.3-3.1,4.4-2.9,2.3-5.7,4.9-9.2,6.2-.3.6-.7,1.1-1,1.6.9,0,1.8,0,2.8-.1l-.4.6c-.6.6-1.9,1.8-2.7.8-4.9-6.2-7-14.3-7.1-22.1M478.7,146.3l-.5-.4c-.4,0-1,.2-1.4.3-.8-.5-1.7-.5-2.6,0-.5,1.1-.2,2.4-.2,3.5h.3c.7,1.7,1.2,3.7,2.9,4.6l1.1-.9c.7-.8,1.6-1.6,1.8-2.7-.2-1.4-.5-2.7-.8-4.1.7.7,1.4,1.4,2.1,2.1,1.8-.1,1.6-2.6,1.2-3.9-1.5,0-3.1,0-4,1.4M490.5,146.7c-.8.6,0,2.5,1,1.8.8-.7,0-2.5-1-1.8h0Z"/>
    <path class="st85" d="M397.3,19.1c21.7,3.5,42.8,9.8,63.4,17.2-.4.6-.8,1.2-1.2,1.8-6.1-.9-12.3-1.5-18.5-2.2-4.5-.4-9-1.1-13.6-.9-.3,0-.8.3-1,.3h0c-1.1-.6-2.4-1.1-3.6-1.2-4.1-.5-8.2-1.5-12.3-1.6-.1.4-.4,1.2-.5,1.6,0,.3-.3,1-.4,1.3,0-.6.2-1.8.3-2.4-5.8,0-11.5-.5-17.3,0,1.5-4.7,3.3-9.4,4.7-14.1M129.8,143c.6-.2,1.6-.5,2.2-.6v1.9c-.4.1-1.1.3-1.5.4-.2-.6-.5-1.1-.7-1.7h0Z"/>
    <path class="st108" d="M264.1,35.4c5.4-3.5,10.9-7.1,16.7-10l-.5,1c-6.5,3.5-12.7,7.5-18.8,11.8-4.3,2.9-8.7,5.7-12.8,8.8-6.6,4.9-13.5,9.5-19.9,14.8-2,1.7-4.2,3.2-6.1,5-.3,0-.8-.3-1.1-.4,3.8-3.1,7.6-6.2,11.5-9.2,4.9-3.8,10.2-7.1,15.2-11s10.5-7.2,15.7-10.7M38.6,100.8c2.5-1.8,4.1-5.1,7.1-6.1-1.7,2-3.8,3.6-5.2,5.8-.7,0-1.3.2-1.9.4M59.4,105.2c2.7-.2,5.4-.8,8.1-.8-1,1.3-2.8,1.2-4.2,1.6-1.3.2-3.3.7-4-.8M494.3,106.7c3.7-.6,7.5-.8,11.2,0-2.9.8-6,0-8.9.7-1.5.3-2,1.8-1.7,3.1.8.6,1.7,1.1,2.5,1.8-.1.7-.3,1.5-.5,2.2-.2-.6-.6-1.6-.8-2.2-.6,2.4-.5,4.9-.9,7.3-.8-4.2-.9-8.5-.9-12.8M10.7,125.5c3.8-.6,7.6-1.2,11.4-1.6l.6,1.1c-4,.5-8,1.3-12.1,1.7v-1.2M122.2,133.7c1.2.1,2.4.3,3.6.5-.6,1.9-.2,4.5-1.8,6-2.6.9-2.9-2.4-3-4.1.8-.1,1.5-.2,2.3-.3-.6,1.2-1.5,3.2.7,3.3.3-1.5.5-3,.5-4.5h-2.7c0-.2.4-.6.5-.8M128.3,142.9c1.9-1.1,4-2.1,6-3.1,0,.4-.2,1.3-.3,1.7-.4,1.3.5,2.2,1.4,2.9.1-1.5,1.1-1.8,2.4-1.5-.2.2-.5.8-.7,1l-.2.3c-2.3.3-4.5.8-6.7,1.4-.6-1-1.3-1.9-1.9-2.8M129.8,143c.2.6.5,1.1.7,1.7.4-.1,1.1-.3,1.5-.4v-1.9c-.6.2-1.6.5-2.2.6M500.5,142.6h1v.5h-1v-.5M118.4,150.8c.7.5,1.3,1.2,1.9,1.8-1.4,3.1-2.6,6.2-4.1,9.3,0-.3-.3-.9-.5-1.2,0-.2-.3-.7-.4-.9-.6-.9-1.1-2-1.4-3.1.5.4,1.4,1.2,1.9,1.6.2,0,.6-.1.8-.2.7-2,1.5-3.9,2.4-5.7-2,1.2-3.7,2.7-5.5,4.2.2,1.2.6,2.5,1.6,3.3-.6.1-1.3.2-1.9.3-.2-1-.3-2-.5-3h-1.4c2.2-2.4,5-4,7-6.5M125.9,152c1-.7,1.9-1.7,3.2-.7-.6.5-1.2,1-1.8,1.5h1.3c-.1.4-.4,1.1-.5,1.5l.8-.2c.3,1.7,1.9,3.1,1.3,4.9v2c-1.6-2.9-2.6-6-4.2-9M128.5,153.4c.4-.4.9-.8,1.3-1.2,3.3,3.3,7.1,6.3,10.4,9.6-1.4-.6-2.9-1.1-4.4-1.6l-.4-.9c-.2,0-.7-.3-1-.4v-.5c-.3-1-.6-2.4-1.9-2.1-.2.4-.5,1.3-.7,1.8h-.2l-.3-.2c0-.4.1-1.1.2-1.4,0-.3,0-.9-.1-1.3-.5.4-1.1.7-1.6,1.1-.1-.6-.4-1.7-.6-2.2h1.3c-.5-.2-1.5-.5-2.1-.7M308,172.5c10.3-.2,20.6-.5,30.9-.5,2.7.5,5.5.5,8.2.6-7.5.5-15,.4-22.4.6-5.6-.4-11.2.3-16.7-.7M184.6,175.2c.2-.9.5-1.8.8-2.7.1.4.4,1.4.6,1.8,3.9.2,7.9.4,11.8-.5,14.9-.5,29.7-.5,44.6-.7,18.2,0,36.3-.5,54.5-.6.3.3.8.8,1,1.1,9.1.2,18.2.5,27.4.2,1.5,0,2.9.3,4.3.7-15.5.3-31,.2-46.5.3-32.8.4-65.7.6-98.5.6v-.2h0Z"/>
    <path class="st59" d="M410.4,32.6c4.2,0,8.2,1.1,12.3,1.6,1.3,0,2.5.6,3.6,1.2-1.6.5-3.2,0-4.8-.2-3.9-.7-7.8-.9-11.7-1,.1-.4.4-1.2.5-1.6h.1Z"/>
    <path class="st157" d="M377.6,33c4.8,0,9.5,0,14.3.2-.2.5-.5,1.6-.6,2.1-2.9,7.7-5.9,15.3-8.5,23-4.6.4-9.3.5-13.9.7l-.3-.3c2.1-4.9,2.1-10.4,3.7-15.4,1.1-3.8,3.1-7.1,5.4-10.3M251.1,46.8c4.9-3.1,9.6-6.3,14.5-9.5l-.3,1.2c-2.1,1.6-4.4,3-6.5,4.5,8.8-1.9,17.7-3.5,26.7-4.1-5,2.5-9.7,5.4-14.4,8.5-.8.5-1.5,1.1-2.3,1.7-4.9-3.9-12.1-3.8-17.6-1.3,4.4-.8,9.2-2,13.5-.2-3.4.6-7.1.4-10.2,2.3-1.9,1.1-4,1.7-6,2.5,1.6.2,3.1-.3,4.5-1-1,2.2-3.3,2.6-5.5,2.3.1-.9.5-1.7,1.1-2.4.6-.8,1.3-1.7,1.8-2.6,0-.7-.9-1.8.4-1.9M91.9,123.9c4.2-6.8,11.2-11.9,18.9-13.9l.5.3c2.7,5.7,5.1,11.7,6.4,17.9.9,4.3,1.9,8.6,2.7,12.9-2.5.5-4.6-1.2-6.7-2.3.5-.7,1.1-1.3,1.6-2,0,.3.2.8.3,1l.2.7c.8-.5,1.5-.9,2.3-1.4-.3.5-.9,1.6-1.2,2.1.8.3,1.5.7,2.2,1-.3-1.5-.6-3-.9-4.5v-.4c-.4-1.4-.7-2.8-1-4.2-1.3.9-2.5,1.9-3.4,3.2-.2.2-.4.6-.6.8-1.5-1.7-3.1-3.2-4.7-4.8-.3.1-.9.5-1.2.6,1.2,1.2,2.4,2.3,3.6,3.5-3-1-5.2-3.5-8.3-4.3-.3.2-.9.6-1.2.9-3.3-2.3-6.4-4.7-9.5-7.3M109.2,113c2.1,2.6,3.5,5.6,5.4,8.3-.3-2.4-1.4-4.7-2.6-6.8-.4-1.1-1.7-1.3-2.8-1.4M108.7,128.7c.8.2,1.6.3,2.3.5.6,1.5,1.2,2.9,1.8,4.4,1.3-1.2,2.6-2.3,4.1-3.3-.8-2.1-1-5.5-3.8-5.7-2,.4-4.4,1.8-4.5,4.1h0Z"/>
    <path class="st31" d="M459.5,38.2c.4-.6.8-1.2,1.2-1.8,1,.4,2,.5,3,.4,1.3,1.6,3.5,2,5.2,3.1-3.1-.7-6.2-1.3-9.4-1.6h0Z"/>
    <path class="st17" d="M251.4,47.8c5.5-2.5,12.7-2.6,17.6,1.3.7-.6,1.5-1.2,2.3-1.7,1.6.3,3.3.6,4.9,1-2.3-.2-4.7,0-6.9.6.2.3.5.9.7,1.3.8,1.5,1.8,3,2.6,4.6-9,.5-18.1,1.3-27,2.2.4-1.6,2-1.6,3.3-1.8-.2-.3-.6-.9-.8-1.2l-.3-.4c2.2.2,4.5,0,5.5-2.3-1.4.7-2.9,1.2-4.5,1,2-.8,4.1-1.3,6-2.5,3.1-1.8,6.8-1.7,10.2-2.3-4.3-1.9-9.1-.6-13.5.2M507.6,146.1c.6,3.9,4.9,5.1,7.5,7.5-.3,0-.8.2-1,.3-2.2-2.2-4.7-4-6.8-6.2,0-.4.3-1.1.4-1.5h0Z"/>
    <path class="st150" d="M240.1,57.8c1.1-3.5,4.3-5.5,7.3-7.2.4.2,1.1.6,1.4.8-.6.7-.9,1.5-1.1,2.4l.3.4c.2.3.6.9.8,1.2-1.3.2-2.9.3-3.3,1.8-1.8.2-3.6.5-5.4.7M226.7,65.1c3.4-.7,6.9-.3,10.4-.5,1.6,0,3.9-.5,4.8,1.3-5.2,0-10.3.3-15.5.4l.3-1.2M8.6,125.4c5.4-1,10.9-2,16.4-2.2,1.8,1.8,2.9,4.5,1.9,7-.4-2.3-.7-4.8-2.3-6.6-.9,0-1.7.2-2.6.3-3.8.4-7.6,1-11.4,1.6-.8,0-1.6.4-2.4.6,0-.2.3-.5.4-.7M16.5,130.1c2.8-.4,5.6-.6,8.4-.8,1.1,1.9,1.6,4.1,1.7,6.3.2,5.7.4,11.4,0,17.1-.2,2.2-.6,5.2-3.1,5.9.8-.9,1.5-1.9,2.2-2.9-6.1,1.9-12.7,1.7-19,1.1,1-.7,2.2-.6,3.4-.6,5.2,0,10.5-.1,15.6-1.1.4-3.4.2-6.9.3-10.4,0-4.5.2-9.1-1.3-13.4-1.5.2-2.9.4-4.4.5.8-2.1,4.4.3,4.1-2.5-2.6.4-5.3,1-7.9.7M6.2,146.6c4.1-.5,8.3,0,12.4-.1,1.4.2,3.2-.4,4.1,1-5.5.5-11.1.2-16.5-.9M499.9,152.2c.8,0,1.2,1.1.7,1.7-1.3,1.2-2.2-1.3-.7-1.7M393.6,170.3c6.4.3,12.9.2,19.3-.1,2.7,0,5.3.2,8,.7-16,.4-32,.6-48.1.7-.4-.4-.9-.8-1.3-1.2,4.2.5,8.4.1,12.7.2,3.1.3,6.3.1,9.4-.2h0Z"/>
    <path class="st111" d="M269.9,50.3c2.7.3,5.9.2,7.9,2.5,2.6,2.5,1.6,6.4,1.1,9.5-2.2,0-4.4.2-6.6.3.2-1.5.3-3.1.1-4.6-6.9.9-13.9,1.2-20.8,2.4-4.1.5-8.1,1.4-12.3,1.3.7-.5,1.5-.8,2.3-.9,6.2-.7,12.3-1.8,18.5-2.4,4.4-.6,8.9-.7,13.3-1.5-.3-.7-.6-1.5-.9-2.2-.9-1.5-1.8-3-2.6-4.6M404.1,93.2c4.9-2.4,10.6-3.1,16-2.9,1.8,0,4,.2,5,2,.5,2.3-.3,4.5-.9,6.7-2.2,7.4-5.5,14.4-9,21.3-2.6,4.9-5.2,9.9-8.8,14.2-2.1,2.5-5.1,4.2-8.3,4.7-4.5.8-9,1-13.6,1.2,6.1-13.3,11.4-26.9,16.1-40.8,1-2.2,1.5-4.9,3.4-6.4M408.3,92.3c-1.8.6-4,1-4.9,2.8-1.5,3-2.4,6.3-3.5,9.4-4.3,11.8-8.5,23.6-14,34.9,4.8-.4,9.6-.3,14.3-1.5,3.6-1,6.2-4,8.2-7,4.6-6.9,8.1-14.4,11.5-22,1.9-4.8,4.1-9.7,4.8-14.9.4-1.6-1.2-2.6-2.5-2.7-4.6-.7-9.3,0-13.8,1M302.9,156.6c11.2,0,22.4-.8,33.6-1,2.6,0,5.3-.8,7.9-.2v.2c-4.5.8-9.2.8-13.8,1-6.3,0-12.6.6-19,.6.3.2.9.6,1.2.8.9.3,1.8.4,2.7.5-1.3,0-2.6.2-3.9,0-.2-.3-.7-.8-.9-1-7.4-.2-14.9.4-22.3.5-6.5.2-13,.3-19.4.7-17.4.1-34.8.7-52.2.8-.4-.1-1.3-.5-1.7-.6,9.3-.5,18.6-.3,27.9-.6,19.9-.2,39.9-.9,59.8-1.6h0Z"/>
    <path class="st55" d="M305.6,61c20-1,40-1.4,59.9-2.5,1,0,2,0,3,.3l.3.3c.6.7,1.7.5,2.5.6,2.6,0,5.2-.2,7.8,0,.8.2,1.5.3,2.3.5-6.2.6-12.4,1-18.7,1.1-27.2,1.2-54.5,2.8-81.7,4.2-3.5.4-7.1.4-10.7.5l.4-.8c3.6-1.2,7.4-.4,11.1-.8,5.7-.6,11.4-.3,17-1,7.1,0,14.1-.8,21.1-.9,5.7-1,11.5,0,17.2-1,4.1-.7,8.3.3,12.4-.5,5-1,10.1-.2,15.1-.6-6.4-.4-12.7,0-19.1.4-5.1-.3-10.1.9-15.1.7-8.1,0-16.2.9-24.4.7-7.3-.2-14.5,1.3-21.8.5,0-.5.1-1.5.2-2,.1.4.3,1.1.4,1.5,6.8-.5,13.7-.9,20.5-.9h0l.3-.3Z"/>
    <path class="st94" d="M345.7,60.5c6.4-.4,12.7-.8,19.1-.4-5,.5-10.1-.4-15.1.6-4.1.8-8.3,0-12.4.5-5.7,1-11.5,0-17.2,1-7,.2-14.1,1-21.1.9-5.7.7-11.4.4-17,1-3.7.4-7.5-.3-11.1.8.3-.8.7-1.5,1-2.2,4.2.2,8.4-.7,12.6-.5,7.2.8,14.5-.7,21.8-.5,8.1.2,16.2-.8,24.4-.7,5.1.2,10.1-.9,15.1-.7h0v.2Z"/>
    <path class="st135" d="M362.8,61.2c6.2,0,12.5-.4,18.7-1.1,1.2,0,2.5-.2,3.8,0,4.7,3.7,7,9.5,8.2,15.1-41.1,0-82.3.6-123.4.3-2.9.2-3.9-2.7-5.1-4.6-3.2-1.9-7.8.8-10.8-1.9,5.5-.8,10.9-1.9,16.3-3.1,3.6,0,7.1,0,10.7-.5,27.2-1.4,54.4-2.9,81.7-4.2h-.1Z"/>
    <path class="st58" d="M138.5,65.7c11.5-1.5,23.1-2.5,34.6-3.9,4.3,0,8.5,1,12.7,1.5,8.7,1.2,17.4,2,26.1,3.3-1.2.6-2.5,1-3.8,1.1-8.8.2-17.6,1.3-26.3.5-15.1-.3-30.3,0-45.4.7-15,.5-29.9,1.9-44.7,4.7-.5-.2-1-.5-1.6-.7,16-2.7,32.2-5.1,48.3-7.1h.1Z"/>
    <path class="st80" d="M222.7,66.7c1.9-1.8,4-3.4,6.1-5v1.2c-1.2.9-2.2,1.9-2.6,3.2-.8,0-1.5.3-2.3.4,6.7.4,13.5-1.3,20.1.3-1.7,1.4-3.8,2.2-5.5,3.6-1.4,1.2-.5,3.4,1,4.2,4.8,3,10.2,4.6,15.5,6.3-9.2,0-18.4.7-27.6,1.1-7,.4-14,.6-21,1.1-.9,0-1.8,0-2.7-.2,2.3-5.6,6.1-10.6,10.8-14.4,2.3-2,5.6-1.2,8.4-1.9h-.2Z"/>
    <path class="st19" d="M214.1,67.9c1.7-1.4,4.1-1.5,6.1-2.2.5.2,1,.4,1.5.6.3,0,.8.3,1.1.4-2.8.7-6.1,0-8.4,1.9-4.7,3.8-8.4,8.8-10.8,14.4.9,0,1.8,0,2.7.2-.9,0-1.7.2-2.6.3-3.9,13.9-3.2,28.5-2.1,42.7-.1.8-.3,1.6-.4,2.4-2.2-12.7-2.3-25.7-.1-38.4.4-2.3,1-4.5,1.8-6.7-.9,0-1.8,0-2.8,0,.8,0,1.6-.2,2.5-.4,2.5-5.8,6.3-11.3,11.4-15.1h.1Z"/>
    <path class="st73" d="M587.1,74c2.7-1.1,4.5-3.6,6.7-5.4.8,1.4,1.7,2.7,2.5,4.1-1.4-.5-2.7,0-3.8.8.4,0,1.2.2,1.6.2-1.8.7-3.6,1.1-5.5,1.4-.4-.3-1.2-.8-1.5-1.1h0Z"/>
    <path class="st2" d="M65.1,79c8.1-3,16.6-4.6,25.1-6.2.5.2,1,.5,1.6.7-3.7.7-7.3,1.5-11,2.4-2,3.1-3.4,6.5-5.8,9.2,1.3-2.9,3-5.5,4.5-8.3-5.1.6-10.1,1.4-15,2.6l.7-.6h0v.2Z"/>
    <path class="st10" d="M578.3,76.6c1-.6,2.4-.5,3.5,0-.6.6-3.3,1.3-3.5,0h0Z"/>
    <path class="st16" d="M561,78.7c3.7-.7,7.4-1.3,11.1-1.6,1.8,0,3.6-.7,5.4,0,0,0-.4.3-.5.4-5.3,1-10.8,1.4-16.1,2.3-2.1,1.6-1.1-1.8,0-1M498.4,110.7c1.5,0,3,0,4.4,0,.5,2.9-.6,5.8,0,8.7-.4,0-1.2.2-1.6.2.4-.6.9-1.2,1.3-1.8-.4,0-1.2.4-1.6.5-1.2-2.5-1.8-5.2-2.6-7.8h.1Z"/>
    <path class="st83" d="M62.2,80.2c1-.4,1.9-.8,2.9-1.2l-.7.6c-2,.9-4.1,1.7-5.8,3.1-2.3,1.9-4.3,4.1-6.8,5.7-5.7,3.4-10,8.6-14.8,13.2-3.5-1.8-6.9.5-9.7,2.4l-1.3-.4c7.9-5.7,16.1-10.8,24.3-16.1-1.9.7-3.7,1.7-5.4,2.8-8.5,5.4-17.1,10.8-24.9,17.2-4.9,4-10.3,7.6-13.9,12.9,8.4-2.7,17-4.7,25.5-6.8,7.7-1.9,13.8-7.3,20.3-11.4,5.8,3.3,11.5,6.8,18,8.6-1.1,2-2.3,3.9-3.4,5.8-5.2,9.5-7.8,20.2-8.5,30.9-.8,6.7,0,13.4.4,20.1-4.6-.3-9.2-1-13.8-.9,4.7,1.1,9.6,1,14.4,1.6,0-2.5,0-5.1-.4-7.6-.7-7,0-14.1,1-21,1.7-10.2,5.1-20.2,11-28.7,2.5,0,5,.2,7.6,0-2.3-.5-4.7-.6-7-.8.4-.4,1.1-1.4,1.4-1.8,2,0,4.1.3,6.1-.2,1.7-1,3-2.7,5.1-3-1.6,2.1-3.7,3.6-5.3,5.6-5.6,7.1-9.4,15.4-11.7,24.2-2.9,12.1-3.4,24.8-1.3,37.1.3,2.5.9,5,1.6,7.5-8.6-1-17.2-1.6-25.7-2.8-6.8-1-13.9-1.4-20-4.6-4.4-1.3-9-.8-13.5-.6-1.8,0-3.4-.6-5-1.3C0,169.6-.1,166.5-.1,164c1.4-1.3,3.4-2.3,3.7-4.4.6-2.6,3.8-4.6,2.6-7.4-1.3-3.5-.6-7.3-1.6-10.9-1.5-.1-2.9-.2-4.4-.3v-15.7c1,0,2-.2,2.9-.3,0-2.7,1.3-5.2,2.9-7.3,2.3-2.8,4.9-5.3,7.6-7.7,9.5-7.9,19.5-15.2,30.3-21.2,5.7-3.7,12.3-5.2,18.2-8.3M29.5,119c-6.7,1.4-13.3,2.8-20.1,4-1.4.4-2.7,0-4.1-.5.7,1.7,2.6,1.6,4,1.2-.2.4-.6,1.3-.8,1.8,0,.2-.3.5-.4.7.8-.2,1.6-.5,2.4-.6v1.2h-.5c.8.6,1.5,1.1,2.3,1.7-2.1.3-5.3.8-5.7,3.3,2,1.9,4.4,3.5,7.1,4.3-2.5,1.8-5.8.2-8.4,1.7,1.3,3.1,5.3,1.8,7.9,1.9,3.1-.4,6.7,1,9.5-.8h.5c-1.7-1.2-4-.9-5.9-1.4-2.9-2.2-6.8-2.7-9.5-5.2,3.9-.2,7.8.2,11.8.2,0-.2.2-.8.3-1-4.1.4-8.2-.6-12.3,0,.8-1.2,2.4-1.1,3.6-1.4,4.7-.5,9.4-1.7,14.1-2.1-.3-1-.5-2-.8-2.9-.5,0-1.4,0-1.9.2l-.6-1.1c.9,0,1.7-.2,2.6-.3,1.5,1.9,1.9,4.3,2.3,6.6,1-2.5-.1-5.2-1.9-7-1-1-2.3-1.3-3.5-1.9,2.3-.5,4.6-1.1,6.9-1.7.9,1.9,1.6,4.6,3.9,5.1,2,.3,4.5,0,5.7-2,.5-1.2-.5-2.6-1.5-3.2-2.1-1.3-4.8-1-7.1-.6M2.6,125.9c0,4.5,0,9,0,13.6,1.3-.2.8-1.7,1-2.6,0-3.7,0-7.4.2-11h-1M16.5,130.1c2.6.3,5.3-.3,7.9-.7.2,2.8-3.3.4-4.1,2.5,1.5-.1,2.9-.3,4.4-.5,1.5,4.3,1.3,8.9,1.3,13.4s.1,6.9-.3,10.4c-5.1.9-10.4,1.2-15.6,1.1-1.1,0-2.4-.1-3.4.6,6.3.6,12.8.8,19-1.1-.6,1-1.4,2-2.2,2.9,2.6-.7,2.9-3.7,3.1-5.9.3-5.7.2-11.4,0-17.1,0-2.2-.6-4.4-1.7-6.3-2.8.2-5.6.4-8.4.8M6.2,146.6c5.4,1.1,11,1.4,16.5.9-.9-1.4-2.7-.9-4.1-1-4.1.2-8.3-.3-12.4.1M25.9,159.4c-4,.4-8,.3-11.9.6-2.7.3-5.8-.3-7.9,1.7.4,0,1.3.2,1.7.3-.4.3-1.2.9-1.6,1.2-1.1-.2-2.2-.3-3.3-.5,0,.4-.2,1.1-.2,1.5s-.3.5-.4.6c9.4,1.8,18.9,1.2,28.4,1.2s7.4-.2,11-.6c1.8.2,3.6.4,5.4.5,1,0,2.6.4,2.8-1-2.7-1.3-5.7-2-8.7-2.1-7.1.3-14.1.8-21.1,1.2.2-.5.6-1.4.8-1.9,3.5-.3,7.4,0,10.2-2.5,1.2-1,1.8-3.5-.4-3.6-2.7-.8-2.1,3.5-4.6,3.4M5,159.8c.7.4,2-.3,1.7-1.1-.7-.5-2,.3-1.7,1.1h0Z"/>
    <path class="st139" d="M59.3,88c5.2-2.7,10.3-5.6,15.9-7.6-.9,1.6-1.8,3.1-2.6,4.7-4.4,1.1-9,1.6-13.3,2.9h0Z"/>
    <path class="st37" d="M593.4,81.3c1.3-.6,3-.8,4.3-.4-.7.9-3.6,1.2-4.3.4h0Z"/>
    <path class="st9" d="M362.8,84.1c3.9-.4,8.1-1.1,11.9.2,2.5.5,5.1.5,7.7.8l.3.4c.2.3.6.8.8,1.1-7.9,1.1-15.8.9-23.7,1.9-.4-.4-.9-.7-1.3-1.1,7.7-.9,15.5-.9,23.2-1.3v-.5c-3.5,0-6.9-.2-10.3-1-5.4-.5-10.6,1-15.8,2.2-1.2.3-2.3.9-3.4,1.5,2.1,0,4.2-.3,6.3-.6-.1.3-.3.9-.4,1.3-2.2,0-4.5.3-6.7.2-.1-.2-.5-.8-.6-1,3.8-2,8-2.7,12-4.1h0Z"/>
    <path class="st12" d="M355.6,86.8c5.2-1.2,10.4-2.7,15.8-2.2,3.4.8,6.8.9,10.3,1v.5c-7.8.4-15.5.4-23.2,1.3.4.4.9.7,1.3,1.1,7.9-1,15.8-.8,23.7-1.9.2.2.6.7.7,1-.8,1.6-2.4,2.6-4.2,2.6-9.8.8-19.6,1.5-29.4,1.6v-2.3l.8-.3c2.2.2,4.4-.2,6.7-.2.1-.3.3-.9.4-1.3-2.1.2-4.2.5-6.3.6,1.1-.7,2.2-1.3,3.4-1.5h0Z"/>
    <path class="st7" d="M67,89.8c2.9-.9,5.2-3.1,7.9-4.5-4.5,4.8-11.3,7.1-15.4,12.4-8.2,3-14.4,9.5-22.2,13.2-4.8,2.4-10.2,3.2-15.5,4.5-4.8,1-9.4,2.6-14.1,3.9,1.9-2.8,4.6-4.9,7.1-7,3.7-2.9,7.3-5.9,11.1-8.7l1.3.4c-1.7,1.3-2.8,3.8-1.4,5.7,1.2,1.8,3.6,1,5.2.3,4.1-1.8,4.1-7.6,8.4-9.2-2.1,3.2-4.5,6.2-6.5,9.4,1.7-.3,3.6-.6,5-1.9,5.8-5.2,11.4-10.5,17.2-15.8.9-.9,2.1-1.2,3.3-1.4v-2.4c.2.9.4,1.7.5,2.6,2.7-.5,5.4-.7,8-1.5M408.3,92.3c4.5-1.1,9.2-1.7,13.8-1,1.4,0,2.9,1.2,2.5,2.7-.7,5.2-2.9,10.1-4.8,14.9-3.4,7.5-6.9,15.1-11.5,22-2,3-4.6,6-8.2,7-4.6,1.2-9.5,1.1-14.3,1.5,5.5-11.3,9.7-23.1,14-34.9,1.2-3.1,2-6.4,3.5-9.4.9-1.9,3.1-2.3,4.9-2.8h.1Z"/>
    <path class="st107" d="M382.6,85.5c.8.2,1.9,0,2,1.2.3,2.8-1.8,5.3-4.4,6.2-3.1,1.3-6.5,1.6-9.8,2l.2-.7c4.3-.9,9.3-.6,12.5-4.1-3.4.8-7,.8-10.5,1.3-1.2,0-1.4,1.3-1.8,2.2v-1c-2.9.6-6,.7-9.1,1-.1-.4-.4-1.1-.5-1.5-3.5.2-7,.3-10.6.3,4.1,2.3,9.1,2.3,13.8,2h.4c1.3.4,2.7.8,4.1.9-5.4,0-10.8.4-16.1-1-2.6-.5-4.4-4.2-2.1-6.1.1.2.5.8.6,1l-.8.3v2.3c9.8,0,19.6-.9,29.4-1.6,1.8,0,3.4-1,4.2-2.6-.2-.2-.6-.7-.7-1-.2-.3-.6-.8-.8-1.1h0Z"/>
    <path class="st137" d="M461.7,100.8c18.4-15.5,46.3-18.1,67.3-6.4,11.3,5.8,20.2,15.9,25.5,27.4,4.6,10.4,5.8,22,5.6,33.3-.3,5.5-1.1,10.9-2.2,16.3-1.7-.6-3.2-1.5-4.5-2.7-1.5-1.5-3.8-1.1-5.6-1.2,1.1-2.5,2.1-5.1,2.8-7.7,5.6-18.3,0-39.4-14.2-52.4-9.6-9.5-23.2-14.4-36.6-14.4s-21.3,3.7-30.3,9.6c-7.6,5.4-13.5,12.9-17.5,21.2-7.6,16.1-5.9,36,4.1,50.7-5.1.1-10.1-.4-15.2-.8-3.2-15.3-2.9-31.6,2.4-46.4,3.4-10.4,10.2-19.4,18.4-26.5h0Z"/>
    <path class="st20" d="M589.1,88.2c5.2-.3,10.4-.6,15.6-.6.3.2.9.5,1.2.6l.7.4c.8.2,1.6.4,2.4.7-1.9,0-3.8.3-5.7.2-.6-.2-1.3-.4-1.9-.6-4-1.1-8.3,0-12.4-.6M520.7,146.3h4.7c0,3.3-1.6,6.3-3.4,8.9-.9-.4-1.8-.9-2.7-1.3v-1.7c1-.3,2.1-.1,3-.7.3-.8.5-1.5.7-2.3-.3.3-1,.8-1.4,1-.2-.8-.7-1.2-1.5-1.3.2-.9.4-1.7.6-2.6M198.1,173c4.8-1.6,10-1.8,15-1.8,3.1.5,6.3.4,9.4.4,11.7.3,23.4-.1,35,0l-.4,1c-17.4-.1-34.9-.3-52.3.7-2.3,0-4.5-.2-6.8-.3h.1Z"/>
    <path class="st46" d="M570.9,91.5c.8-1,1.7-2.2,3.2-1.9,9.8,0,19.5,0,29.3,0,1.9,0,3.8,0,5.7-.2,3.1,1.7,4.3,5.1,6,8-2.6.8-5.3.6-8,.7-7.4,0-14.9,0-22.3,0-5.3.2-10.6-2.1-13.8-6.4h-.1Z"/>
    <path class="st66" d="M372.7,91.4c3.5-.5,7-.5,10.5-1.3-3.2,3.5-8.2,3.2-12.5,4.1l.2-.7c.4-.8.6-2.2,1.8-2.2h0Z"/>
    <path class="st123" d="M350.7,92.3c3.5,0,7,0,10.6-.3.1.4.4,1.1.5,1.5.8.4,1.7.7,2.7.8-4.6.3-9.6.2-13.8-2h0Z"/>
    <path class="st39" d="M361.8,93.6c3.1-.2,6.1-.4,9.2-1v1c-2.1.3-4.1.4-6.1.7h-.4c-1,0-1.9-.3-2.7-.8h0Z"/>
    <path class="st14" d="M364.9,94.3c2-.3,4-.4,6-.7l-.2.7-.2.7v.4h-1.5c-1.4-.2-2.8-.5-4.1-.9h0v-.2Z"/>
    <path class="st154" d="M52.7,101.5c2.4-1.2,4.5-3,7.2-3.7.2,2.6,1.2,5.8,4.3,5.8-1.8.3-3.6.8-5.4,1.3-2.2-.7-4.3-2-6.1-3.4h0Z"/>
    <path class="st27" d="M67.8,104.9c2.2.2,4.5,0,6.8,0-1.3,1.9-2.7,3.8-4.4,5.4-2-.6-3.9-1.2-5.8-1.9,2.2-1.8,5.4-.7,7.7-2-2.6.6-5.3.7-7.9,1.5-.6-.2-1.8-.5-2.4-.7,1.8-1.4,4.3-.8,6-2.3h0Z"/>
    <path class="st22" d="M75,105.5c2.2-.2,4.5-.5,6.7-.3-1.1.9-2.1,1.9-3.3,2.6-1.8.6-3.7.3-5.5,0,.7-.8,1.4-1.6,2.1-2.4h0Z"/>
    <path class="st26" d="M492.2,105.8c8.6-1.9,17.6-.4,25.5,3.3,8,4.1,14.7,10.6,18.8,18.6,3.6,7.7,5,16.6,3.4,25-1.4,6.8-4.2,13.5-8.9,18.7-5.8,6.9-13.9,11.7-22.6,13.9-8.1,1.9-16.7.8-24.3-2.5-8.8-4.5-16.4-11.5-20.9-20.3-3-6.1-4.1-12.9-3.8-19.6.9-11.1,6.6-21.5,15.1-28.6,5.2-4,11.2-7.1,17.6-8.5M494.3,106.7c0,4.3.2,8.6.9,12.8.2,4.2,1,8.4,2,12.6v1.4h.1c.4,1.7.2,4.1,2,5.1,1.5.6,2.3-1.1,2.5-2.4,2-9.6,4-19.3,4.7-29.2-.3,0-.8-.4-1-.5-3.7-.7-7.5-.4-11.2,0M468.4,122.5c3.3,2.4,6.5,5,9.9,7.2v.2c.9.5,1.7,1,2.5,1.5h.3c2,1.7,4.3,3,6.6,4.2,1.3.7,2.6,1.7,4.2,1.6.7,1.4,2.2,1.9,3.4,2.7.5-.3,1-.7,1.6-1-1.4-5.5-1.9-11.2-3.6-16.6-1.2-4.9-3.4-9.4-5.2-14.2-8,2.3-15.2,7.4-19.8,14.3M512.5,108.6c-2.4,4.8-4.6,9.8-6.2,15-1.6,5.6-2.4,11.4-3.8,17-1.5-.8-3.3-1.3-5-.6-1.2,1.1-2.9,2-3.2,3.7-.7,2.6,1.5,5.1,3.9,5.9,2.5,1.1,5.1-.8,6.5-2.8.2-1.1.6-2.2,0-3.3.3-.1,1-.3,1.3-.4l.6.9c2-.2,4-.8,6-1.1-.6-1-2-1.8-2-3,.9-1,1.8.3,2.8.6.3-.7.6-1.4.8-2.2h.4c.4,1.7-.9,3-1.6,4.4,2.9-.4,5.7-.7,8.6-1.2,1.2,0,2.4-.3,3.6-.4,4.7-.9,9.4-1.5,14.1-2.7-.9-4.2-2.5-8.2-4.4-12.1-2.5.9-4.7,2.3-7,3.5-7.1,3.8-14.8,6.7-21.8,10.7-1.3.5.1,1.7.3,2.4-.7,0-1.4-.1-2.1-.2-.1-.3-.3-1-.4-1.3l-1.2-.8c.6-.3,1.3-.7,2-1,.3-.2,1-.7,1.3-.9,3.3-1.9,6.9-3.1,9.9-5.3,5.9-2.9,10.5-7.6,16-11.2-4.5-6.5-11.3-12-19.2-13.7M465.9,126.4c-2.6,3.8-4,8.2-4.7,12.6,6,.7,12,2,18,2.7.9.2,1.7.3,2.6.4,3.7.5,7.4,1.1,11,1.7.6-.9,1.2-1.7,1.9-2.6-1.4-.9-2.9-1.7-4.5-2.5-.5-.2-1.1-.5-1.6-.7-2.5-1.6-5.3-2.6-8-4-4.9-2.6-9.9-5-14.7-7.8M460.3,145c.1,7.8,2.2,15.9,7.1,22.1.8,1,2-.2,2.7-.8,6.7-4.7,13.6-9.1,19.7-14.6-.6-.4-1.3-.6-2-.6.6-.4,1.2-.7,1.8-1.1.3.3.5.6.9.8,1-1,2.1-2,3.2-2.9-.8-.9-1.2-2.3-2.5-2.6-5.7-1.1-11.4-2.1-17.2-2.2-4.6,0-9.2.9-13.8,1.8M510.6,144.9h-.4c-.9.1-1.7.3-2.5.5-1,.6-1.5,1.7-2,2.6,4.3,3.1,7.9,7.1,12.3,10.1,4,2.6,8,5.3,11.9,8.1.8.6,1.5,1.2,2.3,1.9,5-6.6,7.2-15.1,7.4-23.3-4.5-.4-8.9-1.8-13.5-1.5-5.2.3-10.4.4-15.5,1.6M477.8,165.4c-.8.9-1.6,1.7-2.5,2.6-1.4,1.3-2.7,2.7-4,4.2,3.4,2.7,6.8,5.6,10.6,7.6,2.8-4.2,4.9-8.8,7.6-13.1,3.3-5,5.3-10.7,7.7-16.2-.3,0-1-.2-1.4-.3-.7,1.4-1.4,2.8-2.6,3.8.2-.8.1-1.9.9-2.5.6-.8,2.4-1.4,1.1-2.7-6,5.3-12.2,10.4-17.5,16.4M502.6,150.6c2.1,4.9,4.3,9.7,7.2,14.2,3,4.8,5.4,10.1,8.8,14.6,3.5-2.1,7.2-4.2,10-7.3-.3-.7-.8-1.2-1.3-1.8-7.2-7.5-14.9-14.5-22.8-21.3-.6.6-1.6.8-1.9,1.5M498.7,152.2c-3.8,7.4-7.2,15.1-9.2,23.2-.6,2.3-1.5,4.6-1.4,7.1,7.8,3.1,16.8,3,24.6-.2-1-6.7-3-13.3-6-19.4-1.6-4.2-4.3-7.8-5.9-11.9-.9-.5-1.6.6-2,1.3M498,133.5c.3-.3.9-.8,1.2-1,1.2.2,1.6,1.2,1.7,2.2-1.2,0-2.4,0-2.9-1.2M118.2,135.7c.3,1.5.6,3,.9,4.5l-2.2-1c.3-.5.9-1.6,1.2-2.1-.8.4-1.5.9-2.3,1.4l-.2-.7c.8-.7,1.7-1.4,2.6-2.1M490.7,141.3c0-.4-.1-.8-.2-1.2.5.4,1,.9,1.6,1.3,0,.3.2.8.2,1.1h-1.4c0-.3-.1-.9-.2-1.1h0Z"/>
    <path class="st0" d="M116.4,107.1c6.8-1.1,13.9-.8,20.3,1.8,17.5,5.7,29.2,24.8,26.7,43-1,6.8-3.3,13.5-7.6,18.9-3.8,4.4-7.9,8.5-12.9,11.4-6.1,3.2-12.8,5.5-19.8,5.4-6-.1-12.1-1.6-17.4-4.4-3.9-2.3-8.1-4.6-10.9-8.2-8-7.3-12.3-18.2-12.1-28.9,0-11.8,6.2-23.1,15.1-30.6,5.4-4.1,11.8-7.3,18.5-8.4M117.2,108.3c.2,7.8,1.5,15.5,2.9,23.1.2,1.6.4,3.1.8,4.7.2-.4.7-1.2.9-1.6h2.7c0,1.5-.2,3-.5,4.5-2.2-.1-1.3-2.1-.7-3.3-.8.1-1.5.2-2.3.3.2,1.7.4,5,3,4.1,1.7-1.4,1.2-4,1.8-6,.7-3.8,1.3-7.6,2-11.3.9-4.8,1.3-9.6,1.8-14.5-4-1.2-8.3-.9-12.4,0M91.9,123.9c3.1,2.6,6.2,5,9.5,7.3,3.9,2.8,8,5.5,12.3,7.6,2.1,1.1,4.1,2.8,6.7,2.3-.8-4.3-1.8-8.6-2.7-12.9-1.3-6.2-3.7-12.2-6.4-17.9l-.5-.3c-7.8,2-14.7,7.2-18.9,13.9M126.3,140.2c0,.4.2,1.2.3,1.6.7-.3,1.5-.6,2.2-.9-.4-.4-.9-.7-1.3-1.1.2-.7.6-2.1.8-2.8.2.3.5,1,.7,1.3.3-.1,1-.3,1.4-.4-.2-1.1-1.8-1.3-2-2.5,1.5,0,2.3,1.5,3.2,2.6l.7-1v-1,.5c.1-.3.4-.8.6-1.1.2.3.5.8.6,1.1-.2,0-.6-.2-.7-.3-.3.6-.6,1.3-.9,1.9-.7.3-1.4.5-2.1.7-.1.5-.4,1.4-.5,1.8,6.1-3.3,12.2-6.6,17.5-11.1,2.6-1.9,5.1-4,7.7-5.9-4.2-6.7-11.2-12-19-13.7-5.5,9.2-7.5,19.8-9.3,30.2M84.2,140.4c4.5.5,9,1.5,13.5,2.3,0-1.1.4-2.2.6-3.3,0,.4,0,1.3,0,1.7.6,0,1.3.2,1.9.1.4.2.9.4,1.3.6-.8,0-1.6.2-2.4.4.4,1.4,2.5.8,3.6,1.2,2.4.3,4.9.7,7.3,1.1,0-.6,0-1-.5-1.3v-1.6h3.1c0,1.4,0,3.3-2.2,2,0,.3.4.9.6,1.2,1.9,0,3.8.5,5.7.8,0-.2-.4-.7-.5-1-.6-.3-1.2-.5-1.7-.8v-1.6c.8.4,1.6.7,2.5,1.1.3,0,.9-.2,1.2-.3-.9-.9-2.2-1.4-3.3-1.9-8.6-4.3-17.2-8.7-25.8-13-2.5,3.7-3.6,8-4.7,12.3M137.1,138.2c-.9.4-1.9.9-2.8,1.3v.2c-2,1-4.1,2-6,3.1.7.9,1.3,1.9,1.9,2.8,2.2-.7,4.4-1.1,6.7-1.4l.2-.3c3.2.2,6.4-.8,9.5-1.3.6,0,1.1-.1,1.7-.2,4.6-.6,9-1.6,13.6-2.3-.5-4.3-2.1-8.6-4.4-12.3-6.9,3.3-13.6,7.1-20.5,10.3M118.9,143.1c-3.2,3.1,0,8.3,3.7,8.9,3.2-.6,6.9-3.9,5.3-7.3-1.3-3.6-6.6-4.6-9-1.5M145.3,144.9c-5.2.3-10.4,1.2-15.4,2.5-.3.6-.5,1.2-.8,1.9,3.8,4.3,8.5,7.8,13.2,11.1v.2c3.3,2.2,6.4,4.5,9.6,6.8,1,.8,2,1.6,3,2.5,2.7-2.4,4.1-5.8,5.3-9.1,1.6-4.5,2.5-9.2,2.6-14-5.7-1.4-11.7-2.5-17.6-1.7M83.8,146.6c.3,8.1,2.3,16.7,7.8,22.9,2.5-2.1,5.3-3.8,8-5.7,5.1-3,9.8-6.7,14.2-10.7v-.2c1.3-1,2.5-2.1,3.5-3.2-.3-.8-.7-1.6-1.1-2.3-2.5-.4-5-.9-7.4-1.4-8.2-1.4-16.7-1.3-24.9.7M118.4,150.8c-2,2.6-4.9,4.1-7,6.5-3.2,2.7-6.2,5.6-9.2,8.5h0l-3.5,3.5c-1.4,1.4-2.9,2.7-4,4.4,1.2,1.3,2.8,2.2,4.1,3.4,1.9,1.8,4.4,3,6.7,4.2,1.6-2.2,2.8-4.7,4-7.1,2.4-4.1,4.7-8.2,6.8-12.4,1.5-3.1,2.7-6.2,4.1-9.3-.6-.6-1.2-1.2-1.9-1.8M125.9,152c1.5,2.9,2.5,6.1,4.2,9,3.3,7,7.7,13.5,11.2,20.4,4-1.8,7.5-4.5,10.6-7.7-3.5-4.3-7.4-8.3-11.6-11.9-3.3-3.3-7.1-6.2-10.4-9.6-.4.4-.9.8-1.3,1.2.5.2,1.5.5,2.1.7h-1.3c.1.6.4,1.7.6,2.2.5-.4,1.1-.7,1.6-1.1,0,.3,0,.9.1,1.3,0,.4-.1,1.1-.2,1.4-.3.2-.9.8-1.3,1,.6-1.8-1-3.2-1.3-4.9l-.8.2c.1-.4.4-1.1.5-1.5h-1.3c.6-.5,1.2-1,1.8-1.5-1.2-.9-2.2,0-3.2.7M122.5,152.6c-1.3,1-.8,2.8-.9,4.2,1.4,0,2.7-.3,3.9-1-.7-1.1-1.1-4.1-3-3.2M120.7,156.1c-1,2.7-2.7,5-3.8,7.7h-.2c-.6,1.8-1.2,3.5-1.9,5.2-1.3,3.9-2.3,7.9-3.2,11.8,0,.9-.2,1.9-.3,2.8,7.6,3.6,16.7,3.3,24.4.2-.2-1-.4-1.9-.6-2.9l-.2.2c-1.1-6.3-3-12.6-5.8-18.4-.9-2-2.1-3.8-2.6-5.9-.3.7-.6,1.4-.9,2.2-1.7-.4-3.4-.8-5.1-1.2l1.1-.4c-.3-.4-.5-.9-.8-1.3M507.4,141.3c.7,0,1.5-.1,2.2-.2,0,1.5-1.3,1.5-2.4,1.7,0-.4.1-1.1.2-1.4M135.4,144.5c-1-.7-1.8-1.6-1.4-2.9,1.3.3,4-.8,3.8,1.4-1.3-.4-2.2,0-2.4,1.5M110.9,152.4c-.9-.8,0-1.9.8-2.4l.4.4c.4.8,0,2.6-1.2,2M497.5,155.3c1.6-.2,3.3,0,5,.3,1,1.7-.9,1.5-1.8,1.3-1.1-.4-3,0-3.1-1.6h-.1Z"/>
    <path class="st97" d="M505.5,106.6c.3,0,.8.4,1,.5-.7,9.8-2.7,19.5-4.7,29.1-.2,1.2-.9,2.9-2.5,2.4-1.8-.9-1.7-3.3-2-5.1h.7c.5,1.3,1.8,1.2,2.9,1.2-.1-1.1-.5-2.1-1.7-2.2-.2,0-.6-.3-.8-.3,0-.2.1-.7.2-.9.9.4,1.9.7,2.9,1.1.1-.5.4-1.5.5-2,1-3,.3-6.2,1.4-9.2-.5,0-.9.3-1.4.4-.5-.2-1.5-.8-2-1,0,.5.2,1.6.2,2.1-.4-1.1-1.1-1.8-2.2-1.9.5.7.9,1.3,1.4,2-.9,0-1.7-.2-2.6-.3,1.8,2.9,1.6,6.6.5,9.7-1-4.1-1.8-8.3-2-12.6.4-2.4.3-4.9.9-7.3.2.6.6,1.6.8,2.2.2-.7.4-1.5.5-2.2-.8-.6-1.7-1.2-2.5-1.8-.3-1.3.2-2.9,1.7-3.1,2.9-.6,6,0,8.9-.7M498.4,110.7c.8,2.6,1.3,5.3,2.6,7.8.4,0,1.2-.4,1.6-.5-.4.6-.9,1.2-1.3,1.8.4,0,1.2-.2,1.6-.2-.6-2.9.5-5.8,0-8.7-1.5,0-3,0-4.4,0M499.8,137.4c1.1,0,1.1-2,0-2.1-1.2,0-1,2,0,2.1M502.6,150.6c.3-.7,1.4-1,1.9-1.5,7.9,6.8,15.6,13.8,22.8,21.3.5.5,1,1.1,1.3,1.8-2.8,3-6.5,5.1-10,7.3-3.4-4.6-5.8-9.8-8.8-14.6-2.9-4.5-5.1-9.4-7.2-14.2M503.8,150.5c.7,1.8,1.7,3.6,2.4,5.4.5-.2.9-.5,1.4-.7-.1-.3-.3-1-.4-1.4-.4,0-1.2-.2-1.6-.2-.2-1.3-.4-2.6-1.7-3.1M507.8,156.1c-1.1.3-.6,2.1.5,1.9,1.2-.3.6-2.2-.5-1.9M508.6,159.2c-.2,1.2,1,1.7,1.7,2.4.6-.6,1.2-1.3,1.8-1.9-.4-.7-.8-1.3-1.2-2-.7.5-1.9.6-2.2,1.5M511,162.1c.4,1.3.8,2.6,2,3.3,0-1.2.2-2.4.3-3.6.4.3,1.1,1,1.5,1.3-.4.4-1.1,1.1-1.5,1.4.6-.5,2.5-.6,1.9-1.8-.7-.9-1.6-1.7-2.4-2.5-.7.6-1.3,1.2-1.9,1.8h.1Z"/>
    <path class="st132" d="M117.2,108.3c4.1-.8,8.4-1.2,12.4,0-.5,4.8-.9,9.7-1.8,14.5-.4-1.2-.7-2.4-1-3.7-.2.7-.3,1.3-.5,2-.7-.2-1.4-.5-2.2-.7-.3-2.9-1-5.8,0-8.6-2-.3-3.9-.5-5.9-.6.9,1,2.1,1.5,3.2,2.3,1.3,2.1,1.3,4.6,1.2,7,.3.3,1,1.1,1.3,1.4-.8,0-1.6.3-2.3.4-.3,0-.8.2-1,.2.3,1.5.7,2.9.7,4.4-.4,1.5-.8,3-1.3,4.4-1.4-7.6-2.7-15.3-2.9-23.1h0Z"/>
    <path class="st106" d="M512.5,108.6c7.9,1.7,14.7,7.2,19.2,13.7-5.4,3.6-10.1,8.3-16,11.1,2.1-2.9,5.8-3.9,8-6.7-2.2-.6-4,.9-5.5,2.2-2.2,1.8-4.7,3.1-7.1,4.5-.1-.3-.4-.8-.5-1.1-.3-.7-.6-1.4-.9-2.1,1.3-.9,2.8-3.2,4.4-1.6-1,1-2,2.1-2.8,3.4,2.2-.4,4-2.7,3.8-4.9-1.5-2.3-4-3.5-6.2-5.1-1.3,2.8-2.3,5.8-2.7,8.8-.4.4-.7.7-1,1.1.7.8,1.4,1.5,2.1,2.3-.2.2-.6.5-.8.7-.2-.3-.5-1-.7-1.3-1.1,1-.6,3.1-1.2,4.6.2,0,.6-.2.8-.2l.4.9c-.3.2-1,.7-1.3.9-.7.3-1.3.6-2,1l1.2.8c.1.3.3,1,.4,1.3.7,0,1.4.1,2.1.2-.1-.7-1.6-2-.3-2.4,7.1-4,14.7-6.9,21.8-10.7,2.3-1.2,4.5-2.6,7-3.5,1.9,3.8,3.5,7.9,4.4,12.1-4.6,1.1-9.4,1.7-14.1,2.7,0-1.4.2-2.9-.7-4-1.2-.8-2.7-.9-4-1.4-.4,2.1-1.4,4.7,1.1,5.8-2.8.4-5.7.8-8.6,1.2.7-1.4,2-2.7,1.6-4.4h-.4c-.2.8-.5,1.5-.8,2.2-.9-.4-1.8-1.6-2.8-.6,0,1.2,1.4,2,2,3-2,.3-4,.9-6,1.1l-.6-.9c-.3,0-1,.3-1.3.4.5,1.1.1,2.2,0,3.3-.3-.4-.9-1.1-1.2-1.5v-2.5c-.4.2-1,.5-1.4.6.2-2.3-2.6-1.9-4-2.5-.2-.2-.5-.7-.6-.9,1.7-.7,3.4-.2,5,.6,1.3-5.6,2.1-11.4,3.8-17,1.6-5.2,3.8-10.1,6.2-15M518.3,137c-.8,0-1.3,1.6-.3,1.8.8,0,1.2-1.6.3-1.8M507.4,141.3c0,.4-.1,1.1-.2,1.4,1.1-.1,2.4-.2,2.4-1.7-.7,0-1.5.1-2.2.2h0Z"/>
    <path class="st126" d="M118.4,111.3c2,0,4,.3,5.9.6-1.2,2.8-.4,5.7,0,8.6.7.2,1.4.5,2.2.7.2-.7.3-1.3.5-2,.3,1.2.6,2.4,1,3.7-.7,3.8-1.3,7.6-2,11.3-1.2-.2-2.4-.4-3.6-.5,0,.2-.4.6-.5.8-.2.4-.7,1.2-.9,1.6-.4-1.5-.6-3.1-.8-4.7.5-1.5.9-2.9,1.3-4.4.6,0,1.2.2,1.7.3-.2,2,0,4,.7,5.8.5-.6,1.3-1.2,1.1-2.1-.2-2.3-.2-4.6-.4-7,0-.7-.2-1.4-.4-2.1-.3-.4-1-1.1-1.3-1.4,0-2.4.2-4.9-1.2-7-1.1-.7-2.3-1.3-3.2-2.3M507.7,145.4c.9-.2,1.7-.4,2.5-.6-.2,1.1-.4,2.2-.2,3.3v.5h2.3c-.2.2-.6,1.1-.8,1.5.6,0,1.2-.2,1.8-.3.7.5,1.5,1,2.2,1.5-.5-1.6-1-3.2-1.4-4.8,0-.3.3-.9.3-1.2.2.4.4.8.6,1.2.5,1.5,1.1,3.1,2.2,4.3-.2-1.3-.3-2.6-.5-4,.6.5,1.2,1,1.8,1.6,0-.5,0-.9-.2-1.4-.3-.2-.8-.6-1.1-.7h3.3c-.2.8-.4,1.7-.6,2.6-.7,1.1.6,2.6,1.5,1.3.3-.3,1-.8,1.4-1-.2.8-.4,1.6-.7,2.3-.9.6-2,.4-3,.7v1.7c-1.3-.8-2.8-1.1-4.2-.4-2.6-2.4-6.9-3.6-7.5-7.5v-.7h.3Z"/>
    <path class="st56" d="M135.9,111.1c1.9.5,3.9,1.1,5.3,2.6-.5,1.9-3.6-.8-4.4,1-1.7,2.5-3,5.3-3.9,8.2-.3,0-.8-.4-1.1-.6.9-3.9,2.7-7.5,4.1-11.2h0Z"/>
    <path class="st112" d="M109.2,113c1,.2,2.3.3,2.8,1.4,1.2,2.2,2.3,4.4,2.6,6.8-1.9-2.7-3.3-5.7-5.4-8.3h0Z"/>
    <path class="st95" d="M29.5,119c2.3-.4,5-.7,7.1.6,1,.6,2,1.9,1.5,3.2-1.1,1.9-3.7,2.3-5.7,2-2.4-.5-3-3.2-3.9-5.1-2.3.7-4.6,1.2-6.9,1.7-4,.8-8.1,1.6-12.2,2.3-1.5.4-3.4.5-4-1.2,1.3.4,2.7.9,4.1.5,6.7-1.2,13.4-2.6,20.1-4M121.7,122.4c.8-.2,1.6-.3,2.3-.4.2.7.4,1.4.4,2.1l-.9.9c-.6-.9-1.2-1.7-1.9-2.6M490.8,154.3c.8-.8,2.7.4,1.7,1.4-.9.8-2.4-.4-1.7-1.4M312.9,171.9c11.4-.7,22.8-.7,34.2-.7s9.6.2,14.4-.3c3.4-.3,6.7-.3,10.1-.2v1.2c-3.5-.7-7.1-.2-10.6-.3-7.3.3-14.7,0-22,.4-10.3,0-20.6.3-30.9.5-3.7-.1-7.4,0-11.1,0-18.2.1-36.3.6-54.5.6-14.9.2-29.7.2-44.6.7-1,0-2-.2-3-.3,1.1-.2,2.2-.4,3.4-.5,2.2.1,4.5.3,6.8.3,17.4-1,34.9-.8,52.3-.7,3.4,0,6.8-.3,10.2-.6,15.1-.4,30.2-.3,45.4-.1h-.1Z"/>
    <path class="st143" d="M502,121.5c.5-.2.9-.3,1.4-.4-1,3-.3,6.2-1.4,9.2-.7-1-1.4-1.9-2.7-2.1-.2,1-.4,2-.6,3,0,.2-.1.7-.2.9.2,0,.6.3.8.3-.3.3-.9.8-1.2,1h-.8v-1.4c1.2-3.1,1.3-6.8-.5-9.7.9,0,1.7.2,2.6.3.5.6.9,1.2,1.4,1.8-.2-.3-.5-1.1-.7-1.4.6-.6,1.3-1.1,1.9-1.6h0Z"/>
    <path class="st28" d="M9.4,123.6c4.1-.8,8.1-1.5,12.2-2.3,1.2.6,2.6.9,3.5,1.9-5.5.2-11,1.2-16.4,2.2.2-.4.6-1.3.8-1.8h0Z"/>
    <path class="st23" d="M120.7,122.6c.3,0,.8-.2,1-.2.6.9,1.2,1.7,1.9,2.6l.9-.9c0,2.3.2,4.6.4,7,.2.9-.5,1.5-1.1,2.1-.7-1.9-1-3.8-.7-5.8-.6,0-1.2-.2-1.7-.3,0-1.5-.4-2.9-.7-4.4M141.2,147.6c2.6,0,5.1,0,7.7-.2-.4,1.6-.6,3.3-.9,5-1.4,1.3-2,3.1-2.7,4.8-1.5-.6-2.8-1.5-3.9-2.6.9-.8,1.8-1.6,2.7-2.4-.5-.4-.9-.9-1.4-1.3.1-1,.7-2.1,0-3.1-.5,1.1-1,2.3-1.5,3.5v-3.7h0Z"/>
    <path class="st43" d="M506.2,130.8c.4-3.1,1.4-6,2.7-8.8,2.2,1.5,4.7,2.8,6.2,5.1.2,2.2-1.6,4.5-3.8,4.9.8-1.3,1.7-2.4,2.8-3.4-1.7-1.6-3.1.8-4.4,1.6.3.7.6,1.4.9,2.1-.2.2-.6.5-.8.7-.4-1.1-.7-2.1-1-3.2-.9.5-1.8,1.1-2.6,1.6v-.6M515.2,146.6c.8-.1,1.5-.2,2.3-.3.3.2.8.6,1.1.7,0,.5,0,.9.2,1.4-.6-.5-1.2-1-1.8-1.6.2,1.3.4,2.6.5,4-1.2-1.2-1.7-2.8-2.2-4.3M489.7,161.8c1.2-.8,1.5-2.4,2.7-3.2-1,3-2.6,5.8-4.1,8.5-.2-.6-.4-1.2-.6-1.8.8-1.1,1.5-2.3,2.1-3.6h-.1Z"/>
    <path class="st53" d="M486.2,125.4c1.2-1.1,2.6-2,4.2-2.6,2.5,2.7,3.8,6.2,4,9.8-.6.3-1.3.7-1.9,1-.4-.5-.8-1-1.2-1.5.7-.9,1.4-1.8,2-2.7-1.2.6-2.3,1.4-3.4,2.1-.6-1-1.2-2-1.9-3-.5-.5-.9-.9-1.4-1.4.6-.7.4-1.3-.5-1.8h0Z"/>
    <path class="st3" d="M131.9,123.8c2.8.8,5.1,2.7,7,4.8,0,.3-.2.9-.2,1.1-.3-.3-.8-.8-1-1.1-2.3.6-3.7,2.9-5.8,3.9-2.9-2.1-1.2-6.2.1-8.8h-.1Z"/>
    <path class="st36" d="M108.7,128.7c0-2.3,2.5-3.8,4.5-4.1,2.8.2,3,3.7,3.8,5.7-1.5.9-2.8,2.1-4.1,3.3-.7-1.5-1.3-2.9-1.8-4.4-.8-.2-1.6-.3-2.3-.5h0Z"/>
    <path class="st118" d="M10.7,126.7c4.1-.3,8-1.2,12.1-1.7.5,0,1.4,0,1.9-.2.3,1,.6,1.9.8,2.9-4.8.3-9.4,1.6-14.1,2.1-1.2.3-2.8.2-3.6,1.4,4.1-.5,8.2.5,12.3,0,0,.2-.2.8-.3,1-3.9,0-7.8-.4-11.8-.2,2.7,2.5,6.6,2.9,9.5,5.2,2,.6,4.2.2,5.9,1.4h-.5c-4,0-8.1-.1-12.2-.1s-2.9,0-4.2-.7c3.7-.4,7.4,0,11-.4-1.2-.6-2.4-1.2-3.7-1.6-2.7-.8-5.1-2.3-7.1-4.3.4-2.5,3.6-2.9,5.7-3.3-.8-.5-1.5-1.1-2.3-1.6h.5M498.1,140.9c1.5.7,4.2.2,4,2.5.4-.1,1-.5,1.4-.6v3.9c-.4-.4-.8-.9-1.2-1.3-.3.4-1,1.2-1.3,1.6,0-1.4,1.5-1.8,1.9-2.9-1.1-.9-2.6,0-3.8,0-.1,1.5-.2,3.1-.4,4.6-1.6-1.3-2.8-2.9-3.4-4.9.6-.4,1.2-.7,1.8-1.1-.2.8-.5,1.7-.7,2.6.6.8,1.1,1.6,1.7,2.4-.8-1.3,0-2.2.5-3.2h-1.1c.7-.6,1.4-1.1,2-1.5-.5-.7-1-1.4-1.4-2.1M500.5,142.6v.5h1v-.5h-1M499.9,146.4c.8-.3,1.3,1.2,1,1.9-.9.4-1.3-1.3-1-1.9h0Z"/>
    <path class="st153" d="M473.9,124.9c3.5,1.3,5.8,4.4,9.1,6,.7-1.8,1.5-3.6,2.8-5.2.2.4.6,1.1.8,1.4.5.4.9.9,1.4,1.4,0,.8,0,1.6.1,2.5,1.2.5,1,1.6.8,2.6.3.7.5,1.3.8,2-2.9-1.3-5.4-3.6-8.6-4.1h-.3c-.8-.6-1.7-1.1-2.5-1.6v-.2c-.2-.3-.4-.9-.5-1.2-1.4-1.2-2.8-2.3-4-3.6h.1Z"/>
    <path class="st96" d="M2.6,125.9h1c0,3.7,0,7.3-.2,11-.2.9.3,2.4-1,2.6,0-4.5,0-9,0-13.6h.1Z"/>
    <path class="st136" d="M485.8,125.8l.4-.3c.9.4,1,1,.5,1.8-.2-.4-.6-1.1-.8-1.4h-.1Z"/>
    <path class="st91" d="M465.9,126.4c4.8,2.8,9.8,5.2,14.7,7.8,2.6,1.4,5.5,2.3,8,4l.3.7c-2.8-.9-5.6-1.4-8.5-1.7-1.8-.3-3.6-.6-5.4-.9-.3,1.2-.5,2.5-.8,3.7,2.3.6,4.8,1,7.2,1.2-.7.2-1.4.4-2.2.6-6-.8-12-2-18-2.7.7-4.5,2.1-8.9,4.7-12.7M468.4,133.1c-.9,1.1-1.2,2.5-1.7,3.8,2.5.1,5,0,7.2-1.3,0-.6-.1-1.3-.2-1.9-1.7-.5-3.6-1.4-5.4-.6h.1Z"/>
    <path class="st41" d="M518.2,129c1.5-1.3,3.4-2.8,5.5-2.2-2.2,2.8-5.9,3.8-8,6.7-3,2.2-6.7,3.5-9.9,5.3l-.4-.9c.6-.4,1.1-.8,1.7-1.2-.2-.6-.4-1.2-.6-1.9.2-.2.6-.5.8-.7-.7-.8-1.4-1.5-2.1-2.3.3-.4.7-.7,1-1.1v.6c.8-.5,1.7-1.1,2.5-1.6.3,1.1.6,2.1,1,3.2.2-.2.6-.5.8-.7.1.3.4.8.5,1.1,2.4-1.4,5-2.6,7.1-4.5h0v.2Z"/>
    <path class="st87" d="M591.2,130.7c7.2-2.6,15-4.7,22.7-3.6,2,.2,2.8,2,2.5,3.8-10.2,2.4-20.8,1.8-31.2,2.4,1.7-1.5,4-1.9,6-2.7h0Z"/>
    <path class="st110" d="M84.2,140.4c1.2-4.2,2.2-8.6,4.7-12.3,8.6,4.3,17.2,8.7,25.8,13,1.2.6,2.4,1.1,3.3,1.9-.3,0-.9.2-1.2.3-.8-.3-1.7-.7-2.5-1.1v1.6c.6.3,1.2.5,1.7.8,0,.2.4.7.5,1-1.9-.3-3.8-.7-5.7-.8,0-.3-.4-.9-.6-1.2,2.3,1.2,2.1-.7,2.2-2h-3.1l-.7-.3c1.3-.1,1.9-2,.3-2.1-1-.3-2.1-.3-3.2-.3-.2-.2-.6-.6-.8-.8-.3,1.6-.6,3.1-.8,4.7,1.4.2,2.8.4,4.2,0,.3.1.7.2,1,.4.4.3.6.7.5,1.3-2.4-.4-4.8-.8-7.3-1.1.4-1.4.9-2.7,1.2-4.1-1.4-1.1-3.2-1.5-4.8-1.8-.3.6-.5,1.2-.6,1.9-.3,1.1-.5,2.2-.6,3.3-4.5-.8-9-1.8-13.5-2.3M137.1,138.2c6.9-3.2,13.6-7,20.5-10.3,2.3,3.7,3.9,7.9,4.4,12.3-4.5.7-9,1.7-13.6,2.3.2-.4.5-1.3.6-1.7-.6-1.2-1.1-2.5-2.1-3.4-1.6-.1-3,.9-4.4,1.5-.2,0-.5.3-.7.4l-1.4-1.4c-1.2.5-2.4,1-3.6,1.5l.3-1h0v-.2Z"/>
    <path class="st100" d="M499.3,128.2c1.2.2,2,1.1,2.7,2.1-.1.5-.4,1.5-.5,2-1-.4-1.9-.7-2.9-1.1.2-1,.4-2,.6-3h0Z"/>
    <path class="st35" d="M138.9,128.6c.7.9,1.3,1.7,1.9,2.7,2.2,0,3.9-2.6,6.1-1.7-5.3,4.5-11.5,7.8-17.5,11.1.1-.4.4-1.4.5-1.8.7-.2,1.4-.5,2.1-.7.3-.6.6-1.3.9-1.9.2,0,.6.2.7.3-.2-.3-.5-.8-.6-1.1-.1.3-.4.8-.6,1.1v-.5c-.2-.2-.3-.8-.3-1,.3-.2.9-.6,1.2-.8h2.4c1.4-.2,2.6-.9,3.8-1.5-.3-.9-.6-1.9-.8-2.8,0-.3.2-.9.2-1.1h0v-.3Z"/>
    <path class="st13" d="M618.7,129c.9,1,.6,2.4.5,3.6-.5,1.4-1.7,2.4-2.1,3.8-1.5,4.8-4.4,9-7.6,12.8-2.1,2.5-4.9,4.2-7.1,6.7-1.8,2.1-4.1,3.7-6.8,4.3-6.9,1.6-14,2.1-21,3.2-2.6.3-5.2.9-7.8.9.9-.4,1.8-.7,2.7-.8,6.6-.9,13.2-1.9,19.8-2.7,3.3-.5,6.6-.9,9.6-2.5,2-1.3,3.6-3.2,5.2-5-7.7,1.2-15.5,2.3-23.3,2.7-2.5-1.2-3.6-4.2-4.2-6.7,0-2-.9-4.9,1.3-6.1,3.1-1.7,6.8-1.8,10.2-2.4,8.3-1.4,16.7-2.1,24.9-4.2,2.2-.6,4.7-1.4,5.6-3.7,0-1.3,0-2.6.2-3.9M580.7,142.6c-1.6.5-3.8,1-3.8,3-.2,3.3.5,7.1,3.2,9.4,4.2-1.7,8.7-1.6,13.1-2.2,3.9-.6,7.9-.2,11.8-.8,1.5-.6,2.6-1.9,3.7-3,3.4-3.9,6.3-8.3,8.2-13.1-11.7,4.1-24.2,4.1-36.2,6.7h0Z"/>
    <path class="st32" d="M102.6,130.3c3.1.7,5.3,3.2,8.3,4.3-1.2-1.1-2.4-2.3-3.6-3.5.3-.1.9-.5,1.2-.6,1.6,1.5,3.2,3.1,4.7,4.8.2-.2.4-.6.6-.8.8-.4,1.7-.9,2.5-1.3.6.7,1.2,1.5,1.8,2.2v.4c-.8.7-1.6,1.3-2.5,2.1,0-.3-.2-.8-.3-1-.6.7-1.1,1.3-1.6,2-4.4-2.1-8.4-4.8-12.3-7.6.3-.2.9-.6,1.2-.9h0Z"/>
    <path class="st163" d="M113.8,134.4c.9-1.3,2.1-2.4,3.4-3.2.3,1.4.6,2.8.9,4.2-.6-.8-1.2-1.5-1.8-2.2-.8.4-1.7.9-2.5,1.3h0Z"/>
    <path class="st25" d="M134.7,134.2c-.5-.4-1.3-1.8-.3-2,.8.2,1.1,1.2,1.2,1.9h-.9Z"/>
    <path class="st44" d="M468.4,133.1c1.7-.9,3.6.1,5.4.6,0,.6.1,1.3.2,1.9-2.2,1.3-4.7,1.4-7.2,1.3.4-1.3.8-2.7,1.7-3.8h-.1Z"/>
    <path class="st64" d="M495.5,138.8c-2.1-.6-3.1-4.7-.7-5.2,0,1.7.4,3.5.7,5.2M504.6,138.1c.6-1.4,0-3.6,1.2-4.6.2.3.5,1,.7,1.3.2.6.4,1.2.6,1.9-.6.4-1.1.8-1.7,1.2-.2,0-.6.2-.8.2M119.6,144.3c1.7-1.4,3.8-1.7,5.9-.9.4.7.7,1.4,1.1,2.1.2.6.3,1.1.4,1.7h-.2c-.4-2.2-2.6-4-4.9-3.3l.7,1.4c-.7.5-1.4,1-2,1.6l-.2-.7h.6c.3-.4.8-1,1.1-1.3-.4-.4-.7-.8-1.1-1.2-.6.8-1.1,1.6-1.7,2.4,0-.4,0-1.3.2-1.7M130.7,148.2c1.7,1.2,3.1-.7,4.8-.2,1.1.7,2.1,1.4,3.1,2.2.3-.7.6-1.4,1-2.1-.2,1.2-.6,2.5.7,3.3-1.7-1-3.3-2.1-5.1-3-.4,0-1.2.2-1.6.3-.4.8-.8,1.6-1.1,2.4.4.2,1.1.6,1.5.8,0-.6.3-1.7.4-2.2.3,0,1,.1,1.4.1-.2,1-.5,1.9-1,2.9.9,1.2,3,.6,3.4,2.2-2.1,0-3.2-2.1-4.8-3.1-1.2-.9-3-1.7-2.6-3.5M25.9,159.4c2.5.1,1.9-4.1,4.6-3.4,2.2,0,1.5,2.6.4,3.6-2.8,2.5-6.7,2.2-10.2,2.5-4.3.3-8.7.3-13,0-.4,0-1.3-.2-1.7-.3,2.2-2,5.3-1.4,7.9-1.7,4-.4,8-.3,11.9-.6h0Z"/>
    <path class="st57" d="M130.1,134.3c1.9-1.1.2,2.2,0,0h0Z"/>
    <path class="st125" d="M520.4,135.8c1.3.4,2.8.6,4,1.4.9,1.2.7,2.7.7,4-1.2.2-2.4.4-3.6.4-2.5-1.1-1.5-3.8-1.1-5.8h0Z"/>
    <path class="st105" d="M13.9,135.9c1.3.4,2.5,1,3.7,1.6-3.7.4-7.4,0-11,.4,1.3.7,2.8.6,4.2.7,4.1,0,8.1,0,12.2.1-2.7,1.9-6.4.4-9.5.8-2.6,0-6.6,1.2-7.9-1.9,2.6-1.6,6,.1,8.4-1.7h-.1Z"/>
    <path class="st129" d="M475,136.3c1.8.3,3.6.6,5.4.9-1.1.9-2.3,1.7-2.9,3,1.5-1.1,3.3-1.7,5.2-1.6,1.5,1.2.2,2.8-1,3.6-.9,0-1.8-.2-2.6-.4.7-.2,1.4-.4,2.2-.6-2.4-.2-4.8-.6-7.2-1.2.3-1.2.5-2.5.8-3.7M485.7,145.6c.6,0,1.1.1,1.7.2v2.4l.7.3c-.4.5-.8,1-1.2,1.5-.3,0-.8-.3-1-.4,0,.9.1,1.8.2,2.7-.9.8-1.7,1.6-2.5,2.4-.2-.1-.6-.4-.8-.6-.3-.9-1.2-1.8-.7-2.7,1.1-2,2.8-3.7,3.7-5.8h-.1Z"/>
    <path class="st11" d="M580.7,142.6c12-2.7,24.5-2.7,36.2-6.7-1.9,4.8-4.7,9.3-8.2,13.1-1.1,1.1-2.2,2.4-3.7,3-3.9.6-7.9.2-11.8.8-4.4.6-9,.5-13.1,2.2-2.6-2.3-3.4-6.1-3.2-9.4,0-2,2.2-2.5,3.8-3h0Z"/>
    <path class="st124" d="M480.3,137.1c2.9.3,5.7.8,8.5,1.7l-.3-.7c.5.2,1.1.5,1.6.7,0,.3.2,1,.3,1.3,0,.4.1.8.2,1.2l-1.4.7c0-.4-.2-1.1-.3-1.5-.4,0-1.2-.2-1.5-.2l-1.1-.4c-1-.4-1.9-.9-2.9-1.4h-.8c-1.9,0-3.7.6-5.2,1.6.5-1.4,1.7-2.2,2.9-3h0Z"/>
    <path class="st4" d="M518.3,137c1,.1.5,1.7-.3,1.8-1-.1-.5-1.7.3-1.8h0Z"/>
    <path class="st8" d="M98.9,137.6c1.7.3,3.5.8,4.8,1.8-.3,1.4-.7,2.7-1.2,4.1-1.1-.4-3.1.2-3.6-1.2.8-.2,1.6-.4,2.4-.4-.4-.2-.9-.4-1.3-.6-.7,0-1.3,0-1.9-.1,0-.4,0-1.3,0-1.7,0-.6.3-1.3.6-1.9h0Z"/>
    <path class="st115" d="M136.8,139.3c1.2-.5,2.4-1,3.6-1.5.5.4.9.9,1.4,1.4.2,0,.5-.3.7-.4.2,1,.4,2,.7,3,1.1.4,2.2.6,3.4.9-3.1.5-6.3,1.5-9.5,1.3.2-.2.5-.7.7-1,.2-2.2-2.5-1.1-3.8-1.4,0-.4.2-1.3.3-1.7v-.2c1-.4,1.9-.9,2.8-1.3l-.3,1M478.2,147.6c1.4.4-.2,2.7-1.2,1.7-.5-.8.5-1.7,1.2-1.7h0Z"/>
    <path class="st40" d="M142.6,138.8c1.4-.6,2.8-1.6,4.4-1.5,1,.9,1.5,2.2,2.1,3.4-.2.4-.5,1.3-.6,1.7-.6,0-1.1.1-1.7.2-1.1-.2-2.3-.4-3.4-.9-.3-1-.5-2-.7-3h-.1Z"/>
    <path class="st142" d="M104.2,142.8c.3-1.6.5-3.1.8-4.7.2.2.6.6.8.8,1.1,0,2.2,0,3.2.3-.6.4-1.3,1.8-.3,2.1l.7.3v1.6c-.3-.1-.7-.2-1-.4-1.4.3-2.8.1-4.2,0h0Z"/>
    <path class="st30" d="M482.7,138.5h.8c1,.5,1.9,1,2.9,1.4-.2.6-1.1,2.2.2,2.2.9.1,1.8,0,2.7-.1l1.4-.7c0,.3.1.9.2,1.1h1.4c0-.3-.2-.8-.2-1.1-.5-.4-1.1-.9-1.6-1.3,0-.3-.2-1-.3-1.3,1.5.7,3,1.5,4.5,2.5-.6.8-1.3,1.7-1.9,2.6-3.7-.6-7.3-1.2-11-1.7,1.2-.8,2.4-2.4,1-3.6h-.1Z"/>
    <path class="st103" d="M109,139.3c1.6,0,1,2-.3,2.1-1-.3-.3-1.7.3-2.1h0Z"/>
    <path class="st69" d="M486.6,142.1c-1.4,0-.5-1.6-.2-2.2l1.1.4c.4,0,1.1.2,1.5.2,0,.4.2,1.1.3,1.5-.9.2-1.8.2-2.7.1h0Z"/>
    <path class="st68" d="M494.2,143.8c.3-1.7,2-2.6,3.2-3.7.2.2.5.7.6.9.5.7,1,1.4,1.4,2.1-.7.5-1.4.9-2,1.4h1.1c-.5,1.1-1.3,2-.5,3.3-.6-.8-1.2-1.6-1.7-2.4.2-.9.5-1.7.7-2.6-.6.4-1.2.7-1.8,1.1.6,2,1.8,3.6,3.4,4.9.1-1.5.2-3.1.4-4.6,1.2-.1,2.7-.9,3.8,0-.4,1.1-2,1.5-1.9,2.9.3-.4,1-1.2,1.3-1.6.4.4.8.9,1.2,1.3v-1.4c.3.4.9,1.1,1.2,1.5-1.5,1.9-4,3.8-6.5,2.8-2.3-.8-4.6-3.2-3.9-5.9M499.9,146.4c-.3.6,0,2.3,1,1.9.4-.6-.2-2.1-1-1.9h0Z"/>
    <path class="st144" d="M118.9,143.1c2.4-3,7.7-2,9,1.5,1.6,3.5-2.1,6.7-5.3,7.3-3.8-.6-6.9-5.8-3.7-8.9M119.6,144.3c0,.4,0,1.3-.2,1.7.6-.8,1.1-1.6,1.7-2.4.4.4.7.8,1.1,1.2-.3.3-.8.9-1.1,1.3h-.6l.2.8c.7-.5,1.3-1.1,2-1.6l-.7-1.4c2.3-.7,4.5,1.1,4.9,3.3h.2c-.2-.6-.3-1.1-.4-1.7-.4-.7-.8-1.4-1.1-2.1-2.1-.7-4.2-.5-5.9.9M123.9,144.9c-1,2,2.2.1,0,0M120.8,149.9c1.5,0,3.4.5,4.4-1-1.3.6-2.7,1-4.1.7.3-.8.6-1.5.9-2.2h-.6v.9c-1-.2-1.6-.8-1.8-1.9-.6,1.4.7,2.5,1.4,3.6M123.5,147.9c.9.2,1.2-.2,1-1.1-.9-.2-1.2.2-1,1.1h0Z"/>
    <path class="st104" d="M510.6,144.9c5-1.3,10.3-1.3,15.5-1.6,4.6-.3,9,1.2,13.5,1.5,0,8.2-2.4,16.7-7.4,23.3-.8-.6-1.5-1.3-2.3-1.9.6-.3,2.1-1.1,1.2-1.8-3.4-2.2-6.4-4.9-10.1-6.7-1-.6-2.1,0-3,.4-4.4-3-8-7-12.3-10.1.6-1,1-2.1,2-2.6v.7c-.1.4-.3,1.1-.4,1.5,2.1,2.2,4.6,4,6.8,6.2.2,0,.8-.2,1-.3,1.4-.8,2.9-.4,4.2.4.9.4,1.8.9,2.7,1.3,1.8-2.7,3.2-5.7,3.4-8.9h-8c-.8,0-1.5.1-2.3.3-.2-.4-.4-.8-.6-1.2,0,.3-.3.9-.3,1.2-.3.2-.8.6-1.1.9,0-.5-.3-1.4-.4-1.8-.7-.2-1.4-.4-2.1-.6M522.1,145.4c5.1-.4,10.2.7,15.3,1.3-.5-.7-1.2-1.4-2.2-1.4-3.7-.9-7.5-1.2-11.2-1.2s-2.2.3-1.9,1.3h0Z"/>
    <path class="st77" d="M616.7,147.3c.8-1.6,1-3.5,2.4-4.6-.2,5.1-.6,10.2-1.8,15.1-2.5,1.3-5.3,1.9-8,2.7,1.6-4.8,5.4-8.5,7.3-13.2h0Z"/>
    <path class="st49" d="M522.1,145.4c-.3-1.1,1.2-1.4,1.9-1.3,3.8,0,7.6.3,11.2,1.2,1,0,1.6.7,2.2,1.4-5.1-.6-10.2-1.8-15.3-1.3h0Z"/>
    <path class="st79" d="M123.9,144.9c2.2.1-1,2,0,0h0Z"/>
    <path class="st156" d="M145.3,144.9c5.9-.8,11.9.3,17.6,1.7,0,4.8-1,9.5-2.6,14-1.3,3.3-2.6,6.7-5.3,9.1-1-.9-2-1.7-3-2.5.2-.4.7-1.1.9-1.5-3.3-3-7.2-5.2-10.9-7.7.1.8.2,1.5.3,2.3-4.7-3.3-9.4-6.7-13.2-11.1.3-.6.5-1.2.8-1.9,5.1-1.2,10.2-2.2,15.4-2.5M130.7,148.2c-.5,1.9,1.3,2.6,2.6,3.5,1.6,1,2.7,3,4.8,3.1-.4-1.6-2.5-1-3.4-2.2.4-.9.8-1.9,1-2.9-.3,0-1-.1-1.4-.1-.1.6-.3,1.7-.4,2.2-.4-.2-1.1-.6-1.5-.8.3-.8.8-1.6,1.1-2.4.4,0,1.2-.2,1.6-.3,1.8.9,3.4,2,5.1,3-1.3-.8-.9-2.1-.7-3.3-.3.7-.7,1.4-1,2.1-1-.7-2-1.5-3.1-2.2-1.7-.4-3.1,1.4-4.8.2M141.2,147.6v3.7c.5-1.2.9-2.4,1.5-3.5.7.9.1,2.1,0,3.1.4.4.9.9,1.4,1.3-.9.8-1.8,1.6-2.7,2.4,1.1,1.1,2.4,2.1,3.9,2.6.7-1.7,1.3-3.5,2.7-4.8.3-1.7.6-3.3.9-5-2.6.1-5.1.2-7.7.2h0Z"/>
    <path class="st122" d="M478.7,146.3c.9-1.4,2.5-1.4,4-1.4.4,1.3.6,3.7-1.2,3.9-.7-.7-1.4-1.4-2.1-2.1.3,1.4.6,2.7.8,4.1-.2,1.1-1.1,1.8-1.8,2.7-1-1.2-2.1-2.4-3.3-3.5-.2,0-.5-.1-.7-.2h-.3c0-1.2-.4-2.5.2-3.6.9-.5,1.7-.5,2.6,0,.4.7,1.5.9,1.9,0M478.2,147.6c-.8,0-1.7.9-1.2,1.7,1,1,2.6-1.3,1.2-1.7h0Z"/>
    <path class="st15" d="M510.2,144.8h.4c.7.3,1.4.5,2.1.8,0,.4.3,1.4.4,1.8.3-.2.8-.6,1.1-.9.4,1.6.9,3.2,1.4,4.8-.8-.5-1.5-1-2.2-1.5-.6,0-1.2.2-1.8.3.2-.4.6-1.2.8-1.6h-.8c.9-1.1-1.1-1.5-1.5-.4-.1-1.1,0-2.2.2-3.3h-.1Z"/>
    <path class="st145" d="M83.8,146.6c8.1-2,16.6-2.1,24.9-.7,2.5.5,4.9,1,7.4,1.4.4.8.8,1.5,1.1,2.3-1.1,1.1-2.2,2.2-3.4,3.2.4-1,.9-2.1,1.2-3.1,0-.4.2-.9.4-1.4h-2.2c.3.6.7,1.1,1,1.7-.4.4-.9.8-1.3,1.1-.2-.2-.5-.6-.7-.8l-.4-.4c0-.3,0-1,.2-1.4v-.6c.2-.1.5-.3.7-.4-1.4-.3-2.8-.7-4.2-.9,0,.3-.3.9-.4,1.2-.9-1.2-2.2-.8-3.3-.2,0,.9.2,1.8.4,2.7.5.1,1.4.3,1.9.4,0,.3-.2.9-.3,1.2-.5.5-1,.9-1.4,1.4-1-.3-2.6,0-2.9-1.4.2-.7.4-1.4.7-2.1-.3-.7-.5-1.4-.8-2-1.5,0-3,.1-4.5.2-.2,3.5,1.6,6.5,3.4,9.3,1.6-1.5,3.3-2.9,5.3-3.8.7-.1,1.5-.3,2.2-.4,0,1.4-.7,2.4-1.9,2.9-2.1,2.9-5.6,4.4-8.5,6.4-2.4,1.7-5.7,2.6-6.9,5.5,3.2-1.2,5.6-3.6,8.7-5.1l-.3,1.1c-2.7,1.9-5.4,3.6-8,5.7-5.5-6.2-7.5-14.8-7.8-22.9M120.7,156.1c.3.4.5.8.8,1.3l-1.1.4c1.7.4,3.4.8,5.1,1.2.3-.7.6-1.5.9-2.2.5,2.1,1.7,4,2.6,5.9,2.8,5.8,4.8,12,5.8,18.4-.2.1-.5.4-.7.6-.2-1-.3-2-.5-3-2.1,1.2-3.7,3.3-6.2,3.9-5.1,1.5-10.3-.7-14.5-3.5-.2.9-.4,1.7-.6,2.6-.2-.2-.6-.6-.8-.8,1-4,1.9-7.9,3.2-11.8.3.6.7,1.3,1,1.9.4.2,1.1.6,1.5.8.6-1,1.1-1.9,1.6-2.9,0,.9,0,1.8-.2,2.7,1-.8,2.2-1.7,2.3-3.1,0-1.9-1.3-3.5-2.4-4.9-.4,0-1.3.3-1.8.4,1.1-2.6,2.8-5,3.8-7.7M120.3,159.3c-.6,1.1-1.1,2.2-1.7,3.3.6-.1,1.2-.3,1.8-.4.7.3,1.5.6,2.2,1,0-1.4-.8-2.3-1.8-3,.6-.2,1.3-.4,1.9-.7-.8,0-1.6-.1-2.4-.2M124.7,169.6c1.2.7,2.5,1.2,3.8,1.7,2.5-.2,1.3-3.4.5-4.8-.3-.7-.6-1.4-.8-2.1-1.4,1.4-4.5,2.8-3.5,5.1h0Z"/>
    <path class="st119" d="M476.8,146.2c.4,0,1-.2,1.4-.3l.5.4c-.5.8-1.5.6-1.9,0h0Z"/>
    <path class="st62" d="M104.6,147.7c1.2-.6,2.4-1,3.3.2,0-.3.3-.9.4-1.2,1.4.2,2.8.6,4.2.9,0,.1-.4.3-.6.4-1.4-.9-1.5,1.5,0,.6,0,.3,0,1-.2,1.4-.8.5-1.8,1.6-.8,2.4,1.2.6,1.6-1.2,1.2-2,.2.2.5.6.7.8.4-.4.9-.8,1.3-1.1l.8-.3c-.3,1.1-.8,2.1-1.2,3.1v.2c-4.4,4.1-9.1,7.7-14.2,10.7l.3-1.1c-3.1,1.4-5.5,3.8-8.7,5.1,1.3-2.9,4.5-3.8,6.9-5.5,2.9-2,6.3-3.4,8.5-6.4,1.3-.5,2-1.4,1.9-2.9-.7.1-1.5.2-2.2.4h-1.1c.5-.5,1-.9,1.4-1.4,0-.3.2-.9.3-1.2-.5-.1-1.4-.3-1.9-.4,0-.9-.2-1.8-.4-2.7M109,148c-.3,1.1,0,1.5,1.1,1.2.3-1.1,0-1.5-1.1-1.2M107,149.7c.6.6,1.5,1.6,2.4,1.4.5-1.1-2-2.5-2.4-1.4M109,153.5c-.8.6,0,2.2.9,1.5.8-.6,0-2.2-.9-1.5h0Z"/>
    <path class="st161" d="M123.5,147.9c-.2-.9,0-1.3,1-1.1.2.9,0,1.3-1,1.1h0Z"/>
    <path class="st52" d="M490.5,146.7c1-.7,1.9,1.1,1,1.8-1,.7-1.8-1.1-1-1.8h0Z"/>
    <path class="st109" d="M510,148.1c.4-1.2,2.4-.7,1.5.5h-1.4v-.5h-.1Z"/>
    <path class="st148" d="M97.7,148c1.5,0,3-.1,4.5-.2.3.7.5,1.4.8,2-.3.7-.5,1.4-.7,2.1.3,1.3,1.9,1.1,2.9,1.4h1.1c-2,.9-3.7,2.3-5.3,3.8-1.7-2.8-3.6-5.8-3.4-9.3h0v.2Z"/>
    <path class="st128" d="M109,148c1.1-.3,1.4.1,1.1,1.2-1.1.3-1.4-.1-1.1-1.2h0Z"/>
    <path class="st134" d="M112,148.7c-1.4.9-1.3-1.4,0-.6v.6h0Z"/>
    <path class="st101" d="M520.1,148.9c.8,0,1.3.5,1.5,1.3-1,1.3-2.3-.1-1.5-1.3h0Z"/>
    <path class="st131" d="M474.4,149.8c.2,0,.5.1.7.2,1.2,1.1,2.3,2.2,3.3,3.5l-1.1.9c-1.7-.8-2.2-2.9-2.9-4.5h0Z"/>
    <path class="st33" d="M477.8,165.4c5.3-6,11.5-11.2,17.5-16.4,1.2,1.3-.5,1.9-1.1,2.7-.8.6-.6,1.6-.9,2.5,1.2-1,2-2.4,2.6-3.8.4,0,1,.2,1.4.3-2.4,5.5-4.5,11.1-7.7,16.2-2.7,4.3-4.8,8.9-7.6,13.1-3.9-2.1-7.2-4.9-10.6-7.6,1.3-1.5,2.6-2.9,4-4.2,2.9,1.4,5.3,3.9,8.5,4.8-1.5-3-6.2-3.5-6-7.4M490.8,154.3c-.6,1,.8,2.2,1.7,1.4,1-.9-1-2.2-1.7-1.4M487.4,159.9c.8.3,1.6.6,2.5.9.2-.8.4-1.6.5-2.4-.6-.8-1.1-1.6-1.7-2.3-1.2,1-1.3,2.4-1.3,3.9M489.7,161.8c-.6,1.2-1.3,2.4-2.1,3.6.2.6.4,1.2.6,1.8,1.5-2.8,3.2-5.5,4.1-8.5-1.2.8-1.5,2.4-2.7,3.2M485,159.4c-.7.3-1.5,1-1.4,1.9.8,1.5,3.4-2.2,1.4-1.9M484.1,163.3c.9.6,1.8,1.2,2.7,1.7.8-1.1,1.6-2.3,1.9-3.7-.7-.3-1.4-.6-2-.9-.9.9-1.7,1.9-2.5,2.9h-.1Z"/>
    <path class="st113" d="M498.7,152.2c.4-.7,1.1-1.8,2-1.3,1.6,4.1,4.3,7.8,5.9,11.9,3,6.1,5,12.7,6,19.4-7.8,3.1-16.7,3.2-24.6.2,0-2.4.8-4.7,1.4-7.1,2-8.1,5.4-15.8,9.2-23.2M499.9,152.2c-1.4.4-.6,2.9.7,1.7.5-.6,0-1.8-.7-1.7M497.5,155.3c.2,1.5,2,1.2,3.1,1.6.9.2,2.8.4,1.8-1.3-1.6-.3-3.3-.5-5-.3M496.8,157.9c-.5,1.4-1,2.8-1.6,4.1,1.1.3,2.2.6,3.3,1-.3-1.8-1.1-3.4-1.7-5.1M502.5,158.5c-.1,1-.2,2.1-.3,3.1-.3,0-.8-.1-1.1-.2-.2.8-.7,1.6,0,2.4,1.4-.5,2.6-1.3,3.9-2.1-.5-1.3-1.3-2.4-2.5-3.2M499.2,160.7c-.6.8-.4,1.3.4,1.5.5-.8.4-1.4-.4-1.5M494.3,163.9c-.7,1.8-1.7,3.6-1.6,5.6l-.2.3c1.5,0,3.1,0,4.6-.6-.3-1.3-.5-2.7-.8-4-.7-.4-1.4-.9-2-1.3M501.8,164.6c0,1.3-.2,2.6-.2,3.9,1.8.4,3.7.8,5.5,1.1.4,1.6.8,3.2,1.5,4.7-.7-2.4-1-5-1.8-7.4-.4-.8-.5-2.2-1.6-2.2l.6-.8c-1.4-.1-2.8.2-4.1.6M489.3,178.8v3.3c1.7,0,4.1,1.5,5.3-.4-.9-.2-1.8-.3-2.7-.5.9,0,1.8-.2,2.8-.2-1.6-1-3.4-2.6-5.4-2.2h0Z"/>
    <path class="st51" d="M486,152.2c.6-.4,1.2-.8,1.8-1.1.7,0,1.4.3,2,.6-6.1,5.5-13,9.9-19.7,14.6l.4-.6c-.9,0-1.8,0-2.8.1.3-.6.6-1.1,1-1.6,3.5-1.3,6.3-4,9.2-6.2,1.5-1.1,1.9-3,3.1-4.4,0,.8-.1,1.5-.1,2.3.6-.6,1.2-1.2,1.8-1.8.2.1.6.4.8.6.9-.8,1.7-1.6,2.5-2.4h0Z"/>
    <path class="st86" d="M113.6,156.6c1.8-1.5,3.5-3,5.5-4.2-.9,1.9-1.7,3.8-2.4,5.7-.2,0-.6.1-.8.2-.5-.4-1.4-1.2-1.9-1.6.2,1.1.8,2.1,1.4,3.1,0,.2.3.7.4.9-.2-.2-.5-.6-.6-.8-1-.9-1.3-2.1-1.6-3.3h0Z"/>
    <path class="st140" d="M122.5,152.6c2-.9,2.3,2.1,3,3.2-1.2.7-2.5,1-3.9,1,0-1.4-.4-3.2.9-4.2h0Z"/>
    <path class="st61" d="M109,153.5c.9-.7,1.8.9.9,1.5-.9.7-1.8-.9-.9-1.5h0Z"/>
    <path class="st146" d="M345.8,155.1c2.3-.7,4.6-.9,7-1.1v.7c-.6,0-1.8-.3-2.4-.4-.1.7-.3,1.3-.4,2,1.6-1.6,4.1-1.3,6.2-1.8,6.9-1.6,14-.7,21-.5,7.3.2,14.8-.5,21.8,2.1-1.1,0-2.2-.2-3.4-.3-1.1.3-2.1.6-3.2.7-23.5,1.8-47,3.8-70.5,4.6-34.2,1.1-68.4,2.5-102.6,3.2-8.9.6-17.8.2-26.7,1.1v-.6c28.8-1.9,57.6-3.2,86.3-4.6,10.9-.4,21.9-1,32.8-1.6h0c1.3.1,2.6,0,3.9,0,11.3-1,22.7-.7,33.9-2.4.2-.3.5-.9.7-1.2-1.4,0-2.9.2-4.3.1M354.3,156.9c-3.8.1-7.4,1.3-11.1,1.4,3.5,0,7-.8,10.5-1,13.7-1.6,27.5-1.5,41.3-1.4v-.5c-7.6-1.4-15.3-.4-22.9-.8-6-.4-11.9,1.2-17.8,2.3h0Z"/>
    <path class="st72" d="M354.3,156.9c5.9-1.1,11.8-2.7,17.8-2.3,7.6.4,15.3-.6,22.8.8v.5c-13.8-.1-27.6-.2-41.3,1.4-3.5.2-7,1.1-10.5,1,3.8,0,7.4-1.3,11.1-1.4h.1Z"/>
    <path class="st70" d="M487.4,159.9c0-1.4,0-2.9,1.3-3.9.5.8,1.1,1.6,1.7,2.3-.2.8-.4,1.6-.5,2.4-.8-.3-1.6-.6-2.5-.9h0Z"/>
    <path class="st54" d="M507.8,156.1c1.1-.3,1.7,1.6.5,1.9-1.1.3-1.6-1.6-.5-1.9h0Z"/>
    <path class="st81" d="M132.6,156.4c1.3-.3,1.6,1.1,1.8,2.1-1.5-.8-1.2,1.5.1.5.2,0,.7.3,1,.4-.8.7-1.4,1.6-1.9,2.5,1,0,2.1.2,3.1.2-.2-.5-.6-1.4-.8-1.9,1.4.5,2.9,1,4.4,1.6,4.2,3.6,8,7.6,11.6,11.9-3.1,3.1-6.6,5.9-10.6,7.7-3.5-6.9-7.9-13.4-11.2-20.4v-2c.3-.2.9-.8,1.3-1l.3.2s.1,0,.2.1h0c.2-.6.5-1.4.7-1.9M133.9,163.3c.3.4.8,1.1,1.1,1.5-.3,0-.8.2-1.1.3.6.6,1.1,1.3,1.5,2,0-.3-.2-1-.2-1.3.9-.2,2-.3,2.6-1.2-.3-.6-.6-1.2-.9-1.8-.4,0-1.3-.2-1.8-.3-.3.2-.9.6-1.2.8h0Z"/>
    <path class="st6" d="M111.4,157.3h1.4c.2,1,.4,2,.5,3,.6-.1,1.3-.2,1.9-.3.2.2.5.6.6.8,0,.3.3.9.5,1.2-2.1,4.2-4.4,8.3-6.8,12.4-.4-1.2-.9-2.4-1.3-3.6-.6,0-1.2.2-1.8.3-.6-1-1.2-2-1.8-3-.6.2-1.2.4-1.8.6.4,1.1.8,2.3,1.2,3.4-1.1-.7-2.1-1.6-3-2.5.5-1.1,1-2.2,1.3-3.4h0c2.9-3.1,6-5.9,9.2-8.6M107.8,164.8c0,1.2,1.3,1.6,2.3,1.9.6-1,1.3-2,1.9-3-1.1-2.2-3.7-.7-4.2,1.1M110.9,169.9c1.1-2.1,2.3-4.2,3.2-6.4-2.6.8-3.5,4-3.2,6.4h0Z"/>
    <path class="st67" d="M518,158.1c.9-.4,2-1,3-.4,3.6,1.8,6.7,4.4,10.1,6.7.9.7-.6,1.6-1.2,1.8-3.9-2.8-7.9-5.5-11.9-8.1h0Z"/>
    <path class="st48" d="M131.6,158.2h.2-.2Z"/>
    <path class="st152" d="M142,158c3.7,2.5,7.6,4.7,10.9,7.7-.2.4-.7,1.1-.9,1.5-3.2-2.2-6.4-4.6-9.6-6.8v-.2c-.1-.8-.2-1.5-.4-2.3h0Z"/>
    <path class="st74" d="M269.1,158.6c6.5-.4,12.9-.6,19.4-.7,7.4-.1,14.9-.7,22.3-.5.2.3.7.8.9,1h0c-10.9.7-21.9,1.2-32.8,1.7-3-1.7-6.7-.3-9.9-1.5h.1Z"/>
    <path class="st60" d="M496.8,157.9c.6,1.7,1.4,3.3,1.7,5.1-1.1-.4-2.2-.7-3.3-1,.5-1.4,1.1-2.8,1.6-4.1h0Z"/>
    <path class="st162" d="M508.6,159.2c.4-.9,1.5-1,2.2-1.5.4.6.8,1.3,1.2,2-.6.6-1.2,1.2-1.8,1.9-.7-.7-1.9-1.2-1.7-2.4h.1Z"/>
    <path class="st90" d="M5,159.8c-.3-.8,1-1.6,1.7-1.1.3.8-1,1.6-1.7,1.1h0Z"/>
    <path class="st127" d="M134.5,159c-1.3.9-1.6-1.3-.1-.5v.5h.1Z"/>
    <path class="st159" d="M502.5,158.5c1.2.7,2,1.9,2.5,3.2-1.2.8-2.5,1.6-3.9,2.1-.7-.7-.2-1.6,0-2.4.3,0,.8.1,1.1.2,0-1.1.2-2.1.3-3.1h0Z"/>
    <path class="st82" d="M120.3,159.3c.8,0,1.6.1,2.4.2-.6.2-1.3.4-1.9.7,1.1.7,1.9,1.6,1.8,3-.7-.3-1.5-.6-2.2-1-.6.1-1.2.2-1.8.4.6-1.1,1.2-2.2,1.7-3.3h0Z"/>
    <path class="st50" d="M485,159.4c1.9-.4-.7,3.4-1.4,1.9,0-.9.7-1.5,1.4-1.9h0Z"/>
    <path class="st102" d="M133.6,161.9c.5-.9,1.1-1.8,1.9-2.5l.4.9c.2.5.6,1.4.8,1.9-1,0-2.1-.2-3.1-.2h0Z"/>
    <path class="st133" d="M484.1,163.3c.8-1,1.6-2,2.5-2.9.7.3,1.4.6,2,.9-.3,1.4-1,2.6-1.9,3.7-.9-.6-1.8-1.1-2.7-1.7h.1Z"/>
    <path class="st88" d="M499.2,160.7c.8.2,1,.7.4,1.5-.9-.2-1-.7-.4-1.5h0Z"/>
    <path class="st78" d="M2.7,162.7c1.1.2,2.2.3,3.3.5.4-.3,1.2-.9,1.6-1.2,4.3.4,8.7.3,13,0-.2.5-.6,1.4-.8,1.9-5.8.4-11.6-.1-17.4.2,0-.4.2-1.1.2-1.5h0Z"/>
    <path class="st45" d="M107.8,164.8c.5-1.9,3.1-3.3,4.2-1.1-.7,1-1.3,2-1.9,3-1-.4-2.2-.7-2.3-1.9h0Z"/>
    <path class="st21" d="M133.9,163.3c.3-.2.9-.6,1.2-.8.4,0,1.3.2,1.8.3.3.6.6,1.2.9,1.8-.6.9-1.6,1-2.6,1.2,0,.3.2,1,.2,1.3-.4-.7-.9-1.4-1.5-2,.3,0,.8-.2,1.1-.3-.3-.4-.9-1.1-1.1-1.5h0Z"/>
    <path class="st29" d="M19.9,164c7.1-.3,14.1-.9,21.1-1.2,3,0,6,.8,8.7,2.1-2.8,0-5.5.2-8.2.5-3.7.5-7.3.6-11,.6-9.5,0-19,.6-28.4-1.2,0-.2.3-.5.4-.6,5.8-.3,11.6.2,17.4-.2h0Z"/>
    <path class="st18" d="M116.9,163.8c.4,0,1.3-.3,1.8-.4,1.1,1.5,2.4,3,2.4,4.9s-1.3,2.3-2.3,3.1c0-.9,0-1.8.2-2.7h-1.4c-.3-.7-1.8-2.3-1.6-.4,0,.8,0,1.6-.2,2.5-.4-.6-.7-1.3-1-1.9.7-1.7,1.3-3.4,1.9-5.1h.2M116.5,167.3c.9.1,1.8,0,2.7-.1,0-.9-1.1-1.3-1.6-2-.4.7-.8,1.4-1.1,2.1h0Z"/>
    <path class="st1" d="M110.9,169.9c-.4-2.5.5-5.6,3.2-6.4-.9,2.2-2.1,4.3-3.2,6.4h0Z"/>
    <path class="st121" d="M501.8,164.6c1.3-.4,2.7-.7,4.1-.6l-.6.8h-1.3c1.7,1,2.4,2.8,2.5,4.7.2-.8.3-1.6.5-2.4.8,2.4,1.1,4.9,1.8,7.4-.7-1.5-1.2-3.1-1.5-4.7-1.9-.4-3.7-.8-5.5-1.1,0-1.3,0-2.6.2-3.9h0l-.2-.2Z"/>
    <path class="st120" d="M124.7,169.6c-.9-2.4,2.1-3.7,3.5-5.1.3.7.6,1.4.8,2.1-.2,0-.6-.1-.9-.1.4,1.6.7,3.3.3,4.9-1.3-.6-2.6-1-3.8-1.7h0Z"/>
    <path class="st98" d="M41.5,165.4c2.7-.4,5.5-.5,8.2-.5-.3,1.4-1.8,1-2.8,1-1.8-.1-3.6-.3-5.4-.5h0Z"/>
    <path class="st34" d="M116.5,167.3c.4-.7.8-1.4,1.1-2.1.5.7,1.6,1.1,1.6,2-.9.2-1.8.2-2.7.1h0Z"/>
    <path class="st99" d="M475.3,168c.8-.9,1.6-1.7,2.5-2.6-.2,3.9,4.5,4.4,6,7.4-3.2-.8-5.6-3.3-8.5-4.8h0Z"/>
    <path class="st147" d="M492.7,169.5c1-1.6,2.2-3,3.6-4.3.2,1.3.5,2.7.8,4-1.5.5-3.1.6-4.6.6l.2-.3h0Z"/>
    <path class="st141" d="M98.7,169.3c1.1-1.2,2.2-2.3,3.5-3.4-.3,1.2-.7,2.3-1.3,3.4.9.9,1.9,1.8,3,2.5-.4-1.1-.8-2.3-1.2-3.4.6-.2,1.2-.4,1.8-.6.6,1,1.2,2,1.8,3,.6-.1,1.2-.2,1.8-.3.4,1.2.8,2.4,1.3,3.6-1.2,2.4-2.4,4.9-4,7.1-2.3-1.3-4.7-2.5-6.7-4.2l-.2-.9c2.5.4,4.9,1.5,6.6,3.4.7-1.1,1.4-2.2,2.1-3.2-2.2-.8-4.5-1.9-6.3-3.5-.9-1.1-1.2-2.5-2.3-3.5h0Z"/>
    <path class="st149" d="M128.2,166.4c.2,0,.6.1.9.1.7,1.4,1.9,4.6-.5,4.8.3-1.6.1-3.3-.3-4.9h0Z"/>
    <path class="st71" d="M116,168.5c-.2-1.9,1.3-.3,1.6.4h1.4c-.5,1-1.1,1.9-1.6,2.9-.4-.2-1.1-.6-1.5-.8,0-.8,0-1.7.2-2.5h0Z"/>
    <path class="st93" d="M329.2,169.8c12.1,0,24.2-.5,36.3-.7l-.2,1.1c-1.3.2-2.6.5-3.9.7-4.8.5-9.6.3-14.4.3-11.4,0-22.8,0-34.2.7-15.1-.1-30.3-.3-45.4.1,2.2-1.7,5.2-.8,7.8-1,11.9.1,23.7.1,35.6,0,1.6,0,3.4,0,4.8-.9,4.5-.3,9-.3,13.6-.4h0Z"/>
    <path class="st151" d="M365.6,169.1c7.8,0,15.6-.1,23.5.1,1.3.2,2.5.4,3.8.8l.8.3c-3.1.4-6.3.6-9.4.2-6.2-.9-12.5-.4-18.8-.2l.2-1.1h-.1Z"/>
    <path class="st65" d="M389,169.2c7.8-.1,15.6-.5,23.4.1-1.3.6-2.8.7-4.2.7-5.1-.1-10.3-.1-15.4,0-1.3-.3-2.5-.6-3.8-.8h0Z"/>
    <path class="st138" d="M94.7,173.7c1.1-1.6,2.6-3,4-4.4,1.1.9,1.5,2.4,2.3,3.5,1.8,1.6,4,2.6,6.3,3.5-.7,1.1-1.4,2.1-2.1,3.2-1.7-1.9-4.1-2.9-6.6-3.4l.2.9c-1.3-1.2-2.9-2.1-4.1-3.4h0Z"/>
    <path class="st89" d="M260.3,170.6c5-.4,10-.1,15-.2v.6c-2.5.2-5.5-.7-7.8,1-3.4.3-6.8.6-10.2.6l.4-1c.9-.3,1.7-.7,2.6-.9h0Z"/>
    <path class="st114" d="M275.2,170.4c13.5,0,27,0,40.5-.3-1.4,1-3.2.9-4.8.9h-35.6v-.6h-.1Z"/>
    <path class="st155" d="M489.3,178.8c2.1-.4,3.8,1.2,5.4,2.2-.9,0-1.8.2-2.8.2.9.1,1.8.3,2.7.5-1.2,1.9-3.6.3-5.3.4v-3.3h0Z"/>
    <path class="st160" d="M112.9,179c4.2,2.8,9.4,5.1,14.5,3.5,2.5-.6,4.1-2.6,6.2-3.9.1,1,.3,2,.5,3,.2-.1.5-.4.7-.6l.2-.2c.2.9.4,1.9.6,2.9-7.7,3.1-16.8,3.4-24.4-.2,0-.9.2-1.9.3-2.8.2.2.6.6.8.8.2-.9.4-1.7.6-2.6h0Z"/>
    <path class="st75" d="M257.2,191.4c37.5-.3,75-.3,112.5,0-1.4.4-2.8.7-4.3.7h-94.1c-4.7-.3-9.5.4-14.1-.7h0Z"/>
    <path class="st47" d="M195.9,201.4c3.3-1.1,6.8-.6,10.2-.7h27.7c1.1,0,2.2,0,2.9,1-13.6-.1-27.2-.2-40.8-.4h0Z"/>
  </g>
</svg>