<?xml version="1.0" encoding="UTF-8"?>
<svg id="Layer_2" data-name="Layer 2" xmlns="http://www.w3.org/2000/svg" viewBox="0 0 30.59 30.55">
  <defs>
    <style>
      .cls-1 {
        fill: #eaeaea;
      }
    </style>
  </defs>
  <g id="Layer_1-2" data-name="Layer 1">
    <path class="cls-1" d="M26.43,9.42l-.19-.16,1.6-1.54c.26-.21.29-.57.09-.81-.1-.12-.23-.19-.38-.21-.15-.01-.3.03-.42.13-.02.02-.05.04-.07.06l-1.36,1.3-1.67-4.95c-.65-1.94-2.47-3.25-4.52-3.25h-10.91c-2.05,0-3.87,1.31-4.52,3.25l-1.67,4.95-1.35-1.29c-.12-.13-.28-.2-.44-.2-.13,0-.27.05-.38.14-.11.1-.18.24-.19.39s.04.3.14.41c.02.02.04.04.06.06l1.65,1.58-.19.16C.63,10.36,0,11.69,0,13.1v3.02c0,2.5,1.97,4.59,4.47,4.75h.2v1.76c0,.31.26.57.57.57s.57-.26.57-.57v-1.72h11.17c.31,0,.57-.26.57-.57s-.26-.57-.57-.57H4.78c-2,0-3.63-1.63-3.64-3.64v-3.02c0-2,1.63-3.63,3.64-3.64h18.68c1.94,0,3.52,1.58,3.52,3.52v2.31c0,.31.26.57.57.57s.57-.26.57-.57v-2.31c0-1.38-.62-2.68-1.69-3.56ZM24.23,8.4c-.25-.05-.51-.07-.77-.08H4.78c-.29,0-.59.03-.88.09l-.37.07,1.64-4.86c.5-1.48,1.88-2.48,3.45-2.48h10.9c1.56,0,2.95.99,3.45,2.47l1.64,4.85-.37-.07Z"/>
    <path class="cls-1" d="M21.62,11.99h0c-.7,0-1.36.27-1.85.77-.5.5-.77,1.15-.77,1.85,0,1.44,1.18,2.62,2.62,2.62,1.44,0,2.62-1.18,2.62-2.62,0-.7-.27-1.36-.77-1.85-.49-.5-1.15-.77-1.85-.77ZM22.49,15.48c-.23.23-.54.36-.87.36h0c-.68,0-1.23-.55-1.23-1.23,0-.68.55-1.23,1.23-1.23h0c.68,0,1.23.55,1.23,1.23,0,.33-.13.64-.36.87Z"/>
    <path class="cls-1" d="M3.89,14.61c0,1.45,1.17,2.62,2.62,2.62,1.44,0,2.62-1.18,2.62-2.62,0-.7-.27-1.36-.77-1.85s-1.15-.77-1.85-.77c-1.44,0-2.62,1.18-2.62,2.62ZM6.51,13.38c.68,0,1.23.55,1.23,1.23,0,.33-.13.64-.36.87-.23.23-.54.36-.87.36h0c-.68,0-1.23-.55-1.23-1.23,0-.68.55-1.23,1.23-1.23Z"/>
    <path class="cls-1" d="M16.08,13.91h-4.03c-.38,0-.7.31-.7.7s.31.7.7.7h4.03c.38,0,.7-.31.7-.7s-.31-.7-.7-.7Z"/>
    <path class="cls-1" d="M24.57,19.12h-.03c-1.38,0-2.67.53-3.65,1.5-.99.98-1.53,2.28-1.54,3.67-.02,2.87,2.3,5.21,5.17,5.23h.03c1.08,0,2.12-.33,3-.95l.15-.11,1.92,1.92c.11.11.25.17.4.18.15.02.3-.05.41-.16.23-.22.23-.58.01-.81l-1.92-1.92.12-.15c.71-.9,1.11-2.02,1.11-3.16.02-2.87-2.3-5.21-5.17-5.23ZM27.42,27.19c-.76.76-1.77,1.18-2.85,1.18-2.22,0-4.03-1.81-4.03-4.03,0-1.08.42-2.09,1.18-2.85.76-.76,1.77-1.18,2.85-1.18h0c1.08,0,2.09.42,2.85,1.18.76.76,1.18,1.77,1.18,2.85,0,1.08-.42,2.09-1.18,2.85Z"/>
  </g>
</svg>