<?xml version="1.0" encoding="UTF-8"?>
<svg id="Layer_2" data-name="Layer 2" xmlns="http://www.w3.org/2000/svg" viewBox="0 0 58.39 54.48">
  <g id="Layer_1-2" data-name="Layer 1">
    <g>
      <path d="M29.2,11.36c-4.14,0-8.08,2-10.53,5.34-.25.34-.29.79-.09,1.16.19.38.57.61.99.61h0l19.24-.02c.42,0,.8-.24.99-.61.19-.38.15-.82-.1-1.16-2.45-3.33-6.38-5.31-10.51-5.31ZM20.82,16.76c2.14-2.33,5.19-3.7,8.38-3.7s6.22,1.35,8.36,3.67l-16.74.02Z"/>
      <path d="M18.58,36.63c-.19.38-.15.82.09,1.16,2.45,3.34,6.39,5.34,10.53,5.34s8.06-1.99,10.51-5.31c.25-.34.29-.78.1-1.16-.19-.38-.57-.61-.99-.61l-19.24-.02h0c-.42,0-.8.23-.99.61ZM37.56,37.74c-2.14,2.32-5.18,3.67-8.36,3.67s-6.24-1.36-8.38-3.7l16.74.02Z"/>
      <path d="M56.43,20.15h0s-3.53,0-3.53,0c.03-.13.07-.26.13-.39.93-1.96.84-4.26-.24-6.14-1.09-1.88-3.03-3.1-5.19-3.28-.81-.06-1.44-.7-1.5-1.5-.17-2.17-1.4-4.11-3.28-5.19-1.88-1.09-4.17-1.18-6.14-.24-.73.35-1.59.12-2.05-.55-1.23-1.79-3.26-2.86-5.43-2.86s-4.2,1.07-5.43,2.86c-.46.67-1.32.9-2.05.55-1.96-.93-4.26-.84-6.14.24-1.88,1.09-3.1,3.03-3.28,5.19-.06.81-.7,1.44-1.5,1.5-2.17.17-4.11,1.4-5.19,3.28-1.09,1.88-1.18,4.17-.24,6.14.06.13.1.26.13.39H1.96c-1.08,0-1.96.88-1.96,1.96v10.28c0,1.08.88,1.96,1.96,1.96h3.53c-.03.13-.07.26-.13.39-.93,1.96-.84,4.26.24,6.14,1.08,1.88,3.03,3.1,5.19,3.28.81.06,1.44.7,1.5,1.5.17,2.17,1.4,4.11,3.28,5.19,1.88,1.09,4.17,1.18,6.14.24.73-.35,1.59-.12,2.05.55,1.23,1.79,3.26,2.86,5.43,2.86s4.2-1.07,5.43-2.86c.46-.67,1.32-.9,2.05-.55,1.96.93,4.26.84,6.14-.24,1.88-1.09,3.1-3.03,3.28-5.19.06-.81.7-1.44,1.5-1.5,2.17-.17,4.11-1.4,5.19-3.28,1.09-1.88,1.18-4.17.24-6.14-.06-.13-.1-.26-.13-.39h3.53c1.08,0,1.96-.88,1.96-1.96v-10.28c0-1.08-.88-1.96-1.96-1.96ZM7.08,14.47c.8-1.39,2.24-2.3,3.85-2.43,1.65-.13,2.94-1.42,3.07-3.07.13-1.61,1.04-3.05,2.43-3.85,1.39-.8,3.09-.87,4.55-.18,1.49.71,3.25.24,4.19-1.12.91-1.33,2.42-2.12,4.03-2.12s3.11.79,4.03,2.12c.94,1.36,2.7,1.83,4.19,1.12,1.45-.69,3.16-.63,4.55.18,1.39.8,2.3,2.24,2.43,3.85.13,1.65,1.42,2.94,3.07,3.07,1.61.13,3.05,1.04,3.85,2.43.8,1.39.87,3.09.18,4.55-.17.36-.27.74-.31,1.12h-3.7c-1.11-2.86-2.88-5.44-5.21-7.53-.35-.31-.89-.28-1.2.07-.31.35-.28.89.07,1.2,1.96,1.75,3.48,3.89,4.5,6.26H12.76c2.75-6.35,9.08-10.81,16.44-10.81,3.11,0,6.18.81,8.87,2.35.41.23.93.09,1.16-.32.23-.41.09-.93-.32-1.16-2.94-1.68-6.3-2.57-9.71-2.57-8.31,0-15.43,5.2-18.28,12.52h-3.7c-.04-.38-.14-.76-.31-1.12-.69-1.46-.63-3.16.18-4.55ZM51.31,40.01c-.8,1.39-2.24,2.3-3.85,2.43-1.65.13-2.94,1.42-3.07,3.07-.13,1.61-1.04,3.05-2.43,3.85-1.39.8-3.09.87-4.55.18-1.49-.71-3.25-.24-4.19,1.12-.91,1.33-2.42,2.12-4.03,2.12s-3.11-.79-4.03-2.12c-.64-.94-1.68-1.45-2.75-1.45-.49,0-.98.11-1.44.33-1.46.69-3.16.63-4.55-.18-1.39-.8-2.3-2.24-2.43-3.85-.13-1.65-1.42-2.94-3.07-3.07-1.61-.13-3.05-1.04-3.85-2.43-.8-1.39-.87-3.09-.18-4.55.17-.36.27-.74.31-1.12h3.7c2.85,7.32,9.97,12.52,18.28,12.52s15.43-5.2,18.28-12.52h3.7c.04.38.14.76.31,1.12.69,1.45.63,3.16-.18,4.55ZM56.68,32.38c0,.14-.11.25-.25.25H19.91c-.47,0-.85.38-.85.85s.38.85.85.85h25.72c-2.75,6.35-9.08,10.81-16.43,10.81s-13.68-4.46-16.44-10.81h3.15c.47,0,.85-.38.85-.85s-.38-.85-.85-.85H1.96c-.14,0-.25-.11-.25-.25v-10.28c0-.14.11-.25.25-.25h54.48c.14,0,.25.11.25.25v10.28Z"/>
      <path d="M31.97,23.02c-.47,0-.85.38-.85.85v6.74c0,.47.38.85.85.85s.85-.38.85-.85v-6.74c0-.47-.38-.85-.85-.85Z"/>
      <path d="M40.82,23.02c-.47,0-.85.38-.85.85v6.74c0,.47.38.85.85.85s.85-.38.85-.85v-6.74c0-.47-.38-.85-.85-.85Z"/>
      <path d="M37.9,24.77h0c.47,0,.85-.38.85-.85s-.38-.85-.85-.85h-2.71c-.47,0-.85.38-.85.85v6.69c0,.47.38.85.85.85s.85-.38.85-.85v-2.56h1.64c.47,0,.85-.38.85-.85s-.38-.85-.85-.85h-1.64v-1.58h1.86Z"/>
      <path d="M15.91,24.78c.47,0,.85-.38.85-.85s-.38-.85-.85-.85h-2.82c-.47,0-.85.38-.85.85v6.68c0,.47.38.85.85.85h2.82c.47,0,.85-.38.85-.85s-.38-.85-.85-.85h-1.96v-1.63h1.75c.47,0,.85-.38.85-.85s-.38-.85-.85-.85h-1.75v-1.63h1.96Z"/>
      <path d="M46.56,24.78c.47,0,.85-.38.85-.85s-.38-.85-.85-.85h-2.82c-.47,0-.85.38-.85.85v6.68c0,.47.38.85.85.85h2.82c.47,0,.85-.38.85-.85s-.38-.85-.85-.85h-1.96v-1.63h1.75c.47,0,.85-.38.85-.85s-.38-.85-.85-.85h-1.75v-1.63h1.96Z"/>
      <path d="M51.33,23.22h-1.85c-.23,0-.44.09-.6.25-.16.16-.25.38-.25.6h0s0,6.55.02,6.6c.01.21.1.4.25.55.16.16.38.25.6.25h0c.06,0,1.38,0,1.91-.01,1.99-.03,3.43-1.76,3.43-4.11,0-2.47-1.41-4.12-3.5-4.12ZM51.37,29.74c-.24,0-.65,0-1.03,0,0-.77,0-1.87,0-2.42,0-.46,0-1.61,0-2.41h1c1.66,0,1.79,1.85,1.79,2.42,0,1.64-.88,2.39-1.75,2.4Z"/>
      <path d="M9.25,29.11c-.06.07-.12.13-.19.19-.34.3-.77.45-1.28.45-1.39,0-2.52-1.13-2.52-2.52s1.13-2.52,2.52-2.52c.5,0,.99.15,1.41.43.39.26.92.16,1.18-.23.26-.39.16-.92-.23-1.18-.7-.47-1.52-.72-2.36-.72-2.33,0-4.22,1.9-4.22,4.22s1.9,4.22,4.22,4.22c.93,0,1.77-.31,2.42-.89.13-.11.25-.24.36-.37.3-.36.26-.9-.11-1.2-.36-.3-.9-.26-1.2.11Z"/>
      <path d="M29,23.02h-3.72c-.47,0-.85.38-.85.85s.38.85.85.85h1v5.89c0,.47.38.85.85.85s.85-.38.85-.85v-5.89h1.02c.47,0,.85-.38.85-.85s-.38-.85-.85-.85Z"/>
      <path d="M23.6,25.62c0-1.44-1.21-2.61-2.7-2.61h-1.79c-.47,0-.85.38-.85.85v6.74c0,.47.38.85.85.85s.85-.38.85-.85v-1.88l2.15,2.44c.17.19.4.29.64.29.2,0,.4-.07.56-.21.35-.31.39-.85.08-1.2l-1.7-1.93c1.11-.33,1.92-1.32,1.92-2.49ZM20.89,26.52c-.22,0-.59,0-.93,0,0-.34,0-1.45,0-1.8h.94c.54,0,1,.41,1,.9s-.46.9-1,.9Z"/>
    </g>
  </g>
</svg>