<?xml version="1.0" encoding="UTF-8"?>
<svg id="Layer_2" data-name="Layer 2" xmlns="http://www.w3.org/2000/svg" viewBox="0 0 49.1 43.16">
  <g id="Layer_1-2" data-name="Layer 1">
    <g>
      <path d="M1.64,1.64h36.82v9.73h1.64V.82c0-.45-.37-.82-.82-.82H.82c-.45,0-.82.37-.82.82v41.31c0,.45.37.82.82.82h30.27v-1.64H1.64V1.64Z"/>
      <path d="M49.1,23.25c0-5.41-4.41-9.82-9.82-9.82s-9.82,4.41-9.82,9.82c0,3.27,1.62,6.17,4.08,7.95v11.14c0,.3.17.58.43.72.27.14.59.13.84-.04l4.46-2.97,4.46,2.97c.14.09.29.14.45.14.13,0,.27-.03.39-.1.27-.14.43-.42.43-.72v-11.14c2.47-1.79,4.08-4.68,4.08-7.95ZM43.38,40.82l-3.65-2.43c-.27-.18-.63-.18-.91,0l-3.65,2.43v-8.65c1.25.58,2.64.91,4.1.91s2.85-.33,4.1-.91v8.65ZM39.28,31.44c-4.51,0-8.18-3.67-8.18-8.18s3.67-8.18,8.18-8.18,8.18,3.67,8.18,8.18-3.67,8.18-8.18,8.18Z"/>
      <path d="M37.84,25.2l-2.15-2.15-1.16,1.16,2.77,2.77c.15.15.36.24.58.24,0,0,.02,0,.02,0,.23,0,.44-.11.59-.28l5.56-6.27-1.23-1.09-4.98,5.62h0Z"/>
      <path d="M35.18,10.1v-4.81c0-.45-.37-.82-.82-.82H5.74c-.45,0-.82.37-.82.82v4.81c0,.45.37.82.82.82h28.62c.45,0,.82-.37.82-.82ZM33.54,9.28H6.55v-3.18h26.99v3.18Z"/>
      <path d="M5.74,13.87h18.02v1.64H5.74v-1.64Z"/>
      <path d="M5.74,18.47h18.02v1.64H5.74v-1.64Z"/>
      <path d="M5.74,23.06h18.02v1.64H5.74v-1.64Z"/>
      <path d="M5.74,27.66h18.02v1.64H5.74v-1.64Z"/>
      <path d="M5.74,36.84h9.83v1.64H5.74v-1.64Z"/>
    </g>
  </g>
</svg>