<?xml version="1.0" encoding="UTF-8"?>
<svg id="Layer_2" data-name="Layer 2" xmlns="http://www.w3.org/2000/svg" viewBox="0 0 18.99 21.7">
  <defs>
    <style>
      .cls-1 {
        fill: #fff;
      }
    </style>
  </defs>
  <g id="Layer_1-2" data-name="Layer 1">
    <g>
      <path class="cls-1" d="M11.25,0H2.41C1.11,0,.1,1.11,0,2.41v18.79c0,.3.2.5.5.5h12.66c.2,0,.5-.2.5-.5V2.41c0-1.31-1.11-2.41-2.41-2.41ZM2.41,1h8.84c.8,0,1.51.6,1.51,1.41v14.97H.9V2.41c0-.8.7-1.41,1.51-1.41ZM1,20.7v-2.31h11.75v2.31H1Z"/>
      <path class="cls-1" d="M2.71,7.23c0,.3.2.5.4.5h7.54c.2,0,.4-.2.5-.3V3.32c0-.3-.2-.5-.5-.5H3.11c-.3,0-.5.2-.4.4v4.02ZM3.52,3.72h6.63v3.11H3.52v-3.11Z"/>
      <path class="cls-1" d="M16.98,3.11h-2.11c-.2,0-.4.2-.4.5s.2.5.4.5h2.11c.6,0,1.11.5,1.11,1.11v3.29l-1-1.18v-2.11c0-.2-.2-.4-.5-.4-.2,0-.4.2-.4.4v2.31c0,.1.1.2.2.2l1.71,2.09v8.16c0,.6-.5,1.11-1.11,1.11s-1.11-.5-1.11-1.11v-7.53c0-.2-.2-.4-.5-.4s-.5.2-.5.4v7.53c0,1.11.9,2.01,2.01,2.01,1.21,0,2.11-.9,2.11-2.21V5.12c0-1.11-.9-2.01-2.01-2.01Z"/>
      <path class="cls-1" d="M4.82,9.54v6.63h.9v-3.11h3.11v-.9h-3.11v-2.21h3.11v-.9h-3.52c-.3,0-.5.2-.5.5Z"/>
    </g>
  </g>
</svg>