<?xml version="1.0" encoding="UTF-8"?>
<svg id="Layer_2" data-name="Layer 2" xmlns="http://www.w3.org/2000/svg" viewBox="0 0 26.05 24.51">
  <defs>
    <style>
      .cls-1 {
        fill: #06f4ed;
      }
    </style>
  </defs>
  <g id="Layer_1-2" data-name="Layer 1">
    <g>
      <path class="cls-1" d="M.7,10.82c.18.01.35-.05.49-.17L10.59,2.23c.71-.63,1.59-.95,2.47-.95s1.77.32,2.47.95l9.4,8.42c.13.12.31.18.49.17.18-.01.34-.09.46-.22.25-.28.22-.7-.05-.95L16.42,1.23c-1.85-1.65-4.88-1.64-6.72,0L.29,9.65c-.27.25-.3.67-.05.94.12.14.29.22.46.23Z"/>
      <path class="cls-1" d="M25.79,15.15c-.13-.13-.29-.2-.47-.2h0c-.18,0-.35.07-.47.2-.13.13-.2.3-.19.48v5.47c0,1.16-.91,2.07-2.07,2.07h-1.64v-9.81c0-2.34-1.84-4.18-4.18-4.18h-7.14c-2.33,0-4.15,1.83-4.15,4.18v9.81h-1.99c-1.2,0-2.13-.94-2.13-2.13v-5.24c0-.18-.07-.35-.19-.48s-.29-.2-.47-.2h0c-.18,0-.35.07-.47.2C.07,15.45,0,15.62,0,15.8v5.24C0,22.95,1.56,24.51,3.48,24.51h3.19v-11.15c0-1.7,1.27-2.98,2.95-2.98h7.14c1.67,0,2.98,1.31,2.98,2.98v11.15h2.84c1.85,0,3.41-1.56,3.41-3.42v-5.46c0-.18-.07-.35-.2-.48Z"/>
    </g>
  </g>
</svg>