<?xml version="1.0" encoding="UTF-8"?>
<svg id="Layer_2" data-name="Layer 2" xmlns="http://www.w3.org/2000/svg" viewBox="0 0 22.68 22.84">
  <defs>
    <style>
      .cls-1 {
        fill: #fff;
      }
    </style>
  </defs>
  <g id="Layer_1-2" data-name="Layer 1">
    <g>
      <path class="cls-1" d="M17.81,22.84H4.86c-2.68,0-4.86-2.13-4.86-4.75V4.75C0,2.13,2.18,0,4.86,0h12.95c2.68,0,4.86,2.13,4.86,4.75v13.34c0,2.62-2.18,4.75-4.86,4.75ZM4.86,1.96c-1.6,0-2.91,1.25-2.91,2.8v13.34c0,1.54,1.3,2.79,2.91,2.79h12.95c1.6,0,2.91-1.25,2.91-2.79V4.75c0-1.54-1.3-2.8-2.91-2.8H4.86Z"/>
      <path class="cls-1" d="M11.34,17.35c-3.27,0-5.93-2.66-5.93-5.93s2.66-5.93,5.93-5.93,5.93,2.66,5.93,5.93-2.66,5.93-5.93,5.93ZM11.34,7.45c-2.19,0-3.97,1.78-3.97,3.97s1.78,3.97,3.97,3.97,3.97-1.78,3.97-3.97-1.78-3.97-3.97-3.97Z"/>
      <path class="cls-1" d="M19.09,5.19c0,.77-.62,1.39-1.39,1.39s-1.39-.62-1.39-1.39.62-1.39,1.39-1.39,1.39.62,1.39,1.39Z"/>
    </g>
  </g>
</svg>