<?xml version="1.0" encoding="UTF-8"?>
<svg id="Layer_2" data-name="Layer 2" xmlns="http://www.w3.org/2000/svg" viewBox="0 0 28.36 28.56">
  <defs>
    <style>
      .cls-1 {
        fill: #231f20;
      }
    </style>
  </defs>
  <g id="Layer_1-2" data-name="Layer 1">
    <g>
      <path class="cls-1" d="M22.28,28.56H6.08c-3.36,0-6.08-2.67-6.08-5.94V5.94C0,2.67,2.73,0,6.08,0h16.19c3.36,0,6.08,2.67,6.08,5.94v16.68c0,3.28-2.73,5.94-6.08,5.94ZM6.08,2.45c-2,0-3.64,1.57-3.64,3.5v16.68c0,1.93,1.63,3.49,3.64,3.49h16.19c2,0,3.64-1.57,3.64-3.49V5.94c0-1.93-1.63-3.5-3.64-3.5H6.08Z"/>
      <path class="cls-1" d="M14.18,21.7c-4.09,0-7.41-3.33-7.41-7.41s3.33-7.41,7.41-7.41,7.41,3.33,7.41,7.41-3.33,7.41-7.41,7.41ZM14.18,9.32c-2.74,0-4.96,2.23-4.96,4.97s2.23,4.97,4.96,4.97,4.97-2.23,4.97-4.97-2.23-4.97-4.97-4.97Z"/>
      <path class="cls-1" d="M23.87,6.5c0,.96-.78,1.73-1.73,1.73s-1.73-.78-1.73-1.73.77-1.73,1.73-1.73,1.73.78,1.73,1.73Z"/>
    </g>
  </g>
</svg>