<?xml version="1.0" encoding="UTF-8"?>
<svg id="Layer_2" data-name="Layer 2" xmlns="http://www.w3.org/2000/svg" viewBox="0 0 50.24 41.87">
  <g id="Layer_1-2" data-name="Layer 1">
    <g id="Outline">
      <path d="M49.65,15.11l-8.37-2.51c-.16-.05-.34-.05-.5,0l-7.29,2.43-8.12-2.44c-.16-.05-.32-.05-.48,0l-8.12,2.44-7.29-2.43c-.16-.05-.34-.06-.5,0L.6,15.11C.24,15.21,0,15.54,0,15.91v20.1C0,36.47.37,36.84.84,36.84h4.27c-.06.28-.08.56-.08.84,0,2.31,1.87,4.19,4.19,4.19s4.19-1.87,4.19-4.19c0-.28-.03-.56-.08-.84h7.7c-.06.28-.08.56-.08.84,0,2.31,1.87,4.19,4.19,4.19s4.19-1.87,4.19-4.19c0-.28-.03-.56-.08-.84h7.7c-.06.28-.08.56-.08.84,0,2.31,1.87,4.19,4.19,4.19s4.19-1.87,4.19-4.19c0-.28-.03-.56-.08-.84h4.27c.46,0,.84-.37.84-.84V15.91c0-.37-.24-.7-.6-.8ZM12.11,35.17c-.46,0-.84.37-.84.84,0,.15.04.29.11.42.22.38.34.81.34,1.26,0,1.39-1.12,2.51-2.51,2.51s-2.51-1.12-2.51-2.51c0-.44.12-.88.34-1.26.23-.4.09-.91-.31-1.14-.13-.07-.27-.11-.42-.11H1.67v-18.64l7.52-2.26,6.71,2.24v4.5c-.28-.06-.56-.08-.84-.08-2.31,0-4.19,1.87-4.19,4.19s1.87,4.19,4.19,4.19c.28,0,.56-.03.84-.08v5.95h-3.8ZM33.08,27.29c-.26.15-.42.43-.42.73v7.15h-4.64c-.46,0-.84.37-.84.84,0,.15.04.29.11.42.22.38.34.81.34,1.26,0,1.39-1.12,2.51-2.51,2.51s-2.51-1.12-2.51-2.51c0-.44.12-.88.34-1.26.23-.4.09-.91-.31-1.14-.13-.07-.27-.11-.42-.11h-4.64v-7.15c0-.46-.37-.84-.84-.84-.15,0-.29.04-.42.11-.38.22-.81.34-1.26.34-1.39,0-2.51-1.12-2.51-2.51s1.12-2.51,2.51-2.51c.44,0,.88.12,1.26.34.4.23.91.09,1.14-.31.07-.13.11-.27.11-.42v-5.69l7.54-2.26,7.54,2.26v5.69c0,.46.37.84.84.84.15,0,.29-.04.42-.11.38-.22.81-.34,1.26-.34,1.39,0,2.51,1.12,2.51,2.51s-1.12,2.51-2.51,2.51c-.44,0-.88-.12-1.26-.34-.26-.15-.58-.15-.84,0ZM48.57,35.17h-4.64c-.46,0-.84.37-.84.84,0,.15.04.29.11.42.22.38.34.81.34,1.26,0,1.39-1.12,2.51-2.51,2.51s-2.51-1.12-2.51-2.51c0-.44.12-.88.34-1.26.23-.4.09-.91-.31-1.14-.13-.07-.27-.11-.42-.11h-3.8v-5.95c.28.06.56.08.84.08,2.31,0,4.19-1.87,4.19-4.19s-1.87-4.19-4.19-4.19c-.28,0-.56.03-.84.08v-4.5l6.71-2.24,7.52,2.26v18.64Z"/>
      <path d="M41.03,11.72c3.24,0,5.86-2.62,5.86-5.86s-2.62-5.86-5.86-5.86-5.86,2.62-5.86,5.86c0,3.24,2.63,5.86,5.86,5.86ZM41.03,1.67c2.31,0,4.19,1.87,4.19,4.19s-1.87,4.19-4.19,4.19-4.19-1.87-4.19-4.19c0-2.31,1.88-4.18,4.19-4.19Z"/>
      <path d="M25.12,11.72c3.24,0,5.86-2.62,5.86-5.86S28.36,0,25.12,0s-5.86,2.62-5.86,5.86c0,3.24,2.63,5.86,5.86,5.86ZM25.12,1.67c2.31,0,4.19,1.87,4.19,4.19s-1.87,4.19-4.19,4.19-4.19-1.87-4.19-4.19c0-2.31,1.88-4.18,4.19-4.19Z"/>
      <path d="M9.21,11.72c3.24,0,5.86-2.62,5.86-5.86S12.45,0,9.21,0,3.35,2.62,3.35,5.86c0,3.24,2.63,5.86,5.86,5.86ZM9.21,1.67c2.31,0,4.19,1.87,4.19,4.19s-1.87,4.19-4.19,4.19-4.19-1.87-4.19-4.19c0-2.31,1.88-4.18,4.19-4.19Z"/>
    </g>
  </g>
</svg>