<?xml version="1.0" encoding="UTF-8"?>
<svg id="Layer_2" data-name="Layer 2" xmlns="http://www.w3.org/2000/svg" viewBox="0 0 108.33 21.24">
  <defs>
    <style>
      .cls-1 {
        fill: #fff;
      }
    </style>
  </defs>
  <g id="Layer_1-2" data-name="Layer 1">
    <g>
      <path class="cls-1" d="M51.15,1.03c-6.35,0-12.42,5.29-12.42,10.88,0,4.72,4.61,8.75,10.01,8.75s10.43-5.12,10.43-11.02c0-4.89-3.43-8.61-8.02-8.61Z"/>
      <path class="cls-1" d="M72.94,1.61c-6.35,0-12.42,5.29-12.42,10.88,0,4.72,4.61,8.75,10.01,8.75s10.43-5.12,10.43-11.02c0-4.89-3.43-8.61-8.02-8.61Z"/>
      <path class="cls-1" d="M30.31,11.94c5.11-1.03,6.97-3.49,6.97-5.64C37.28,3.03,33.39.01,24.32.01c-1.6,0-2.51.57-3.05,1.61-1.54,2.97-2.87,10.44-3.11,18.03l4.93-.42c.08-2.38.24-4.49.44-6.33l3.14,2.52c2.06,1.8,4.72,2.99,8.4,4.21l1.62-4.17c-1.22-.42-2.98-1.05-4.47-1.83-1.21-.64-2.14-1.27-2.14-1.48,0-.16.1-.2.23-.22Z"/>
      <path class="cls-1" d="M5.85,14.99c-.06,0-.98-3.05-.98-7.27,0-2,.21-4.33.82-6.66L.8.37C.26,2.99,0,5.59,0,7.99c0,6.69,2.01,11.85,5.37,11.85,5.28,0,9.39-10.77,11.87-18.54l-4.63-.82c-3.93,11.54-6.68,14.5-6.77,14.5Z"/>
      <path class="cls-1" d="M103.76.39c-2.68,0-4.89,2.53-6.64,5.77-.3-3.41-1.8-6.16-5.02-6.16-4.74,0-9,8.77-10.28,19.99l4.93-.42c1.05-8.57,4.34-14.56,5.45-14.56.56,0,.78,1.3.78,3.14,0,2.74-.35,6.68-.86,9.33l4.32.57c2.28-6.64,5.8-12.59,6.55-12.59.43,0,.58,1.43.58,3.4,0,3.73-.56,9.41-.93,11.11l4.94-.56c.44-3.12.76-6.4.76-9.33,0-5.43-1.1-9.7-4.58-9.7Z"/>
    </g>
  </g>
</svg>