<?xml version="1.0" encoding="UTF-8"?>
<svg id="Layer_2" data-name="Layer 2" xmlns="http://www.w3.org/2000/svg" viewBox="0 0 494.38 96.92">
  <g id="Layer_1-2" data-name="Layer 1">
    <g>
      <path d="M233.42,4.72c-28.98,0-56.67,24.14-56.67,49.63,0,21.53,21.06,39.93,45.67,39.93s47.62-23.37,47.62-50.29c0-22.31-15.67-39.28-36.62-39.28Z"/>
      <path d="M332.88,7.35c-28.98,0-56.67,24.14-56.67,49.63,0,21.53,21.06,39.93,45.67,39.93s47.62-23.37,47.62-50.29c0-22.31-15.67-39.28-36.62-39.28Z"/>
      <path d="M138.32,54.49c23.31-4.68,31.83-15.91,31.83-25.73C170.15,13.85,152.4.07,110.98.07c-7.28,0-11.48,2.6-13.9,7.33-7.04,13.55-13.08,47.63-14.2,82.3l22.48-1.89c.36-10.86,1.09-20.49,1.99-28.89l14.33,11.49c9.41,8.23,21.53,13.66,38.34,19.22l7.39-19.04c-5.56-1.89-13.61-4.79-20.41-8.34-5.51-2.9-9.77-5.8-9.77-6.74,0-.71.48-.9,1.07-1.01Z"/>
      <path d="M26.68,68.41c-.3,0-4.49-13.9-4.49-33.18,0-9.11.95-19.77,3.73-30.41L3.67,1.68C1.18,13.64,0,25.52,0,36.47c0,30.53,9.17,54.08,24.49,54.08,24.08,0,42.83-49.17,54.19-84.6l-21.12-3.72c-17.92,52.64-30.47,66.19-30.88,66.19Z"/>
      <path d="M473.49,1.77c-12.24,0-22.3,11.54-30.29,26.33-1.36-15.56-8.21-28.09-22.89-28.09-21.65,0-41.06,40.04-46.91,91.22l22.48-1.89c4.79-39.1,19.82-66.44,24.85-66.44,2.54,0,3.55,5.92,3.55,14.31,0,12.48-1.6,30.46-3.91,42.59l19.7,2.6c10.41-30.29,26.45-57.43,29.88-57.43,1.95,0,2.66,6.51,2.66,15.5,0,17.04-2.54,42.95-4.26,50.69l22.54-2.54c2.01-14.26,3.49-29.22,3.49-42.6,0-24.78-5.03-44.25-20.89-44.25Z"/>
    </g>
  </g>
</svg>