<?xml version="1.0" encoding="UTF-8"?>
<svg id="Layer_2" data-name="Layer 2" xmlns="http://www.w3.org/2000/svg" viewBox="0 0 22.57 19.43">
  <defs>
    <style>
      .cls-1 {
        fill: #fff;
      }
    </style>
  </defs>
  <g id="Layer_1-2" data-name="Layer 1">
    <g>
      <path class="cls-1" d="M19.31,3.37s-.03-.04-.05-.06c-.02-.02-.04-.04-.06-.05-2.04-2.01-4.84-3.25-7.92-3.25S5.4,1.24,3.37,3.25c-.02.02-.04.03-.06.05s-.04.04-.05.06C1.24,5.4,0,8.2,0,11.28s1.17,5.85,3.3,7.98c0,0,0,0,0,0,0,0,0,0,0,0,0,0,0,0,0,0,.11.11.25.16.39.16s.28-.05.39-.16c0,0,.02-.02.03-.03l1.71-1.71c.22-.22.22-.57,0-.78-.22-.22-.57-.22-.78,0l-1.33,1.33c-1.56-1.73-2.46-3.91-2.58-6.24h1.89c.31,0,.55-.25.55-.55s-.25-.55-.55-.55h-1.89c.13-2.39,1.09-4.56,2.59-6.23l1.33,1.33c.11.11.25.16.39.16s.28-.05.39-.16c.22-.22.22-.57,0-.78l-1.33-1.33c1.67-1.5,3.84-2.46,6.23-2.59v1.89c0,.31.25.55.56.55s.55-.25.55-.55v-1.89c2.39.13,4.56,1.09,6.23,2.59l-1.33,1.33c-.22.22-.22.57,0,.78.11.11.25.16.39.16s.28-.05.39-.16l1.33-1.33c1.5,1.67,2.46,3.84,2.59,6.23h-1.89c-.31,0-.55.25-.55.55s.25.55.55.55h1.89c-.12,2.32-1.03,4.5-2.58,6.24l-1.33-1.33c-.22-.22-.57-.22-.78,0-.22.22-.22.57,0,.78l1.74,1.74c.11.11.25.16.39.16.07,0,.14-.01.21-.04.07-.03.13-.07.18-.12,2.13-2.13,3.31-4.97,3.31-7.98s-1.24-5.88-3.25-7.92Z"/>
      <path class="cls-1" d="M13.83,4.92c-.28-.11-.61.02-.72.31l-1.6,4c-.07,0-.15-.01-.22-.01-.78,0-1.49.43-1.84,1.13-.37.73-.28,1.6.25,2.33.05.07.12.14.2.2.43.31.91.48,1.39.48.78,0,1.49-.43,1.84-1.13.37-.73.28-1.6-.25-2.33-.05-.07-.12-.14-.2-.2-.04-.03-.08-.06-.12-.08l1.59-3.97c.11-.28-.02-.61-.31-.72ZM12.14,11.72c-.16.32-.49.52-.85.52-.24,0-.48-.08-.71-.25-.27-.38-.32-.8-.14-1.14.16-.32.49-.52.85-.52.12,0,.23.02.35.06,0,0,0,0,.01,0,.01,0,.02,0,.04.01.11.04.21.1.32.17.27.38.32.8.14,1.14Z"/>
    </g>
  </g>
</svg>