<?xml version="1.0" encoding="UTF-8"?>
<svg id="Layer_2" data-name="Layer 2" xmlns="http://www.w3.org/2000/svg" xmlns:xlink="http://www.w3.org/1999/xlink" viewBox="0 0 227.37 201.15">
  <defs>
    <style>
      .cls-1 {
        fill: none;
      }

      .cls-2 {
        fill: #1c1c1c;
      }

      .cls-3 {
        fill: #00ffec;
      }

      .cls-4 {
        fill: #fff;
      }

      .cls-5 {
        clip-path: url(#clippath);
      }
    </style>
    <clipPath id="clippath">
      <rect class="cls-1" width="227.37" height="201.15"/>
    </clipPath>
  </defs>
  <g id="Layer_1-2" data-name="Layer 1">
    <g>
      <g>
        <g>
          <rect class="cls-4" x="54.72" y="3.98" width="83.04" height="161.78" rx="12.51" ry="12.51"/>
          <path class="cls-2" d="M124.97,166.21h-57.45c-7.31,0-13.25-5.94-13.25-13.25V16.78c0-7.31,5.94-13.25,13.25-13.25h57.45c7.31,0,13.25,5.94,13.25,13.25v136.19c0,7.31-5.94,13.25-13.25,13.25ZM67.52,4.44c-6.81,0-12.34,5.54-12.34,12.34v136.19c0,6.81,5.54,12.34,12.34,12.34h57.45c6.81,0,12.34-5.54,12.34-12.34V16.78c0-6.81-5.54-12.34-12.34-12.34h-57.45Z"/>
        </g>
        <g>
          <path class="cls-2" d="M82.8,25.5s-1.78,1.59-7.37,7.18c-6.23,6.23-7.18,7.37-7.18,7.37,0,0,1.77-1.58,7.37-7.18,6.25-6.25,7.18-7.37,7.18-7.37Z"/>
          <path class="cls-2" d="M87.4,30.36s-2.91,2.59-12.04,11.71c-10.18,10.18-11.71,12.04-11.71,12.04,0,0,2.9-2.57,12.04-11.71,10.21-10.21,11.71-12.04,11.71-12.04Z"/>
          <path class="cls-2" d="M72.07,57.17s1.63-1.45,6.77-6.59c5.74-5.74,6.59-6.77,6.59-6.77,0,0-1.64,1.46-6.77,6.59-5.72,5.72-6.59,6.77-6.59,6.77Z"/>
        </g>
        <g>
          <path class="cls-2" d="M119.78,108.79s-2.89,2.61-12.02,11.73c-10.18,10.18-11.74,12.02-11.74,12.02,0,0,2.88-2.59,12.02-11.74,10.21-10.21,11.73-12.02,11.73-12.02Z"/>
          <path class="cls-2" d="M97.91,147.84s2.88-2.59,12.02-11.73c10.21-10.21,11.73-12.02,11.73-12.02,0,0-2.89,2.61-12.02,11.73-10.18,10.18-11.74,12.02-11.74,12.02Z"/>
          <path class="cls-2" d="M128.81,108.22s-4.75,4.29-19.75,19.28c-16.73,16.73-19.28,19.75-19.28,19.75,0,0,4.73-4.26,19.75-19.28,16.78-16.78,19.28-19.75,19.28-19.75Z"/>
        </g>
        <path class="cls-2" d="M124.97,6.25c5.81,0,10.53,4.72,10.53,10.53v136.19c0,5.81-4.72,10.53-10.53,10.53h-57.45c-5.81,0-10.53-4.72-10.53-10.53V16.78c0-5.81,4.72-10.53,10.53-10.53h57.45M124.97,4.89h-57.45c-6.56,0-11.89,5.33-11.89,11.89v136.19c0,6.56,5.33,11.89,11.89,11.89h57.45c6.56,0,11.89-5.33,11.89-11.89V16.78c0-6.56-5.33-11.89-11.89-11.89h0Z"/>
        <path class="cls-2" d="M134.29,150.59H58.2V19.16h76.1v131.43ZM59.1,149.68h74.28V20.06H59.1v129.62Z"/>
        <path class="cls-2" d="M104.83,13.65h-17.18c-.63,0-1.14-.51-1.14-1.14s.51-1.14,1.14-1.14h17.18c.63,0,1.14.51,1.14,1.14s-.51,1.14-1.14,1.14ZM87.65,11.88c-.35,0-.63.28-.63.63s.28.63.63.63h17.18c.35,0,.63-.28.63-.63s-.28-.63-.63-.63h-17.18Z"/>
      </g>
      <g>
        <path class="cls-3" d="M86.99,100.32c-2.46,0-4.69-1.36-5.81-3.54l-5.95-11.61,12.46,9.65,30.26-21.61-26.47,25.3c-1.22,1.17-2.81,1.81-4.49,1.81Z"/>
        <path d="M112.55,77.68l-21.42,20.47c-1.13,1.08-2.6,1.67-4.14,1.67-2.27,0-4.33-1.25-5.36-3.27l-4.93-9.61,10.39,8.05.59.46.61-.43,24.27-17.33M123.35,68.74l-35.65,25.45-13.94-10.8,6.98,13.61c1.27,2.48,3.74,3.81,6.25,3.81,1.72,0,3.46-.63,4.83-1.95l31.52-30.13h0Z"/>
      </g>
      <g class="cls-5">
        <g>
          <path class="cls-2" d="M41.83,42.26c4.51,3.78,9.47,7.05,14.26,10.47.59.42,1.16-.56.57-.98-2.19-1.57-4.4-3.13-6.59-4.7.32.07.73.12,1.24.15,1.02.03,1.61-.09,1.93-.17.33-.08.4-.13.4-.13,0,0-.14,0-.5.02-.36.02-.94.06-1.83.03-.74-.03-1.24-.1-1.59-.15-.58-.42-1.16-.84-1.74-1.26.51.08,1.2.15,2.13.18,1.47.03,2.32-.07,2.81-.14.48-.08.6-.13.6-.13,0,0-.2-.02-.72-.04-.53,0-1.37-.02-2.68-.04-1.21-.05-1.99-.08-2.51-.1-.39-.29-.79-.57-1.18-.86-.23-.17-.47-.35-.71-.53.65.08,1.54.15,2.72.1,1.87-.09,2.94-.35,3.54-.52.6-.17.74-.26.74-.26,0,0-.26,0-.92.07-.66.06-1.73.19-3.38.27-1.52.05-2.51.02-3.16,0-.64-.47-1.29-.95-1.93-1.46.64.16,1.61.34,3.04.35,1.8-.02,2.83-.28,3.41-.44.57-.17.7-.26.7-.26,0,0-.06,0-.2.01-.14.01-.36.04-.68.07-.63.06-1.66.19-3.24.2-1.76-.01-2.79-.17-3.37-.22-.01,0-.03,0-.04,0-.53-.42-1.05-.87-1.54-1.33.08.03.17.06.28.09.63.19,1.7.48,3.37.52,1.87.02,2.94-.25,3.53-.42.59-.18.73-.27.73-.27,0,0-.06,0-.21.01-.15.01-.37.04-.7.07-.65.06-1.71.19-3.34.17-1.82-.05-2.87-.25-3.48-.33-.17-.03-.31-.04-.41-.06-.37-.35-.73-.71-1.06-1.09.45.19,1.07.39,1.93.51,1.39.17,2.21,0,2.66-.09.45-.11.55-.18.55-.18,0,0-.05,0-.16,0-.11,0-.28.01-.52.03-.49.02-1.28.07-2.49-.09-1.12-.16-1.82-.39-2.27-.53-.4-.47-.77-.96-1.09-1.47.45.18,1.13.43,2.16.61,1.31.21,2.09.17,2.53.13.44-.04.55-.09.55-.09,0,0-.18-.03-.65-.07-.47-.04-1.22-.09-2.37-.28-1.23-.22-1.94-.43-2.37-.54-.43-.7-.77-1.45-1.01-2.23-1.52-5.06,1.84-10.37,6.96-10.63,4.09-.21,9.51.72,12.26,4.1.46.57,1.26-.24.8-.8-2.98-3.69-8.55-4.19-12.98-3.88-4.2.3-7.74,3.33-8.4,7.55-.71,4.59,2.33,8.26,5.62,11.02Z"/>
          <path class="cls-2" d="M130.59,200.4c.76-.35,1.51-.78,2.27-1.2,2.16-1.67,4.6-3.22,7.26-2.35.01-.23-.11-.46-.41-.51-4.08-.78-7.34,2.15-10.92,3.61-.84.34-1.7.63-2.57.9.46-.28.94-.59,1.42-.93.98-.7,1.82-1.35,2.58-1.91.76-.56,1.44-1.02,2.06-1.39,1.24-.75,2.22-1.14,2.95-1.38.73-.24,1.22-.31,1.51-.38.29-.05.4-.09.4-.09,0,0-.16-.04-.54-.09-.38-.04-.99-.06-1.86.09-.87.16-1.99.51-3.29,1.22-1.31.69-2.76,1.78-4.47,3-.96.68-1.84,1.24-2.66,1.65-.82.42-1.57.69-2.27.89-1.02.29-1.87.44-2.55.56-1.3.1-2.61.13-3.91.09-.3-.01-.6-.03-.9-.05.98-.2,2.08-.52,3.3-.97,1.87-.7,3.29-1.32,4.43-1.76,1.14-.45,1.98-.74,2.6-.95.62-.2,1.01-.33,1.25-.41.24-.08.31-.12.31-.12,0,0-.13,0-.45,0-.31,0-.81.03-1.52.15-.71.12-1.63.33-2.78.7-1.15.36-2.52.9-4.17,1.51-2.76,1.03-4.72,1.57-6.07,1.54-1.36-.03-3.42-.39-4.73-.72.06-.01.87-.1.94-.11.11-.03.22-.05.33-.08.91-.09,1.95-.3,3.08-.76.82-.33,1.51-.7,2.12-1.02.61-.32,1.14-.6,1.61-.83.95-.45,1.68-.69,2.22-.83.54-.14.9-.18,1.11-.21.21-.03.29-.05.29-.05,0,0-.11-.04-.38-.08-.27-.04-.71-.09-1.34-.01-.63.07-1.45.27-2.44.67-.99.39-2.11,1.03-3.49,1.6-1.55.62-2.88.81-3.91.9-.76.05-1.37.04-1.87.02-1.07-.13-1.43-.05-2.24-.38-.09-.04-1.48-.6-1.58-.64.14-.02,1.35,0,1.48-.02,1.05.04,2.37-.06,3.98-.46,1.54-.38,2.72-.81,3.64-1.14.92-.33,1.59-.59,2.08-.78.97-.38,1.21-.53,1.21-.53,0,0-.43,0-1.54.24-.55.12-1.28.3-2.19.56-.92.25-2.02.6-3.37.93-2.81.68-4.57.63-5.62.56,0,0,0-.02-.01-.03-.03,0-.05,0-.08,0-.04,0-.08,0-.12,0-.02-.01-.05-.02-.07-.03-.6-.09-1.17-.31-1.7-.76-.06-.05-.11-.08-.18-.17-.05-.07-.07-.07-.05-.14.9.18,2.32.39,4.4.16,2.53-.33,3.9-.98,4.65-1.35.38-.19.59-.34.73-.43.13-.09.17-.13.17-.13,0,0-.08.02-.27.07-.19.06-.48.15-.91.28-.85.25-2.24.69-4.43.97-1.76.19-2.99.15-3.86.11-.22.07-.51,0-.74-.01-.11,0-.18-.02-.24-.04-.01,0-.02,0-.03,0,0,0-.02-.01-.02-.02-.07-.03-.15-.08-.26-.14-.41-.23-.74-.54-.93-.97-.02-.03-.05-.05-.08-.08-.12-.14-.24-.29-.35-.43.7.1,1.78.2,3.37.1,1.94-.13,3.04-.43,3.66-.61.62-.19.76-.29.76-.29,0,0-.26.01-.95.09-.69.08-1.79.23-3.5.35-1.81.1-2.99.19-3.58-.09-.41-.2-.53-.56-.79-.93.67.07,1.63.11,2.94-.1,1.83-.32,2.82-.81,3.36-1.09.54-.3.65-.42.65-.42,0,0-.06.02-.2.06-.14.04-.35.11-.66.21-.62.19-1.63.54-3.22.81-1.47.22-2.44.24-3.08.24-.25-.37-.51-.74-.76-1.12.05.01.09.02.15.03.34.06.91.15,1.79.07.97-.1,1.51-.3,1.81-.42.3-.13.36-.18.36-.18,0,0-.13.02-.47.09-.34.07-.88.2-1.73.28-.95.08-1.51.04-1.83.03-.06,0-.1,0-.15,0-.27-.4-.53-.79-.8-1.18.04,0,.08.01.13.02.4.04,1.07.1,2.09-.01,1.13-.13,1.77-.34,2.13-.46.36-.13.44-.19.44-.19,0,0-.15.01-.55.08-.4.06-1.04.19-2.04.3-1.12.11-1.77.12-2.14.14-.05,0-.09,0-.13,0-.22-.32-.45-.64-.68-.95-.43-.59-.87-1.15-1.33-1.71.35.01.86.02,1.56,0,1.94-.05,2.26-.17,2.26-.17,0,0-.52-.1-2.27-.06-.81.02-1.33.05-1.67.09-.65-.78-1.33-1.53-2.03-2.25.37.03.99.06,1.95.06,2.09,0,2.43-.12,2.43-.12,0,0-.56-.12-2.43-.12-1.11,0-1.73.04-2.06.07-.55-.57-1.12-1.12-1.69-1.67.36.01.85.01,1.49,0,2.09-.05,2.43-.18,2.43-.18,0,0-.56-.11-2.44-.07-.77.02-1.3.05-1.67.08-.51-.48-1.02-.95-1.54-1.41.29,0,.64,0,1.06,0,1.89-.04,2.21-.16,2.21-.16,0,0-.51-.1-2.21-.07-.54.01-.95.03-1.26.05-.4-.36-.81-.71-1.22-1.07.38.02.85.01,1.43-.04,1.18-.12,1.85-.32,2.22-.44.37-.13.46-.19.46-.19,0,0-.16.01-.58.07-.42.06-1.09.17-2.13.27-.73.06-1.27.08-1.66.1-.72-.63-1.44-1.25-2.16-1.87.72-.06,1.96-.21,3.98-.57,4.07-.73,4.7-1.09,4.7-1.09,0,0-1.14-.05-4.79.61-2.28.41-3.48.7-4.09.88-.82-.71-1.63-1.42-2.44-2.15.12,0,.25,0,.39,0,1.18-.03,3.1-.15,6.01-.65,3.24-.57,5.08-1.12,6.12-1.46,1.04-.35,1.28-.52,1.28-.52,0,0-.45.02-1.61.19-1.16.17-3.04.51-5.92,1.01-3.22.55-5.11.84-6.18,1.06-.15.03-.28.06-.4.08-.34-.31-.69-.63-1.03-.95-5.47-5.18-10.2-11.06-15.02-16.82-3.45-4.12-6.86-8.44-11.03-11.84.17-.03.77-.16,2.13-.63,1.84-.64,2.11-.86,2.11-.86,0,0-.53.06-2.19.64-1.51.52-1.96.76-2.07.83-.33-.26-.66-.52-.99-.78.35-.07.85-.19,1.56-.44.91-.32,1.42-.58,1.7-.74.28-.16.34-.22.34-.22,0,0-.13.03-.46.14-.33.12-.86.31-1.67.6-.79.27-1.29.44-1.61.55-.29-.22-.59-.43-.88-.63.09-.01.24-.03.47-.08.43-.09,1.12-.25,2.15-.61,1.15-.4,1.79-.71,2.15-.9.36-.19.44-.26.44-.26,0,0-.16.03-.58.16-.42.13-1.08.36-2.1.72-1.14.4-1.81.62-2.19.77-.2.08-.32.13-.38.16-.33-.23-.67-.45-1.01-.67.45-.11,1.22-.34,2.47-.78,2.5-.89,2.87-1.19,2.87-1.19,0,0-.72.09-2.97.89-1.4.5-2.13.81-2.5.99-.43-.27-.86-.53-1.3-.78-.03-.01-.05-.03-.08-.04.63-.1,1.65-.32,2.99-1.09,1.54-.92,2.2-1.77,2.56-2.23.18-.23.27-.4.32-.5.05-.1.07-.13.07-.13,0,0-.05.04-.15.13-.1.1-.26.24-.48.46-.46.42-1.19,1.12-2.52,1.91-1.5.85-2.49,1.1-3.04,1.28,0,0,0,0-.01,0-3.3-1.86-6.42-3.95-9.55-6.06-.46-.31-.96-.63-1.49-.96.14-.05.27-.11.39-.17.25-.12.49-.24.71-.36.44-.24.82-.46,1.15-.67.66-.42,1.12-.76,1.44-1.02.64-.53.76-.72.76-.72,0,0-.31.15-1.08.58-.39.21-.89.49-1.55.84-.33.17-.7.36-1.11.56-.41.19-.86.45-1.33.55-.01,0-.03,0-.04,0-2.58-1.65-5.35-3.65-5.59-6.67,2,1.67,4.43,2.66,7.03,3.09,3.36.57,7.24.82,10.6.27,6.32-1.04,9.72-7.2,9.19-13.22-.06-.72-1.2-.73-1.13,0,.5,5.8-2.8,11.53-8.96,12.2-5.05.55-11.72.28-15.81-3.05-2.56-2.09-4.01-4.73-3.01-8.05.71-2.35,1.05-5.91,2.48-7.94,3.66-5.19,10.8-1.64,14.92,1.12.19.13.38.12.52.04.65.37,1.32.7,2.04.95,2.3.8,5.28.89,6.38,3.51.28.66,1.37.37,1.09-.3-.75-1.79-2.15-2.76-3.95-3.38-1.5-.52-3.07-.74-4.5-1.46-1.29-.65-2.48-1.56-3.64-2.41-1.42-1.04-2.9-2.18-4.36-3.39.05,0,.1-.01.15-.02.37-.07.72-.13,1.04-.22.65-.16,1.21-.35,1.69-.54.97-.38,1.63-.76,2.09-1.06.46-.3.73-.52.88-.66.15-.14.2-.2.2-.2,0,0-.11.04-.34.14-.24.1-.6.27-1.14.48-.54.21-1.24.49-2.17.76-.46.13-.98.27-1.57.38-.54.09-1.17.24-1.72.18-.88-.75-1.75-1.54-2.58-2.35-.06-.06-.12-.12-.18-.18-.08-.08-.16-.15-.23-.22-1.93-1.92-4.39-4.44-5.67-6.63-1.99-3.4-.13-5.99,1.69-9.12,1.51-2.59,3.64-6.66,6.72-7.57,3.03-.89,6.02,1.6,8.87,2.44,3.76,1.1,6.76,2.56,8.27,6.45.26.67,1.36.38,1.09-.3-.99-2.57-2.73-4.69-5.21-5.93.4,0,.91-.01,1.53-.11,1.25-.2,1.94-.51,2.32-.69.38-.19.46-.26.46-.26,0,0-.17.04-.6.16-.43.12-1.13.32-2.22.5-.89.13-1.52.16-1.95.17-.39-.17-.79-.32-1.2-.46.36.01.8-.02,1.32-.1.43.02.99.04,1.7.02,1.56-.04,2.34-.18,2.66-.24v-.11c-.05,0-.09,0-.13,0-.4-.01-1.2,0-2.54.04-.21,0-.41,0-.59.01.65-.21,1.08-.43,1.37-.59,1.07-.21,1.77-.45,2.22-.62.66-.26.81-.38.81-.38,0,0-.07,0-.24.03-.16.03-.42.08-.79.14-.74.13-1.94.39-3.81.57-.04,0-.08,0-.12,0,.31-.05.58-.1.82-.15.67-.09,1.13-.18,1.43-.25.45-.11.56-.17.56-.17,0,0-.16,0-.56.01.35-.13.44-.2.44-.2,0,0-.23.02-.83.11-.39.06-.95.15-1.7.24-.18.01-.37.03-.58.04-1.38.1-2.19.13-2.65.18-.23.02-.38.04-.46.05-.37,0-.66.01-.88.02-.56.01-.7.05-.7.05,0,0,.22.08.83.16.06,0,.12.01.18.02-.53,0-.67.03-.67.03,0,0,.07.02.23.07.16.04.42.11.8.17.75.12,2,.27,3.91.1.26-.03.51-.06.75-.09-.35.11-.77.23-1.27.34-.29.06-.56.1-.8.13-.07,0-.13,0-.18.01-.29.02-.44.04-.5.05-.37.02-.66,0-.88,0-.95-.28-1.92-.52-2.85-.83-.72-.24-1.44-.52-2.16-.78-.58-.45-1.34-1.08-2.24-2.02-.68-.73-1.17-1.35-1.55-1.87.84.68,1.76,1.25,2.81,1.68,2.03.82,4.89,1.59,7.44,1.66-.19.01-.39.02-.59.04-1.9.11-3.01.17-3.65.23-.63.06-.79.11-.79.11,0,0,.26.06.94.12.41.03.97.06,1.72.06-1.36.12-2.19.15-2.66.19-.5.04-.63.08-.63.08,0,0,.2.06.75.11.55.05,1.44.09,2.8-.04,1.41-.14,2.25-.35,2.75-.5,1.19-.11,1.95-.25,2.43-.35.63-.13.78-.21.78-.21,0,0-.26-.02-.95,0-.23,0-.5.02-.83.04.19-.03.38-.07.56-.12,2.93-.74,4.31-3.62,5.27-6.23,1.31-3.58,1.55-7.37.96-11.11-.11-.72-1.2-.41-1.09.3.6,3.87.24,11.59-3.28,14.72-.42.06-1.07.16-2.04.13-1.16-.06-1.82-.26-2.2-.34-.38-.1-.48-.1-.48-.1,0,0,.04.02.12.07.08.05.21.12.41.2.39.16,1.07.41,2.14.46.8.02,1.37-.07,1.77-.16-.28.22-.57.4-.88.56-.43.13-.98.22-1.63.15-.74-.09-1.3-.33-1.73-.54-.43-.21-.73-.4-.94-.54-.43-.28-.56-.34-.56-.34,0,0,.03.04.11.14.08.09.21.24.43.42.21.19.51.42.93.66.42.23.99.48,1.71.57,0,0,0,0,0,0-.21.03-.42.05-.64.05-.2,0-.4,0-.6,0-.31-.15-.77-.37-1.43-.72-.82-.46-1.28-.76-1.55-.92-.27-.16-.35-.19-.35-.19,0,0,.08.1.34.33.26.22.7.57,1.45.98.46.25.83.41,1.12.52-.85-.03-1.75-.14-2.64-.29-.88-.41-1.34-.92-1.62-1.2-.18-.2-.29-.32-.36-.4-.07-.08-.1-.1-.1-.1,0,0,.02.05.07.17.05.12.15.3.32.55.16.22.39.5.73.79-.46-.1-.92-.21-1.36-.34-.04-.02-.07-.04-.12-.07-.53-.36-.77-.64-.92-.79-.15-.16-.19-.19-.19-.19,0,0,.03.08.16.28.11.15.29.38.6.63-.57-.18-1.12-.37-1.63-.58-2.86-1.19-5.56-3.87-7.28-6.35-1.86-2.68-1.83-4.72-.11-7.78,1.22-2.17,3.01-4.33,4.87-6,2.58-2.31,6.12-3.54,9.15-1.74,2.28,1.36,4.17,4,6.24,5.66.56.45,1.37-.34.8-.8-2.58-2.07-5.39-5.11-8.64-6.1-2.78-.85-5.61-.07-7.83,1.73-2.4,1.94-5.05,5.09-6.21,7.99-1.21,3.03-.13,5.39,1.62,7.91.99,1.43,2.03,2.82,3.24,4.02.34.71.93,1.78,2.15,3.08.51.52.97.93,1.39,1.26-.55-.17-1.11-.3-1.69-.39-5.99-.88-9.72,5.76-11.72,10.47-2.7,6.35,2.84,11.45,7.06,15.51.23.22.47.44.71.66.08.1.17.2.28.3.1.1.22.19.35.28,1.17,1.07,2.38,2.1,3.63,3.09-3.7-1.3-7.73-1.38-10.6,1.86-2.01,2.27-2.93,5.65-3.7,8.49-.77,2.87.53,5.65,2.51,7.79.48,2.54,2.67,5.58,4.52,7.01,2.99,2.32,5.58,4.37,8.76,6.43,3.57,2.32,7.5,4.03,10.63,6.98,2.71,2.55,5.14,5.42,7.55,8.25,5.05,5.93,9.54,12.28,15.06,17.79,5.36,5.36,12.2,9.45,16.69,15.64.84,1.11,1.59,2.34,2.38,3.55.13.14.26.29.38.44.3.37.4.85.67,1.24.33.48.82.78,1.24,1.16.32.29.54.59.75.96.35.6.64.87,1.31,1.11.11.04.21.08.31.13.07.01.14.02.2.03.06.06.13.13.2.2.23.15.45.33.65.52.4.27.91.54,1.53.76.69.24,1.52.39,2.47.42.05.02.1.03.16.04.45.26.99.53,1.66.79.53.2,1.16.37,1.86.46.7.09,1.48.1,2.31.05.04,0,.08,0,.12,0,.65.1,1.31.19,1.97.28,1.37.17,2.76.27,4.15.29q.52.26.92.29c2.56.18,5.05,5.37,6.39,7.25,1.62,2.28,3.08,4.68,4.42,7.14,2.7,4.96,4.25,10.21,6.46,15.4.28.67,1.92.05,1.64-.62-2.55-6.01-5.12-12.05-8.43-17.69-1.5-2.56-3.16-5.03-5.02-7.35-1.17-1.47-2.55-3.56-4.35-4.44,2.21-.09,4.4-.38,6.55-.9,1.95-.48,3.86-1.14,5.68-1.99ZM29.09,129.1s.1.09.15.14c-.05,0-.1-.05-.15-.14Z"/>
          <path class="cls-2" d="M95.66,196.27s-.02-.03-.03-.04c.01.02.03.04.04.05,0,0,0,0,0-.01Z"/>
          <path class="cls-2" d="M198.42,200.95c-4.67-7.15-7.63-15.23-11.96-22.58-4.37-7.44-7.95-16.36-7.74-25.6,0-.15-.04-.26-.11-.35.05-.16.11-.31.16-.47,2.16-7.11-.27-14.61-1.52-21.65-.75-4.22-.8-8.2-.43-12.45.32-3.69.12-7.23-.75-10.84-1.82-7.47-5.5-14.36-6.54-22.04,0,0,0,0,0,0-.44-3.64-2.41-6.81-3.24-10.34-.98-4.16,1.16-8.52-1.47-12.33-.05-.08-.11-.13-.18-.17-.12-1.66-.99-2.55-2.14-3.8-1.91-2.07-3.94-4.29-5.51-6.67-3.52-5.31-4.88-11.28-5.08-17.51-.12-3.89-.57-8.45-4.74-9.97-4.29-1.56-7.89,1.66-10.03,5-.39.62.59,1.18.98.57,1.32-2.06,2.84-3.92,5.31-4.59,1.98-.53,3.77,0,5.13,1.24-.29,0-.62.05-.99.16-1.04.31-2.29,1.3-2.97,3.01-.34.85-.53,1.86-.53,2.95,0,1.1.13,2.26.38,3.52.29,1.4.7,2.62,1.14,3.68.45,1.06.91,1.95,1.43,2.72.51.76,1.09,1.36,1.67,1.76.58.42,1.16.63,1.64.74.99.21,1.62,0,1.95-.13.09-.04.16-.08.22-.11.84,2.78,2.1,5.44,3.73,7.83,1.06,1.55,2.28,2.98,3.62,4.3,1.65,1.61,3.67,3.23,3.68,5.72-.09.08-.18.14-.28.2-.17.1-.32.19-.46.27-.27.15-.48.25-.62.33-.3.15-.37.2-.37.2,0,0,.14-.01.49-.12.17-.06.4-.14.68-.27.14-.07.29-.15.46-.24.04-.02.08-.05.13-.08.03.11.08.2.16.27-.01.02-.03.05-.04.07-.19.31-.41.54-.64.72-.45.36-.85.56-1.13.71-.57.29-.71.4-.71.4,0,0,.07,0,.22-.04.15-.03.39-.09.72-.2.33-.12.78-.28,1.28-.67.25-.19.49-.45.7-.79,0,0,0,0,0-.01.11.19.22.39.31.59-.1.22-.26.48-.51.75-.58.58-1.03.8-1.25.97-.23.16-.28.21-.28.21,0,0,.11-.03.39-.16.27-.14.74-.33,1.29-.89.22-.24.36-.46.46-.67,1.42,3.38-.17,7.25.69,10.83.84,3.46,2.83,6.6,3.22,10.19,0,.03.01.06.02.08,0,.02,0,.04,0,.07.96,7.06,4.17,11.72,6.11,18.51.38,1.33.64,4.39.87,5.73-.27.41-.91.9-2,1.35-.65.26-1.2.4-1.63.52-.43.11-.75.19-.98.26-.46.13-.58.19-.58.19,0,0,.2.01.71-.04.11-.01.25-.03.39-.05-.28.06-.6.14-.97.24-2.09.53-2.4.75-2.4.75,0,0,.59-.02,2.47-.5,2.09-.54,2.4-.75,2.4-.75,0,0-.08,0-.28.03.3-.08.63-.18,1-.32.69-.28,1.18-.6,1.53-.91.17-.15.29-.3.39-.45.07.42.13.83.18,1.25-.41.26-1.04.67-2.02,1.22-1.16.64-1.88.94-2.27,1.14-.4.19-.5.26-.5.26,0,0,.18-.02.65-.15.46-.14,1.21-.39,2.28-.98.95-.54,1.53-.98,1.89-1.28.05.41.09.83.12,1.24-.26.18-.67.47-1.34.86-.76.43-1.24.63-1.51.76-.27.12-.33.17-.33.17,0,0,.12,0,.43-.09.31-.09.81-.25,1.51-.65.64-.37,1.01-.68,1.24-.89.04.53.05,1.07.06,1.61-.18.07-.4.16-.68.26-.63.21-1.01.3-1.23.36-.22.06-.27.08-.27.08,0,0,.09,0,.33-.01.24-.02.64-.08,1.21-.28.25-.09.46-.17.62-.25,0,.71,0,1.43-.06,2.15-.25,3.65-.59,7.12-.13,10.78.86,6.89,3.44,13.79,2.7,20.8-.84,8.02-6.95,13.05-13,17.56-.11.08-.18.18-.21.29,1.23-.54,2.5-.99,3.67-1.68.21-.12.44-.25.69-.39,3.23-2.61,6.24-5.52,8.1-9.19.37,8.1,3.93,15.25,7.2,22.64,3.67,8.3,7.65,16.48,12.63,24.09.4.61,1.38.04.98-.57ZM152.05,44.66c-.42.02-1.1-.03-1.92-.46-.83-.42-1.7-1.29-2.43-2.72-.73-1.44-1.49-3.32-1.98-5.68-.27-1.32-.42-2.53-.41-3.58,0-1.05.18-1.94.49-2.67.61-1.47,1.6-2.21,2.38-2.48.31-.11.58-.17.82-.19.32.36.61.77.87,1.22,2.26,3.98,1.07,9.2,1.86,13.57.18,1,.42,1.99.71,2.96-.1.02-.22.03-.39.04Z"/>
          <path class="cls-2" d="M137.31,87.24c-.57-.45-1.37.35-.8.8,2.21,1.74,5.09,4.78,6.79,7.08,0,.23-.03.46-.08.71-.4,2.09-1.8,3.83-3.06,5.47-.03.04-.06.09-.08.13,1.11-.85,2-1.57,2.8-2.78.3-.45.73-.95,1.11-1.48.49-1.34.66-2.76.22-4.22.28.1.54.17.78.21.77.13,1.34.08,1.74.05.8-.09,1-.18,1-.18,0,0-.08-.01-.27-.03-.19-.02-.48-.04-.91-.08-.42-.04-.98-.09-1.65-.27-.31-.09-.64-.22-.96-.42-.14-.29-.3-.56-.48-.82.3.01.77.02,1.49-.04.83-.07,1.31-.16,1.58-.22.27-.06.33-.1.33-.1,0,0-.11,0-.41,0-.3.02-.78.05-1.52.12-.79.06-1.26.1-1.54.13-.23-.36-.47-.71-.68-1.09-.05-.09-.08-.18-.12-.27.23.03.57.07,1.06.07.64,0,1.01-.06,1.21-.1.21-.04.26-.07.26-.07,0,0-.09,0-.31,0-.24,0-.6.01-1.16.02-.54,0-.87,0-1.1-.01-.21-.49-.35-.98-.41-1.47,0,0,0,0,0,0,.33.04.88.09,1.73.04.94-.06,1.48-.19,1.78-.26.3-.08.37-.12.37-.12,0,0-.13,0-.46.03-.33.03-.87.09-1.71.14-.88.05-1.41.05-1.73.06-.03-.32-.04-.64-.03-.96.34.05.9.12,1.74.1.96-.03,1.52-.13,1.83-.2.31-.07.39-.11.39-.11,0,0-.13,0-.47,0-.34.01-.9.05-1.75.08-.87.02-1.4,0-1.73,0,.02-.37.07-.75.14-1.13.03,0,.06.01.1.02.26.04.7.09,1.36.04.74-.06,1.16-.18,1.39-.25.23-.08.29-.11.29-.11,0,0-.1,0-.36.04-.26.03-.68.1-1.33.15-.73.05-1.15.04-1.4.04-.02,0-.03,0-.04,0,.04-.23.09-.47.14-.71.02-.09.04-.18.06-.27,0,0,.01,0,.02,0,.3.04.79.08,1.53.03.83-.06,1.31-.18,1.58-.25.27-.08.33-.12.33-.12,0,0-.11,0-.41.03-.3.03-.77.09-1.51.14-.77.05-1.23.05-1.52.06.08-.35.17-.7.25-1.04.31.06.77.13,1.43.14.86,0,1.36-.1,1.64-.17.28-.07.34-.11.34-.11,0,0-.12,0-.42.02-.31.01-.8.05-1.56.05-.66,0-1.1-.04-1.4-.06.09-.37.17-.75.23-1.12.28.07.67.15,1.2.21.82.07,1.3.02,1.57-.01.27-.04.34-.07.34-.07,0,0-.11-.01-.4-.03-.29-.01-.77-.02-1.49-.09-.54-.05-.92-.11-1.2-.15.06-.38.09-.75.08-1.13.18.09.43.2.79.28.58.13.93.1,1.12.08.19-.02.24-.05.24-.05,0,0-.08,0-.29-.02-.21-.02-.54-.03-1.05-.14-.38-.09-.64-.19-.82-.26-.01-.29-.05-.57-.11-.86.12.06.25.11.37.15,1.01.33,1.86.29,2.61.27,1.5-.09,2.55-.47,3.27-.79.72-.33,1.12-.62,1.35-.8.23-.19.29-.26.29-.26,0,0-.15.05-.49.17-.34.12-.87.3-1.66.48-.78.17-1.83.35-3.16.28-.66-.04-1.42-.11-2.06-.42-.32-.16-.58-.37-.81-.69-.23-.32-.43-.74-.64-1.21-.03-.07-.06-.13-.09-.2-.09-.24-.17-.48-.25-.72.27.04.7.1,1.35.09.76-.01,1.2-.09,1.45-.14.25-.05.31-.08.31-.08,0,0-.1,0-.37,0-.27,0-.71.03-1.38.04-.7,0-1.12-.01-1.38-.02-.19-.58-.34-1.17-.46-1.79.29.03.73.06,1.39.08,1.6.04,1.87-.05,1.87-.05,0,0-.43-.11-1.87-.15-.69-.02-1.13-.01-1.41,0-.05-.29-.09-.6-.12-.91.22.11.54.23.98.33.69.14,1.11.1,1.34.08.23-.03.29-.06.29-.06,0,0-.09,0-.34-.02-.25-.02-.65-.03-1.25-.16-.48-.11-.8-.22-1.03-.3,0,0,0-.02,0-.03-.02-.28-.02-.57,0-.85.27.07.68.16,1.27.23.77.08,1.23.06,1.48.05.26-.02.32-.04.32-.04,0,0-.1-.02-.38-.05-.28-.03-.73-.07-1.41-.14-.61-.07-1.01-.12-1.28-.16.02-.23.04-.46.07-.69.2.08.5.17.92.24.6.09.95.06,1.15.03.2-.02.25-.05.25-.05,0,0-.08,0-.29-.02-.21-.01-.56-.03-1.08-.11-.44-.07-.73-.14-.93-.2.04-.28.08-.55.13-.83.28.19.68.4,1.27.53.93.17,1.49,0,1.78-.1.29-.11.35-.16.35-.16,0,0-.13.02-.45.08-.32.04-.85.12-1.64-.03-.61-.13-1.01-.32-1.29-.48.09-.52.19-1.05.26-1.57.3.03.74.05,1.41.06,1.63.02,1.9-.07,1.9-.07,0,0-.44-.1-1.9-.12-.67,0-1.11,0-1.4.02.04-.31.06-.61.06-.92.28.06.56.11.86.11.91.02,1.68-.16,2.34-.33.67-.17,1.25-.35,1.75-.54,1-.37,1.71-.73,2.2-1.01.49-.28.78-.49.95-.62.17-.13.22-.19.22-.19,0,0-.11.03-.36.12-.25.09-.64.23-1.21.43-.57.2-1.31.45-2.28.71-.48.13-1.03.26-1.63.39-.6.12-1.26.25-1.96.23-.34,0-.65-.06-.93-.15,0-.05-.02-.11-.03-.16.17,0,.38,0,.62,0,1.2,0,1.4-.08,1.4-.08,0,0-.32-.07-1.4-.06-.27,0-.48,0-.66.01-.02-.08-.05-.15-.07-.23.12.01.25.02.41.02.57,0,.89-.09,1.07-.14.18-.05.22-.08.22-.08,0,0-.08,0-.27.03-.2.02-.52.06-1.01.06-.18,0-.32,0-.45-.02-.02-.06-.05-.12-.08-.17.47.02,1.13-.04,1.96-.28,2.49-.66,2.87-.92,2.87-.92,0,0-.71.03-2.94.62-.92.26-1.55.35-1.99.36-.04-.08-.09-.15-.14-.23.19.02.4.03.65.02.69-.02,1.08-.13,1.3-.19.22-.07.27-.1.27-.1,0,0-.09,0-.33.03-.24.03-.63.08-1.23.1-.3,0-.55,0-.74,0-.07-.1-.14-.2-.21-.29.12.04.25.07.4.1.64.13,1.03.09,1.25.07.22-.03.27-.05.27-.05,0,0-.09,0-.32-.02-.23-.02-.6-.03-1.16-.14-.05-.01-.1-.02-.16-.04.03,0,.06,0,.1,0,.37,0,.98,0,1.89-.15,1.02-.18,1.59-.39,1.91-.51.32-.13.39-.19.39-.19,0,0-.14.02-.5.09-.36.07-.94.21-1.84.36-1.01.17-1.6.22-1.94.27-.13.02-.21.03-.28.04-.05-.02-.11-.03-.16-.05-.07-.09-.14-.17-.21-.26.21-.01.48-.03.83-.06,1.27-.12,1.47-.22,1.47-.22,0,0-.35-.04-1.49.07-.4.04-.68.07-.9.11-.05-.06-.09-.11-.14-.17.42-.02,1-.07,1.78-.23,1.16-.24,1.81-.49,2.18-.65.36-.16.44-.22.44-.22,0,0-.16.02-.57.12-.41.09-1.07.27-2.1.48-.87.17-1.46.26-1.87.32-.05-.07-.11-.13-.16-.2.3-.05.74-.13,1.41-.25.8-.13,1.27-.2,1.55-.25.27-.05.34-.07.34-.07,0,0-.11-.02-.41-.02-.3,0-.78.02-1.51.14-.74.13-1.18.26-1.45.35-.06-.07-.11-.15-.17-.22.05,0,.09,0,.15-.02.36-.05.96-.14,1.82-.45.96-.35,1.48-.66,1.76-.84.29-.19.34-.26.34-.26,0,0-.13.04-.47.19-.27.11-.67.29-1.25.51-.04,0-.1,0-.16,0-.24,0-.62,0-1.21.09-.65.11-1.02.25-1.22.32-.02,0-.04.02-.05.02-.08-.12-.14-.25-.21-.38.04,0,.09.01.15.02.21.02.57.03,1.1-.09.59-.14.9-.31,1.07-.41.17-.1.21-.14.21-.14,0,0-.08.03-.28.1-.2.07-.52.2-1.03.31-.58.12-.92.13-1.12.15-.05,0-.09,0-.12.01-.06-.11-.13-.22-.19-.34.12-.02.26-.04.46-.08.68-.13.78-.19.78-.19,0,0-.19,0-.8.11-.21.04-.36.07-.47.1-.02-.03-.03-.07-.05-.11.22-.07.61-.2,1.25-.46,1.26-.51,1.44-.68,1.44-.68,0,0-.2.04-.74.23-.04,0-.09,0-.15,0-.19.01-.51.04-.98.15-.52.13-.82.25-.98.32,0,0-.01,0-.02,0-.04-.1-.09-.19-.13-.29.13-.05.31-.11.55-.22.69-.3.78-.38.78-.38,0,0-.2.04-.82.3-.25.11-.43.19-.54.25-.04-.09-.06-.18-.1-.27,0,0,0,0,.01-.01.17-.14.43-.37.84-.72.45-.39.72-.62.87-.76.15-.14.18-.18.18-.18,0,0-.08.03-.26.15-.18.12-.47.32-.88.68-.42.36-.65.6-.78.76-.02-.06-.05-.13-.07-.2.12-.06.27-.15.45-.29.31-.24.44-.43.52-.53.07-.11.08-.14.08-.14,0,0-.04.03-.14.13-.1.09-.26.25-.52.46-.18.14-.31.23-.42.29-.07-.21-.14-.42-.2-.63.13-.15.37-.43.75-.96.7-.97.76-1.17.76-1.17,0,0-.25.22-.88,1.09-.37.51-.56.8-.66.97-.39-1.42-.55-2.9-.48-4.39.03-.73-1.1-.73-1.13,0-.13,2.89.6,5.13,1.8,7.45,0,.02,0,.03,0,.05.11.6.27,1.42.83,2.36.23.37.81.7,1.22,1.05.23.8-.03,1.65-.2,2.64-.08.47,0,1.03-.05,1.51-.14.42-.29,1.07-.32,1.6-.04.75,0,1.33.25,2.19.09.31.2.63.31.94.09.4.2.8.33,1.19.21.66.49,1.27.74,1.91.75,1.91.55,2.97.12,4.82-.38,1.64-.84,3.37-.42,5.06.34,1.37,1.13,2.38,1.67,3.5-1.59-2.04-3.4-3.88-5.44-5.49ZM138.67,62.55s.03,0,.05-.01c.2-.05.5-.13.95-.25.39-.09.66-.15.85-.19-.15.06-.31.12-.5.2-.66.27-1.02.44-1.21.54-.05-.1-.09-.2-.13-.29ZM139.36,63.89s.06-.01.09-.02c.23-.05.6-.13,1.18-.23.56-.09.91-.13,1.14-.16-.08.03-.17.06-.26.1-.95.33-1.52.48-1.85.58-.04.01-.07.02-.1.03-.07-.1-.14-.2-.2-.3Z"/>
          <path class="cls-2" d="M49.52,63.59c.75-.68,1.44-1.01,1.95-1.19.52-.18.87-.22,1.08-.25.21-.02.29-.04.29-.04,0,0-.03,0-.09-.03-.06-.02-.16-.05-.29-.06-.27-.04-.72-.09-1.35.06-.62.14-1.44.47-2.27,1.19-.83.71-1.61,1.81-2.34,3.17-.83,1.52-1.36,2.84-1.58,3.92-.23,1.09-.2,1.92-.12,2.5.08.58.22.93.3,1.13.09.2.13.26.13.26,0,0,0-.12-.03-.39-.02-.27-.05-.69,0-1.29.04-.6.16-1.38.46-2.33.3-.96.82-2.08,1.55-3.41.79-1.5,1.55-2.57,2.3-3.25Z"/>
          <path class="cls-2" d="M52.11,61.81s-.14-.11-.49-.34c-.35-.22-.89-.58-1.77-.98-.44-.2-.96-.4-1.6-.56-.64-.15-1.39-.25-2.25-.16-.86.08-1.84.43-2.69,1.09-.85.66-1.58,1.57-2.18,2.64-.67,1.19-1.09,2.39-1.24,3.52-.15,1.12-.02,2.16.29,3,.65,1.68,1.7,2.54,2.47,3.01.79.47,1.36.57,1.68.63.33.04.44.03.44.03,0,0-.04-.02-.13-.06-.09-.05-.22-.1-.4-.2-.36-.19-.91-.51-1.55-1.14-.62-.62-1.36-1.59-1.64-3-.18-.88-.12-1.93.23-3.08,0,.08,0,.17,0,.28,0,.5.06,1.34.53,2.51.55,1.3,1.13,1.92,1.44,2.25.33.33.44.38.44.38,0,0-.03-.04-.09-.13-.06-.09-.16-.23-.3-.43-.27-.41-.73-1.06-1.2-2.19-.5-1.27-.59-2.06-.68-2.51-.03-.18-.05-.3-.07-.39.2-.6.47-1.23.83-1.86.6-1.08,1.3-1.93,2.05-2.48.75-.56,1.54-.79,2.28-.86,1.49-.13,2.64.22,3.45.44.82.24,1.34.41,1.66.49.32.09.43.1.43.1Z"/>
          <path class="cls-2" d="M45.53,95.91c.17-.82.47-1.82,1.06-2.92.67-1.22,1.41-2.04,2.04-2.65.63-.6,1.16-.98,1.54-1.26.39-.27.64-.43.79-.54.15-.1.2-.15.2-.15,0,0-.1.02-.32.08-.22.07-.56.18-1.03.42-.47.24-1.07.59-1.75,1.18-.67.58-1.43,1.41-2.07,2.58-.7,1.32-.96,2.49-1.07,3.4-.1.92-.04,1.6.03,2.08.07.48.16.77.22.94.06.17.09.23.09.23,0,0,0-.1,0-.33,0-.23,0-.58.02-1.09.03-.51.08-1.17.25-2Z"/>
          <path class="cls-2" d="M51.43,87.91s-.18-.1-.6-.33c-.42-.23-1.06-.59-2.02-1.1-.48-.25-1.05-.54-1.74-.82-.69-.27-1.52-.53-2.5-.64-.97-.1-2.15-.04-3.33.55-1.18.6-2.07,1.67-2.87,2.79-.45.64-.86,1.31-1.13,2.01-.28.7-.43,1.45-.4,2.16.07,1.43.72,2.53,1.38,3.31.67.79,1.41,1.3,2.06,1.65.65.36,1.23.58,1.72.74.98.32,1.6.43,1.97.5.38.06.51.06.51.06,0,0-.18-.11-.6-.33-.42-.23-1.1-.55-2.02-1.08-.9-.54-2.11-1.28-2.98-2.69-.43-.7-.74-1.57-.66-2.5.07-.94.57-1.95,1.33-3,.84-1.2,1.68-2.13,2.61-2.54.94-.43,1.94-.46,2.8-.38.87.08,1.63.29,2.29.49.66.2,1.22.4,1.7.55.96.32,1.59.47,1.97.53.38.07.51.06.51.06Z"/>
          <path class="cls-2" d="M47.86,128.12s.03-.07.07-.23c.05-.16.11-.41.22-.78.22-.72.56-1.9,1.45-3.54,1.03-1.81,1.9-2.69,2.36-3.22.23-.27.39-.42.47-.53.09-.1.11-.14.11-.14,0,0-.06.03-.21.12-.14.09-.37.23-.66.48-.59.49-1.55,1.35-2.51,3.05-1.03,1.92-1.2,3.21-1.29,3.91-.04.35-.03.58-.03.71,0,.13.01.18.01.18Z"/>
          <path class="cls-2" d="M51.6,119.3c.35.12.48.14.48.14,0,0-.15-.14-.52-.41-.38-.27-.98-.69-1.93-1.18-.48-.25-1.04-.51-1.7-.77-.67-.25-1.42-.53-2.35-.72-.46-.09-.97-.16-1.52-.15-.55,0-1.15.11-1.73.32-.58.21-1.14.52-1.67.91-.53.39-1.04.87-1.48,1.47-.49.66-.82,1.43-.95,2.19-.13.75-.08,1.5.14,2.17.21.67.62,1.25,1.06,1.65.44.41.89.69,1.3.93,1.64.92,2.91,1.41,3.85,1.73.94.31,1.54.44,1.91.51.37.06.49.06.49.06,0,0-.17-.1-.58-.33-.4-.22-1.04-.57-1.96-1.07-.46-.26-.98-.55-1.57-.91-.58-.36-1.27-.77-1.93-1.26-.67-.5-1.22-1.1-1.36-1.99-.08-.44-.07-.93.05-1.42.11-.49.34-.97.68-1.44.38-.51.85-.95,1.32-1.3.48-.35.97-.6,1.45-.76.96-.31,1.92-.22,2.77-.07,1.73.34,3,.75,3.92,1.05.92.32,1.49.52,1.84.64Z"/>
          <path class="cls-2" d="M55.82,97.64c.1-1.15-.13-1.86-.29-2.24-.09-.19-.16-.31-.21-.39-.05-.07-.07-.1-.07-.1,0,0,0,.06.03.17.02.12.04.3.05.55.02.5-.02,1.29-.38,2.35-.18.53-.44,1.13-.77,1.83-.33.7-.67,1.5-1.17,2.22-.51.73-1.19,1.26-2.25,1.44-.52.1-1.11.13-1.76.13-.66,0-1.35,0-2.08-.01-6.46.13-9.68-1.99-11.45-3.1-.89-.59-1.42-1.01-1.75-1.25-.33-.25-.45-.32-.45-.32,0,0,.11.2.41.62.31.42.82,1.07,1.71,1.87.9.79,2.2,1.74,4.11,2.52.95.39,2.07.71,3.31.91,1.25.2,2.62.29,4.1.3.83,0,1.59,0,2.35-.01.76-.02,1.52-.1,2.25-.32.72-.22,1.39-.62,1.87-1.11.49-.49.8-1.02,1.05-1.51.48-1,.71-1.83.96-2.58.23-.75.38-1.41.43-1.99Z"/>
          <path class="cls-2" d="M142.31,77.5s.22.05.96.07c.82.02.96-.03.96-.03,0,0-.22-.05-.96-.07-.83-.02-.96.03-.96.03Z"/>
          <path class="cls-2" d="M157.03,175.23c-1.03-.21-2.7-.49-5.24-1.05-2.83-.65-4.46-1.12-5.4-1.35-.94-.24-1.2-.24-1.2-.24,0,0,.08.05.29.16.2.11.53.27,1.01.48.97.41,2.57,1.04,5.14,1.62,2.87.63,4.59.72,5.57.74.98.02,1.23-.05,1.23-.05,0,0-.1-.03-.32-.08-.22-.05-.58-.13-1.09-.23Z"/>
          <path class="cls-2" d="M142.25,171.69s.31.39,1.58,1.39c1.41,1.12,1.71,1.22,1.71,1.22,0,0-.31-.38-1.58-1.39-1.41-1.12-1.71-1.22-1.71-1.22Z"/>
          <path class="cls-2" d="M134.83,170.96c.67.64,1.81,1.65,3.83,2.81,2.27,1.27,3.73,1.7,4.56,1.92.84.21,1.06.2,1.06.2,0,0-.08-.05-.26-.13-.18-.09-.47-.22-.89-.42-.83-.39-2.19-.98-4.18-2.1-2.2-1.27-3.39-2.18-4.1-2.65-.7-.49-.9-.57-.9-.57,0,0,.05.07.19.23.13.16.35.39.68.72Z"/>
          <path class="cls-2" d="M134.21,172.96c.45.65,1.23,1.7,2.76,2.97,1.72,1.39,2.92,1.92,3.6,2.21.34.14.56.2.7.24.13.04.18.04.18.04,0,0-.06-.05-.2-.14-.15-.09-.37-.24-.7-.45-.65-.42-1.74-1.08-3.24-2.3-1.66-1.39-2.49-2.35-2.99-2.86-.5-.53-.65-.64-.65-.64,0,0,.03.07.11.22.08.15.22.39.44.72Z"/>
          <path class="cls-2" d="M159.39,178.9c.05-.16.06-.22.06-.22,0,0-.06.07-.18.24-.13.16-.33.42-.67.74-.34.32-.81.7-1.49,1.09-.68.4-1.56.79-2.67,1.23-1.25.48-2.23.93-2.96,1.4-.73.46-1.19.9-1.48,1.25-.29.35-.43.61-.49.76-.07.15-.08.21-.08.21,0,0,.07-.06.21-.22.15-.15.38-.38.74-.67.37-.29.87-.63,1.58-.99.7-.36,1.6-.72,2.72-1.15,1.25-.49,2.22-.99,2.92-1.49.7-.5,1.13-.99,1.39-1.37.26-.38.36-.65.42-.81Z"/>
          <path class="cls-2" d="M158.66,183.21s-.42.12-1.49.55c-1.07.43-2.78,1.17-5.42,2.28-2.96,1.22-4.69,1.89-5.67,2.33-.98.42-1.2.59-1.2.59,0,0,.44-.03,1.57-.31,1.12-.28,2.93-.8,5.6-1.9,2.97-1.25,4.6-2.19,5.51-2.76.91-.57,1.1-.78,1.1-.78Z"/>
          <path class="cls-2" d="M177.64,164.22c.33-.34.5-.58.6-.72.1-.14.13-.2.13-.2,0,0-.08.05-.26.18-.18.13-.46.34-.86.64-.81.58-2.1,1.57-4.29,2.69-2.47,1.22-4.05,1.62-4.93,1.9-.44.14-.72.22-.89.28-.17.06-.22.09-.22.09,0,0,.1,0,.32,0,.22,0,.57-.02,1.07-.09,1-.15,2.66-.45,4.95-1.59,2.54-1.32,3.73-2.52,4.38-3.19Z"/>
          <path class="cls-2" d="M178.57,167.05c.55-.58.64-.76.64-.76,0,0-.07.04-.23.15-.15.11-.39.28-.74.53-.69.49-1.79,1.33-3.57,2.45-2,1.23-3.24,1.82-3.94,2.19-.7.37-.86.5-.86.5,0,0,.08-.01.26-.06.18-.04.47-.12.88-.25.81-.28,2.13-.77,3.96-1.91,2.03-1.29,3.04-2.27,3.6-2.84Z"/>
          <path class="cls-2" d="M179.7,171.03c.69-.53.83-.71.83-.71,0,0-.33.13-1.17.56-.83.44-2.16,1.14-4.21,2.22-2.3,1.19-3.66,1.84-4.42,2.26-.77.41-.94.56-.94.56,0,0,.35-.06,1.24-.35.89-.3,2.32-.84,4.4-1.91,2.32-1.22,3.57-2.1,4.27-2.62Z"/>
          <path class="cls-2" d="M181.39,175.49c.59-.32.71-.44.71-.44,0,0-.27.06-.95.29-.68.23-1.77.63-3.44,1.27-1.86.71-2.95,1.12-3.56,1.39-.61.26-.75.37-.75.37,0,0,.27-.02.97-.19.7-.17,1.83-.48,3.51-1.12,1.88-.72,2.92-1.24,3.51-1.56Z"/>
          <path class="cls-2" d="M149.78,204.67c-.18-.67-.49-1.52-1.2-2.34-.81-.92-1.8-1.24-2.53-1.32-.74-.09-1.28,0-1.65.08-.38.09-.6.18-.73.24-.13.06-.17.09-.17.09,0,0,.08,0,.26-.02.18-.01.46-.05.85-.06.4,0,.92,0,1.56.15.63.15,1.37.48,2,1.2.7.81,1.01,1.64,1.23,2.29.21.66.32,1.16.41,1.53.18.73.27.91.27.91,0,0,.03-.31-.03-1.13-.03-.41-.09-.95-.27-1.63Z"/>
          <path class="cls-2" d="M154.23,201.82c-1.73-2.02-2.86-3.08-3.52-3.67-.66-.58-.87-.68-.87-.68,0,0,.19.31.79,1.05.59.74,1.59,1.92,3.12,3.71,1.71,2,2.7,3.17,3.3,3.82.6.65.79.78.79.78,0,0-.15-.33-.67-1.13-.52-.8-1.41-2.07-2.95-3.88Z"/>
          <path class="cls-2" d="M178.98,179.95c1.21-.54,1.86-.97,2.22-1.22.36-.26.43-.35.43-.35,0,0-.17.06-.59.27-.43.2-1.11.55-2.18,1.02-1.2.52-1.92.77-2.33.94-.41.16-.5.23-.5.23,0,0,.18,0,.65-.11.46-.1,1.22-.3,2.31-.77Z"/>
          <path class="cls-2" d="M182.55,181.08c.42-.27.51-.37.51-.37,0,0-.2.06-.69.27-.5.2-1.29.55-2.53,1.04-1.39.53-2.22.8-2.68.97-.47.17-.58.24-.58.24,0,0,.21,0,.74-.1.53-.1,1.39-.3,2.65-.78,1.4-.55,2.16-1,2.59-1.27Z"/>
          <path class="cls-2" d="M185.47,184.24s-.76,0-3.16.56c-2.69.62-3.09.88-3.09.88,0,0,.76,0,3.16-.56,2.68-.62,3.09-.88,3.09-.88Z"/>
          <path class="cls-2" d="M183.59,187.08c-1.32.24-2.1.34-2.54.42-.44.08-.55.12-.55.12,0,0,.18.03.67.03.49,0,1.28-.04,2.48-.26,1.33-.25,2.09-.51,2.51-.67.42-.16.52-.24.52-.24,0,0-.18.02-.66.11-.48.09-1.24.26-2.42.48Z"/>
          <path class="cls-2" d="M179.79,184.73s.49-.1,1.98-.75c1.66-.73,1.89-.95,1.89-.95,0,0-.49.1-1.98.75-1.66.73-1.89.95-1.89.95Z"/>
          <path class="cls-2" d="M178.24,181.22c-.15.1-.18.14-.18.14,0,0,.07-.02.25-.1.19-.09.48-.22.92-.42.5-.21.79-.33.97-.41.17-.07.21-.1.21-.1,0,0-.08,0-.27.05-.19.05-.51.14-.96.33-.51.22-.79.4-.94.5Z"/>
          <path class="cls-2" d="M177.68,178.23c.74-.19,1.19-.26,1.44-.31.25-.05.32-.08.32-.08,0,0-.11-.02-.38,0-.28.01-.74.05-1.41.22-.76.2-1.17.4-1.4.52-.23.12-.28.17-.28.17,0,0,.1-.02.37-.11.26-.08.69-.23,1.35-.4Z"/>
          <path class="cls-2" d="M175.16,175.84c-.3.21-.36.29-.36.29,0,0,.14-.05.5-.22.36-.17.93-.44,1.81-.86.99-.45,1.58-.69,1.91-.84.33-.15.41-.21.41-.21,0,0-.15.01-.53.11-.38.1-1,.29-1.9.7-1,.47-1.54.82-1.85,1.03Z"/>
          <path class="cls-2" d="M175.83,171.67c2.04-.93,2.33-1.2,2.33-1.2,0,0-.6.13-2.44.96-2.05.93-2.33,1.2-2.33,1.2,0,0,.61-.13,2.44-.96Z"/>
          <path class="cls-2" d="M175.73,167.09c.32-.19.39-.25.39-.25,0,0-.15.03-.52.17-.37.15-.97.41-1.8.95-.93.62-1.39,1.07-1.65,1.34-.25.27-.3.35-.3.35,0,0,.13-.08.45-.31.32-.23.83-.62,1.64-1.16.91-.6,1.48-.9,1.79-1.09Z"/>
          <path class="cls-2" d="M175.13,164.39c.41-.25.5-.34.5-.34,0,0-.19.05-.67.24-.48.19-1.25.51-2.44,1.01-.62.26-1.12.46-1.52.63-.46.24-.92.47-1.39.69.11-.02.29-.06.55-.13.5-.13,1.31-.38,2.5-.88,1.33-.56,2.06-.97,2.48-1.22Z"/>
          <path class="cls-2" d="M54.48,136.23s-.02.03-.07.09c-.04.07-.11.17-.21.32-.19.28-.48.72-1.03,1.3l-.12.04c-.35.1-.85.23-1.39.29-.15,0-.28,0-.4-.01-.06,0-.11-.02-.15-.03-.02,0-.04-.01-.06-.02h-.01s.03-.03.03-.03l.05-.04c.1-.08.22-.18.35-.28l.03-.03.14-.16c.09-.11.18-.23.28-.35.09-.12.18-.25.27-.38.31-.36.5-.64.63-.84.15-.24.21-.36.23-.41l1.32-1.97-2.85,1.93c-.42.28-.92.58-1.49.85l.04-.04c.09-.1.17-.21.25-.31.16-.2.33-.41.46-.6.01-.02.02-.03.03-.05.28-.2.5-.36.65-.47.32-.24.39-.32.39-.32,0,0-.16.05-.55.25-.06.03-.13.07-.21.11.37-.57.61-1.07.86-1.53.16-.31.32-.61.47-.89.09-.17.11-.23.16-.33.04-.09.07-.17.11-.25-.92.51-1.8,1-2.63,1.46-.37.18-.75.4-1.06.53-.28.13-.56.25-.83.37-.65.28-1.24.51-1.77.69-1.06.37-1.87.58-2.46.73-.6.16-.98.26-1.21.32-.23.07-.31.1-.31.1,0,0,.13.02.43.04.3.02.77.04,1.45.01.44-.02.97-.07,1.58-.17-.48.37-.78.63-.96.81-.24.24-.29.32-.29.32,0,0,.12-.07.42-.27.28-.19.71-.5,1.35-.95.19-.03.37-.07.57-.11.04,0,.08-.02.12-.03-.14.08-.3.16-.47.26-1.43.81-1.62,1.03-1.62,1.03,0,0,.43-.13,1.71-.86.44-.25.76-.44,1-.59.04-.01.08-.02.13-.03.15-.04.31-.09.47-.14.08-.03.16-.05.24-.08l.12-.04s.03,0,.05-.01c.21-.05.26-.05.3-.04,0,.01.02,0-.01.03-.02.03-.05.06-.08.08-.05.05-.08.07-.1.09h-.01s0,0,0,0h0s-.03.04-.03.04l-.07.07c-.17.17-.35.34-.53.51-.65.51-1.07.82-1.32,1.02-.04.04-.07.06-.11.09-.13.09-.26.16-.32.2l-2.75,1.82,3.24-.42c.58-.07,1.11-.19,1.62-.34,0,0,0,0-.01,0-.29.24-.35.32-.35.32,0,0,.15-.06.5-.26.11-.06.24-.15.39-.24.13-.04.27-.09.39-.14-.34.37-.65.69-.89.96l.16.03s.04.01.08.01h.13s.01,0,.02,0c-.15.11-.19.16-.19.16,0,0,.12-.04.39-.16.09,0,.19,0,.28,0,.31,0,.6,0,.88-.02.55-.02,1.1-.12,1.56-.24.01,0,.02,0,.03-.01-.11.07-.2.14-.27.19-.27.18-.34.25-.34.25,0,0,.03-.01.11-.03.08-.03.19-.07.36-.15.15-.07.35-.17.57-.32-.11.13-.2.23-.27.31-.2.21-.27.28-.27.28,0,0,.13-.03.4-.19.25-.14.65-.39,1.08-.91,0,0,0,0,0,0h0s.07-.08.1-.13l.44-.58-.22.06c.44-.54.64-.95.75-1.19.13-.31.13-.4.13-.4Z"/>
          <path class="cls-2" d="M42.72,135.66s.6-.05,2.47-.62c2.09-.64,2.4-.87,2.4-.87,0,0-.6.05-2.47.62-2.08.64-2.4.87-2.4.87Z"/>
          <path class="cls-2" d="M42.58,134.81c-1.41.42-2.2.75-2.65.96-.45.21-.54.29-.54.29,0,0,.2-.03.71-.17.51-.13,1.33-.38,2.58-.75,1.4-.41,2.22-.65,2.69-.8.46-.15.57-.22.57-.22,0,0-.2,0-.73.08-.52.08-1.37.24-2.63.61Z"/>
          <path class="cls-2" d="M51.1,140.6s.31-.14,1.18-.82c.98-.75,1.09-.93,1.09-.93,0,0-.31.14-1.18.82-.97.75-1.09.93-1.09.93Z"/>
          <path class="cls-2" d="M45.74,107.91c-.52.21-.65.29-.65.29,0,0,.23,0,.83-.14.59-.14,1.56-.4,2.95-1.05,1.54-.74,2.35-1.35,2.79-1.7.44-.36.52-.48.52-.48,0,0-.21.1-.75.39-.53.29-1.38.78-2.74,1.43-1.52.71-2.44,1.04-2.96,1.26Z"/>
          <path class="cls-2" d="M53.05,108.27c-.6.21-1.35.46-2.23.68.17-.11.33-.21.5-.32.32-.21.64-.41.92-.6h0s.01,0,.02-.01l-.2-.29c1.01-.66,1.59-1.11,1.94-1.38.38-.31.46-.41.46-.41,0,0-.19.07-.66.33-.41.22-1.03.6-1.93,1.17l-.44-.66s.1-.09.14-.14c.4-.4.62-.67.75-.85.13-.18.17-.25.17-.25,0,0-.1.06-.33.2-.23.14-.58.36-1.08.66-.51.29-1.17.66-2.03,1.04-.86.39-1.94.79-3.26,1.11l-4.24,1,4.4.24c.27.01.55.02.83,0l-2.17,1.48,2.89-.33c1.31-.15,2.44-.42,3.41-.73-.32.26-.59.45-.79.61-.56.4-.72.55-.72.55,0,0,.07-.02.23-.06.16-.05.41-.12.76-.26.65-.27,1.71-.75,3-1.85.02,0,.04-.02.06-.03h0c.05-.05.09-.09.14-.13l1.8-1.6-2.33.83Z"/>
          <path class="cls-2" d="M49.4,112.81s.16-.03.56-.19c.4-.16,1.04-.44,1.98-.97,1.04-.6,1.6-1.02,1.91-1.27.31-.25.37-.34.37-.34,0,0-.15.06-.53.27-.16.09-.37.21-.62.35.08-.06.15-.12.21-.17.28-.24.33-.32.33-.32,0,0-.14.07-.48.26-.34.19-.88.52-1.76.94-.98.46-1.58.67-1.91.81-.34.13-.42.19-.42.19,0,0,.15,0,.54-.08.33-.07.86-.22,1.57-.53-.65.37-1.08.61-1.34.77-.34.21-.42.28-.42.28Z"/>
          <path class="cls-2" d="M46.93,106.72c-1.2.42-1.9.65-2.29.81-.4.15-.49.22-.49.22,0,0,.17,0,.62-.1.45-.09,1.18-.26,2.26-.64,1.21-.43,1.88-.75,2.26-.95.38-.2.46-.28.46-.28,0,0-.17.04-.61.18-.44.14-1.13.39-2.2.76Z"/>
          <path class="cls-2" d="M53.46,84.32c.9-.24,1.03-.34,1.03-.34,0,0-.26.01-1.06.23-.9.24-1.03.34-1.03.34,0,0,.26-.01,1.06-.23Z"/>
          <path class="cls-2" d="M145.76,107.49s-.15-.08-.57-.26c-.41-.18-1.09-.46-2.07-1-1.09-.61-1.68-1.05-2.03-1.28-.35-.24-.45-.28-.45-.28,0,0,.1.14.43.46.33.31.9.8,1.9,1.36,1.12.61,1.85.8,2.26.91.41.1.52.09.52.09Z"/>
          <path class="cls-2" d="M142.21,106.74c-1.95-1.12-2.33-1.19-2.33-1.19,0,0,.46.42,2.2,1.42,1.94,1.12,2.33,1.19,2.33,1.19,0,0-.45-.42-2.2-1.42Z"/>
          <path class="cls-2" d="M142.39,108.39c-1.75-.64-2.07-.64-2.07-.64,0,0,.43.28,2,.85,1.74.64,2.07.64,2.07.64,0,0-.43-.28-2-.85Z"/>
          <path class="cls-2" d="M141.61,109.51c-.97-.54-1.16-.57-1.16-.57,0,0,.23.2,1.1.68.97.53,1.16.57,1.16.57,0,0-.23-.2-1.1-.68Z"/>
          <path class="cls-2" d="M141.25,111.64c-.29-.1-.35-.1-.35-.1,0,0,.07.04.33.13.29.1.35.1.35.1,0,0-.07-.04-.33-.13Z"/>
          <path class="cls-2" d="M84.74,168.69c11.55-.23,13.46-.95,13.46-.95,0,0-3.11-.63-13.49-.42-11.58.23-13.46.95-13.46.95,0,0,3.13.63,13.49.42Z"/>
          <path class="cls-2" d="M86.59,169.34c-10.9,1.28-12.6,2.13-12.6,2.13,0,0,3.01.3,12.75-.84,10.86-1.27,12.6-2.13,12.6-2.13,0,0-2.99-.3-12.75.84Z"/>
          <path class="cls-2" d="M87.08,172.13c-4.61.57-7.3.89-8.82,1.15-1.53.25-1.9.4-1.9.4,0,0,.63.11,2.31.12,1.68.01,4.4-.06,8.55-.58,4.63-.59,7.28-1.23,8.78-1.63,1.5-.42,1.85-.63,1.85-.63,0,0-.64-.01-2.3.15-1.66.15-4.35.49-8.47,1.02Z"/>
          <path class="cls-2" d="M108.62,170.52c4.91-.33,7.74-.84,9.35-1.19,1.61-.35,1.99-.56,1.99-.56,0,0-.17-.01-.56-.02-.39,0-1,0-1.88.04-1.76.07-4.61.26-8.98.55-4.89.31-7.74.45-9.36.62-1.63.15-2.03.29-2.03.29,0,0,.17.04.55.09.39.06.99.13,1.87.2,1.76.13,4.64.25,9.04-.03Z"/>
          <path class="cls-2" d="M107.07,168.8c2.79-.18,4.41-.46,5.32-.64.92-.19,1.13-.31,1.13-.31,0,0-.38-.03-1.38,0-1,.03-2.62.13-5.11.28-2.78.16-4.4.25-5.33.34-.93.09-1.15.17-1.15.17,0,0,.38.09,1.38.16,1,.07,2.64.14,5.14-.01Z"/>
          <path class="cls-2" d="M105.23,167.49c.6-.03,1.57-.12,3.06-.26,1.66-.16,2.63-.25,3.19-.33.55-.08.69-.13.69-.13,0,0-.23-.04-.83-.06-.6-.02-1.58-.01-3.09.13-1.68.16-2.64.35-3.19.48-.55.13-.67.2-.67.2,0,0,.23.01.83-.02Z"/>
          <path class="cls-2" d="M119.53,167.91c1.95-.19,3.07-.46,3.7-.63.63-.18.78-.27.78-.27,0,0-.27,0-.97.07-.7.07-1.82.19-3.56.37-1.94.17-3.07.23-3.72.29-.65.06-.81.11-.81.11,0,0,.26.07.97.12.7.05,1.85.1,3.61-.06Z"/>
          <path class="cls-2" d="M123.73,168.12c.14,0,.35,0,.65-.03.61-.06,1.61-.19,3.06-.73,1.6-.63,2.43-1.22,2.88-1.56.45-.35.53-.48.53-.48,0,0-.05.02-.17.08-.12.06-.31.16-.58.29-.54.27-1.4.74-2.81,1.29-1.58.58-2.54.78-3.08.93-.55.14-.68.2-.68.2,0,0,.06,0,.19,0Z"/>
          <path class="cls-2" d="M133.23,176.92c.36.61.97,1.6,1.59,3.24.66,1.85.79,3,.91,3.65.06.33.08.53.11.66.03.12.04.17.04.17,0,0,.01-.07.03-.22.02-.16.04-.41.04-.77,0-.72-.07-1.92-.69-3.64-.73-1.91-1.51-2.84-1.93-3.34-.22-.26-.38-.39-.47-.48-.09-.08-.13-.1-.13-.1,0,0,.03.06.11.2.08.14.21.35.39.65Z"/>
          <path class="cls-2" d="M50.37,77.62c.47.13,1.06.26,1.79.27.82,0,1.46-.18,1.93-.39.47-.21.76-.46.95-.65.19-.19.28-.34.33-.42.05-.09.06-.12.06-.12,0,0-.04.04-.14.12-.09.08-.24.21-.47.36-.46.29-1.29.72-2.66.73-.77-.01-1.37-.14-1.85-.23-.48-.11-.83-.19-1.08-.24-.51-.11-.65-.11-.65-.11,0,0,.19.11.71.33.26.11.62.24,1.08.37Z"/>
          <path class="cls-2" d="M46.26,78.08c.02.05.06.14.13.25.15.21.47.56,1.1.77.71.22,1.15.19,1.38.2.24,0,.3-.02.3-.02,0,0-.1-.03-.35-.07-.25-.05-.68-.08-1.28-.27-.67-.23-.97-.54-1.12-.71-.15-.18-.19-.23-.19-.23,0,0,0,.03.03.08Z"/>
          <path class="cls-2" d="M142.13,152.5c.18.21.25.27.25.27,0,0-.05-.14-.18-.46-.14-.31-.35-.8-.66-1.51-.6-1.42-1.65-3.7-2.67-7.4-1.07-4.15-1.23-6.66-1.42-8.08-.09-.71-.13-1.16-.18-1.43-.04-.27-.08-.36-.08-.36,0,0-.03.14-.09.49-.05.34-.13.88-.17,1.66-.06,1.56-.08,4.17.93,7.99,1.19,4.24,2.58,6.46,3.37,7.67.4.61.71.96.88,1.17Z"/>
          <path class="cls-2" d="M138.63,163.51c-.82-1.11-1.32-1.75-1.62-2.1-.3-.35-.4-.42-.4-.42,0,0,.08.18.33.6.26.43.68,1.11,1.43,2.11.84,1.12,1.6,1.58,2.04,1.73.22.08.37.11.46.12.09.01.12,0,.12,0,0,0-.04-.02-.14-.07-.1-.04-.25-.12-.46-.25-.41-.25-1.02-.76-1.76-1.74Z"/>
          <path class="cls-2" d="M173.17,111.93c.27-.13.33-.18.33-.18,0,0-.12.02-.43.1-.32.09-.81.23-1.57.44-.85.23-1.35.37-1.64.45-.29.08-.35.12-.35.12,0,0,.12,0,.44-.03.32-.04.84-.12,1.61-.34.87-.24,1.35-.45,1.62-.57Z"/>
          <path class="cls-2" d="M175.2,148.91s-.24.02-.87.13c-.63.1-1.63.29-3.19.46-1.74.17-2.76.17-3.35.2-.59.02-.74.06-.74.06,0,0,.23.08.86.16.63.07,1.68.16,3.27,0,1.78-.19,2.78-.51,3.34-.71.56-.2.68-.29.68-.29Z"/>
          <path class="cls-2" d="M176.37,147.26s-.21.22-.89.48c-.34.13-.8.24-1.41.3-.61.06-1.38.11-2.31.13-2.07.03-3.27-.09-3.96-.12-.69-.04-.87-.02-.87-.02,0,0,.26.12,1,.28.73.16,1.95.38,3.84.34,1.05-.03,1.88-.11,2.54-.24.66-.13,1.12-.34,1.42-.54.6-.42.62-.64.63-.63Z"/>
          <path class="cls-2" d="M171.97,146.73c1.71-.12,2.65-.55,3.15-.79.26-.12.4-.23.49-.28.09-.06.11-.09.11-.09,0,0-.06.01-.18.05-.13.04-.33.1-.61.18-.57.16-1.51.44-2.99.53-1.65.07-2.61-.15-3.15-.23-.27-.04-.44-.08-.55-.09-.1-.01-.14-.01-.14-.01,0,0,.05.03.17.09.12.06.31.15.6.25.57.19,1.56.48,3.1.4Z"/>
          <path class="cls-2" d="M169.86,144.15c.48.06,1.26.12,2.47.1,1.34-.03,2.12-.13,2.56-.2.44-.07.55-.13.55-.13,0,0-.18-.02-.66-.03-.48,0-1.26.01-2.46.04-1.34.02-2.11.03-2.56.05-.45.02-.56.05-.56.05,0,0,.18.05.66.11Z"/>
          <path class="cls-2" d="M172.25,142.1c2.28-.48,2.63-.69,2.63-.69,0,0-.64,0-2.69.42-2.29.48-2.63.69-2.63.69,0,0,.65,0,2.69-.42Z"/>
          <path class="cls-2" d="M170.92,139.72c-.37-.01-.46,0-.46,0,0,0,.04.01.12.04.08.03.22.06.41.1.39.07,1.06.16,2.05,0,1.11-.21,1.7-.54,2.01-.72.32-.2.38-.27.38-.27,0,0-.04.01-.12.04-.08.03-.21.08-.39.15-.37.13-.97.37-1.93.55-1.08.17-1.72.13-2.08.13Z"/>
          <path class="cls-2" d="M173.32,137.53c-1.22.06-1.93-.04-2.34-.06-.41-.04-.51-.03-.51-.03,0,0,.04.02.13.05.09.03.24.08.46.14.43.1,1.16.25,2.28.19,1.25-.08,1.95-.33,2.34-.48.39-.15.47-.23.47-.23,0,0-.17.03-.6.11-.43.08-1.13.23-2.23.3Z"/>
          <path class="cls-2" d="M172.96,135.67c1.46-.29,1.68-.43,1.68-.43,0,0-.41,0-1.72.25-1.46.29-1.68.43-1.68.43,0,0,.41,0,1.72-.25Z"/>
          <path class="cls-2" d="M172.73,133.24c-.83.29-1.32.42-1.6.51-.28.09-.35.12-.35.12,0,0,.12,0,.44-.04.31-.05.83-.14,1.58-.4.83-.3,1.28-.56,1.54-.71.25-.16.3-.22.3-.22,0,0-.12.04-.41.15-.29.11-.76.32-1.5.58Z"/>
          <path class="cls-2" d="M173.63,130.15s-.11.03-.4.13c-.29.1-.76.27-1.5.44-.83.18-1.33.2-1.61.24-.28.03-.35.05-.35.05,0,0,.11.03.42.05.31.02.82.03,1.58-.14.85-.2,1.3-.44,1.55-.57.25-.14.3-.2.3-.2Z"/>
          <path class="cls-2" d="M174.29,127.84c-.35.12-.9.33-1.8.48-1.01.15-1.6.09-1.94.09-.34-.02-.43,0-.43,0,0,0,.04.01.11.04.08.03.2.06.39.1.36.07.98.16,1.91.02,1.04-.18,1.59-.48,1.89-.64.3-.18.36-.25.36-.25,0,0-.04.01-.11.04-.08.03-.2.07-.37.13Z"/>
          <path class="cls-2" d="M171.94,126.18c-.68.12-1.08.14-1.31.17-.23.02-.29.04-.29.04,0,0,.09.02.34.04.25.01.66.02,1.28-.09.69-.13,1.07-.29,1.29-.38.21-.1.26-.14.26-.14,0,0-.09.02-.34.08-.24.06-.63.17-1.24.28Z"/>
          <path class="cls-2" d="M170.45,124.92s.28-.02,1.15-.27c.97-.28,1.12-.38,1.12-.38,0,0-.28.02-1.15.27-.98.28-1.12.38-1.12.38Z"/>
          <path class="cls-2" d="M170,123.7s.29,0,1.2-.22c1.02-.24,1.17-.34,1.17-.34,0,0-.29,0-1.2.22-1.02.24-1.17.34-1.17.34Z"/>
          <path class="cls-2" d="M171.66,123.94s-.19.01-.78.18c-.66.19-.76.26-.76.26,0,0,.19-.01.78-.18.66-.18.76-.26.76-.26Z"/>
          <path class="cls-2" d="M171.64,125.45c.36-.07.56-.14.67-.19.11-.05.14-.07.14-.07,0,0-.05,0-.18.04-.13.03-.33.08-.65.14-.36.06-.57.08-.69.1-.12.02-.15.03-.15.03,0,0,.05.01.18.02.13,0,.35,0,.67-.06Z"/>
          <path class="cls-2" d="M171.74,127.46c.61-.06.95-.18,1.13-.25.19-.08.23-.11.23-.11,0,0-.08.01-.29.06-.21.04-.55.12-1.08.17-.59.04-.94.01-1.14,0-.2,0-.25,0-.25,0,0,0,.08.03.29.08.21.04.57.1,1.11.06Z"/>
          <path class="cls-2" d="M173.3,129.42c.18-.07.22-.1.22-.1,0,0-.08.01-.28.05-.2.03-.52.1-1.03.11-.56,0-.89-.05-1.08-.07-.19-.03-.24-.02-.24-.02,0,0,.07.04.27.1.2.06.53.14,1.05.13.58-.02.9-.13,1.08-.19Z"/>
          <path class="cls-2" d="M171.22,132.32c-.19.04-.24.06-.24.06,0,0,.08.01.3,0,.22,0,.57-.04,1.09-.2.58-.19.88-.37,1.05-.48.17-.11.2-.15.2-.15,0,0-.08.03-.27.11-.2.08-.51.23-1.02.39-.57.17-.91.23-1.1.27Z"/>
          <path class="cls-2" d="M172.8,134.44c-1.35.29-1.55.42-1.55.42,0,0,.38,0,1.58-.26,1.34-.29,1.55-.42,1.55-.42,0,0-.38,0-1.58.26Z"/>
          <path class="cls-2" d="M175.4,136.33c-.33.01-.85.04-1.65.07-.89.03-1.41.05-1.72.06-.3.02-.37.04-.37.04,0,0,.12.03.44.07.32.04.85.08,1.66.05.9-.04,1.43-.13,1.72-.19.3-.06.37-.1.37-.1,0,0-.12,0-.45,0Z"/>
          <path class="cls-2" d="M173.39,138.67c.6-.05.94-.14,1.13-.19.19-.05.24-.08.24-.08,0,0-.08,0-.29.02-.22.02-.56.06-1.08.11-.59.05-.94.05-1.13.07-.2.01-.25.03-.25.03,0,0,.08.02.29.04.21.02.56.04,1.1,0Z"/>
          <path class="cls-2" d="M172.98,140.5c-1.8.25-2.08.4-2.08.4,0,0,.5.04,2.11-.18,1.79-.25,2.08-.4,2.08-.4,0,0-.5-.04-2.11.18Z"/>
          <path class="cls-2" d="M173.37,143.03c-1.44.08-1.67.18-1.67.18,0,0,.39.06,1.68-.01,1.44-.08,1.67-.18,1.67-.18,0,0-.39-.06-1.68.01Z"/>
          <path class="cls-2" d="M174.41,150.17s-.41-.05-1.76.1c-1.51.16-1.75.28-1.75.28,0,0,.42.05,1.76-.1,1.5-.16,1.75-.28,1.75-.28Z"/>
          <path class="cls-2" d="M168.22,151.28s.48.15,2.11.27c1.81.14,2.12.06,2.12.06,0,0-.48-.15-2.11-.27-1.82-.14-2.12-.06-2.12-.06Z"/>
          <path class="cls-2" d="M167.83,95.44c.36-.26.42-.35.42-.35,0,0-.04.02-.14.06-.09.04-.24.11-.45.21-.42.19-1.1.51-2.22.76-1.25.26-2.01.22-2.43.22-.43,0-.54,0-.54,0,0,0,.04.01.14.04.1.03.26.07.49.11.46.07,1.25.16,2.41-.09,1.29-.3,1.96-.74,2.31-.98Z"/>
          <path class="cls-2" d="M162.13,94.95c.12.02.31.04.58.05.54.01,1.45,0,2.77-.37,1.47-.44,2.23-.94,2.65-1.22.41-.29.49-.4.49-.4,0,0-.05.02-.16.07-.11.05-.28.13-.52.24-.49.22-1.28.6-2.56.98-1.44.4-2.31.46-2.8.54-.5.06-.62.1-.62.1,0,0,.05,0,.17.03Z"/>
          <path class="cls-2" d="M162.82,92.72c-.28.02-.35.04-.35.04,0,0,.11.04.42.07.31.03.82.06,1.58-.06.85-.14,1.33-.34,1.59-.45.26-.12.32-.17.32-.17,0,0-.12.02-.41.1-.3.07-.78.2-1.52.32-.84.13-1.33.13-1.62.16Z"/>
          <path class="cls-2" d="M168.92,89.35s-.19.03-.68.18c-.49.14-1.27.4-2.46.82-1.33.47-2.11.75-2.54.94-.43.18-.53.25-.53.25,0,0,.19-.01.69-.13.5-.11,1.3-.32,2.49-.75,1.33-.47,2.09-.81,2.51-1.02.42-.21.52-.29.52-.29Z"/>
          <path class="cls-2" d="M162.07,89.6s.14.03.53.04c.38,0,1.01,0,1.95-.2,1.05-.23,1.62-.49,1.94-.65.32-.16.39-.23.39-.23,0,0-.14.03-.51.14-.37.1-.95.29-1.87.49-1.03.21-1.64.27-1.99.33-.35.05-.44.08-.44.08Z"/>
          <path class="cls-2" d="M164.54,87.95c.77-.22,1.2-.42,1.45-.53.24-.12.29-.17.29-.17,0,0-.11.02-.38.1-.28.08-.73.22-1.41.42-.76.21-1.21.33-1.48.4-.26.07-.32.11-.32.11,0,0,.11,0,.4-.02.29-.03.75-.1,1.45-.3Z"/>
          <path class="cls-2" d="M167.01,97.44c-1.33.25-2.12.33-2.57.39-.45.06-.56.09-.56.09,0,0,.18.03.68.03.49,0,1.29-.03,2.5-.26,1.34-.27,2.1-.55,2.52-.72.42-.17.52-.24.52-.24,0,0-.18.04-.65.16-.47.12-1.24.33-2.43.56Z"/>
          <path class="cls-2" d="M170.58,99.35c-.48.03-1.26.09-2.45.17-1.33.07-2.11.11-2.56.13-.45.03-.56.07-.56.07,0,0,.18.05.66.1.48.05,1.27.09,2.47.02,1.34-.09,2.12-.24,2.55-.34.44-.1.54-.16.54-.16,0,0-.18,0-.66.02Z"/>
          <path class="cls-2" d="M168.88,101.38c-1.17.12-1.85.09-2.24.1-.39,0-.49.02-.49.02,0,0,.15.06.58.13.42.06,1.12.15,2.19.04,1.19-.14,1.85-.39,2.22-.53.37-.15.45-.22.45-.22,0,0-.16.03-.57.11-.41.09-1.08.24-2.12.36Z"/>
          <path class="cls-2" d="M172.54,110.2c-.36.11-.95.3-1.89.43-1.05.13-1.67.07-2.02.06-.35-.02-.44-.01-.44-.01,0,0,.14.05.52.12.38.06,1.01.14,1.97.02,1.07-.15,1.65-.41,1.98-.56.32-.16.39-.22.39-.22,0,0-.14.04-.5.16Z"/>
          <path class="cls-2" d="M173.99,107.46c-.14.03-.36.09-.68.16-.64.15-1.68.41-3.31.63-1.82.22-2.89.2-3.5.22-.61,0-.77.03-.77.03,0,0,.06.01.2.04.14.03.37.07.7.1.66.06,1.75.14,3.4-.06,1.84-.25,2.87-.62,3.45-.84.57-.23.7-.32.7-.32,0,0-.06.01-.2.04Z"/>
          <path class="cls-2" d="M170.62,110.94c-.88.08-1.4.09-1.69.1-.29.01-.37.03-.37.03,0,0,.12.03.44.05.32.02.84.05,1.64-.03.89-.09,1.39-.23,1.68-.31.29-.08.35-.12.35-.12,0,0-.12.01-.43.06-.31.05-.82.13-1.61.21Z"/>
          <path class="cls-2" d="M172.85,109.75c-.38.07-.98.19-1.9.36-1.03.19-1.63.3-1.98.36-.34.07-.43.1-.43.1,0,0,.14,0,.52-.02.38-.03.99-.08,1.92-.26,1.04-.2,1.63-.37,1.96-.48.33-.11.41-.15.41-.15,0,0-.14.01-.51.08Z"/>
          <path class="cls-2" d="M173.03,108.96c-.45.05-1.19.15-2.33.21-1.27.05-2.01,0-2.43-.02-.42-.02-.53,0-.53,0,0,0,.17.06.62.13.45.07,1.2.17,2.35.13.35-.02.65-.04.93-.07-.19.03-.39.07-.61.1-1.11.17-1.77.23-2.14.28-.38.05-.47.08-.47.08,0,0,.15.03.56.05.02,0,.05,0,.07,0-1.2.18-1.42.28-1.42.28,0,0,.68.03,2.87-.25,2.45-.31,2.85-.48,2.85-.48,0,0-.29-.01-1.09.06.43-.11.74-.22.94-.29.35-.14.43-.2.43-.2,0,0-.09,0-.31.05.27-.08.34-.12.34-.12,0,0-.17.01-.63.07Z"/>
          <path class="cls-2" d="M165.48,132.54s.06.02.21.07c.15.04.38.11.73.18.69.14,1.84.35,3.61.32,1.98-.05,3.11-.33,3.75-.49.64-.17.78-.26.78-.26,0,0-.07,0-.22.02-.15.02-.39.05-.74.09-.7.08-1.83.24-3.58.28-1.95.02-3.09-.12-3.74-.17-.65-.06-.82-.05-.82-.05Z"/>
          <path class="cls-2" d="M176.17,144.06c-.16.05-.4.14-.75.25-.71.21-1.87.58-3.72.69-2.06.08-3.25-.23-3.92-.36-.34-.07-.55-.13-.68-.15-.13-.03-.17-.03-.17-.03,0,0,.06.03.21.1.15.07.39.18.75.3.71.23,1.93.59,3.83.51,2.12-.14,3.28-.66,3.91-.95.32-.15.5-.27.62-.34.11-.07.15-.1.15-.1,0,0-.07.02-.22.07Z"/>
          <path class="cls-2" d="M41.1,124.45s.5.34,2.31,1.06c2.02.8,2.4.82,2.4.82,0,0-.49-.34-2.31-1.06-2.02-.81-2.4-.82-2.4-.82Z"/>
          <path class="cls-2" d="M44.82,125.12c-1.37-.46-1.62-.46-1.62-.46,0,0,.34.21,1.56.62,1.36.46,1.62.46,1.62.46,0,0-.34-.2-1.56-.62Z"/>
          <path class="cls-2" d="M38.8,94.27s.08.14.35.46c.27.31.74.82,1.58,1.43.95.67,1.59.93,1.95,1.07.36.13.47.14.47.14,0,0-.13-.09-.48-.3-.35-.21-.93-.54-1.77-1.13-.92-.67-1.41-1.12-1.71-1.37-.29-.25-.38-.3-.38-.3Z"/>
          <path class="cls-2" d="M41.58,95.8c.57.34.94.48,1.14.56.21.07.27.08.27.08,0,0-.07-.05-.28-.17-.21-.12-.54-.31-1.05-.6-.56-.34-.88-.55-1.07-.67-.19-.12-.24-.13-.24-.13,0,0,.06.07.24.23.18.16.48.4,1,.71Z"/>
          <path class="cls-2" d="M44.22,96.5s-.21-.18-.99-.6c-.88-.47-1.05-.49-1.05-.49,0,0,.21.18.99.6.87.47,1.05.49,1.05.49Z"/>
          <path class="cls-2" d="M42.67,68.52c-.11-.17-.15-.2-.15-.2,0,0,.02.08.11.28.09.2.24.51.53.97.33.51.55.78.68.93.13.15.18.18.18.18,0,0-.04-.07-.15-.26-.12-.19-.31-.48-.59-.93-.32-.5-.5-.79-.62-.97Z"/>
          <path class="cls-2" d="M48.9,61.35c-.65-.24-1.06-.28-1.28-.3-.23-.02-.29,0-.29,0,0,0,.09.03.33.09.24.06.62.15,1.19.36.63.24.97.43,1.18.53.2.1.26.12.26.12,0,0-.06-.07-.26-.21-.2-.14-.54-.37-1.12-.59Z"/>
          <path class="cls-2" d="M150.1,41.77c-.42-.33-1.13-.85-1.98-1.87-.92-1.17-1.26-1.98-1.48-2.43-.11-.22-.17-.37-.21-.45-.04-.08-.06-.11-.06-.11,0,0,0,.05.02.17.02.12.05.31.13.57.16.52.46,1.39,1.33,2.48.99,1.19,1.82,1.63,2.26,1.86.23.12.38.17.47.2.09.03.12.04.12.04,0,0-.04-.03-.14-.11-.1-.07-.25-.18-.46-.34Z"/>
          <path class="cls-2" d="M166.65,162.98s-.37.24-1.28.96c-.43.34-.98.78-1.7,1.3.19-.2.28-.34.34-.43.06-.09.07-.12.07-.12,0,0-.05.03-.15.11-.1.08-.26.21-.49.38-.47.34-1.23.92-2.58,1.41-.83.28-1.49.41-2.01.47.44-.1.84-.24,1.2-.39.5-.22.9-.52,1.2-.81.15-.14.28-.28.4-.42.11-.12.21-.23.32-.32.21-.19.41-.33.58-.46.7-.49.83-.69.83-.69,0,0-.08.04-.26.12-.1.05-.23.1-.4.18.34-.2.61-.39.83-.53.37-.25.58-.44.71-.55.13-.11.16-.16.16-.16,0,0-.09.03-.28.12-.19.09-.49.22-.93.42-.87.39-2.26,1.06-4.51,1.78-2.53.76-4.07.95-4.93,1.12-.44.08-.71.12-.87.16-.16.04-.22.06-.22.06,0,0,.09.02.3.03.07,0,.16.01.25.02-.68.03-1.42.04-2.21.02-2.12-.05-3.78-.33-5.08-.58-.33-.07-.63-.13-.91-.19-.28-.07-.54-.13-.79-.19-.49-.1-.89-.22-1.24-.31-.7-.16-1.13-.29-1.4-.33-.27-.05-.36-.05-.36-.05,0,0,.12.08.42.25.3.17.77.43,1.49.73.72.32,1.68.67,2.97,1.02,1.28.33,2.9.63,4.87.67,2.2.05,3.93-.19,5.26-.43.06-.01.11-.02.16-.03.35,0,.73-.01,1.14-.05.11.02.24.05.4.07.28.03.67.06,1.15.03-.89.2-1.67.28-2.33.35-.99.08-1.72.11-2.26.14-1.07.06-1.34.14-1.34.14,0,0,.43.13,1.59.25.58.06,1.34.12,2.34.09.99-.03,2.22-.15,3.64-.64,1.59-.56,2.65-1.39,3.43-2.04.78-.67,1.28-1.21,1.65-1.62.71-.81.84-1.07.84-1.07ZM158.37,166.26c1.33-.45,2.12-.82,2.58-1.05.13-.07.24-.13.33-.18.15-.07.29-.14.43-.21-.06.04-.13.08-.19.14-.26.22-.47.44-.78.66-.21.16-.45.31-.73.44-.31.04-.7.08-1.2.14-.14.02-.29.04-.44.06Z"/>
          <path class="cls-2" d="M147.15,143.1c-.66-.45-.85-.53-.85-.53,0,0,.2.27.82.87.63.59,1.69,1.53,3.5,2.72,2.03,1.31,3.33,1.87,4.07,2.18.75.3.96.31.96.31,0,0-.26-.2-.99-.65-.73-.46-1.93-1.16-3.73-2.32-2-1.31-3.11-2.14-3.78-2.58Z"/>
          <path class="cls-2" d="M153.08,140.4c2.2,1.23,2.64,1.3,2.64,1.3,0,0-.52-.46-2.49-1.56-2.21-1.23-2.64-1.3-2.64-1.3,0,0,.52.46,2.49,1.56Z"/>
          <path class="cls-2" d="M159.17,133.93c.61.26.79.29.79.29,0,0-.2-.18-.81-.57-.6-.39-1.61-.99-3.22-1.76-1.81-.86-2.9-1.26-3.54-1.47-.63-.2-.81-.21-.81-.21,0,0,.23.16.86.49.63.34,1.67.85,3.28,1.62,1.79.86,2.84,1.36,3.45,1.62Z"/>
        </g>
      </g>
    </g>
  </g>
</svg>