<?xml version="1.0" encoding="UTF-8"?>
<svg id="Layer_2" data-name="Layer 2" xmlns="http://www.w3.org/2000/svg" viewBox="0 0 178.46 189.93">
  <defs>
    <style>
      .cls-1 {
        fill: #a9aaaa;
      }

      .cls-2 {
        fill: #eaeaea;
      }

      .cls-3 {
        fill: #00ffec;
        stroke: #000;
        stroke-miterlimit: 10;
        stroke-width: .5px;
      }

      .cls-4 {
        fill: #fefefe;
      }

      .cls-5 {
        fill: #2d2d2d;
      }
    </style>
  </defs>
  <g id="Layer_1-2" data-name="Layer 1">
    <g>
      <path d="M93.46.03c.26-.04.58-.05.83.04,1.14.37,5.09,5.53,5.76,6.79,2.63-.28,5.3-.16,7.94-.43,5.02-.51,10.04-1.1,15.07-1.49,1.77-.14,3.69-.43,5.47-.3,1.08.08,1.91.41,2.75,1.09,1.03.83,1.69,1.92,2,3.2.61,2.52.75,5.27,1.01,7.85.35,3.45.73,6.9,1.15,10.34,1.76,13.86,3.34,27.75,4.75,41.65.8,1.01,1.68,1.94,2.42,3,2.25,3.24,3.81,6.9,5.56,10.42,1.31,2.64,2.76,5.24,3.96,7.93,1,2.23,1.81,4.55,2.71,6.81.55,1.38,1.39,2.59,1.81,4.03.32,1.1.44,2.29.6,3.42.32,2.22.58,4.44.78,6.68.25,2.87.13,13.37,1.04,15.23.51,1.03,2.09,2.88,2.83,4.02,3.63,5.67,7.26,11.32,11.21,16.78,1.23,1.71,2.69,3.87,4.02,5.45.21.25.53.35.74.59.21.25.37.65.46.96.55,1.89-.88,4.87-1.81,6.48-5.12,8.89-20.02,19.17-29.84,21.77-2.47-.63-2.68-2.75-4.17-4.43-.03-.03-.06-.07-.09-.1-1.64,0-3.35.29-4.98.46-3.15.34-6.3.65-9.45.93-14.14,1.27-28.27,2.64-42.39,4.11l-46.19,4.74c-4.97.51-9.95.99-14.93,1.44-2.26.19-4.6.49-6.86.43-1.47-.04-3.11-.34-4.32-1.22-1.36-.98-1.85-2.51-2.08-4.09-.27-1.84-.32-3.72-.48-5.58-.49-5.66-.77-11.33-1.18-17l-3.45-52.31-3.7-53.95c-.6-7.52-1.14-15.05-1.6-22.58C.52,28.9.09,24.57,0,20.26c-.04-1.7.18-3.38,1.24-4.78.89-1.18,2.12-2.01,3.53-2.45,2.21-.69,4.75-.61,7.06-.82,4.53-.4,9.03-.76,13.57-1.01,3.49-.2,7.08-.24,10.55-.73,3.19-.45,3.29-3.03,4.91-5.11.56-.71,1.32-1.15,2.2-1.34,1.49-.33,3.1-.35,4.62-.42,2.22-.1,4.44-.23,6.66-.4,3.1-.27,6.2-.64,9.3-.86,9.95-.71,19.92-1.16,29.83-2.3Z"/>
      <path class="cls-4" d="M142.88,101.32c.32.01.59.04.89.14-.18.22-.44.25-.7.34l-.09.05c-.24-.04-.26-.06-.45-.23l.03-.2.32-.11Z"/>
      <path class="cls-4" d="M144.56,115.16c.14.06.19.11.29.22.03.35-.19.62-.37.9-.12-.06-.24-.13-.35-.21,0-.38.22-.61.43-.92Z"/>
      <path class="cls-4" d="M142.15,99.42c.27-.14.47-.28.78-.21.18.15.26.27.38.47-.3.1-.59.24-.9.12-.1-.13-.18-.23-.25-.37Z"/>
      <path class="cls-4" d="M132.99,89.91c.2.07.24.09.38.25-.04.36-.17.66-.3,1-.16-.22-.33-.42-.52-.62.03-.31.22-.41.44-.63Z"/>
      <path class="cls-4" d="M133.73,95c.23.09.38.18.57.33.06.3.03.3-.12.58-.3-.03-.54-.05-.8-.21,0-.32.17-.45.35-.7Z"/>
      <path class="cls-4" d="M133.53,91.29c.27-.04.71-.05.95.09.13.07.09.08.11.25l-.27.34c-.36.12-.33.12-.67-.05-.16-.29-.18-.3-.13-.62Z"/>
      <path class="cls-4" d="M139.82,97.44c.34.04.56.03.79.3-.03.33-.22.48-.44.71-.22-.02-.36-.2-.5-.35-.06-.36-.04-.35.15-.66Z"/>
      <path class="cls-4" d="M145.16,87.37c.15.05.19.09.3.19-.01.21-.06.31-.17.48-.17.25-.32.51-.47.77-.15-.22-.27-.4-.36-.65.12-.38.41-.54.7-.8Z"/>
      <path class="cls-4" d="M144.24,121.31c.32.1.55.11.73.4-.05.37-.17.71-.29,1.06v.04s-.09.07-.09.07c-.33-.46-.37-1.03-.35-1.58Z"/>
      <path class="cls-4" d="M137.29,94.29s.03.01.04.02c.2.14.27.26.35.49-.12.37-.23.44-.51.7-.14-.23-.37-.34-.59-.48l-.03-.14.75-.59Z"/>
      <path class="cls-4" d="M149.73,131.97c.29.72.57,2.1.53,2.87l-.11.09c-.3-1.13-.59-1.75-.42-2.97Z"/>
      <path class="cls-4" d="M128.13,86.29s.08.04.11.08c.16.16.32.61.31.82-.02.36-.2.41-.46.61-.05-.02-.1-.02-.14-.05-.24-.15-.27-.3-.34-.56.09-.41.23-.59.51-.89Z"/>
      <path class="cls-4" d="M141.36,99.52c.17-.02.32-.02.48-.01.37.24.72.49.88.92.06.17,0,.22-.06.38-.29.02-.55.1-.8-.06l.17-.44c-.11-.13-.21-.2-.35-.28-.24-.13-.22-.26-.31-.51Z"/>
      <path class="cls-4" d="M150.54,175.61c.12.11.14.17.16.34.09.74-.06,2.17-.47,2.78-.03-.02-.07-.04-.09-.07-.31-.38.25-2.54.4-3.04Z"/>
      <path class="cls-4" d="M141.27,96.19s.08-.02.12-.02c.26,0,.42.05.6.23l-.06.23c-.23.22-.41.28-.71.37-.36.02-.72.09-1.06-.08v-.17c.33-.3.7-.41,1.11-.56Z"/>
      <path class="cls-4" d="M150.56,131.71c.89,1.16,1.04,3,1.03,4.41l-.04-.15c-.52-.67-.72-1.03-.8-1.89l.09.18c-.06-.86-.28-1.69-.27-2.55Z"/>
      <path class="cls-4" d="M143.06,80.71l.13.04c.1.17.19.29.33.42.18.16.13.06.15.27-.46.33-1.42.59-1.98.57l-.14-.11-.14.03c-.21.17-.38.34-.66.4l-.04-.14c.44-.74,1.56-1.22,2.35-1.48Z"/>
      <path class="cls-4" d="M146.18,124.41c.17-.26.16-.32.46-.39.37.27.44.97.5,1.4.08.55.29,2.25.02,2.71-.2-.26-.24-.59-.46-.87-.08-.41.16-.85.06-1.31-.14-.66-.57-.77-.58-1.54Z"/>
      <path class="cls-4" d="M149.03,133.34c-.36-.79-1.25-4.23-1.36-5.09-.05-.37-.03-.69.05-1.06h.08c.24.78.21,1.6.45,2.4l.05.17c.03-.4-.02-.97.18-1.32l-.02.05c.4.17.33,2.79.62,3.38-.06.5-.07.96-.05,1.46Z"/>
      <path class="cls-4" d="M145.97,120.84c.54,1.31.29,1.97-.15,3.25-.16.99-.07,2.33.41,3.23l.27.07c-.58.67.03,2.46-.3,3.35-.13-.43-.15-.9-.22-1.34-.15-.97-.35-1.95-.44-2.92-.13-1.33-.09-2.55-.45-3.85.28-.6.58-1.19.88-1.78Z"/>
      <path class="cls-4" d="M136.76,80.67c-.11-.33-.26-.67-.45-1.02-.6-1.31-1.61-2.47-2.61-3.49-.45-.46-1-.76-1.61-.89-.25-.09-.51-.12-.8-.15,0,.02.02.05.03.07-.13,0-.27,0-.41.02-.06-.04-.11-.06-.2-.08-.18.07-.37.12-.54.21-.39.11-.75.28-1.02.55-.02.02-.05.03-.07.05-.04.04-.07.08-.1.13-.36.49-.45.9-.38,1.54.2,1.74,1.48,3.44,2.8,4.78.21.27.45.52.72.74.07.05.14.1.21.15.07.06.14.12.2.18h.08c.15.08.3.14.46.17.43.09.81-.15,1.18-.34.68-.34,1.36-.73,1.92-1.25.25-.23.45-.48.52-.79.09-.18.14-.33.06-.59Z"/>
      <path class="cls-4" d="M38.68,11.88c.38-.06.82-.12,1.16.06.46.46.37,1.09.39,1.69-.56.79-1.01,1.57-1.38,2.47l-1.23.07c.46-.81,2-3.09,1.77-3.95h-.18s-.27.31-.27.31c-.52.88-1.49,2.19-1.57,3.21-.01.14-.02.27-.04.41-.78.21-1.74.14-2.55.17.44-.75,1.03-1.4,1.5-2.13.43-.67.76-1.39,1.21-2.04.34-.21.81-.21,1.2-.26Z"/>
      <path class="cls-4" d="M81.43,22.18c.57-.09,1.29-.12,1.87-.08.31.02.51.08.71.31l-.04.28c-.34.28-.91.19-1.34.27-5.13.99-10.3,1.34-15.5,1.66-1.05.04-2.04.1-3.05-.26,5.8-.34,11.57-1.59,17.35-2.18Z"/>
      <path class="cls-2" d="M141.68,79.88l.05-.11c.14-.3.15-.49.23-.78.03-.09.12-.24.16-.33l-.09-.1c-.28.07-.87.32-1.11.2.06-.15.12-.3.19-.46-.24-.21-.45-.07-.7-.32,0-.28.05-.45.15-.71l-.04-.11c-.11-.33-.15-.54-.12-.88.3-.45.89-.4,1.11-.92-.38-.18-1.26.1-1.43-.26.13-.29.24-.4.48-.59.29-.08.49-.05.78,0,.17-.13.21-.12.28-.33-.22-.12-.41-.09-.65-.08l.31-.17c-.35-.03-.69-.06-1.04-.08l-.07-.14c.29-.47,1.15-.41,1.36-.85-.29-.2-.75-.18-.93-.45.11-.25.21-.34.44-.49.96.33,3.51,5.26,4.1,6.45.22.46.53.9.35,1.42-.23.28-.46.37-.81.4-.14.01-.27.02-.41.02.3-.24.71-.19.99-.49-.16-.07-.35.02-.51.08-.27.1-.42.24-.62.43-.18.18-.54.24-.78.31l-.12-.04c.15-.15.3-.28.46-.42-.3-.12-.73-.03-1.05,0-.37.13-.67.29-.93.6-.08.13-.16.29-.26.4-.18.19-.24.21-.49.23l-.1-.19c.02-.33.18-.51.37-.77l.45-.5Z"/>
      <path class="cls-4" d="M94.72,2.36c1.05.66,3.39,3.39,4.19,4.45.35.46.66.94.79,1.5.31,1.33.27,2.79.37,4.15.19,2.61.73,5.71.35,8.29-.47.19-.96.3-1.47.37-1.78.26-14.41,1.45-15.4,1.23l-.06-.14.25-.24c.57-.37,1.07-.69,1.73-.88,1.41-.4,3.07-.41,4.52-.55,2.57-.25,5.14-.5,7.68-.92.06-.64.19-1.25.32-1.87.04.49,0,.96,0,1.44,0,.34.11.48.35.71.24.08.55.13.79.02.22-.1.32-.2.41-.42.08-.2.08-.4.06-.61-.18-2.04-.45-4.07-.61-6.11-.09-1.13-.06-2.28-.18-3.41-.04-.34-.06-.73-.22-1.03-.75-1.41-3.73-4.04-4.04-5.31-.08-.32,0-.4.15-.67Z"/>
      <path class="cls-2" d="M146.61,81.68l.18-.02c.18.11.24.22.33.41.77,1.55,1.38,3.19,2.13,4.75.87,1.81,1.89,3.56,2.65,5.42.61,1.51,1.14,3.06,1.56,4.64-1.55-1.03-3.36-2.2-4.45-3.73.09-.15.17-.28.1-.45-.09-.24-.29-.63-.52-.73-.15.26-.21.54-.29.83l-.1-.18c.02-.73.38-1.47.64-2.15-.36.56-.8,1.04-1.17,1.59-.02.03-.03.05-.05.08-.55-.81.42-1.76.06-2.49-.41.37-.52,1.24-.66,1.78-1.01-1.07.19-1.74-.32-2.7l-.19-.05c-.59.31-.17,1.05-.46,1.54-1.62-1-.02-1.84-.35-2.94-.29-.18-.59-.09-.91-.05.28-.31.63-.63.8-1.01-.37.32-1.15,1.17-1.61,1.26-.01-.04-.03-.07-.03-.11-.13-.71.78-1.75,1.18-2.28-.59.35-1.19.7-1.85.88l-.15-.13.04-.19c.36-.41.55-.6.52-1.17-.02-.32.02-.54-.18-.79l-.24.07c.06.23.11.43.11.67l-.2.05c-.25-.11-.37-.13-.53-.35.14-.37.48-.39.52-.8.02-.25-.12-.43-.27-.59l-.22.03c-.15.16-.28.31-.41.5l-.12.18c-.09-.29-.36-.64-.38-.76.51-.6,1.59-.63,2.34-.71.3-.03.28,0,.52.18l-.17-.21.17.22c-.26.25-.62.53-.74.86.23.16.26.12.53.11.21-.3.12-.8.17-1.16.63-.22,1.39-.23,2.06-.3Z"/>
      <path class="cls-4" d="M90.54,4.08c.44-.04.88-.07,1.33-.08,1.26-.03,2,.66,2.86,1.47-1.85.3-3.77.38-5.63.55-4.17.38-8.35.67-12.53.87-8.6.4-17.19.93-25.77,1.6-1.42.11-2.86.08-4.26.32l.39-1.22c4.67-.5,9.38-.67,14.06-1.06l11.44-1.06,18.12-1.38Z"/>
      <path class="cls-4" d="M96.59,1.49c.16,0,.17.06.28.16.05.3.06.3-.09.56-.85.4-15.41,1.32-17.9,1.51-6.16.46-12.3,1.17-18.46,1.7-4.39.38-8.93.48-13.28,1.2-.96,1.71-2.04,3.89-3.49,5.23.16,1.49.43,2.97.62,4.46.29,2.26.26,4.58,1.37,6.64,1.79.13,3.65.03,5.45-.02,2.29-.06,4.58-.09,6.86-.18.87-.03,1.74-.15,2.61-.13.36,0,.77.03,1.09.22.23.14.34.38.42.62l-.1.17c-.83.26-1.87.17-2.74.23-2.31.25-4.67.34-6.99.49-1.89.12-4.24.4-6.12.2-.54-.06-1.09-.17-1.54-.48-.42-.3-.62-.92-.74-1.4-.35-1.38-.35-2.98-.49-4.4-.2-2.01-.44-4.01-.74-6.01-.31-.1-.66-.19-.94-.35-.2-.12-.25-.12-.32-.35,1.37-1.2,2.58-2.27,3.39-3.93.35-.71.6-1.52,1.06-2.16.37-.01.43.28.78.31.07-.08.14-.17.21-.25.07-.08.13-.18.22-.23.77-.43,6.76-.98,7.89-1.08,4.75-.44,9.53-.54,14.29-.87,6.41-.46,12.83-.89,19.25-1.28,2.72-.18,5.43-.45,8.14-.59Z"/>
      <path class="cls-4" d="M93.28,8.52l1.24-.03c-.33.56-.59,1.17-.7,1.82-.04.23-.07.4.06.59.92-.38.99-2.13,1.92-2.48.46.52-.48,1.93-.15,2.62.37.07,1.15-2.02,1.92-2.31l.1.1c-.25.69-.53,1.43-.55,2.17l.39-.07-.39-.02.29.13c.32-.34.54-.77.86-1.11.17-.17.17-.18.42-.19.02.03.05.05.07.08.32.43.24,1.03.21,1.53-1.85.33-3.81.39-5.69.55-4.89.39-9.79.6-14.69.91l-31.25,2.25c.57-1.06,1.2-2.15,1.53-3.31-.81,1.03-1.26,2.04-1.6,3.3-.87.1-1.72.2-2.57.41-.16-.74-.32-1.52-.39-2.27-.03-.34,0-.71.25-.98.46-.5,1.34-.46,1.97-.51-.54,1.11-.86,2.03-.94,3.28.39-1.08.74-2.16,1.01-3.28l4.9-.42c3.61-.38,7.33-.67,10.96-.81-.18.33-.32.66-.47,1.01.29-.16.62-.78.82-1.07l1.8-.13c-.45,1.01-.89,2-1.14,3.08.56-1.02,1.06-2.08,1.57-3.11.66-.07,1.33-.1,1.99-.15-.61.96-.94,1.79-1.22,2.89.53-.95,1-1.94,1.49-2.91l1.63-.1c-.32.89-.61,1.76-.84,2.68.5-.91.91-1.85,1.45-2.74l1.43-.02c-.3.71-.51,1.41-.67,2.15.45-.69.82-1.45,1.21-2.18l1.54-.08c-.41.89-.7,1.7-.88,2.67.45-.92.9-1.82,1.46-2.68.74-.08,1.49-.1,2.24-.13-.32.9-.61,1.79-.79,2.72.47-.94.95-1.87,1.44-2.79.6-.05,1.2-.09,1.81-.13-.41.77-.73,1.55-1.02,2.38.61-.7,1.06-1.56,1.53-2.36.6-.1,1.23-.13,1.83-.19-.36,1.02-.64,2-.83,3.07.45-1.03.91-2.05,1.32-3.1.56-.08,1.13-.1,1.69-.14-.27.67-.63,1.44-.61,2.18.53-.25,1.12-1.73,1.41-2.29.62-.08,1.24-.08,1.87-.08-.22.74-.48,1.49-.56,2.26.4-.79.81-1.57,1.27-2.33l1.51-.05c-.37.91-.73,1.82-1,2.76.74-.79,1.16-1.86,1.62-2.83l1.66-.03c-.36.98-.63,1.87-.75,2.91.31-.85.6-1.78,1.04-2.57.17-.32.23-.36.58-.46l1.38-.04c-.34.7-.88,1.74-.88,2.52,0,.05,0,.1,0,.14l-.03-.1.12.07c.66-.73,1.08-1.73,1.7-2.52l.1-.13Z"/>
      <path class="cls-4" d="M127.68,5.54c.39-.03.8,0,1.18.1,1.51.43,2.74,1.82,3.25,3.27.45,1.27.54,2.76.73,4.1.43,3.26.82,6.54,1.16,9.81l3.85,35.78c.52,5.28,1.1,10.55,1.75,15.82.2,1.61.21,3.58.53,5.12.06.26.24.09.35.3-.02.02-.05.04-.07.06-.36.33-.2,2.17-.25,2.78-.5-.49-.88-.81-1.05-1.51-.4-1.69-.52-3.52-.69-5.25-.36-3.72-.56-7.46-.93-11.18l-4.14-43.66c-.19-1.97-.32-5.84-1-7.51-.26-.64-.65-1.13-1.17-1.57-.98-.86-2.17-1.5-3.45-1.76-3.81-.77-8.78-.05-12.7.24-4.79.37-9.58.71-14.37,1.03-.08-1.18-.04-2.36-.03-3.54.61-.08,1.24-.09,1.85-.12-.64.64-1.43,1.06-1.51,2.09-.02.25-.02.26.16.44.93-.09,1.47-2.31,2.47-2.63l.13.22h-.06s.2,0,.2,0l.06-.28c.39-.13.93-.06,1.34-.05-1.12,1.23-1.62,1.81-1.97,3.46.95-1.07,1.64-2.39,2.54-3.52l1.43-.05c-.53,1.04-1.39,1.74-1.83,2.85.53-.51,1.06-1.06,1.48-1.67.24-.34.43-.8.7-1.1.32-.35,4.14-.55,4.85-.61-1,.56-1.68,1.28-2.3,2.24-.19.29-.39.54-.32.89h.15c1.09-.9,2.06-2.14,3.05-3.17.59-.09,1.18-.14,1.78-.2-1.31.97-2,1.98-2.48,3.54.11-.14.22-.27.33-.41.86-1.04,2.34-2.9,3.7-3.3.37-.11.79-.13,1.17-.16-1.36,1.08-2.21,1.87-2.69,3.6.06-.06.11-.12.17-.18,1.12-1.24,2.59-2.22,3.6-3.53l1.36-.18c-.65.51-1.24,1.04-1.8,1.65-.32.35-.79.83-.76,1.31l.19.04c1.09-.44,2.17-1.86,2.64-2.91.44-.09.88-.11,1.33-.14-.69.71-1.69,1.7-1.71,2.76l.11.02c.93-.64,1.69-2.02,2.35-2.94,1.77-.15,3.54-.23,5.31-.42Z"/>
      <path d="M123.78,6.51l.13.11c-.28.7-.91,1.34-1.42,1.89l-.11-.05-.07-.23c.2-.78.82-1.31,1.47-1.72Z"/>
      <path d="M109.32,7.52c.26.05.15-.01.33.19-.08.72-1.26,1.83-1.74,2.4-.06.05-.16.1-.23.14l-.06-.18c.19-1.05,1-1.81,1.71-2.55Z"/>
      <path class="cls-4" d="M98.46,12.93c.15-.02.27,0,.42.02.35.57.8,5.49.59,6.03-.01.03-.1.24-.15.27-.97.63-10.49.47-12.41,1.39-.25.12-.48.23-.77.24-.75.04-1.57-.11-2.31-.21-2-.26-4.1-.63-6.12-.38-4.75.59-8.96,3.28-13.84,3.07-.62-.39-1.13-1.19-1.82-1.41-1.38-.44-11.59.38-13.95.41-.75.03-1.48.02-2.23-.04-.69-1.79-.82-3.89-1.07-5.79,1.58-.04,3.18-.23,4.76-.35l13.95-1.12c5.54-.38,11.08-.73,16.62-1.03,6.11-.42,12.23-.79,18.34-1.11Z"/>
      <path class="cls-2" d="M160.4,129.95c.52.46,1.27,2.52,1.65,3.26.94,1.79,2.1,3.52,3.16,5.25,2.05,3.31,4.21,6.54,6.47,9.71,1.55,2.16,3.18,4.26,4.65,6.47-.72,1.99-1.78,3.78-3,5.49.04-.62.03-1.24.02-1.86-.98,2.56-.8,3.07-2.86,5.24.32-3.06,1.6-6,1.76-9.06-1.54,3.51-2.43,6.7-3.17,10.44-.45.48-.97.9-1.46,1.33.47-1.98.83-3.99,1.29-5.98.63-2.71,1.46-5.55,1.68-8.33-1.81,5.17-3.4,10.28-4.45,15.66-.38.33-.8.63-1.2.94.58-2.16.79-4.41,1.3-6.59.45-1.93.92-3.86,1.42-5.78.55-2.08,1.29-4.22,1.42-6.38-.77,1.53-1.24,3.31-1.77,4.94-1.32,3.98-2.86,8.47-3.62,12.57-.15.81-.22,1.56-.2,2.38-.43.41-.88.8-1.32,1.19.79-4.43,1.58-8.9,2.69-13.26.72-2.83,2.58-7.73,2.75-10.39-2.27,4.96-6.84,19.66-7.04,24.87-.38.28-.79.48-1.21.69.65-3.13,1.16-6.28,1.8-9.41,1.33-6.48,2.92-12.96,5.13-19.21-.6.79-1.02,1.63-1.41,2.55-.99,2.38-1.67,4.97-2.41,7.43-1.38,4.57-2.74,9.23-3.76,13.89-.43,1.97-.72,3.97-1.02,5.96l-.96.61c1-6.73,2.19-13.36,3.73-19.99.73-3.15,1.85-6.22,2.43-9.39-1,1.97-1.64,4.22-2.31,6.32-1.83,5.7-3.32,11.5-4.45,17.37-.41,2.19-.83,4.38-.92,6.61-.33.27-.7.47-1.07.69.63-3.66,1.16-7.39,1.92-11.02,1.32-6.3,3.45-13.37,5.82-19.39.64-1.46,1.25-2.94,1.83-4.42-1.97,2.91-3.05,6.24-4.27,9.51-2.05,5.48-3.98,11-5.25,16.72-.43,2.02-.81,4.05-1.15,6.09-.15.91-.23,1.85-.45,2.74-.07.29-.14.65-.4.81-.12-.28.37-2.59.43-3.1.71-5.84,1.87-11.61,3.46-17.27,1.8-6.32,4.11-12.43,6.34-18.6-1.77,2.45-2.71,5.82-3.74,8.63-2.4,6.57-4.5,12.63-6.13,19.45-.66,2.77-.93,5.7-1.75,8.42l-.05.17c-.11-2.36.3-4.79.67-7.11,1.1-7.11,2.85-14.11,5.24-20.9,1.06-3.08,2.48-6.06,3.27-9.23-.74,1.26-1.3,2.66-1.89,3.99-3.27,7.54-7.49,20.41-8.18,28.46-1.05-4.2,2.88-18.36,4.31-22.9.86-2.73,2.15-5.5,2.6-8.33-1.89,3.69-3.09,7.71-4.34,11.65-1.36,4.3-2.81,8.87-3.65,13.3-.2-2.18.34-4.12.8-6.24.7-3.26,1.49-6.47,2.35-9.69.55-2.06,1.26-4.15,1.62-6.25-1.51,2.84-2.64,6.02-3.55,9.11-.6,2.04-1.09,4.14-1.89,6.11-.13-3.28,1.24-7.11,2.14-10.26.3-1.05.68-2.15.82-3.23-1.94,1.89-2.71,5.25-3.52,7.76.02-.73.06-1.46.19-2.18.15-.87,1.1-3.65.88-4.32l-.23.05c-.62.56-.97,1.48-1.31,2.22-.16-.85-.22-1.7-.24-2.57,2.41-1.51,3.9-1.85,6.27-3.91,2.77-2.4,7.03-6.73,7.29-10.46Z"/>
      <path class="cls-2" d="M128.18,77.01c.02.51,0,1.07.11,1.57.39,1.81,1.7,3.85,3.04,5.1.66.61,1.43,1.07,2.36,1.01,1.03-.06,1.96-.61,2.61-1.39.47-.56.81-1.2,1.26-1.77,1.39,1.09,2.69,2.39,3.76,3.81.82,1.09,1.56,2.25,2.45,3.28-1.51.47-4.41,1.34-5.23,2.83v.15c.26-.06.38-.13.63-.04.37.02.71.02,1.08-.02l.18.13c0,.22-.05.38-.11.59.56-.19.84-.62,1.34-.84l.28.19c1.02-.35,1.91-.81,2.99-1,1.39,1.26,2.42,2.87,3.75,4.2,2.59,2.59,6.42,3.79,6.62,7.96.06,1.21,0,2.47.15,3.68.18,1.37.57,2.73.83,4.09.25,1.32.37,2.67.48,4.01.34,4.52.03,9.11.5,13.61.11,1.03.27,1.92.8,2.83-.05.13-.06.18-.16.28-.03-.03-.06-.06-.08-.09-.1-.12-.15-.22-.21-.36-.13-.1-.23-.2-.4-.23-.27.26-.27.55-.33.9l.11.04c.25-.14.23-.15.5-.07-.02.3-.03.56-.16.84h-.15c-.2-.27-.41-.81-.72-.95-.18.22-.19.51-.16.8.02.19.02.35.21.46.05.03.16.06.23.07.04.3-.01.48-.1.77l-.15.1c-.53-.35-.76-1.42-1.16-1.97.04.69.56,2.51.34,3.01l-.26.25c-.21-.72-.41-1.86-.85-2.47l-.14.05c-.11.56.19,1.18-.02,1.7l-.18-.04c-.14-.5-.16-1.42-.45-1.83-.18.15-.18.23-.21.46-.11.9.99,2.11,1.26,2.98-1.24-.54-1.55-3.89-2.24-4.49l-.2.09-.14.4c.38.28.44.67.51,1.13.02.11.02.21.03.32-.12.15-.06.12-.16.15-.04.33-.05.67-.08,1-.06-.67-.49-.51-.87-1.01l.04-.17c.2-.12.39-.14.61-.19-.05-.12-.13-.21-.2-.31-.16.08-.2.08-.4.09l-.13-.38c-.46-.87-.89-2.47-1.48-3.14-.26.46.2,1.28.28,1.77.07.38-.05.96-.27,1.28-.55-1.22-.52-2.33-.81-3.59-.2-.84-.66-1.82-1.07-2.58-.25-.1-.46-.19-.69-.35-.04-.15-.09-.3-.04-.45.19-.6,1.31-2.01,1.71-2.92-.72.66-1.28,1.73-2.08,2.25-.19-.32.01-.87.08-1.23-.13.04-.06.01-.2.12-.04.03-.07.06-.11.09l-.14-.1c-.18-.83-.04-1.81.03-2.66l-.47-.37c-.1-.25-.16-.3-.11-.57.3-.18.54-.04.86-.09.28-.05.35-.14.53-.34l-.1-.08c-.1.05-.21.1-.32.15-.27.12-.43.19-.71.09-.16-.38.15-.91.1-1.34-.63.55-.61,2.11-1.2,2.83l-.11-.33-.1-.04-.18.53-.12.02c-.43-.89.81-3.01,1.16-3.84.18-.44.3-.9.41-1.36-.67.85-1.1,2.29-1.91,2.94l-.14-.16c-.04.27.07.84-.07,1.03-.06-.11-.07-.12-.11-.26-.2-.8.09-2.33.58-3.01.34-.46.77-.81,1.08-1.31-.28-.23-.85-.05-1.21-.25.08-.42.37-.77.69-1.06.09.15.17.31.27.46l.12-.03c0-.08,0-.2-.04-.27-.11-.25-.24-.29-.46-.37-.2.08-.32.14-.53.14.17-.21.33-.42.48-.64l-.11-.15h-.19s-.06.24-.06.24c-.45.41-.53,1.39-.89,1.96l-.08.13c-.03-.21-.05-.41-.06-.62-.05-.89-.38-3.4.19-4.04.22-.11.38-.12.62-.08.66.12,1.32.41,1.96.58.8.22,1.62.32,2.44.42-.76-.59-1.67-.89-2.46-1.42-.41-.28-.48-.49-.56-.96l-.02-.12c-.2-.13-.1-.11-.33-.08l-.07.5-.14.07c-.21-.1-.32-.15-.44-.35.08-.16.21-.18.37-.26-.31-.18-.63-.26-.79-.59.01-.04.02-.08.04-.12.23-.51,1.01-.73,1.48-.95l-1.27-.49c1.06-.33,1.83-.92,2.73-1.54-.75-.14-2.63-.75-3.27-.53-.03,0-.06.02-.08.03l.02-.16c.42-.35,1.1.08,1.61-.04.21-.05.45-.38.56-.55.02-.04.04-.08.07-.12-.35.05-.77.15-1.12.1-.27-.03-.43-.14-.58-.34.13-.21.17-.25.44-.3.42-.07.66.13,1,.35-.11-.3-.19-.57-.45-.77-.35-.02-.48.14-.77.33-.24-.03-.23-.03-.39-.2.2-.35.62-.42.94-.67.16-.12.23-.15.27-.36-.3-.15-.68-.12-1.01-.14-.22-.4-.51-.4-.61-.61.37-.24.87-.3,1.3-.4l.04-.1c-.09-.31-.25-.5-.44-.75h-.24c.08.16.14.28.18.45-.07.05-.12.09-.21.1-.28.04-1.55.05-1.75-.05l.06-.23c.2-.22.29-.31.59-.39.08.06.22.18.3.22.24.13.36.08.6,0-.21-.09-.44-.12-.54-.33.41-.23.54-.25.76-.68-.51.09-.98.26-1.48.39l.05-.36c.29-.34.76-.45,1.13-.69l.08-.05c-1.07-.35-2.02.58-2.91.46.1-.22.19-.45.28-.68l-.07-.12c-.11.03-.19.04-.3.1-.27.14-.37.51-.48.77l-.05.13-.21.06c-.25-.13-.29-.16-.44-.39.13-1.06,2.59-.53,3.18-1.3l-.09-.39c-.12.15-.24.25-.4.36-.16-.05-.32-.09-.49-.13-.28.21-.52.43-.89.44-.06-.03-.11-.05-.17-.08-.54-.25-.3-.02-.71.12l.04-.16c.41-.41.99-.7,1.49-1,.28.12.55.25.82.39-.16-.15-.28-.29-.4-.48.14-.29.56-.39.85-.52-.54.03-1.21.15-1.69-.12-.19-.29-.17-.38-.18-.72-.02.02-.04.04-.06.06-.3.27-.93.67-1.35.64l-.05-.16c.27-.44.81-.55,1.11-.95.03-.04.05-.07.08-.11.38-.27.85-.28,1.21-.58l-.09-.08c-.2,0-.37-.03-.56.03-1.84.6-.67.35-1.7,1.32-.12.12-.19.07-.35.07-.44-.5.09-.94-.02-1.49,0-.04-.03-.08-.04-.12-.27.02-.56.23-.78.38-.15.34.03.51-.03.85l-.28.18c-.24-.12-.31-.08-.4-.34.04-.05.16-.19.19-.23.04-.06.07-.12.11-.17l.15-.05-.08-.03-.16.04c-.24-.1-.99-.34-1.12-.52.15-.07.31-.15.46-.23.38-.21.47-.42.6-.83.01-.04.02-.07.03-.11-.32.18-.71.51-1.07.52-.08-.21-.12-.34-.3-.48-.16.32-.09.99-.29,1.21l-.7-.35.04-.16c.22-.1.43-.2.64-.31l.04-.16c-.19,0-.37,0-.56,0,.19-.22.34-.35.41-.65l-.42-.39.03-.49c-.25.27-.44.55-.84.56-.26,0-.41-.14-.56-.32l.05-.28s.19-.21.23-.25c.04-.05.07-.11.11-.17.3-.11.52.33.97.27-.24-.29-.49-.58-.74-.86-.22-.06-.22-.05-.43.04-.02.18-.04.29-.11.45-.12-.01-.23-.02-.35-.04-.35-.06-.5-.05-.85.05-.14.04-.17.01-.31-.03-.04-.27-.05-.25.11-.47.16-.04.31-.09.47-.14.34-.11.41-.21.55-.51l-.12-.1c-.44.08-.92.17-1.33-.08-.38-.23-.45-.66-.55-1.06l-.04-.15-.19-.04c-.34.34-.61.41-.71.91l-.12-.07c-.15-.75.96-1.38,1.34-1.99.12-.2.13-.22.08-.45-.16.02-.24.03-.41,0,0-.09-.01-.27-.01-.35.01-.24.06-.35-.04-.58-.02-.04-.04-.08-.07-.13-.01.03-.02.07-.03.1-.09.3-.11.46-.06.77.06.34.14.84-.06,1.15-.02.03-.04.05-.06.07h-.21c-.32-.47-.17-1.34-.2-1.9-.02.02-.05.03-.08.05-.05.04-.21.2-.26.23-.28.17-.19-.07-.45-.15l-.06.5h-.2s.18.09.18.09l-.03.07c-.48-.49.21-1.01.1-1.57-.26.05-.46.62-.69.84l-.18-.02c-.09-.2-.15-.32-.31-.49-.14.1-.15.15-.33.15-.03-.25,0-.25.1-.46.26-.1.5-.06.78-.03.03,0,.06,0,.09.01-.08-.27-.19-.89-.42-1.03-.1.26-.18.56-.41.74-.15-.22-.11-.3-.12-.57.16-.31.33-.47.59-.7-1.04.35-.6.71-1,.96-.17-.44-.34-.88-.51-1.33-.11-.31-.18-.53-.04-.83.28.09.37.5.55.73.18.23.3.23.57.29-.19-.4-.67-1.66-1.01-1.82l-.36.35-.13-.18c.07-.4.4-.32.17-.7-.28-.14-.39-.14-.51-.44l.18-.2c-.22-1.34-.29-2.16.04-3.49Z"/>
      <path d="M141.62,94.93c.43-.02.88-.1,1.27.11l.05.16c-.27.15-.44.23-.74.15-.12-.03-.23-.07-.34-.11l-.23-.31Z"/>
      <path d="M133.4,87.91c.21.16.28.29.4.53,0,.39-.05.46-.24.79-.19-.13-.22-.18-.34-.37-.04-.36.06-.61.18-.94Z"/>
      <path d="M143.9,111.23c.15.06.3.11.46.14.21.03.43.08.64.09.07,0,.13,0,.2,0-.17.34-.71.18-.96.51.1.21.09.18.26.3.13-.03.27-.05.4-.07.26-.03.51-.11.72.06-.19.24-.39.25-.67.34-.29.34-.63.61-.97.9-.07-.22.33-.7.33-1.03-.22-.04-.15-.05-.33-.03-.04,0-.07,0-.1.01.16-.22.23-.28.25-.55-.05-.06-.1-.12-.16-.17l-.14-.16.08-.36Z"/>
      <path class="cls-2" d="M33.78,12.1l.57-.03c-.04.35-1.08,1.23-1.36,1.55-.71.84-1.22,1.74-1.68,2.73-.75.09-1.51.12-2.27.16.98-1.31,1.77-2.41,2.23-3.98-.09.06-.18.13-.26.19-1.45,1.15-1.89,1.9-2.08,3.73-.79.25-1.75.22-2.58.28.64-1.49,1.79-2.38,2.25-4.07-.19.13-.36.27-.53.42-.7.64-1.87,2.05-1.91,3.02,0,.22,0,.35-.1.55-1.06.3-2.34.28-3.44.36-2.37.18-4.74.35-7.11.49.37-.91.86-1.79,1.12-2.74.06-.23.17-.52.04-.72-.03.02-.06.04-.09.06-.86.68-1.44,2.45-1.64,3.48-3.38.53-4.34.33-7.67,1.82,1.34-1.76,2.14-3.11,2.16-5.38-.95,1.78-1.7,3.47-2.19,5.43-.71.66-1.33,1.38-1.91,2.16.45-1.41,2.13-5.23,1.96-6.45,0-.03-.02-.07-.02-.1l.05-.02-.07-.18h-.12c-1.09,1.91-1.72,4.08-2.5,6.11-.61,1.58-1.44,3.27-1.84,4.92-.07.28-.06.5,0,.78l.15.03c.95-.95,1.24-2.68,2-3.83l.28.21c-.09.74-.7,1.24-1.04,1.88-.76,1.44-1.17,3.33-1.2,4.94.33-.62.67-1.96,1.12-2.35.54,1.19-1.56,3.47-1.28,4.75.6-.22,1.27-2.1,1.92-2.69.03,1.06-1.17,3.05-1.39,4.29-.06.33-.25,1.06-.06,1.32.73-.5,1.29-2.2,1.76-3-.17,1.83-1.64,3.83-1.27,5.62l.13.08c.36-.48.63-1,.94-1.51.12-.2.27-.53.5-.58.13,1.03-.79,2.26-1.09,3.25-.25.82-.32,1.55-.31,2.41.43-.62,1.26-2.51,1.81-2.81l.14.13c.14.79-1.17,3.15-1.53,4.03-.19.47-.38,1.15-.18,1.63.82-.33,1.21-2.05,1.89-2.68.74.98-2.07,4.1-1.67,6.02l.12.03c.67-.68,1-1.7,1.53-2.49.15-.22.26-.42.52-.48.02.03.03.06.05.09.28.76-1.07,2.85-1.39,3.64-.27.67-.83,2.41-.54,3.09.87-.35,1.2-2.77,1.96-3.2l.16.11.04.3-.15-.08.15.06c-.23,1.65-2.19,4.52-1.77,6.1l.16.04c.98-.84,1.3-2.61,2.01-3.68l.08.1c.07,1.39-1.11,3.49-1.59,4.81-.19.52-.56,1.55-.32,2.05.59-.39,1.54-2.57,1.94-3.29l.07.13.03-.11-.07-.1.06-.07c.28.15.33.43.46.71-.6,1.32-2.58,5.16-2.26,6.38h.12c.7-.82.86-2.01,1.5-2.85.19-.25.38-.35.68-.41l.14.14c.15.85-1.63,4.06-1.96,5.2-.26.91-.29,1.77-.28,2.71.4-.89,1.84-4.24,2.45-4.72l.17.07c.55,1.19-1.05,3.78-1.48,5.01-.34.96-.57,1.85-.67,2.86.7-1.06,1.51-3.46,2.39-4.12l.19.03c.55,1.03-.88,3.41-1.22,4.42-.37,1.11-.65,2.18-.78,3.34.55-1.1,1.48-3.14,2.27-3.98.07.05.12.07.18.15.51.74-1.27,4.34-1.58,5.34-.28.91-.43,1.81-.57,2.76.71-1.28,1.29-2.73,2.11-3.94.14-.2.24-.39.49-.44.13.24.2.4.16.68-.13.97-.72,2.09-1.07,3.01-.58,1.53-1.07,2.99-1.39,4.6.49-.72.97-1.45,1.4-2.2.36-.63.62-1.51,1.12-2.02l.17.02c.62,1.03-1.04,4.13-1.44,5.21-.25.66-.42,1.32-.57,2.01.81-.8,1.22-1.62,1.73-2.63.13-.26.25-.51.54-.6.81,1.24-2.19,5.33-1.82,6.73.94-.49,1.28-3.02,2.19-3.53l.17.15c.26,1.31-1.83,5.5-2.34,7.03.7-.69,1.3-1.53,1.77-2.39.3-.55.52-1.24.95-1.69l.14.06c.19.99-2.2,5.13-2.63,6.44-.09.28-.2.65-.06.93.76-.38,2.41-3.73,2.93-4.71-.43,2.96-2.1,5.56-2.97,8.39,1.26-1.55,1.95-3.4,3.08-5.02l.19.02c.84,1.36-2.89,6.77-2.82,8.35.85-.02,2.38-4.05,3.15-4.8h.15c.16.41.1.95-.02,1.35-.19.66-.6,1.33-.88,1.96-.76,1.7-1.43,3.4-1.8,5.23.88-1.32,1.31-2.93,2.2-4.21.19-.28.36-.45.69-.51l.18.18c.12.34.17.6.08.96-.18.69-.6,1.36-.91,2.01-.81,1.7-1.72,3.67-1.99,5.55l-.02.15.1-.14c.68-.94,2.28-4.52,3.07-4.9l.15.09c.36,1.39-3.32,6.9-3.12,8.66l.09.02c1.33-.9,2.17-4.8,3.23-5.53.03.04.06.08.08.13.55,1.55-2.44,7.32-2.97,9.21l-.05.17c1.29-1.72,2.02-3.63,3.11-5.45.08-.13.17-.21.3-.28l.16.08c.46,1.14-2.65,8.06-3.06,9.88,1.27-1.86,2.2-4.12,3.23-6.13.13.45.24.9.35,1.35-.34,1.14-.81,2.26-1.21,3.37-.63,1.77-1.24,3.54-1.82,5.33.47-.65.88-1.31,1.25-2.02.53-1.02,1.01-2.5,1.8-3.32l.13.06c.16.45.1.87,0,1.33-.16.76-.5,1.51-.76,2.24-.74,2.1-1.64,4.34-2.07,6.53l-.03.17c.7-1.34,2.39-5.87,3.23-6.6l.08.06c.26,2.05-2.13,9.35-2.85,11.52,1.49-1.84,2.18-4.21,3.67-6.03-.43,3.41-2.19,6.65-3.35,9.85,1.16-1.78,2.53-4.78,3.79-6.25-.31,3.13-1.98,5.99-3.01,8.92,1.07-1.65,2.04-3.5,3.26-5.04h.15c.53,1.22-1.92,5.11-2.53,6.44-.46,1.02-.84,2-1.1,3.09,1.41-1.84,2.44-3.95,3.8-5.82h.14c.5,1.02-2.11,5.21-2.62,6.39-.44,1-.76,1.99-.99,3.05,1.32-1.65,2.07-3.78,3.42-5.42.16-.19.27-.37.52-.4.44,1.49-2.56,6.14-3.2,7.81-.19.48-.42.89-.21,1.37,1.05-1.16,2.81-4.92,3.78-5.5l.15.06c.17,1.37-2.09,4.8-2.76,6.18-.36.75-.65,1.54-.93,2.32.62-.68,1.22-1.38,1.73-2.14.65-.97,1.28-2.46,2.12-3.21.14.1.16.06.2.2.31,1.2-2.9,6.42-3.55,7.84.8-.82,3.16-4.39,3.63-4.66l.13.2c.06,1.84-2.42,5.62-2.98,7.72.66-.67,1.23-1.48,1.74-2.28.4-.63.82-1.76,1.38-2.22l.15.09c.12.36.15.75.07,1.13-.14.68-.54,1.4-.85,2.02-.88,1.78-1.97,3.54-2.25,5.52.9-1.49,1.93-3.07,2.99-4.45.13-.17.13-.22.35-.25.32.94-2.87,7.12-3.47,8.45.45-.5.86-1.02,1.23-1.58.5-.76,1.56-2.89,2.17-3.34.18.09.37.24.45.43.09.21.07.35-.02.55-.2.42-.61.79-.86,1.2-1.04,1.8-2.27,4.32-2.73,6.35l2.82-4.27c.24-.36.55-.89.99-.98.53,1.66-3.12,7.75-3.54,10.01l-.03.17c.66-.89,3.27-5.74,3.69-5.96l.1.15c-.02,1.71-2.48,7.17-3.09,9.27l-.04.13c1-1.67,1.79-3.52,2.86-5.13.17-.26.31-.43.62-.48l.14.18c.1.56.03,1.08-.15,1.62-.2.59-.56,1.15-.85,1.7-.83,1.54-1.74,3.11-2.09,4.83l-.04.19c.8-1.02,3.6-5.84,4.19-6.15.21.11.27.16.39.38.08.14.13.36.13.52,0,.54-1.5,3.1-1.82,3.84-.26.59-.44,1.2-.6,1.82.8-.8,2.89-4.4,3.43-4.6.28.07.29.04.44.29.04.94-.9,2.06-1.29,2.9-.12.26-.22.55-.12.82.61-.09,2.15-2.16,2.77-2.68.34-.28.68-.57,1.13-.53.29.48-1.36,2.54-1.46,3.3-.03.23,0,.25.14.42,1.38-.32,2.47-3.39,4.14-3.63.31.38-1.44,2.38-1.23,3.29l.21.12c.5-.13,2.06-2.27,2.65-2.79.56-.5,1.15-.87,1.82-1.22-.57,1-2.01,2.55-1.95,3.75,0,.17.07.18.19.28,1.03-.52,2.11-3.58,4.61-4.1.04,0,.07-.01.11-.02-.63.86-1.55,1.7-1.82,2.77-.07.28-.13.56.02.81.65-.11,1.61-1.66,2.06-2.19.46-.54,1.34-1.55,2.07-1.6.23.36-1.65,2.46-1.78,3.25-.03.17.04.21.13.34.8.06,2.28-2.43,2.95-3.03.61-.55,1.24-.83,1.99-1.11-.31.31-.59.63-.86.97-.43.54-1.63,2.02-1.49,2.73.03.13.12.15.22.21.49-.19,2.03-2.25,2.57-2.76.71-.66,1.42-1.15,2.29-1.58-.79.94-2.39,2.43-2.46,3.75,0,.18.09.23.19.35.39-.03,2.28-2.48,2.87-2.96.65-.54,1.31-.88,2.1-1.17-.69.84-2.03,2.17-2.25,3.24-.06.27-.01.38.14.6.24.06.24.07.42-.11.27-.26.48-.7.72-1.01,1.05-1.35,2.23-2.43,3.86-2.99-.74.78-2.53,2.63-2.47,3.73,0,.16.1.2.21.31.83-.25,2.07-3.02,3.55-3.7.04-.02.08-.04.12-.05-.37.79-1.44,2.68-1.15,3.51.87-.36,1.86-2.92,3.72-3.76.15-.07.18-.12.33-.06-.44.89-1.11,1.59-1.46,2.55-.14.37-.22.69-.05,1.05.16.06.23.15.39.02.24-.2.49-.64.68-.9,1.03-1.36,1.87-2.4,3.47-3.09l-.08.09c-.7.84-1.64,2.15-1.53,3.29l.15.09c.95-.41,1.79-1.91,2.5-2.68.36-.39,1.14-.93,1.69-.94-.05.54-1.25,1.87-1.48,2.69-.07.27-.12.52.01.78h.22c.75-.47,1.28-1.34,1.82-2.02.42-.54,1.58-1.63,2.28-1.72.11.58-1.27,2.08-1.24,2.92,0,.15.04.12.18.23,1.11-.2,1.85-2.86,3.14-3.09.21-.04.12-.04.32.09,0,.6-.58,1.4-.85,1.94-.14.28-.13.4-.04.68.8,0,2.14-2.53,3.16-2.94.18-.07.11-.06.29.01.19.7-.65,2.08-.83,2.85l-.04.17c.99-.97,1.78-2.17,2.86-3.05.32-.25.57-.41.98-.37.35.5-1.14,1.58-.95,2.99l.12.07c1.28-1.33,2.31-2.46,4.01-3.23-.31.72-.9,1.33-1.09,2.1-.06.24-.11.4.02.62.9-.07,2.26-2.41,3.27-2.91.19-.1.26-.13.46-.05-.01.8-.83,1.49-.74,2.32.02.18.08.18.21.29.3-.14.43-.38.64-.63.77-.92,1.77-2.32,3.03-2.43l.08.1c-.19.34-.45.65-.62.99-.19.4-.37,1.34-.24,1.74.21-.07,1.74-1.85,2.13-2.18.62-.54,1.22-.92,1.96-1.27-.46.7-1.24,1.74-1.35,2.59-.03.21-.02.22.12.38.55-.09,2.23-2.17,2.86-2.65.36-.28.77-.44,1.2-.61-.41.76-1.11,1.81-.87,2.7.21.06.32,0,.48-.14.31-.27.56-.63.85-.92.72-.76,1.66-1.38,2.63-1.78l.16-.06c-.38.71-1.05,1.5-1.1,2.33-.01.22,0,.22.14.4.07,0,.15.05.21.02.5-.24,1.85-2.24,2.71-2.62.23-.1.4-.16.64-.05.03.48-.4,1.01-.59,1.45-.14.32-.19.63-.07.95.91-.12,2.36-2.39,3.48-2.85.19-.08.24-.12.43-.04-.06.42-.45.82-.66,1.19-.32.56-.5,1.25-.69,1.87,1.45-1.34,2.46-2.73,4.28-3.65-.54,1.14-1.11,1.98-1.37,3.24,1.52-1.36,2.27-2.86,4.36-3.45-.42.66-1.26,1.73-1.29,2.53,0,.17.06.19.17.31,1.1-.42,2.55-2.67,3.87-3.09l.09.11c-.16.58-.54,1.03-.83,1.55-.24.45-.38.95-.53,1.43,1.8-.85,2.64-2.62,4.81-3.62-.83,1.22-1.61,2.01-1.9,3.5,1.14-1.2,2.47-2.75,3.94-3.5.25-.12.39-.17.65-.09v.17s-.09-.17-.09-.17c.11.7-1.4,1.78-1.52,2.68-.03.21-.04.13.09.3,1.14-.21,2.86-2.72,4.19-3.29.2-.09.34-.13.55-.05.12.25-.1.39-.26.6-.56.77-.97,1.56-1.15,2.51l-.03.15c1.41-1.21,2.92-2.78,4.58-3.61-.32.87-1.36,2.15-1.18,3.09.04.02.08.08.12.07.3-.05,2.82-3.13,3.89-3.26.34.55-.97,1.91-.83,2.68.91-.16,1.89-2.17,2.89-2.64.25-.12.37-.11.63-.02-.12.89-1.46,1.61-1.29,2.58l.15.07c1.16-.62,1.82-2.29,3.09-2.84.25-.11.36-.09.62,0l-.03.2.02-.21c-.02.56-.7.98-.82,1.56-.03.17.03.19.11.31.86-.05,1.97-1.39,2.66-1.9.39-.29.92-.68,1.41-.61.13.54-.74,1.92-.97,2.5.11-.06.21-.13.32-.2,1.11-.67,1.79-1.97,3.02-2.47.28-.12.45-.19.73-.08.19.65-.64,2.01-.88,2.67.78-.59,2.69-2.94,3.47-3l.06.09c-.09.82-.67,1.62-.9,2.43l.21.02c.74-.58,1.26-1.49,1.98-2.12.32-.28.71-.65,1.14-.62l-.1-.06.02.32.05-.12c-.34.66-.76,1.37-.89,2.12l.09.12c1.28-.54,2.47-2.71,4.07-2.82l.11.13c-.16.8-.89,1.37-.99,2.25-.02.23-.04.14.1.32.8-.17,2.2-2.43,3.1-3.04.31-.21.71-.32,1.06-.43-.59.84-.92,1.67-.96,2.7l.22.17c.12-.06.12-.06.24-.16.52-.43.87-1.26,1.25-1.82,1.33-2.02,3.18-4.04,3.51-6.53.21-1.59-.26-3.59-.45-5.2l-1.04-8.7c-.82-7.25-1.59-14.5-2.3-21.75-.3-3.06-.53-6.13-.87-9.19-.43-3.81-.8-7.64-1.28-11.45-.25-1.99-.8-4.19-.73-6.17.25.15.32.68.51.95.13.19.09.07.1.32l-.19-.07-.09.08c.09.48.19.92.35,1.38.14.1.24.16.35.3l-.3-.08-.08.08c-.08.82.33,1.78.57,2.55.03-.64-.01-1.26.04-1.9l.09-.02c.11.27.2.55.42.74.22-.31-.17-.87.1-1.25.23.22.26.69.31,1,.48,3.02.64,6.04.89,9.08.44,5.34.93,10.68,1.47,16.01.32,2.94.84,5.86,1.23,8.8.64,4.9,1.12,9.82,1.74,14.73.59,4.6,1.33,9.2,1.84,13.81.16,1.46-.25,2.86-1.19,3.99-.95,1.14-2.31,1.73-3.74,2.01-1.92.37-3.99.32-5.95.57-4.89.61-9.81,1.2-14.71,1.64-3.54.32-7.1.49-10.64.82-5.72.53-11.42,1.26-17.13,1.85l-35.69,3.73c-9.49,1.02-18.99,1.93-28.51,2.71l-8.15.79c-1.54.15-3.18.41-4.73.35-.75-.03-1.37-.28-1.95-.77-.78-.66-1.17-1.54-1.35-2.52-.33-1.74-.42-3.55-.61-5.31l-1.05-10.4c-1.23-13.25-2.28-26.53-3.14-39.81-1.07-14.28-2.27-28.56-3.61-42.82l-1.37-14.12c-.81-9.28-1.24-18.6-2.08-27.88-.43-4.79-.54-9.56-.82-14.35-.15-2.47-.32-4.94-.4-7.42-.04-1.17-.12-2.35,0-3.52.14-1.41.53-3.32,1.48-4.41.55-.63,1.29-1.06,2.11-1.24,1.87-.41,4.06-.19,5.99-.34,7.38-.61,14.77-1.05,22.17-1.32Z"/>
      <path d="M145.46,170.54l.08.14c-.33,1.01-.65,2.12-1.24,3.02-.07-.08-.1-.19-.14-.28.1-.9.64-2.26,1.3-2.88Z"/>
      <path d="M17.1,14.39l.19.09c-.05.89-.78,2.3-1.37,2.97-.11-.02-.03,0-.2-.13-.03-.14-.04-.14-.03-.31.03-.77.85-2.09,1.41-2.62Z"/>
      <path d="M27.84,13.15l.16.16c.17.95-.97,2.42-1.48,3.22l-.1-.03-.12-.23c.06-1.1.78-2.35,1.53-3.12Z"/>
      <path d="M25.49,13.07l.11.17c-.2,1.32-1.31,2.45-1.75,3.71-.01-.03-.02-.06-.04-.09-.02-.04-.03-.09-.05-.13-.06-.16-.09-.18-.1-.36-.1-1,1.12-2.62,1.84-3.29Z"/>
      <path d="M14.53,14.3c.06.17.12.33.12.51,0,1.08-.89,2.36-1.66,3.09-.12-.1-.06-.03-.15-.24.19-1.19.98-2.42,1.69-3.37Z"/>
      <path d="M22.42,13.26l.19.25c.03.97-1.16,2.6-1.67,3.45-.11-.12-.18-.22-.21-.38-.19-.97,1.12-2.58,1.69-3.32Z"/>
      <path d="M7.77,15.97l.12.18c-.1,2.02-1.6,5.97-2.33,7.91l-.11-.17c-.04-1.85,1.18-6.49,2.32-7.93Z"/>
      <path class="cls-4" d="M100.74,12.62c4.21-.14,8.41-.62,12.61-.93,3.3-.25,10.34-1.01,13.3-.44,1.21.23,2.42.77,3.34,1.59.52.46.8.96.93,1.63.19.96.19,1.99.27,2.97.12,1.43.27,2.85.44,4.28l2.33,21.72,2.39,21.18c.62,5.24,1.35,10.53,1.59,15.79-1.73-1.73-2.91-4.34-5.04-5.62-.77-.46-1.63-.6-2.49-.35-1.6.46-3.01,2.21-3.38,3.82-.11.46,0,1.08-.23,1.48-.2-.06-.28-.1-.41-.27-.11-.64.17-1.22.38-1.8l-.12-.05c-.37.26-.39.38-.47.83-.21,1.16-.41,4.48.25,5.43l.19.03c.42-.65-.62-3.03-.28-4.07l.17-.06.25.12c.23.43.02.98-.09,1.43.16.16.09.12.27.23.04.02.08.05.12.07.07.82.11,1.59.25,2.41l-.08.1-.31-.19c-.24.4.68.88.76,1.3-.2.14-.35.2-.58.25-.23.05-.23.04-.42.2l.09.21c.43.13.73-.19,1.14-.07,0,.28-.26.45-.44.65-.19.6.27,1.36.51,1.9l.89-.43c.2.46.53.84.63,1.34-.13.34-.25.36-.58.53l-.12.06v.18s.14.05.14.05c.25-.16.5-.38.81-.36.16.2.16.22.17.47-.15.22-.38.28-.62.37-.17.07-.1,0-.2.19.18.21.17.22.45.26.26-.14.49-.29.79-.3.2.17.23.27.29.52-.15.25-.35.31-.6.43-.16.07-.09,0-.17.18l.09.21c.24,0,.45,0,.69.06.2.18.25.28.32.54-.11.2-.3.21-.51.29.02.27.07.26.25.45.41.14.66-.05,1.06-.06.26,0,.3.05.45.23-.16.24-.38.21-.64.3-.26.09-.34.12-.45.37l.14.28c.3.05.42-.05.7-.16.31-.12.5-.21.81-.08l.03.14-.42.2-.06.48c-.17.13-.09.1-.3.15-.05.01-.09.02-.14.03v.19c.29.22.84.16,1.2.17l.09.09c-.15.35-.51.54-.81.79l.07.1c.41.03.71-.41,1.15-.46.53.19,1.2.11,1.59.51-.13.43-1.66.11-2.09.38l.02.2.17.1c.26,0,.59-.04.84.03.48.13.61.26.83.67l.1.13h.11c.24.04.43.04.62.19l.03.17c-.43.36-.8.2-1.11.71.17,0,.35,0,.51.02.43.07,1.08.39,1.33.75l-.1.13c-.57.17-1.14.01-1.73.02.37.53,1.54.59,2.1.91.22.12.4.22.48.46-.48.21-1.05,0-1.56.11.38.13.88.54,1.23.58.04,0,.08,0,.11,0,.25.07.37.46.48.68-.15-.09-.3-.17-.46-.24l-.28.1c-.16-.12-.23-.18-.43-.22-.09.2-.11.16-.06.4.36.23.84.29,1.25.38.06.3.27,1.11.14,1.36-.17-.24-.33-.39-.55-.57-.25-.06-.39-.05-.64.02l-.07.16c.11.19.09.21.3.33l.14-.33c.32.27.68.54.93.88l-.07.1-.67.09c.12.46.93.7,1.1,1.28-.05.16,0,.09-.14.21-.24-.01-.41-.08-.63-.16l-.08.11c.17.37.57.42.85.74.05.37.04.36-.17.67.13.45.31.91.4,1.37.17.82.18,1.76.27,2.6.18,1.73.38,3.46.58,5.19l2.03,16.52,2.08,16.01c.6,4.42,1.33,8.9,1.37,13.37.01,1.54-.16,3.13-1.09,4.41-1.06,1.46-3.17,1.99-4.87,2.25-7.94,1.21-15.98,1.6-23.97,2.29l-33.37,3.15c-11.95,1.18-23.9,2.26-35.87,3.24l-10.01.8c-1.93.17-3.93.49-5.86.47-1.35-.01-2.53-.43-3.6-1.23-1.6-1.19-2.35-2.76-2.63-4.71-.36-2.5-.56-5.05-.83-7.56l-2.21-21.2-7.51-65.21c-1.57-12.89-3.02-25.8-4.36-38.72l-1.06-9.72c-.23-2.11-.53-4.25-.56-6.38-.03-1.59.47-3.24,1.47-4.5.72-.91,1.79-1.57,2.9-1.87,2.28-.61,6.2-.56,8.66-.7,5.72-.34,11.47-.65,17.18-1.2.05.71.1,1.42.19,2.13.29,2.25.51,5.67,2.47,7.11.39.29.8.48,1.29.54,1.67.2,3.59-.1,5.26-.2,4.03-.25,8.15-.43,12.15-1,.15.4.35.8.67,1.08.22.2.47.3.76.33,1.33.17,2.94-.14,4.28-.26,3.88-.35,7.71-.68,11.55-1.36,1.8-.32,3.68-1.03,5.49-1.12.11.12.22.22.35.33.16.13.25.15.46.14,1.41-.02,3.4-.43,4.9-.57,3.84-.35,7.69-.61,11.53-.97.76-.07,1.77-.2,2.27-.85,1.26-1.65.29-7.48.05-9.65Z"/>
      <path d="M32.94,136.23c.52-.02.96,0,1.44.2.68.28,1.23.79,1.52,1.47.27.64.26,1.36-.04,1.99-.39.83-1.03,1.18-1.86,1.46-.48.05-.87,0-1.32-.18-.74-.29-1.36-.84-1.65-1.59-.24-.61-.23-1.28.04-1.88.39-.85,1.05-1.17,1.87-1.48Z"/>
      <path class="cls-4" d="M33.32,137.15c.38-.02.86.14,1.18.34.4.24.68.64.77,1.1.08.4.01.82-.22,1.16-.3.43-.68.53-1.17.64-.37-.04-.75-.09-1.09-.24-.42-.2-.83-.57-.98-1.02-.11-.34-.07-.68.09-.99.29-.58.87-.77,1.43-.98Z"/>
      <path d="M31.88,128.02c.67-.02,1.2.09,1.78.44.92.55,1.37,1.42,1.62,2.42-.05.26-.1.51-.2.76-.32.86-.92,1.25-1.72,1.63-.45.07-.87.09-1.31-.05-.78-.25-1.4-.76-1.77-1.5-.32-.66-.38-1.42-.11-2.11.32-.82.93-1.24,1.7-1.59Z"/>
      <path class="cls-4" d="M31.96,129.05c.25-.01.5-.02.75.03.57.13,1.14.54,1.44,1.05.21.35.3.77.19,1.17-.14.54-.53.79-.98,1.06-.26.03-.55.07-.81.02-.5-.09-1.03-.48-1.31-.88-.26-.37-.38-.86-.28-1.29.14-.59.51-.85,1-1.15Z"/>
      <path d="M31.13,119.39c.46-.02.85-.01,1.29.14.78.28,1.44.83,1.79,1.59.3.65.32,1.4.05,2.06-.32.78-.92,1.27-1.69,1.59-.49.01-.96.01-1.42-.16-.76-.29-1.38-.86-1.7-1.61-.29-.66-.31-1.44-.03-2.1.34-.8.94-1.19,1.72-1.51Z"/>
      <path class="cls-4" d="M31.21,120.44c.28-.03.6-.05.88.02.58.15,1.11.57,1.38,1.11.2.41.24.87.08,1.29-.21.52-.58.76-1.07.99-.24.01-.51.04-.75-.01-.56-.11-1.11-.56-1.38-1.05-.23-.41-.3-.89-.15-1.34.18-.53.55-.76,1.02-1.02Z"/>
      <path d="M28.38,94.12c.54-.02,1.05.06,1.53.32.65.34,1.14.94,1.34,1.65.21.76.1,1.58-.31,2.26-.44.73-1.03,1.09-1.85,1.27-.42-.02-.78-.06-1.16-.26-.81-.44-1.44-1.14-1.68-2.04-.18-.65-.09-1.35.25-1.93.43-.74,1.07-1.06,1.88-1.26Z"/>
      <path class="cls-4" d="M28.65,95.07c.25.03.53.06.77.15.45.19.82.59,1.01,1.04.21.49.19,1.05-.05,1.53-.27.53-.7.78-1.25.97-.31-.05-.61-.13-.89-.27-.54-.27-.99-.81-1.15-1.39-.12-.43-.08-.89.17-1.27.34-.51.82-.66,1.39-.76Z"/>
      <path d="M34.56,154.04c.41-.03.84-.08,1.23.04.79.24,1.44.83,1.81,1.55.33.64.44,1.4.19,2.09-.31.87-.94,1.28-1.72,1.68-.47.05-.94.1-1.39-.06-.78-.27-1.43-.83-1.78-1.59-.3-.66-.32-1.42-.05-2.09.33-.82.92-1.27,1.7-1.63Z"/>
      <path class="cls-4" d="M34.92,155.04c.28.01.56.03.82.14.58.23,1.07.7,1.29,1.28.14.37.15.78-.02,1.14-.23.47-.6.69-1.07.85-.28.02-.58.06-.86,0-.49-.1-1.01-.47-1.26-.9-.24-.42-.28-.9-.12-1.36.21-.61.68-.87,1.23-1.16Z"/>
      <path d="M27.44,85.6c.62.02,1.26.16,1.79.49.64.41,1.09,1.02,1.25,1.76.14.68.03,1.42-.37,1.99-.49.71-1.16.95-1.97,1.11-.55-.03-1.09-.14-1.58-.4-.63-.34-1.12-.92-1.32-1.62-.2-.7-.09-1.46.29-2.08.45-.74,1.11-1.07,1.92-1.27Z"/>
      <path class="cls-4" d="M27.27,86.62c.36-.02.74-.01,1.08.13.55.24,1.02.75,1.21,1.32.13.38.13.78-.06,1.14-.23.46-.62.65-1.09.8-.31,0-.64-.01-.95-.08-.52-.12-1.02-.49-1.28-.95-.2-.34-.26-.74-.16-1.12.18-.64.68-.97,1.24-1.25Z"/>
      <path d="M35.64,162.56c.4,0,.78,0,1.15.14.84.31,1.51.96,1.85,1.79.27.66.26,1.39-.05,2.04-.38.78-1.02,1.16-1.81,1.46-.55.05-1.1.05-1.61-.17-.74-.32-1.3-.93-1.57-1.69-.24-.69-.21-1.46.13-2.12.42-.81,1.07-1.17,1.91-1.44Z"/>
      <path class="cls-4" d="M35.84,163.59c.28.03.55.07.82.16.54.19,1.01.56,1.25,1.09.16.36.19.76.04,1.12-.23.55-.66.84-1.18,1.08-.34.02-.73.02-1.06-.09-.5-.16-.95-.53-1.16-1.02-.19-.42-.2-.89,0-1.31.27-.59.72-.83,1.31-1.04Z"/>
      <path d="M28.93,102.23c.43-.03.9-.08,1.32.04.84.22,1.57.77,1.97,1.55.34.64.39,1.39.16,2.07-.3.85-.91,1.31-1.69,1.68-.53.08-1.09.09-1.61-.08-.77-.25-1.4-.8-1.74-1.53-.32-.67-.35-1.44-.08-2.14.32-.81.9-1.25,1.67-1.59Z"/>
      <path class="cls-4" d="M29.21,103.18c.37-.02.78,0,1.13.14.56.23,1.05.73,1.25,1.3.14.38.14.79-.04,1.16-.25.5-.66.71-1.17.88-.31,0-.64.02-.94-.06-.55-.15-1.07-.58-1.31-1.09-.18-.38-.22-.82-.07-1.22.21-.56.62-.88,1.15-1.12Z"/>
      <path d="M30.67,110.98c.62.09,1.2.32,1.7.71.64.5,1.12,1.25,1.2,2.06.07.67-.11,1.46-.56,1.98-.39.46-1.22.85-1.81.89-.65-.06-1.04.01-1.64-.32-.72-.39-1.24-1.05-1.43-1.84-.18-.72-.05-1.48.35-2.11.52-.81,1.28-1.19,2.2-1.36Z"/>
      <path class="cls-4" d="M30.17,112.11c.32-.02.66-.02.97.07.58.18,1.12.63,1.4,1.16.21.41.27.87.1,1.31-.19.49-.62.71-1.07.92-.34.06-.68.09-1.02.02-.54-.12-1.04-.47-1.32-.94-.24-.41-.32-.91-.18-1.37.19-.59.57-.89,1.1-1.17Z"/>
      <path d="M33.76,144.87c.49-.02.97.03,1.43.19.77.27,1.45.83,1.8,1.58.31.65.33,1.4.05,2.07-.36.88-1.08,1.37-1.93,1.71-.61.07-1.09.06-1.66-.17-.75-.3-1.35-.91-1.65-1.66-.26-.68-.25-1.43.05-2.09.38-.85,1.06-1.31,1.91-1.62Z"/>
      <path class="cls-4" d="M34.18,145.92c.21.02.43.05.63.1.57.14,1.15.55,1.42,1.08.18.37.19.79.03,1.17-.25.62-.82.89-1.4,1.13-.42.04-.82.03-1.21-.13-.45-.18-.8-.51-.98-.96-.17-.43-.13-.93.08-1.34.31-.61.82-.85,1.44-1.04Z"/>
      <path class="cls-3" d="M84.39,133.05c.37-.06.78-.07,1.16-.1.13,1.19.28,2.38.31,3.58-4.05.12-8.15.65-12.18.98l-23.72,1.96c-2.03.16-4.06.33-6.09.51-1.56.14-3.13.34-4.7.35-.22-.06-.38-.12-.57-.25-.45-.32-.78-.82-.86-1.37-.06-.46.05-.94.34-1.3.28-.34.65-.53,1.07-.61,1.47-.28,3.05-.34,4.54-.48,3.55-.32,7.1-.61,10.65-.88l30.06-2.4Z"/>
      <path class="cls-4" d="M65.19,135.13c.42-.06.88-.04,1.3-.06-.26.39-.44.63-.88.81-.03.01-.07.03-.1.04-.02.19-.03.36-.09.55-.07-.22-.18-.4-.3-.59l-.14.02-.31.51c-.23-.08-.1-.23-.31-.36l-.16.49v-.06s-.11-.17-.11-.17c0-.16-.03-.32-.05-.48l-.18-.09c-.32.2-.25.53-.55.74-.39-.04-.53-.17-.86-.33-.3-.15-.5-.09-.8,0-.02.25-.03.15,0,.39,0,.06.01.12.02.17l-.13.08c-.11-.15-.17-.21-.31-.32l-.16.24h-.13c-.05-.19-.1-.34-.18-.51-.23.02-.25.14-.4.31-.03-.2.02-.23-.15-.37-.27.11-.5.49-.69.73-.37.13-.38-.47-.75-.59l-.08.13.16.61-.22.13.13-.24c-.13-.2-.17-.33-.39-.44-.05.16-.09.31-.15.47-.18-.14-.22-.25-.46-.22l-.18.39h-.12s-.01-.56-.01-.56l-.14-.12c-.61,0-.73.47-1.28.65-.09-.19-.2-.37-.31-.55-.59-.2-.47.35-.89.51l-.2-.24-.13.04-.21.6-.14.04c-.07-.29-.07-.55-.07-.85-.21.13-.25.21-.38.42h.13s-.1.1-.1.1l-.21-.27h-.12s-.08.54-.08.54c-.12-.17-.22-.29-.38-.42-.14.12-.11.37-.13.55-.04-.28-.05-.56-.21-.8l-.11.1c-.03.25-.05.47-.18.69l-.14-.1-.1-.63-.16-.08-.17.13c-.02.27-.01.42-.16.67-.25-.24-.36-.49-.7-.57-.27.21-.21.53-.45.79-.2-.18-.17-.38-.22-.63l-.03.34-.13.1-.11-.1v-.5s-.16.03-.16.03l-.27.52h-.12c-.12-.17-.15-.24-.35-.36-.21.21-.16.65-.28.95h-.13c-.02-.24-.06-.48-.1-.72l-.11-.02c-.1.18-.2.36-.31.54-.1-.17-.05-.54-.06-.75l-.12-.1-.16.04c0,.24,0,.4-.13.61-.27,0-.33-.06-.56-.2,0-.11,0-.04-.07-.19-.21.23-.22.65-.27.95l-.08-.09c-.02-.21-.04-.44-.1-.64-.06-.22-.15-.32-.36-.41-.25.2-.3.55-.39.84-.18-.05-.23-.15-.36-.29l-.13.06-.11.33c-.27-.11-.43-.57-.67-.79l-.17.05-.22.58c-.35.21-.26-.14-.62-.18-.1.23-.1.48-.12.73l-.12.03c0-.32.01-.66-.12-.96l-.19-.05-.24.19c-.07.19-.12.33-.23.5-.05-.03-.22-.16-.27-.18-.35-.12-.2.47-.49.65l-.36-.32v-.17s.37-.25.37-.25v-.17s-.28-.09-.28-.09c-.34.16-.43.45-.7.71-.11-.17-.22-.34-.34-.51-.14.16.05.79,0,1.06-.26-.21-.54-.34-.82-.51.11-.2.13-.24.13-.47h-.17c-.1.2-.22.39-.41.5-.18.1-.37.12-.56.07-.17-.04-.17-.12-.26-.26.02-.29,0-.45.22-.67.23-.24.67-.33.98-.38,2.57-.39,5.28-.48,7.88-.7l17.71-1.38Z"/>
      <path class="cls-4" d="M84.28,133.67s.02,0,.03,0c.31-.02.42-.07.66.14.25.63.17,1.41.2,2.08-5.87.51-11.74,1-17.62,1.45-.21.02-.32.01-.52-.07-.32-.66-.31-1.47-.37-2.19,1.94-.21,3.92-.28,5.87-.44l11.75-.98Z"/>
      <path class="cls-3" d="M88.87,159.05l.14.02c.37.46.49,2.75.57,3.43-5.83.5-11.66,1.04-17.48,1.61l-18.96,1.64c-2.28.19-9.74,1.2-11.28.78-.05-.03-.1-.07-.15-.1-.54-.37-.84-1-.93-1.65-.06-.45.03-.93.33-1.27.43-.5,1.01-.51,1.63-.59,1.65-.22,3.35-.28,5.01-.4,2.74-.19,5.48-.41,8.22-.65l32.9-2.82Z"/>
      <path class="cls-4" d="M70.19,161.24c.18-.03.3-.03.48,0,.01.19.03.27-.12.42-.21.21-.84.5-1.14.52-.24.02-.16-.28-.36-.46-.21.07-.26.08-.43.25.06.15.08.23.11.4l-.28-.13c-.16.06-.37.17-.53.19-.29.03-.53-.28-.74-.45,0,.27,0,.54,0,.82l-.08.02c-.08-.24-.11-.43-.31-.6-.36.05-.54.27-.81.49-.17-.06-.33-.12-.49-.2l-.15-.07c.06.25.09.43.06.69v-.31s-.03.16-.03.16c0-.06-.01-.11-.03-.17-.09-.29-.12-.33-.38-.44-.12.2-.06.38-.04.61l-.09-.07c-.04-.2-.08-.35-.17-.54-.45.24-.77.84-.95,1.3l-.84-1.32c-.3.42-.59.79-.69,1.31,0,.03-.01.07-.02.1l-.1-.06c-.01-.19-.01-.39-.04-.58-.05-.3-.07-.3-.32-.46-.35.1-.44.27-.69.53-.04-.23,0-.32-.2-.46-.33.31-.23.77-.52,1.14-.2-.13.03-.4-.15-.7-.12-.21-.3-.31-.53-.36-.08.14-.17.29-.25.43-.11-.14-.15-.2-.3-.29-.2.26-.35.54-.64.69-.09-.3-.1-.43-.34-.64-.24-.02-.32-.06-.54.05l-.12.62c-.14-.21-.12-.45-.36-.56-.04.27-.08.53-.08.8v.15c-.13-.26-.19-.55-.26-.83l-.14-.07c-.08.17-.06.2-.24.3l-.41-.26-.08.51c-.12-.24-.2-.47-.44-.6l-.13.09c.07.27.18.52.07.79-.21-.06-.13-.4-.31-.58-.13.17-.24.31-.41.44-.08-.23-.15-.44-.31-.63-.15-.18-.06-.13-.3-.15-.14.2-.17.36-.21.59-.04.21-.06.33-.14.53-.06-.33-.12-.61-.24-.93-.15.22-.15.41-.19.67l-.2.08c-.28-.19-.3-.42-.44-.71-.25.32-.34.99-.46,1.38,0-.46.11-1.22-.17-1.59l.11.22c-.17.12-.29.42-.4.6-.07-.11-.11-.24-.15-.36-.27.09-.2.33-.46.46-.1-.2-.1-.28-.3-.39l.08.22c-.1.22-.03.13-.21.28-.14-.22-.29-.44-.44-.66-.35.24.05,1.04-.19,1.34-.02-.58-.1-.9-.52-1.31l-.1.02c-.02.23-.03.39-.1.61-.13-.14-.23-.24-.39-.36l-.14.07c0,.22.03.13-.07.27-.32-.24-.63-.5-1.02-.6l-.16.09-.07.35c-.25.07-.43.05-.68.03-.34.25-.2.52-.45.84l-.09-.12c.03-.14.07-.29.08-.44.03-.3.02-.31-.17-.53h-.21c-.18.19-.34.37-.49.58l-.11.16c-.22-.28-.32-.52-.69-.61l-.07.11c.18.23.32.41.39.71l-.1.13c-.2-.16-.2-.42-.38-.62-.09.27-.15.54-.22.82-.16-.27-.14-.51-.16-.81l-.12-.09-.12.2-.12-.05-.12-.17-.16.04-.07.43-.13-.03-.15-.42-.07-.03c0,.25.09.73-.05.93l-.25-.2c-.12.18-.05.13-.2.2-.04-.27-.05-.55-.23-.76-.24.06-.35.13-.56.26l-.14-.12c-.07-.28-.08-.31.02-.58.26-.25.48-.34.83-.38,1.32-.17,2.7-.19,4.03-.28l7.03-.52c5.56-.43,11.12-1,16.69-1.38Z"/>
      <path class="cls-4" d="M87.05,159.8l1.63-.12c.09.75.15,1.5.2,2.25-1.79.27-3.65.35-5.45.51l-10.42.97c-.54.08-1.11.09-1.66.12-.1-.79-.08-1.59-.09-2.38,5.27-.4,10.53-.85,15.8-1.35Z"/>
      <path class="cls-3" d="M87.44,150.32l.16.03c.36.65.4,2.72.56,3.57l-36.4,3.07c-1.95.16-9.58,1.2-11.04.84-.54-.43-.91-.9-1.01-1.6-.07-.45.01-.9.32-1.25.4-.46.9-.55,1.47-.65,1.85-.32,3.8-.39,5.67-.57,4.87-.47,9.75-.87,14.63-1.21,8.56-.65,17.09-1.55,25.65-2.21Z"/>
      <path class="cls-4" d="M67.13,152.6c.44-.06.91-.04,1.35-.05-.09.1-.19.2-.28.29-.47.47-.69.52-1.35.51h-.16c-.22.22-.19.32-.24.63-.26-.02-.6-.49-.91-.58-.15-.04-.19.03-.3.1-.07.21-.13.4-.26.59-.23-.22-.45-.42-.72-.58-.05.21-.05.13-.02.34,0,.05.02.1.03.15-.12-.08-.22-.17-.33-.26l-.13-.11c-.19.16-.17.36-.22.6l-.12.07c-.23-.24-.46-.46-.71-.67-.28.14-.13.3-.34.51l-.24-.27-.14.11v.43s-.12.01-.12.01c-.1-.22-.19-.38-.36-.57l-.14.05-.05.51-.05.03-.36-.4-.17.04-.08.4c-.26.07-.21-.41-.48-.54,0,.28-.01.54-.1.81l-.12-.05c-.08-.23-.14-.46-.33-.63-.24.01-.36.2-.53.36l-.2-.26-.13.08c-.02.26-.04.52-.08.78-.3-.06-.23-.6-.52-.8l-.48.18-.24-.16.05.22c-.06.01-.14.08-.18.03-.13-.13-.04-.08-.23-.13-.06.22-.12.45-.18.67l-.12-.08-.04-.53-.09-.07c-.08.11-.13.19-.19.32-.02.04-.03.08-.05.12-.18-.21-.28-.37-.54-.47l-.11.11c.04.22.06.4.04.62l-.13-.04c-.08-.21-.11-.39-.28-.54l-.07.43-.24-.1.1.15c-.09-.22-.12-.33-.29-.5-.19.2-.21.51-.26.77-.18-.32-.21-.53-.51-.8-.24-.07-.22-.11-.45.02-.02.21-.03.35-.12.54l-.22-.33-.13.02c-.04.15-.09.28-.15.42-.19-.24-.36-.48-.62-.66-.26.12-.27.37-.37.63-.09-.26-.03-.14-.19-.35l-.15.04-.2.45c-.26-.26-.64-.4-.95-.61-.46.08-.8.52-1.25.71-.38-.13-.15-.45-.48-.61-.32.15-.51.35-.76.61l-.03.17-.43-.53c-.22-.09-.21-.08-.43,0-.09.19-.12.33-.29.47l-.24-.3c-.09.19-.1.34-.29.45-.1-.24-.15-.39-.35-.58-.24.29-.2.47-.22.84-.07-.21-.12-.37-.28-.52-.11.17-.16.25-.32.37-.09-.21-.07-.3-.28-.4-.18.2-.14.39-.15.65l-.09.02c-.08-.28-.16-.49-.31-.74h-.22c-.15.21-.29.44-.42.67l-.07-.4-.1-.04c-.11.25-.12.36-.36.51l-.07-.51-.13-.09c-.16.13-.18.7-.23.95l-.06-.07h.09s-.03.07-.03.07l-.17-.42.04.17c-.12-.26-.21-.46-.43-.66-.12.16-.06.31-.04.51l-.13.06c-.13-.12-.25-.22-.39-.32-.29.29-.5.53-.92.55-.08-.07-.12-.09-.18-.19-.15-.24-.09-.44-.02-.68.37-.34.7-.45,1.19-.54.95-.19,1.98-.21,2.94-.29l4.7-.42,17.73-1.46Z"/>
      <path class="cls-4" d="M86.23,151.04l1.01-.06c.03.79.08,1.58.13,2.37l-17.8,1.52c-.32.04-.64.06-.96.08-.15-.81-.17-1.58-.16-2.4,2.13-.28,4.3-.4,6.45-.58l11.33-.93Z"/>
      <path class="cls-3" d="M85.03,141.37c.5-.07,1.03-.06,1.54-.09.12,1.17.25,2.34.43,3.5l-45.98,4.35c-.43,0-.84,0-1.22-.24-.51-.33-.87-.93-.95-1.52-.08-.56.1-1.08.46-1.51.36-.42.88-.54,1.4-.64,1.34-.24,2.77-.22,4.12-.35l10.46-.9,29.73-2.6Z"/>
      <path class="cls-4" d="M69.31,143.24c.13-.01.25,0,.37.02l.07.19c-.13.37-.38.62-.64.92-.07-.07-.2-.19-.28-.23-.21-.1-.36-.05-.56.01-.08.13-.15.23-.18.38,0,.04,0,.07-.01.11-.21-.23-.6-.37-.9-.44-.22-.05-.28-.08-.47.04.08.2.09.23.06.45-.19-.17-.16-.18-.22-.41l-.17-.06-.18.18c.02.14.04.27.09.41.01.04.03.08.04.12-.2-.14-.39-.25-.6-.35l-.09.08c0,.23,0,.44-.03.66h-.17c-.07-.36.14-.61.02-.98-.25-.05-.4-.06-.65,0-.13.2-.24.37-.43.52l-.21-.22-.12.38-.14.04c-.13-.23-.26-.46-.39-.69h-.18s-.05.39-.05.39h-.28s.19.11.19.11c-.14-.2-.2-.3-.41-.42l-.12.1c.04.25.06.43.03.68-.35-.15-.31-.57-.72-.68-.27.18-.39.39-.54.67l-.07.12c-.02-.29.13-.51-.02-.77l-.18.06-.23.62h-.13c-.13-.19-.17-.27-.38-.39-.21.22-.15.62-.29.91l-.11-.04c0-.38-.01-.79-.27-1.09l-.21.03c-.22.26-.36.57-.52.87l-.13.03c-.06-.26-.12-.5-.2-.75l-.18-.04c-.23.1-.3.22-.43.42-.11.18-.14.24-.32.37-.11-.2-.19-.35-.36-.5-.25.27-.08.51-.17.85-.04.14-.04.1-.19.19-.11-.24.01-.79.03-1.08l-.13-.12-.28.12c0,.15,0,.29.01.44,0,.05.01.11.02.16-.06-.05-.13-.1-.19-.15-.02-.02-.04-.04-.05-.06-.33-.01-.3.44-.62.52,0-.22,0-.42-.03-.63-.03-.19,0-.11-.19-.24l-.13.11c.06.16.09.29.11.46l-.1.05-.3-.38-.13.06-.06.34-.12.07c-.14-.17-.24-.33-.35-.52l-.12.05v.63s-.14-.02-.14-.02c-.1-.15-.12-.42-.16-.6h-.09s-.19.31-.19.31c-.26.11-.22-.13-.49-.17.02.21.04.41.05.62l-.1-.04c-.12-.24-.23-.44-.39-.66l-.14.02c.03.21.05.38.02.59l-.13.03c-.09-.11-.15-.2-.21-.33-.02-.04-.04-.08-.05-.12-.14.14-.09.07-.19.24-.02.04-.05.08-.07.12l-.22-.43c-.06.22-.09.42-.23.61-.23-.3-.49-.61-.87-.71-.06.25-.03.49,0,.74l-.09.04-.4-.5-.14.03-.15.52-.11-.02c-.08-.22-.1-.33-.27-.5-.16.2,0,.35-.23.57l-.37-.33v-.18s-.08.04-.08.04c-.02.24-.03.46-.08.7-.11-.26-.24-.52-.37-.77l-.14.06c.04.21.05.42.06.63l-.3-.18-.16.06-.12.41c-.15-.16-.12-.28-.15-.5-.2-.2-.22-.19-.5-.24-.34.14-.39.23-.61.51l-.14-.24c-.37.03-.49-.24-.81-.2.09.19.16.39.23.59l-.06.06c-.21-.23-.34-.44-.64-.55l-.18.45-.13.04-.12-.22-.13-.03-.18.48c-.08-.22-.17-.44-.25-.67h-.24c-.38.18-.38.39-.54.77h.07c-.56-.09-.37-.44-.78-.73-.33.12-.4.37-.58.67h-.13s-.13-.34-.13-.34h-.11s-.07.23-.07.23l-.1-.07.03.24c-.1-.02-.21-.19-.28-.26l-.12.02c-.03.29-.07.57-.13.85-.26-.14-.43-.73-.64-1.01l-.08.1c.06.55.27,1.06.46,1.57-.33-.24-.65-.5-.96-.75,0-.42-.03-1.06.26-1.39.2-.22.42-.29.7-.33,1.14-.16,2.32-.2,3.46-.3l7.02-.61,18.08-1.62Z"/>
      <path class="cls-4" d="M84.16,141.99c.62-.09,1.3-.08,1.93-.11.11.75.17,1.52.24,2.28-4.73.46-9.47.88-14.21,1.28-.6.08-1.22.09-1.83.13l-.27-2.36c4.7-.21,9.45-.8,14.14-1.22Z"/>
      <path class="cls-3" d="M125.81,86.67c.54.55.85,2.84,1.01,3.65l-67.45,5.27c-5.87.44-11.74.97-17.59,1.56l-6.02.61c-1.35.14-2.72.34-4.08.3-.07-.04-.13-.09-.2-.14-.53-.38-.85-1-.93-1.64-.06-.45.02-.92.32-1.27.41-.49,1.06-.6,1.66-.68,1.91-.25,3.88-.26,5.81-.43l19.79-1.53,67.68-5.71Z"/>
      <path class="cls-4" d="M83.37,91.03c.28-.02.29-.06.5.12.24.66.25,1.41.31,2.11-2.44.28-4.93.4-7.38.6l-14.21,1.14c.07-.6.31-1.41-.08-1.92-.37,0-.62.28-.93.49l-.16-.11c-.26.06-.26.38-.42.59-.02-.25-.04-.49-.08-.74l-.17-.02-.28.38h-.12s-.23-.44-.23-.44l-.09.04-.2.47v-.13s-.06.24-.06.24c-.05-.25.01-.15-.14-.31l-.33.54c-.33-.19-.46-.56-.84-.6-.29.13-.37.16-.56.41l.1.48-.08.04c-.23-.16-.29-.38-.39-.63l-.05-.12c-.13.13-.27.26-.4.39l.06.23c-.13-.25-.26-.48-.42-.72l-.21-.03c-.22.21-.2.44-.26.73l-.3.1.15.03c-.11-.06-.04-.02-.16-.2l-.11-.17c-.06.15-.11.29-.18.43-.23-.15-.34-.41-.49-.64-.24-.13-.24-.14-.51-.09-.25.28-.15.52-.24.87l-.32-.21-.09.41-.13.02c-.17-.35-.31-.8-.6-1.06-.4.17-.43.53-.8.71l-.23-.3-.18-.02-.3.34-.09-.02-.03.15c-.05-.18-.11-.35-.16-.53l-.14-.03c-.12.1-.23.19-.32.32-.16.24-.17.34-.45.46-.27-.11-.4-.3-.57-.52l-.08-.1h-.13c-.11.21-.18.36-.38.48-.13-.12-.25-.23-.39-.34.04.25.07.49.08.74-.18-.08-.31-.12-.44-.28-.03-.03-.05-.07-.07-.1h-.15c-.1.17-.19.3-.33.43-.09-.2-.17-.36-.31-.53-.08.17-.16.34-.25.5-.1-.2-.19-.4-.28-.6l-.22-.07c-.07.27.15.53.27.78l-.06.08c-.16-.26-.27-.58-.55-.71-.21.19-.39.38-.67.47-.18-.23-.27-.32-.55-.42-.37.07-.53.35-.82.58-.19-.05-.26-.12-.38-.26-.04-.06-.09-.11-.13-.17l-.22-.02c-.21.24-.17.49-.2.8-.13-.16-.24-.3-.39-.44-.03-.03-.07-.06-.11-.09-.03.19-.08.36-.14.54-.25.04-.37-.46-.64-.62l-.19.15c-.04.27-.05.43-.22.66-.21-.23-.19-.28-.22-.6-.17.18-.34.37-.5.55h-.12c-.09-.27-.14-.46-.35-.66l-.16.02c-.08.18-.13.28-.28.42-.04.03-.08.07-.11.1l.04.04-.13-.31c-.17.14-.27.27-.41.44-.35-.07-.33-.45-.66-.63l-.19.1c-.09.24-.18.43-.32.65l-.18.03c-.33-.16-.58-.37-.86-.6-.22.16-.18.29-.22.55l.05.1-.15-.19h-.18s-.14.28-.14.28c-.24-.1-.12-.06-.37-.14-.03.17-.06.33-.12.5l-.14-.06c.04-.24.06-.45.06-.69-.2-.17-.2-.14-.46-.12-.17.16-.21.27-.26.49-.05.2-.09.36-.17.55l-.09-.04v-.4s.01.03.01.03l-.23-.16-.16.29-.08.02c-.02-.18-.03-.25-.12-.41l-.21.05c-.03.18-.06.29-.14.46-.13-.13-.24-.18-.26-.37-.03-.3.07-.58.26-.8.25-.28.95-.33,1.31-.37,1.61-.18,3.24-.24,4.86-.38,4.93-.44,9.87-.83,14.81-1.17l27.86-2.26Z"/>
      <path class="cls-4" d="M124.49,87.41l1.22-.11c.15.83.28,1.66.35,2.5l-41.96,3.29c-.42.05-.85.07-1.27.1-.12-.78-.23-1.55-.3-2.34,13.99-1.06,27.98-2.21,41.96-3.44Z"/>
      <path class="cls-3" d="M126.72,95.11c.17-.02.35-.05.52-.07.25-.03.42,0,.62.15.78.65.69,2.53.77,3.47l-81.52,6.74c-4.81.45-9.63.76-14.43,1.26-.27-.03-.53-.12-.76-.26-.46-.27-.77-.75-.86-1.27-.08-.47.04-.94.34-1.31.38-.48.91-.64,1.49-.74.88-.14,1.8-.15,2.68-.23,1.51-.13,3.02-.29,4.53-.43,6.77-.62,13.54-1.06,20.32-1.61l42.5-3.65c7.93-.68,15.9-1.2,23.81-2.06Z"/>
      <path class="cls-4" d="M50.59,103.07l-.11.34-.08-.02-.11-.42-.15-.04c-.12.18-.13.26-.18.47-.34.03-.43.03-.73.23-.02-.04-.04-.08-.07-.12-.09-.17-.19-.32-.29-.48-.44-.05-.91.53-1.35.69-.08-.17-.1-.32-.12-.51-.25-.09-.28-.09-.54-.03-.16.18-.32.37-.47.56-.38-.14-.45-.41-.87-.48l-.16.11-.03.56c-.15-.13-.18-.24-.25-.42-.15.11-.13.2-.19.37-.18-.04-.25-.07-.4-.17-.04.17-.07.34-.12.51-.19-.18-.19-.48-.27-.74-.23.12-.3.39-.38.63-.15-.27-.21-.45-.52-.59-.19-.08-.25-.05-.43.02-.03.2-.04.4-.05.61l-.13.02c-.17-.18-.22-.25-.45-.31l-.24.31-.18-.03c-.02-.15-.03-.31-.04-.46-.2.09-.18.02-.24.21-.08.23-.07.43-.07.67-.16-.31-.01-.67-.26-.89l-.17.07v.14c-.02.14-.04.27-.06.41-.18-.07-.25-.14-.4-.27l-.14.06c-.06.24-.1.45-.25.66l-.03-.13c-.08-.3-.11-.53-.37-.73h-.27c-.27.31.05.58-.25.8-.04-.18-.08-.36-.12-.54h-.19c-.11.19-.23.37-.36.54-.14-.26-.32-.69-.6-.79-.2.12-.31.23-.37.47-.04.16-.03.36-.03.52l-.14.04c-.15-.21.1-.37-.15-.43l-.27.25c-.33-.21-.08-.5-.5-.52.01.23,0,.12.03.35l-.2-.2.12-.17c-.78.38-.26.94-1.31.7-.17-.18-.21-.27-.19-.54.02-.28.16-.47.39-.62.28-.19.66-.24.99-.27,1.59-.17,3.22-.22,4.81-.37,7.29-.68,14.6-1.27,21.91-1.77,3.09-.21,6.19-.69,9.28-.81.08.75.17,1.5.24,2.25-2.28.18-4.58.3-6.84.61,0-.67.07-1.41-.1-2.05h-.1c-.12.19-.25.39-.39.57l-.32-.28c-.23.08-.12.03-.32.14l-.23-.24-.08.06c.11.26.17.31.1.58h-.09c-.11-.14-.2-.32-.36-.38l-.08.19-.07.16c-.19-.04-.2-.14-.3-.3-.07.17-.14.33-.2.5-.19-.27-.12-.51-.42-.66l-.17.08-.16.46c-.31-.09-.21-.37-.55-.36-.12.18-.19.33-.26.53l-.11-.02c-.03-.06-.05-.11-.08-.16-.1-.18-.14-.23-.3-.33-.03.03-.06.06-.09.08-.15.12-.09.08-.28.18-.13-.12-.1-.15-.14-.32-.32.16-.46.76-.77.78l-.05-.38-.14-.05-.27.36h-.15c-.04-.22-.02-.31.03-.52l-.19-.09-.18.07c-.06.21-.08.39-.08.6-.47-.18-.93-.35-1.39-.56-.17.16-.23.31-.31.52-.58,0-.24-.37-1.04.33-.26-.22-.47-.49-.82-.52-.17.25-.16.42-.19.71l-.11-.07c-.47-.29-.76-.46-1.31-.34-.19.14-.33.27-.47.46l-.07-.05-.17.18-.14.15c-.02-.06-.03-.12-.05-.19-.06-.25-.09-.35-.28-.54h-.16c-.18.23-.18.3-.23.58-.11-.08-.05-.03-.16-.2l-.1-.15-.15.07-.11.35h-.15c-.18-.21-.26-.35-.54-.45l-.18.18Z"/>
      <path class="cls-4" d="M127.06,95.71c.14-.01.29,0,.43,0,.49.45.5,1.67.58,2.32l-25.26,2.21c-3.94.35-7.87.67-11.81.95-2.42.18-4.88.43-7.31.42-.01-.57.01-1.16-.12-1.73l-.22-.05c-.25.14-.29.33-.41.58-.03-.25-.01-.47-.17-.67-.07.15-.15.29-.23.43-.05-.19-.07-.25-.19-.42l-.14.07v.4s-.37-.29-.37-.29l-.14.02c0,.15-.01.25-.06.4-.01.04-.02.08-.04.11l.05.08c-.13-.22-.18-.37-.41-.49l-.12.6-.17.11-.11-.08c-.03-.24-.06-.48-.08-.72l-.13.05-.07.33-.11.05-.1-.31-.15.05-.05.35-.13.03-.24-.34h-.12s-.18.57-.18.57l-.06-.02c-.1-.26-.27-.38-.48-.55-.33-.04-.82.53-1.16.71l-.15-.06c-.04-.26-.05-.4-.23-.59-.16.29.17.77.01,1l.02-.2-.06.07c-.03-.11-.04-.16-.09-.27-.14-.24-.33-.33-.58-.42-.32.17-.32.41-.58.57-.34-.39-.49-.41-.98-.56-.11.27-.23.47-.4.7l-.11-.04c-.02-.13-.03-.23-.09-.35-.01-.03-.03-.06-.05-.09.01-.01.02-.02.04-.03-.12.25-.19.37-.43.51l-.04-.19.11.25.09-.08-.21-.22c-.02-.13,0-.06-.11-.18l-.26.1c-.12-.04-.22-.08-.34-.1l-.05.51-.12.02c-.1-.16-.18-.3-.32-.44l-.12.08.06.54-.17-.16c0-.2-.01-.36-.1-.54l-.17.02c-.04.15-.08.3-.12.45l-.03.12-.29-.35c-.03.12-.04.22-.11.31-.22-.11-.44-.22-.66-.34l-.17.06c-.12.35.02.69-.02,1.06-.21-.27-.44-.54-.61-.84-.14-.24-.17-.36-.1-.62.27-.2.67-.21,1-.24,3.29-.34,6.6-.52,9.89-.79,5.94-.54,11.89-1.03,17.85-1.48,9.36-.76,18.72-1.7,28.09-2.36Z"/>
      <path class="cls-3" d="M123.62,78.34c.3-.06.67-.04.98-.05.14,1.25.29,2.49.48,3.73-1.52.23-3.07.3-4.6.42l-8.18.62-20.44,1.62c-15.82,1.15-31.61,2.54-47.39,4.16-4.34.43-8.71.72-13.04,1.21-.3-.09-.55-.17-.8-.36-.52-.37-.78-.92-.85-1.54-.04-.39.06-.8.33-1.1.4-.45,1.04-.61,1.61-.71,1.05-.17,2.15-.2,3.21-.28l4.42-.39c4.61-.39,9.21-.81,13.81-1.27,23.47-2.2,46.95-4.23,70.45-6.09Z"/>
      <path class="cls-4" d="M122.99,78.97c.35-.07.77-.06,1.13-.09.13.88.24,1.75.31,2.63-9.87.61-19.72,1.6-29.58,2.39-9.54.77-19.11,1.34-28.63,2.22v-2.22c-.22.23-.43.51-.73.62-.32.12-.6.29-.9.46-.16-.2-.11-.12-.22-.34-.02-.05-.05-.1-.07-.15l-.12.03-.17.62-.09-.06c.03-.22.07-.39-.02-.6l-.18.03-.19.44c-.28.22-.38-.35-.79-.4-.28.18-.29.45-.39.77l-.09-.09c.04-.25.05-.46.04-.71l-.16-.06-.14.13c0,.22,0,.41-.08.62-.17-.09-.34-.18-.52-.26-.25.17-.34.44-.48.7l-.08-.09c.08-.29.15-.58.21-.88l-.17-.06c-.34.18-.36.63-.62.91l-.06-.1.04-.12c.08-.24.19-.4.07-.64-.35.15-.61.53-.86.81-.15.02-.57-.67-.84-.77-.38.18-.53.57-.74.92-.27-.04-.19-.53-.47-.7l-.15.21c.05.28.07.46.02.74l-.14.06c-.07-.24-.1-.37-.24-.58-.09.17-.14.24-.29.38-.1-.23-.14-.44-.35-.57-.02.24-.07.42-.15.64-.04-.16-.13-.29-.21-.44-.27.13-.16.41-.39.56-.13-.2-.22-.36-.42-.5-.2.14-.03.29-.15.52-.05-.05-.15-.13-.19-.18-.19-.29.08-.23.12-.47l-.24-.02c-.23.15-.27.33-.37.57l-.04.1h-.14c-.19-.19-.36-.44-.64-.48-.22.19-.41.38-.61.58-.13-.13-.16-.17-.34-.21l-.06.57c-.1-.26-.18-.53-.27-.79l-.12-.02c-.11.18-.15.25-.34.35l-.28-.25-.17.09c-.08.29-.13.54-.33.77h-.18c-.09-.25-.16-.54-.36-.72-.11-.1-.22-.06-.36-.06-.25.17-.37.36-.52.61-.09.15-.02.08-.2.18-.11-.22-.21-.44-.3-.67-.37.05-.27.26-.58.43l-.25-.33c-.38.06-.41.67-.79.8-.12-.22-.24-.47-.43-.64-.12-.1-.17-.05-.31-.02-.19.23-.25.44-.32.72l-.03.12h-.19c-.19-.1-.25-.16-.38-.33-.11-.16-.17-.24-.33-.35-.09,0-.16,0-.25.02-.28.09-.4.31-.53.54-.02.03-.03.06-.05.09-.32-.03-.26-.4-.58-.47-.04.23-.08.45-.13.68-.24-.07-.3-.27-.43-.47-.11.11-.07.05-.14.22-.02.04-.04.09-.06.13l-.19-.07-.07-.39-.08.02c-.1.19-.12.42-.31.51-.13-.17-.23-.31-.38-.47-.04.05-.11.18-.17.23-.23.23-.52.34-.83.34-.15-.29,0-.47-.12-.74l-.16.08-.1.42c-.22.18-.28.11-.55.08l-.07-.23-.09-.04-.24.49-.14.02c-.12-.17-.24-.33-.38-.48-.36.14-.22.58-.58.72l-.06-.49h-.13s-.37.53-.37.53h-.11c-.05-.26-.06-.45-.24-.65-.22-.02-.21-.05-.41.09.09.15.19.26.21.44.02.15,0,.11-.12.26-.1-.09-.17-.17-.25-.28-.02-.03-.04-.06-.06-.09-.48.41-.31-.04-.8-.05-.1.19-.19.34-.32.51h-.13c-.02-.3,0-.49-.15-.75-.22.1-.22.38-.4.57l-.28-.36-.15.02-.12.36h-.14s-.23-.28-.23-.28c0,.26.05.45-.09.67l-.12-.13c0-.24,0-.45-.06-.68-.13.15-.26.3-.4.44l-.22-.24c-.08.21-.06.12-.09.33,0,.05-.01.1-.02.15-.15-.14-.3-.26-.47-.38-.33.18-.29.59-.6.79-.04-.08-.1-.19-.14-.26-.45-.7-.85.15-1.43,0-.04-.09-.11-.24-.12-.34-.03-.16-.02-.32.09-.43.3-.31.84-.4,1.25-.45,2.04-.27,4.15-.36,6.2-.52,3.18-.24,6.37-.54,9.54-.88,8.31-.87,16.61-1.54,24.93-2.25l50.2-4.24Z"/>
      <path class="cls-3" d="M128.97,103.31c.2-.04.28-.04.47.05.55.93.56,2.45.68,3.51-6.47.83-13.02,1.15-19.52,1.76l-52.58,4.54-17.54,1.57c-1.89.15-4.51.67-6.31.43-.22-.11-.45-.21-.65-.35-.44-.31-.74-.92-.81-1.44-.05-.38.04-.76.29-1.06.42-.5,1.1-.63,1.72-.72,2.9-.44,5.93-.54,8.85-.82,7.57-.74,15.14-1.39,22.72-1.95l31.93-2.76c10.26-.85,20.51-1.77,30.75-2.76Z"/>
      <path class="cls-4" d="M52.53,111.69l-.02.17.04-.17c-.06.11-.12.18-.13.31l-.19-.37h-.14s-.15.39-.15.39h-.13s-.26-.34-.26-.34h-.12s-.26.51-.26.51l-.06-.06c.07-.24.11-.4.26-.6l-.08-.13c-.28.2-.44.42-.66.67l-.21-.39-.2-.05c-.25.16-.35.39-.5.64-.1-.24.03-.44-.11-.68l-.21.03c-.11.22-.09.4-.09.64l-.09.05c-.13-.14-.23-.31-.42-.34l-.18.34-.1-.1.04-.43-.15-.07c-.11.14-.12.23-.15.4-.04.27,0,.15-.13.38-.14-.35-.03-.04-.11-.33-.05-.19-.14-.28-.26-.42-.01.05-.02.1-.03.15-.04.16-.08.27-.15.41-.25,0-.31-.05-.53-.17-.16.19-.18.29-.24.53-.1-.06-.17-.25-.19-.36-.03-.12-.04-.24-.06-.37l-.06.02c-.07.33-.13.65-.15,1-.05-.31-.07-.95-.27-1.16-.24.24-.12.76-.35.85l-.31-.38-.1.04v.48c-.26-.13-.37-.42-.52-.67l-.19-.1c-.26.12-.31.09-.43.36.04.27.1.33-.02.6-.11-.14-.19-.25-.28-.4-.3.12-.16.43-.46.48-.14-.34-.16-.62-.49-.81-.13.01-.25-.01-.33.1-.13.19-.14.43-.17.65l-.28-.34-.14.1c0,.2.03.38-.11.53l-.06-.11c-.16-.31-.29-.5-.56-.72l-.25-.07c-.2.16-.23.34-.31.58-.22.03-.1.03-.35-.02-.05.15-.09.31-.13.46l-.12-.03c-.02-.41,0-.56-.23-.9l-.2-.06c-.14.16-.15.26-.17.47l-.21-.15c-.13.19-.16.35-.2.57-.27-.11-.34-.26-.51-.48-.05.25-.09.5-.12.76l-.06-.13c-.12-.25-.19-.5-.44-.65-.23.03-.14-.02-.26.1-.25.25-.44.36-.77.49-.27-.02-.26-.02-.44-.22-.06-.29-.1-.44.01-.72.36-.31.73-.38,1.2-.45,1.71-.23,3.5-.29,5.22-.45l13.44-1.19c1.18-.1,6.14-.73,6.95-.59.06,0,.11.04.17.05-.02.26-.13.4-.32.58-.24.23-.57.35-.87.46l-.14-.06.03-.28c-.33.05-.43.46-.68.24-.04-.04-.17-.2-.21-.25l-.22-.02c-.26.23-.35.58-.48.89l-.11-.06-.2-.66c-.15.13-.17.73-.2.95l-.04-.13c-.1-.28-.17-.51-.39-.72-.25-.07-.26-.09-.49.02-.08.34.03.61.04.94l-.35-.74c-.22.03-.3.39-.51.54-.08-.28-.12-.5-.34-.7l-.31.02c-.22.24-.22.41-.28.73h-.11c-.08-.22-.15-.41-.3-.61l-.08.08c0,.24,0,.43-.06.67-.27-.28-.48-.62-.7-.94l-.56,1.13c-.13-.25-.25-.5-.36-.76h-.13s-.2.33-.2.33c-.16.07-.22-.19-.46-.29-.19.16-.3.32-.42.53l-.05.08-.14-.02c-.03-.14-.05-.28-.06-.42v-.13s-.16.01-.16.01c-.06.15-.12.3-.16.45-.01.04-.03.09-.04.13-.31-.24-.55-.54-.94-.62-.08.18-.01.26.04.44Z"/>
      <path class="cls-4" d="M128.95,103.93l.12.07c.27.71.29,1.57.34,2.32-4.61.64-9.33.87-13.97,1.26-4.95.41-9.89.97-14.85,1.31-.3-.67-.33-1.69-.42-2.43l28.78-2.52Z"/>
      <path class="cls-4" d="M98.4,106.64l.29-.02c.44.49.37,1.76.41,2.43-3.96.14-7.96.65-11.9,1l-13.15,1.09c-4.16.37-8.3.81-12.47,1.1-.15.02-.22,0-.36-.03-.42-.55-.3-1.75-.31-2.44,5.48-.4,10.96-.86,16.43-1.37l21.07-1.77Z"/>
      <path class="cls-3" d="M130.96,112.04h.17c.38.66.47,2.81.58,3.67-1.8.36-3.74.4-5.57.54l-9.8.79-39.54,3.07-32.6,2.8c-1.79.15-3.58.32-5.37.51-1.4.15-2.98.46-4.37.29-.05-.03-.09-.06-.14-.09-.51-.37-.78-.91-.86-1.53-.07-.54.05-1.07.4-1.5.28-.34.53-.49.97-.56,3.33-.47,6.79-.56,10.15-.81l16.38-1.32,42.97-3.64,17.22-1.46c3.13-.26,6.28-.43,9.41-.77Z"/>
      <path class="cls-4" d="M56.09,119.13l.95-.09c.24.11.24.09.34.33l-.06.15c-.48.02-.85.02-1.27.28-.04.02-.07.05-.11.07-.23-.12-.42-.29-.61-.46l-.14.03c-.03.21-.06.41-.12.62-.17-.04-.11-.02-.25-.07-.03-.01-.06-.02-.1-.04-.11.17-.21.3-.35.44-.06-.15-.12-.26-.22-.39-.12-.18-.05-.13-.25-.17-.12.3.05.63.07.94l-.09-.03c-.1-.3-.18-.6-.26-.9-.12.03-.24.31-.32.42l-.22-.17c-.28.03-.17.19-.4.33-.18-.24-.34-.42-.58-.6l-.11.08c0,.06,0,.13-.02.19-.08.22-.35.27-.55.36-.3-.04-.35-.04-.58-.23l.04.08-.18-.35-.17-.05c-.24.25-.2.56-.25.9-.09-.19-.12-.35-.29-.47-.16.19-.14.24-.39.3-.24-.2-.47-.4-.71-.6l-.51.63c-.35-.17-.69-.34-1.07-.46l-.06.12c.16.15.3.27.41.46l-.19.08c-.13-.16-.18-.24-.36-.34l-.17.33-.35-.22c-.19.22-.12.55-.12.84l-.09.05c-.16-.23-.13-.56-.11-.84l.02-.19c-.22.12-.46.36-.68.44-.65.23-.52-.42-1-.55-.28.17-.46.58-.62.86l-.39-.26c-.18.1-.16.32-.3.5,0-.29,0-.52-.1-.8l-.23-.06-.16.1v.36s-.17.05-.17.05l-.36-.3-.17.05c-.05.16-.08.31-.11.48l-.02.19h-.11c-.13-.2-.26-.38-.4-.56-.13-.17-.08-.18-.31-.21-.16.28-.36.54-.56.8l-.16-.02c-.14-.22-.28-.45-.42-.67l-.07.02c-.02.26.08.5.15.75-.13-.28-.19-.5-.44-.69-.2.27-.42.5-.66.73-.23-.09-.04-.37-.21-.58-.12.21-.18.42-.25.65-.02-.23-.05-.42-.12-.64-.28.11-.37.4-.58.61-.13.13-.15.09-.32.09-.29-.18-.48-.3-.65-.61.01-.14-.01-.15.07-.25.26-.31.93-.43,1.31-.49,1.92-.3,3.96-.34,5.9-.49l11.94-.89Z"/>
      <path class="cls-4" d="M86.39,116.62l.22.03.07.23c-.09.25-.11.35-.31.52l-.49-.25-.08.1c.04.25.07.34-.01.58l-.15-.34-.14-.05c-.07.2-.06.28-.23.41-.21-.24-.41-.5-.7-.63l-.18.21-.28-.05c0,.36.16.62.02.96h-.16c.05-.18.07-.27.06-.45-.15.03-.25.04-.4.02-.05,0-.09-.01-.14-.02-.03.2-.04.26-.14.43l-.12-.12c-.04-.43.04-.54.21-.92l-.25.05c-.12.21-.08.13-.17.34-.02.05-.03.09-.05.14-.14-.12-.24-.15-.41-.22-.23.23-.14.54-.23.86-.24-.14-.37-.29-.55-.5.04-.2.07-.37.06-.57-.26.25-.48.51-.83.62-.11-.15-.23-.3-.34-.45l-.08.08c.18.45.27.92.37,1.39-.2-.32-.47-1.02-.78-1.19-.14.25-.17.45-.46.54-.04-.09-.1-.21-.16-.29-.22-.33-.36-.3-.73-.38.22.23.31.32.31.64l-.26-.05-.09.23c-.4-.16-.77-.42-1.15-.63l-.14.09-.05.6-.1-.03c-.09-.2-.19-.38-.31-.55l-.09.11c.01.25.03.43-.04.67-.05-.07-.14-.21-.2-.27-.18-.16-.3-.12-.51-.09-.11.21-.21.4-.36.58-.11-.23-.04-.61-.03-.88l-.13-.09c-.33.18-.05.47-.26.76-.22-.23.01-.43-.16-.71-.28.14-.27.67-.47.95l-.22-.43-.13-.02c-.09.21-.14.36-.3.53-.08-.26,0-.49-.07-.76-.18.16-.22.45-.29.68h-.06c-.04-.29,0-.63-.22-.85l-.13.11-.04.64c-.24.07-.19-.18-.45-.23-.11.22-.19.42-.38.58-.17-.18-.02-.63-.03-.9l-.14-.02-.03.23c-.14-.04-.24-.07-.39-.08v.46s-.07,0-.07,0l.09.18c-.12-.16-.24-.29-.4-.42-.04.17-.09.33-.14.49-.31-.2-.46-.63-.64-.95-.13.32-.22.64-.48.88h-.17s-.19-.29-.19-.29c-.13.21-.23.48-.46.58-.09-.29.02-.51.11-.78l.05-.13-.11-.04c-.2.11-.25.21-.34.41-.08.18-.15.32-.27.48l-.14-.04-.04-.61-.1-.05-.23.5c-.09-.19-.16-.35-.31-.49-.03-.02-.06-.04-.09-.06-.03.19-.02.11-.01.29.01.24.06.43-.08.64h-.18s-.25-.45-.25-.45c-.13.11-.08.05-.18.2-.02.04-.05.07-.07.11-.13-.22-.3-.59-.55-.67-.26.14-.34.38-.46.64-.09.18-.02.1-.2.22l-.27-.24-.13.07-.19.69-.14.05c-.01-.32.09-.94-.09-1.16-.25.22,0,.48-.17.79-.2-.11-.07-.36-.26-.58l-.17.06c-.11.24-.1.49-.12.75-.24-.16-.38-.66-.5-.93-.14.18-.05.76-.04,1.01-.2-.29-.33-.59-.46-.92-.28.32-.57.62-.88.92-.12-.32-.07-.58-.36-.8-.08,0-.19.02-.26.05-.27.12-.3.35-.4.6h-.05s0,.17,0,.17l-.25-.37h-.11c-.03.26-.09.49-.16.73-.09-.3-.12-.52-.11-.84v-.1s-.11-.13-.11-.13l-.25.06c-.11.2-.22.39-.35.58l-.28-.16-.16.1-.1.55-.12.06c-.02-.32-.05-.63-.09-.95l-.16-.06c-.34.11-.67.28-.88.59-.14.21-.12.24-.08.47l-.11.04c-.25-.38-.11-1.26-.09-1.73,9.41-.87,18.82-1.66,28.24-2.37Z"/>
      <path class="cls-4" d="M129.8,112.77c.27-.03.48-.06.75,0,.5.45.41,1.75.5,2.41-15.09,1.08-30.17,2.54-45.26,3.77-.28.03-.73.12-.95-.07-.49-.44-.43-1.65-.49-2.27,7.14-.78,14.34-1.3,21.5-1.87l23.95-1.96Z"/>
      <path class="cls-3" d="M132.03,120.57c.2-.03.29-.02.48,0,.39.52.55,2.93.67,3.64-2.34.13-4.69.41-7.02.63-4.28.4-8.57.77-12.86,1.12l-56.93,4.76-15.04,1.18c-1.19.1-4.77.6-5.63.45-.2-.1-.41-.2-.58-.35-.48-.39-.83-1.02-.89-1.64-.03-.39.07-.8.33-1.1.42-.48.97-.6,1.58-.68,3.31-.44,6.74-.46,10.07-.75,9.04-.85,18.08-1.61,27.14-2.29l58.67-4.97Z"/>
      <path class="cls-4" d="M44.55,128.87c.29.41.83.99.87,1.49-.26-.15-.43-.46-.52-.75-.02-.06-.03-.12-.05-.17l-.17-.07-.14.11v.47c-.16-.04-.1-.01-.24-.09-.03-.02-.07-.04-.1-.06l-.15.09-.04.48-.14.12-.13-.12c.06-.26.07-.45.06-.71l-.16-.13-.22.04.05.35c-.08-.07-.03-.02-.13-.17l-.08-.13c-.3.02-.35.15-.56.36-.11-.09-.21-.18-.31-.28l-.1-.1c.02.21.04.37,0,.58-.15-.21-.31-.41-.46-.62-.32.09-.6.59-.82.85l.09-.02h-.26c-.08-.1-.05-.05-.1-.18-.09-.22-.14-.39-.35-.53l-.16.05-.17.48c-.06-.12-.07-.19-.18-.27-.08.2-.08.3-.27.42-.16-.22-.31-.43-.49-.64l-.12.09c-.04.29-.04.47-.23.71-.1,0-.2,0-.3-.04-.27-.11-.4-.32-.53-.56,0-.15-.03-.27.07-.39.15-.17.33-.24.55-.28.79-.16,1.67-.17,2.48-.24l4.53-.37,15.49-1.33,17.58-1.41c3.49-.3,7.03-.75,10.53-.83.15.85.33,1.69.51,2.53l-11.54.98c-2,.16-4.06.44-6.07.45-.2-.75-.34-1.52-.5-2.29-.1.21-.21.41-.32.61-.22.08-.4.17-.6.29l-.09.44-.09-.03-.22-.66h-.08s-.12.63-.12.63l-.04-.02-.05-.71-.17-.07.11-.11c-.22.28-.3.53-.37.87l-.02.1c-.14-.28-.19-.51-.45-.68-.06.04-.11.08-.17.12-.05.04-.1.07-.15.11l-.33-.41h-.14c-.07.31-.16.59-.25.88l-.14.07c-.04-.29-.02-.4-.21-.63h-.25c-.19.13-.28.19-.39.39-.07.13-.13.24-.21.37-.2-.29-.3-.66-.64-.81-.3.12-.28.61-.44.91h-.17c-.14-.27-.28-.52-.47-.76h-.24c-.27.22-.34.44-.46.74l-.05.12c-.04-.26-.08-.5-.14-.76-.24.16-.08.36-.32.54l-.49-.39-.05.59h-.28s.18.1.18.1c0-.11,0-.15-.04-.27-.07-.21-.19-.5-.39-.59-.2.28.07.53-.05.87-.08-.14-.15-.24-.26-.37-.29.01-.38,0-.62.15l-.03.34c-.2-.21-.1-.61-.34-.89l-.21.04-.11.17.17.3-.06.18c-.25-.13-.91-.51-1.18-.46.04.25.15.54.04.77-.22-.19-.24-.48-.32-.75-.22.12-.05.3-.3.47-.06-.19-.08-.25-.22-.41l-.21.05c-.02.14-.04.24-.08.38l-.35-.09c-.03.25,0,.34-.17.53-.16-.3.1-.54-.1-.85l-.28-.04c-.38.16-.64.49-.92.79-.12-.27-.17-.46-.41-.65-.15.13-.28.24-.45.35v-.25s-.15-.01-.15-.01c-.23.17-.39.34-.57.56l-.06.08c-.12-.22-.22-.4-.4-.56-.06.22-.08.31-.22.48l-.2-.39c-.33.07-.16.3-.47.45-.13-.16-.26-.32-.39-.48-.64.04-.45.58-.83.9-.01-.02-.03-.03-.04-.05-.11-.18-.23-.32-.37-.48-.19-.18-.19-.22-.45-.22-.21.25-.28.49-.37.79-.37-.2-.35-.59-.72-.77-.2.12-.31.21-.45.4-.06.17-.13.33-.2.49-.18-.07-.12-.03-.25-.16-.2-.21-.33-.37-.6-.49-.36.08-.26.44-.58.63-.1-.17-.19-.31-.33-.46l-.12.09c.03.27.07.54.12.82l-.09.07c-.15-.31-.29-.72-.57-.92l-.17.08-.07.39-.12.08-.44-.22-.06.14-.03-.19h-.08c-.11.1-.22.21-.33.33l-.09.1c-.04-.19-.08-.39-.13-.58l-.2-.07c-.33.14-.34.26-.51.57l-.19.03c-.45-.21-.76-.56-1.1-.9Z"/>
      <path class="cls-4" d="M131.42,121.19l.51-.03c.3.27.37.58.4.98.04.48.11.95.17,1.43-8.99.92-18,1.74-27.01,2.47-5.59.51-11.17.98-16.76,1.42l-.45.02c-.6-.45-.61-1.82-.73-2.54,6.24-.36,12.5-1.09,18.73-1.63,8.38-.66,16.76-1.37,25.14-2.13Z"/>
      <path d="M22.14,50.86c1.56-.23,3.21-.26,4.78-.37l8.16-.64,31.38-2.31c10.18-.67,20.36-1.39,30.54-2.18,7.19-.56,14.4-1.23,21.59-1.6.5,2.58.61,5.3.92,7.91.84,6.91,1.58,13.84,2.51,20.73-5.38.21-10.72.79-16.07,1.31-1.09.11-3.65.16-4.57.52.87.25,17.15-1.02,19.27-1.2.6-.05,1.19-.23,1.78-.26.17.18.26.29.32.53-1.22.3-2.76.09-4.03.18l-12.24.84c-1.72.08-4.02-.01-5.67.28-1.13.01-3.92-.25-4.72.5-.02.02-.04.05-.07.08.96.27,4.77-.12,5.95-.25,1.5.03,3.08-.16,4.59-.25l15.14-.97c.47-.03,1.33-.37,1.73-.31.07.01.13.08.19.12.07.26.07.29-.02.56-.07.05-.13.12-.21.14-.77.21-3.45.25-4.45.32-3.68.22-7.35.47-11.03.75l-52.89,3.99c-6.05.51-12.08,1.15-18.12,1.75-3.72.37-7.49.8-11.22.99-.49-3.11-.74-6.3-1.1-9.43l-2.47-21.76Z"/>
      <path class="cls-4" d="M62.04,58.66c.41-.02.79-.05,1.13.21.16.12.13.15.15.33-.16.3-.38.41-.65.58-.27,0-.57-.02-.83-.12-.24-.1-.31-.18-.4-.42.1-.3.34-.42.6-.59Z"/>
      <path class="cls-5" d="M52.23,77.07c1.15-.46,1.74-1.49,2.26-2.55l.13.22c.12.18.24.26.2.48-.13.7-.98,1.38-1.57,1.72-.26.15-.46.2-.76.15-.05,0-.1-.01-.15-.02h-.11Z"/>
      <path class="cls-4" d="M60.04,60.53c.24-.02.32.02.54.1l.07.19c-.19.46-.64.9-1.04,1.18-.42-.35-.71-.68-1.03-1.12l1.46-.34Z"/>
      <path class="cls-1" d="M45.49,78.13c.27.02.45.24.63.43-.39.32-5.52.26-6.4.23-.07,0-.13-.03-.19-.05.71-.17,1.49-.12,2.22-.16,1.24-.07,2.53-.17,3.74-.44Z"/>
      <path class="cls-4" d="M87.1,71.29c.56.46.92,1.29,1.41,1.85,1.65,1.86,3.2,1.68,5.27,2.45l.16.06c-1.13.12-2.45-.06-3.49-.51-1.56-.67-2.72-2.32-3.35-3.85Z"/>
      <path class="cls-4" d="M41.91,74.51l.08-.04.09.06c-.36.26-.8.57-1.23.69-.9.25-3.59-.1-4.61-.23-.26-.1-.41-.17-.62-.36.14-.14.19-.07.37-.05,1.97.22,3.95.08,5.93-.06Z"/>
      <path class="cls-4" d="M85.03,75.22c.06-.01.11-.02.17-.02.47-.05,1.5-.09,1.86.21-.14.1-.2.11-.37.12-1.54.16-3.12.15-4.67.28-5.2.43-10.4.9-15.59,1.4-2.25.2-4.56.27-6.79.62-.69.05-1.39.14-2.09.1,1.31-.39,5.06-.57,6.63-.73l20.86-1.98Z"/>
      <path class="cls-4" d="M83.96,72.1c.53-.03.85-.08,1.29.26l-.04.13c-1.05.37-6.7.52-8.13.62-6.27.41-12.53.92-18.79,1.51l-1.45.12c.32-.26.67-.61,1.07-.72,1.66-.44,3.65-.44,5.36-.61,6.87-.69,13.8-1.02,20.7-1.33Z"/>
      <path class="cls-4" d="M87.26,53.31c2.69,0,5.73.67,8.28,1.51.47.15,1.4.39,1.63.84-.26.23-.59.21-.92.24-.86.21-1.86.25-2.74.35-1.77.21-3.55.4-5.33.57l-.92-3.51Z"/>
      <path class="cls-4" d="M84.72,66.8l.13.03c.04.47-.32.99-.43,1.45-.17.71-.04,1.49.08,2.2l-6.65.33c-.35-.94-.39-1.98-.48-2.98,2.44-.36,4.9-.71,7.34-1.03Z"/>
      <path class="cls-4" d="M90.33,61.28c1.66-.14,3.31.41,4.76,1.21,2.92,1.61,3.06,3.41,3.9,6.37,2.02-.12,5.42-.68,7.32-1.28,1.3-.41,1.71-1,2.33-2.14-.17.83-.4,1.45-1.06,2.03-1.6,1.39-6.92,1.78-9.04,1.68-.11-.79-.25-1.56-.43-2.34-.15-.43-.29-.89-.51-1.29-.76-1.39-2.3-2.36-3.79-2.81-2.27-.69-5.35-.51-7.45.65-1.56.86-3.06,2.59-3.42,4.38-.17.83-.18,1.68-.43,2.5l-.12.06c-.19-.36-.26-.78-.3-1.19-.16-1.75.8-3.63,1.89-4.95,1.61-1.95,3.93-2.62,6.35-2.87Z"/>
      <path class="cls-4" d="M57.42,78.38c8.68-.66,17.37-1.55,26.07-1.96,2.12-.1,4.22-.54,6.34-.35-5.61,1.01-12.03,1.14-17.75,1.54l-9.77.74c-1.7.13-3.43.33-5.13.38-1.64.19-3.31.27-4.96.39l-12.24.9-7.44.63c-.68.06-2.21.35-2.8.24-.09-.02-.15-.09-.23-.14-.09-.25-.1-.27-.02-.52,1.6-.96,15.66-1.03,18.52-1.18,3.14-.17,6.27-.49,9.41-.67Z"/>
      <path class="cls-4" d="M81.22,53.18c1.55-.02,3.12-.01,4.66.15.19,1.22.58,2.38.88,3.58-1.12.24-2.28.34-3.41.47-1.69.12-3.4.36-5.09.54.21-1.59.82-3.12.95-4.73l2.01-.02Z"/>
      <path class="cls-4" d="M52.23,77.07s-.04.02-.07.03c-1.69.55-3.54.53-5.16-.23-1.25-.59-2.1-1.6-2.55-2.9-.51-1.48-.48-3.14.23-4.54.67-1.32,1.86-2.23,3.26-2.67,1.54-.49,3.32-.4,4.76.37,1.23.66,2.19,1.67,2.61,3.02-1.01-1.52-2.04-2.83-3.94-3.22-1.68-.34-3.49-.15-4.94.83-1.08.74-1.81,1.83-2.04,3.12-.22,1.29.02,2.75.81,3.81.84,1.12,2.29,1.82,3.66,1.98,1.27.15,2.61-.09,3.62-.93.48-.4.81-.86,1.13-1.39.05-.03.11-.05.16-.1.31-.29.49-1.01.53-1.42.06-.56.07-1.07-.3-1.52-.17-1.06-.84-1.83-1.69-2.45-.25-.18-.46-.32-.77-.35l-.23.13c0,.21-.03.11.15.3.01.68-.36,1.43-.6,2.06.4-.32.95-.83,1.51-.73.26.05.4.21.56.4-.1.16-.19.27-.32.41l.1.25-.04.12c-.15-.14-.24-.3-.45-.28-.34.03-.73.23-.95.5-.11.13-.17.29-.23.45.05.22.06.27.29.38.06.03.16.05.23.06l.25-.35c.13.23.2.38.44.52l.17-.02c.19-.02.36-.02.54,0,.16.17.17.25.23.47.1-.15.17-.28.23-.45.2.13.2.37.26.6-.08.1-.18.2-.27.29-.67,0-1.14-.23-1.72-.54-.25.13-.54.27-.7.5-.26.37.5.66.57,1.07,0,.06.01.12.02.18.49.07.89-.29,1.37-.2-.22.29-.6.41-.91.59l.05.33c-.4-.08-.87-.59-1.19-.85-.06.07-.12.15-.18.22-.4.44-.88,1.02-1.5,1.04-.2-.41.03-1.12-.04-1.6-.04-.29-.15-.46-.38-.64l-.15.14c0,.21,0,.35-.09.55l-.23.06-.02-.36c-.21-.03-.14-.05-.33,0-.04.01-.08.03-.12.04l-.15-.19c.09-.26.24-.31.46-.47l-.35-.03-.1-.32c-.39.09-.71.4-1.07.57l-.04-.1c.14-.67,1.1-1.25,1.61-1.7-.41-.19-1.38-.5-1.62-.83.03-.23.05-.39.16-.6.11-.2.1-.15.3-.21.34.21.55.66.76,1,.58-.06,1.16-.1,1.75-.12l.1.27c-.4.65-1.47.56-1.67,1.46l.03.11c.41-.11.68-.24,1.07,0,.45.29.91.79,1.03,1.33.05.23,0,.38-.01.6,0,.06.01.15.02.22.22-.4.48-.95.32-1.41-.13-.38-.35-.64-.31-1.06.12-.24.24-.47.4-.69l-.9-.87c-.48-.51-1.29-1.86-1.94-1.98-.47.11-.76.49-1.01.88-.63.96-.69,2.11-.44,3.21.2.88.65,1.86,1.45,2.34.3.18.6.34.9.5-.26,0-.4-.05-.63-.14-.04-.02-.08-.03-.12-.05-.88-.38-1.72-1.58-2.03-2.44-.39-1.08-.11-2.51.41-3.51.57-1.09,1.66-1.78,2.82-2.09,1.2-.32,2.89-.16,3.96.53.77.49,1.62,2.41,1.79,3.29.19,1.01.02,1.96-.31,2.91-.52,1.05-1.11,2.09-2.26,2.55Z"/>
      <path d="M49.54,68.34c.36-.02,1.12-.12,1.39.09-.07.22-.02.15-.17.32-.9.98-.11.89-.32,1.86l-.19.11c-.65-.73-.97-1.52-1.93-1.84l-.06-.14c.37-.23.85-.3,1.27-.4Z"/>
      <path class="cls-4" d="M75.16,53.29c.82-.05,1.65-.05,2.47-.07-.48,1.6-.8,3.24-1.13,4.88-1.89.13-3.79.37-5.68.55-1.68.16-3.38.26-5.05.5l-1.64.05c-.16-.27-.36-.52-.55-.78,4.66-3.81,5.24-4.88,11.59-5.13Z"/>
      <path class="cls-4" d="M82.44,50.59c1.79-.08,3.6-.11,5.38.11,2.5.31,5,1.11,7.43,1.73,2.28.59,4.58,1.08,6.87,1.63.81.19,2.05.48,2.51,1.24-.05.06-6.68.73-7.38.8-.51-.26-.96-.33-1.52-.41.08-.13.16-.26.24-.39-.02-.27-.13-.42-.32-.6-3.93-3.53-18.33-3.24-23.52-2.91-1.69.16-3.45.18-5.1.62-3.53.95-8.46,5.17-11.43,7.49-.76.11-1.55.16-2.31.23,1.97-1.67,4.1-3.08,6.24-4.51,1.98-1.33,4.18-2.83,6.41-3.68,3.69-1.4,12.37-1.28,16.49-1.36Z"/>
      <path class="cls-4" d="M92.62,64.49c1.27-.12,2.5-.02,3.63.61,1.23.68,2.26,1.96,2.59,3.33.3,1.24-.08,2.46-.71,3.52-.82,1.36-1.99,2.1-3.5,2.49-1.5.27-2.95-.02-4.24-.82-1.1-.68-1.99-1.66-2.27-2.95-.28-1.32-.02-2.7.73-3.82.9-1.37,2.21-2.02,3.77-2.34Z"/>
      <path d="M89.15,69.76c0-1.3.2-2.45,1.17-3.41.83-.82,2.05-1.26,3.21-1.22,1.24.05,2.4.65,3.23,1.55.75.82,1.24,1.89,1.16,3.02-.09,1.21-.83,2.33-1.74,3.09-.81.67-1.87,1.1-2.93.98-.16-.02-.31-.05-.46-.08l-.14-.03c-1.29-.32-2.31-.92-2.99-2.11-.25-.43-.4-.81-.26-1.3.17-.16.21-.25.46-.26.45-.03.83.2,1.14.49.23.23.45.39.73.57l.1.06.03.27c-.29,0-.44-.03-.69.14v.2c.17.21.2.22.48.29.24-.1.27-.15.43-.36l.04.13c-.16.3-.35.56-.3.92.12.11.13.18.31.17.41-.02.84-.35,1.06-.69.08-.12.08-.15.12-.27.04-.14.15-.21.25-.31,0-.14.01-.08-.04-.22-.08-.22-.16-.36-.11-.6l.17-.11c.12.34.37.34.5.59.18.34.22.93.38,1.32l.1.03.19-.33c.13.19.06.09.22.29.17-.28.38-.48.52-.77-.24-.32-.55-.67-.55-1.07.49-.18.83.09,1.33,0v-.17c-.12-.14-.22-.27-.39-.36-.25-.13-.27-.11-.52-.03-.14-.18-.1-.18-.08-.4.62-.09,1.26.12,1.8-.29l.03-.22c-.38-.27-.9-.19-1.35-.16l-.29-.06-.09-.16c.05-.28.17-.43.34-.65.21-.18.43-.36.53-.63.09-.23.04-.31-.08-.49l-.29-.05c-.14-.03-.3-.11-.43-.02-.15.11-.25.25-.36.39l-.07.02c-.05-.33-.15-.57-.42-.78-.19-.15-.26-.11-.48-.08-.24.27-.25.44-.22.8.02.23.04.47.08.7l.15.32.2.07c.25-.14.4-.29.58-.5h.12c-.03.28-.12.37-.34.53-.21.14-.43.24-.67.32.3.19.53.14.88.14-.12.26-.33.19-.31.48l.25.22c.07.15.16.24.09.4-.08.17-.18.25-.32.38l.09-.63-.1-.11c-.26.04-.4.09-.62.24.02.25.14.38.29.57-.18.13-.31.07-.53.06,0-.4-.08-.57-.31-.88-.09.2-.17.4-.25.6-.06.15-.13.21-.24.32l-.25.07-.09-.1c-.22-.25-.34-.35-.65-.48l-.23.05c-.06-.26-.11-.47-.34-.63-.55-.39-1.67.03-2.25.21Z"/>
      <path class="cls-4" d="M93.66,71.79l.12-.04c.08.34.19.64.11.98-.12.1-.12.16-.29.15-.2-.01-.34-.08-.52-.16.13-.35.43-.58.58-.94Z"/>
      <path class="cls-4" d="M91.84,65.47c.55.5,1.64,1.29,1.72,2.06.03.28-.09.55-.24.78-.21-.2-.39-.28-.67-.31-.46-.68-.58-1.73-.81-2.52Z"/>
      <path class="cls-4" d="M93.54,69.14c-.1.07-.2.14-.32.2-.28.14-.5.12-.78.02-.56-.19-1.15-.31-1.72-.5l-.05-.12c.21-.08.33-.07.45-.28-.19-.26-.4-.49-.62-.73-.05-.35.07-.41.28-.69.47.32.91.67,1.36,1.01.21.35.4.73.83.83.15.04.21.01.33-.09.02-.02.03-.05.05-.07l.18.35.02.06Z"/>
      <path class="cls-4" d="M57.13,60.97c.1-.01.2-.03.3-.04.66-.06,1.39,1.04,1.89,1.48-.91,3.17-.51,6.86.64,9.91-.71.17-1.45.27-2.17.4-.56-2.22-1.17-4.39-2.72-6.15-1.24-1.42-2.95-2.31-4.84-2.42-1.86-.11-3.93.38-5.33,1.66-2.31,2.11-2.48,5.43-2.66,8.33-1.52.04-5.76.49-6.97.05l-.07-.17s.05-.08.08-.12c.98-1.41,4.76-1.15,6.38-1.4-1.79-.55-2.81-.45-4.6-.6-.18-.16-.23-.26-.3-.49.05-.19.09-.23.22-.35.42-.39.76-.38,1.31-.37.67-1.03.97-2.26,1.45-3.37.72-1.67,2.09-2.64,3.74-3.27l.04.04c-.42.3-.89.55-1.33.81-.03.02-.07.04-.1.06-2.27,1.52-2.97,3.97-3.43,6.53.03-.04.05-.07.08-.11.04-.06.08-.12.12-.18.49-.75.75-1.69,1.08-2.52,1.68-4.2,4.54-4.25,8.27-5.84-.62-.04-2.41.45-3.18.58.98-.28,1.89-.66,2.91-.82l.21-.03-.05-.07c-1.41.05-2.85.53-4.19.95-1.17.37-3.98,1.82-4.44,2.95-.24.59-.07,1.18-.39,1.79l-.15-.07c-.38-.9.14-2,.08-2.93-.02-.24-.06-.26-.23-.41-.24-.04-.4-.06-.64,0-.35.09-.76.26-.96.57l.2.21c-.17.5-.88.94-.95,1.45-.02.17.18.51.17.75l-.21.02c-.07-.1-.09-.11-.12-.25-.2-.77.28-1.95.74-2.55,1.58-2.06,10.06-2.6,12.77-2.96,2.45-.33,4.9-.78,7.36-1.04Z"/>
      <path class="cls-4" d="M104.75,55.63l.2.07c.42.57.47,1.19.56,1.87-1.11.57-2.34,1.04-3.52,1.45-.47.16-.97.26-1.42.47-.04.1-.07.18-.08.29-.02.38.24.76.5,1.02,1.27,1.22,3.75.9,5.37.84.5.38.97.83,1.29,1.38.34.59.44,1.36.22,2.01-.76,2.27-6.62,2.26-8.7,3.22-.17-.86-.34-1.74-.64-2.56-.69-1.87-2.1-3.17-3.89-3.98-2.55-1.15-5.39-1.12-8-.11-2.41.93-3.43,2.48-4.43,4.76-2.61.29-5.24.53-7.86.76,0-1.09.06-2.18.06-3.27v.23c-.21,1.01-.19,2.06-.21,3.09-3.62.48-7.28.69-10.91,1.09-1.42.16-2.99.21-4.35.64.48.1,4.42-.24,5.24-.29,3.39-.2,6.76-.51,10.14-.73.14.99.24,1.98.42,2.97-1.73.22-3.52.25-5.27.4-3.89.3-7.77.66-11.64,1.06-.61-1.02-.96-2.03-1.12-3.2-.27-2.02-.51-4.84.39-6.73.22-.47.58-.89.89-1.3,2.9-.16,5.82-.52,8.72-.79,4.55-.38,9.09-.81,13.63-1.27,2.7-.29,12.5-1.52,13.13-1.63,2.43-.4,4.87-.67,7.3-1.01,1.29-.18,2.76-.25,3.97-.73Z"/>
      <path d="M75.91,60.66c.23-.04.54-.05.78,0,.45.09.74.36.97.73.02.23.06.34-.11.53-.52.55-1.47.4-2.14.38-.4.02-.86.08-1.25,0-.27-.06-.46-.21-.6-.44.02-.23.02-.31.18-.49.57-.65,1.39-.63,2.18-.7Z"/>
      <path class="cls-4" d="M117.5,44.75c.15-.03.22-.02.36,0,.15.28.16.32.14.64-.21.17-.5.19-.77.22-.94.09-1.9.08-2.84.14-3.94.28-7.89.53-11.82.88,2.24.14,4.49-.02,6.72-.13,2.94-.16,5.88-.29,8.81-.4l.18,1.48c-3.61.36-7.23.58-10.83,1.02,1.24.08,2.54-.05,3.78-.1,2.36-.11,4.72-.21,7.08-.3.09.52.13,1.05.18,1.57-2.62.18-5.23.37-7.84.58-1.23.1-2.75.05-3.93.4,1.13.16,2.46-.04,3.61-.09,2.72-.11,5.45-.26,8.18-.26.08.48.12.97.17,1.45-1.82,0-3.66.15-5.48.26-1.47.08-3.01.09-4.46.34,3.27.22,6.7.06,9.98-.06.08.56.12,1.13.17,1.7-2.66.11-5.51.18-8.14.65,2.74.14,5.54-.01,8.29-.07l.12,1.51c-1.68.23-6.84.33-8.02.82,2.67-.17,5.41-.12,8.09-.18l.14,1.61c-1.38.1-2.76.25-4.15.34-1.12.08-2.31.09-3.41.32l-.06.09-.08-.08.12-.03-.23.07c1.34.25,6.25-.11,7.88-.17l.17,1.51c-1.56.17-7.04.31-8.11.77.99-.09,1.99-.02,2.98-.03,1.74-.03,3.49-.07,5.23-.13l.13,1.5c-2.69.15-5.52.04-8.17.48,2.73.38,5.61.17,8.36.18.11.54.16,1.07.21,1.61-1.05.14-2.14.12-3.2.19-1.36.09-2.69.26-4.05.41,2.03.24,5.08-.05,7.24-.08l.18,1.66c-2.71.09-5.6.14-8.27.61.78.24,6.98-.03,8.29-.05l.2,1.49c-2.53.46-5.43.36-8.04.61.87.37,6.75.11,8.09.07l.12,1.58c-2.43-.05-22.4.22-22.74.07l-.06-.29c.5-.49,7.56-.36,10.01-2.51.76-.67,1.13-1.62,1.17-2.62.09-2.59-1.58-3.31-1.89-5.32-.29-1.91.46-4.9-1.08-6.43-.56-.55-1.42-.91-2.16-1.15-1.3-.43-2.71-.65-4.05-.94-4.05-.9-9.49-2.18-13.58-2.25-4.21-.08-16.57.2-20.22,1.34-1.28.4-2.47,1.19-3.63,1.84-3.64,2.06-7.52,4.23-10.54,7.14-1.43.35-2.93.47-4.38.67-2.43.33-4.86.68-7.29,1.05-1.81.27-3.72.47-5.4,1.24-4.12,1.88-1.45,4.86-2.62,7.91-.25.66-.32,1.2-.36,1.9-.28.33-.62.63-.93.93,0,.16,0,.17.03.35.48,3.2,6.33,2.17,8.14,3.42l-.03.14c-1.37.79-7.73,1.21-9.55,1.35-.65.05-2.17.33-2.74.25-.28-.04-.3-.11-.44-.33-.03-.28-.06-.46.04-.73,1.21-.56,3.6-.43,5.03-.79.03,0,.07-.02.1-.03-1.77-.17-3.55,0-5.31.18-.05-.39-.09-.79-.13-1.18,1.45-.23,2.93-.42,4.33-.85-1.48-.03-2.94.13-4.4.3l-.12-1.13c1.49-.2,2.88-.45,4.32-.89-1.47.03-2.94.07-4.4.31l-.17-1.16c1.64-.4,3.36-.56,5.02-.88-1.71-.03-3.37.06-5.07.25-.07-.41-.11-.83-.15-1.25,1.55-.28,3.16-.52,4.67-.97-1.56-.03-3.19.22-4.74.36-.07-.42-.09-.85-.13-1.28,1.61-.22,3.64-.37,5.14-1-1.75.09-3.49.27-5.23.42-.07-.42-.09-.86-.13-1.28,1.95-.34,3.91-.64,5.8-1.23-1.95.13-3.94.35-5.86.7-.07-.46-.11-.92-.16-1.38,2.13-.42,4.23-.68,6.28-1.43l.16-.03-6.5.93c-.08-.45-.11-.91-.15-1.37,1.81-.28,6.13-.59,7.7-1.3l-.4.05.07-.04c-1.22.09-6.62.82-7.17.7-.09-.02-.16-.1-.25-.14-.2-.38-.14-.82-.14-1.24,3.56-.75,7.3-.67,10.9-1.13-.44-.48-10.39.58-10.96.26-.21-.32-.16-.77-.16-1.14,3.3-.46,6.65-.64,9.97-.94.83-.07,1.64-.23,2.47-.31l-.06-.06.39.04c-1.59-.11-3.3.17-4.9.25-2.67.14-5.32.19-7.99.26-.06-.46-.06-.93-.09-1.39,2.95-.24,5.91-.45,8.86-.64,1.68-.11,3.48-.13,5.12-.49-1.86-.04-3.75.12-5.6.2l-8.51.36-.13-1.39c4.98-.51,9.98-.98,14.97-1.38,4.4-.35,8.7-.56,13.06-1.35,1.32-.24,2.74-.47,4-.92-3.03.3-6.04.88-9.07,1.26-3.88.48-7.8.77-11.69,1.08-3.78.31-7.57.66-11.37.69-.08-.45-.14-.91-.2-1.36,8.32-.78,16.87-1.46,25.14-2.63-.13-.04-.08-.04-.2-.03-5.87.62-11.75,1.1-17.63,1.46-2.19.15-4.51.51-6.69.48-.28,0-.46.01-.69-.15-.06-.19-.12-.38-.14-.58-.02-.25-.06-.27.11-.48,2.73-.37,5.53-.47,8.27-.69l17.93-1.38,67.86-4.91Z"/>
    </g>
  </g>
</svg>