<?xml version="1.0" encoding="UTF-8"?>
<svg id="Layer_2" data-name="Layer 2" xmlns="http://www.w3.org/2000/svg" viewBox="0 0 49.67 48.56">
  <g id="Layer_1-2" data-name="Layer 1">
    <g>
      <path d="M40.34,33.09c.07,0,.13,0,.2,0,1.38,0,2.5-1.12,2.5-2.5s-1.12-2.5-2.5-2.5h0c-1.38,0-2.5,1.12-2.5,2.5,0,.51.15,1,.45,1.43l.09.13-2.88,4.99h-.16c-.57-.06-1.15.09-1.62.42l-.13.09-4.99-2.88v-.16c.02-.07.02-.13.02-.2,0-.67-.26-1.3-.73-1.77-.47-.47-1.1-.73-1.77-.73h0c-1.38,0-2.5,1.12-2.5,2.5,0,.51.15,1.01.45,1.43l.09.13-4.04,7c-.25.44-.1,1.01.34,1.26.21.12.46.16.7.09.24-.06.44-.22.56-.43l4.04-7h.16c.07.02.14.02.2.02h0c.51,0,1-.15,1.42-.44l.13-.09,4.99,2.88v.16c-.02.07-.02.14-.02.2,0,1.38,1.12,2.5,2.5,2.5h0c1.38,0,2.5-1.12,2.5-2.5,0-.51-.15-1.01-.45-1.43l-.09-.13,2.88-4.99h.16ZM26.32,35.06c-.36,0-.65-.29-.65-.65,0-.36.29-.64.65-.65h0c.36,0,.65.29.65.65s-.29.65-.65.65ZM35.34,40.26h0c-.36,0-.65-.29-.65-.65,0-.17.07-.34.19-.46.12-.12.29-.19.46-.19.36,0,.65.29.65.65,0,.36-.29.64-.65.65ZM39.89,30.6c0-.36.29-.65.65-.65s.65.29.65.65c0,.36-.29.64-.65.65h0c-.36,0-.65-.29-.65-.65Z"/>
      <path d="M16.47,48.56h28.73c2.46,0,4.47-2.01,4.47-4.47V4.47c0-2.46-2.01-4.47-4.47-4.47h-28.73c-2.46,0-4.47,2.01-4.47,4.47v4.3l-.23.02C5.17,9.38,0,15.03,0,21.66s5.17,12.28,11.77,12.87l.23.02v9.54c0,2.46,2.01,4.47,4.47,4.47ZM13.85,4.47c0-1.44,1.18-2.62,2.62-2.62h28.73c1.44,0,2.62,1.18,2.62,2.62v39.62c0,1.44-1.18,2.62-2.62,2.62h-28.73c-1.44,0-2.62-1.18-2.62-2.62v-9.54l.23-.02c5.28-.48,9.69-4.07,11.22-9.15l.05-.18h16.76c.51,0,.93-.42.93-.93s-.42-.93-.93-.93h-16.38l.03-.28c.2-1.85,0-3.77-.6-5.54l-.11-.33h17.05c.51,0,.93-.42.93-.93s-.42-.93-.93-.93h-17.31c-.11,0-.22.02-.33.06l-.2.08-.11-.19c-1.07-1.89-2.62-3.49-4.46-4.64l-.75-.46h23.15c.51,0,.93-.42.93-.93s-.42-.93-.93-.93h-22.56c-.51,0-.92.41-.92.92,0,.12.02.23.06.34l.23.58-.57-.26c-1.35-.63-2.79-1.01-4.27-1.14l-.23-.02v-4.3ZM13.85,10.63l.28.03c5.2.58,9.23,4.61,9.8,9.8l.03.28h-10.11v-10.11ZM4.12,28.37l-.16-.23c-1.73-2.39-2.43-5.32-1.96-8.24.47-2.92,2.04-5.48,4.44-7.21,1.55-1.12,3.38-1.83,5.29-2.04l.28-.03v10.62l-7.88,7.12ZM5.57,29.93l-.21-.19,7.92-7.15h10.68l-.03.28c-.62,5.62-5.35,9.86-11,9.87h-.01c-2.71,0-5.32-1-7.35-2.81Z"/>
    </g>
  </g>
</svg>