<?xml version="1.0" encoding="UTF-8"?>
<svg id="Layer_2" data-name="Layer 2" xmlns="http://www.w3.org/2000/svg" viewBox="0 0 22.01 22.01">
  <defs>
    <style>
      .cls-1 {
        fill: #fff;
      }
    </style>
  </defs>
  <g id="Layer_1-2" data-name="Layer 1">
    <path class="cls-1" d="M19.94,4.59c.22-.3.35-.66.35-1.06,0-1-.81-1.81-1.8-1.81-.4,0-.76.13-1.06.35-1.88-1.35-4.09-2.07-6.42-2.07s-4.48.69-6.34,2.01c-.07.05-1.85,1.29-2.8,2.87,0,0,0,0,0,0,0,0,0,0,0,0,0,0,0,0,0,0,0,0,0,0,0,0-1.21,1.81-1.85,3.92-1.85,6.11,0,2.33.72,4.54,2.07,6.42-.22.3-.35.66-.35,1.06,0,1,.81,1.81,1.8,1.81.4,0,.76-.13,1.06-.35,1.88,1.35,4.09,2.07,6.42,2.07,6.07,0,11.01-4.94,11.01-11.01,0-2.33-.72-4.54-2.07-6.42ZM20.66,14.1h-4.59c-.15-.6-.6-1.08-1.18-1.27.03-.6.06-1.2.06-1.82,0-1.03-.05-2.08-.16-3.1h5.86c.32.99.48,2.03.48,3.1s-.17,2.12-.49,3.1ZM11,21.15c-1.11,0-2.32-2.41-2.84-6.19h4.41c.14.56.53,1.02,1.05,1.23-.65,3.41-1.78,4.96-2.63,4.96ZM3.52,16.68c-.28,0-.55.07-.79.19-.43-.6-.79-1.24-1.08-1.91h5.65c.34,2.55,1,4.8,1.97,6.04-1.49-.25-2.89-.84-4.14-1.73.12-.24.19-.51.19-.79,0-1-.81-1.81-1.81-1.81ZM1.35,7.91h4.55c.15.61.61,1.1,1.21,1.28-.03.6-.06,1.2-.06,1.81,0,1.03.05,2.08.16,3.1H1.34c-.32-.99-.48-2.03-.48-3.1s.17-2.1.49-3.1ZM11,.86c1.11,0,2.32,2.41,2.84,6.19h-4.44c-.13-.55-.52-1-1.02-1.22.65-3.42,1.78-4.97,2.63-4.97ZM18.49,5.33c.28,0,.55-.07.79-.19.43.6.79,1.24,1.08,1.91h-5.65c-.34-2.55-1-4.8-1.97-6.04,1.49.25,2.89.84,4.14,1.73-.12.24-.19.51-.19.79,0,1,.81,1.81,1.81,1.81ZM14.1,11.01c0,.6-.03,1.18-.06,1.75-.72.12-1.29.65-1.46,1.35h-4.52c-.1-.96-.15-2-.15-3.1,0-.59.03-1.17.06-1.75.7-.13,1.26-.66,1.43-1.34h4.55c.1.96.15,2,.15,3.1ZM7.65,6.53c.52,0,.95.42.95.95s-.42.95-.95.95-.95-.42-.95-.95.42-.95.95-.95ZM14.33,15.48c-.52,0-.95-.42-.95-.95s.42-.95.95-.95.95.42.95.95-.42.95-.95.95ZM19.43,3.52c0,.52-.42.95-.95.95s-.95-.42-.95-.95.42-.95.95-.95.95.42.95.95ZM5.16,2.71c1.25-.88,2.66-1.45,4.14-1.7-.76.95-1.37,2.56-1.78,4.68-.79.05-1.44.62-1.62,1.36H1.68c.25-.59.53-1.16.89-1.7,0,0,0,0,0-.01,0,0,0,0,0,0,.86-1.43,2.55-2.61,2.57-2.63ZM2.58,18.49c0-.52.42-.95.95-.95s.95.42.95.95-.42.95-.95.95-.95-.42-.95-.95ZM12.71,21c.75-.95,1.37-2.56,1.77-4.68.78-.07,1.41-.62,1.59-1.36h4.27c-1.33,3.13-4.19,5.45-7.64,6.04Z"/>
  </g>
</svg>