<?xml version="1.0" encoding="UTF-8"?>
<svg id="Layer_2" data-name="Layer 2" xmlns="http://www.w3.org/2000/svg" viewBox="0 0 54.08 54.52">
  <g id="Layer_1-2" data-name="Layer 1">
    <g>
      <path d="M24.03,53.07l5.9,1.42c.25.06.51.02.73-.12.22-.13.38-.35.44-.6l.43-1.77,1.71.41c1.61.39,3.31.11,4.72-.75,1.43-.87,2.43-2.25,2.82-3.86l.66-2.77h.07c.61-.04,1.2-.22,1.73-.54.61-.37,1.09-.91,1.4-1.55l.03-.06h.07c1.87.24,3.75-.18,5.35-1.16,1.9-1.17,3.23-3,3.76-5.17.52-2.17.17-4.41-1-6.31-.99-1.62-2.46-2.82-4.23-3.47l-.07-.02v-.07c.02-.71-.17-1.4-.54-2.01-.33-.54-.79-.98-1.33-1.28l-.06-.03v-.07c.2-1.12.3-2.25.3-3.37C46.91,8.91,38,0,27.04,0S7.17,8.91,7.17,19.87c0,1.12.1,2.26.29,3.37v.07s-.05.03-.05.03c-1.19.67-1.91,1.93-1.87,3.3v.07s-.07.02-.07.02c-3.98,1.46-6.23,5.67-5.24,9.78.91,3.77,4.25,6.4,8.12,6.4.33,0,.66-.02.99-.06h.07s.03.06.03.06c.3.64.79,1.17,1.4,1.55.83.51,1.84.67,2.77.44,1.97-.47,3.19-2.46,2.71-4.43l-3.55-14.8c-.38-1.57-1.72-2.7-3.34-2.8h-.08s-.01-.08-.01-.08c-.16-.97-.24-1.96-.24-2.93C9.11,9.98,17.15,1.94,27.04,1.94s17.93,8.04,17.93,17.93c0,.98-.08,1.96-.24,2.93v.08s-.09,0-.09,0c-.59.04-1.17.22-1.68.54-.84.51-1.43,1.32-1.65,2.27l-3.55,14.8c-.38,1.57.34,3.23,1.74,4.04l.06.04-.67,2.77c-.27,1.11-.96,2.06-1.95,2.66-.99.6-2.15.79-3.26.52l-1.71-.41.43-1.77c.12-.52-.2-1.04-.72-1.17l-5.93-1.43c-.28-.06-.57-.09-.85-.09-.69,0-1.37.19-1.97.56-.86.53-1.46,1.35-1.69,2.33-.48,2.02.76,4.05,2.78,4.53ZM8.77,40.98c-.14,0-.28.01-.42.01-2.97,0-5.54-2.02-6.24-4.92-.73-3.05.83-6.15,3.71-7.39l.11-.05.03.12,2.93,12.22h-.12ZM10.89,26.14l3.55,14.8c.22.93-.35,1.87-1.28,2.09-.13.03-.27.05-.4.05-.32,0-.63-.09-.91-.26-.4-.24-.67-.62-.78-1.07l-3.55-14.8c-.22-.93.35-1.87,1.28-2.09.93-.22,1.87.35,2.09,1.28ZM48.15,28.64l.11.05c1.22.52,2.24,1.4,2.94,2.54.89,1.46,1.17,3.18.77,4.85-.4,1.67-1.42,3.08-2.88,3.97-1.02.62-2.16.95-3.34.95-.15,0-.29,0-.44-.02h-.12s2.96-12.34,2.96-12.34ZM39.63,40.94l3.55-14.8c.11-.45.38-.83.78-1.07.39-.24.87-.31,1.31-.21.45.11.83.39,1.07.78s.32.86.21,1.31l-3.55,14.8c-.11.45-.38.83-.78,1.07-.28.17-.59.26-.91.26-.13,0-.27-.02-.4-.05-.93-.22-1.5-1.16-1.28-2.09ZM23.14,48.99c.11-.47.4-.87.82-1.12.41-.25.91-.33,1.38-.22l4.96,1.19-.85,3.54-4.96-1.19c-.98-.23-1.58-1.22-1.35-2.2Z"/>
      <path d="M27.04,26c-.53,0-.97.43-.97.97s.43.97.97.97.97-.44.97-.97-.43-.97-.97-.97Z"/>
      <path d="M28.01,20.11l.08-.02c.77-.2,1.47-.61,2.01-1.18.8-.85,1.21-1.96,1.15-3.12-.11-2.19-1.92-3.94-4.12-3.99-.03,0-.06,0-.08,0-2.1,0-3.88,1.54-4.17,3.62-.03.19-.04.38-.04.59,0,.53.43.97.97.97s.97-.43.97-.97c0-.12,0-.22.02-.32.16-1.11,1.12-1.96,2.25-1.96h.05c1.19.02,2.16.97,2.22,2.15.03.63-.19,1.23-.62,1.69s-1.02.71-1.65.71c-.53,0-.97.43-.97.97v3.39c0,.53.43.97.97.97s.97-.43.97-.97v-2.53Z"/>
      <path d="M27.04,7.21c-6.98,0-12.65,5.68-12.65,12.66s5.68,12.66,12.65,12.66,12.66-5.68,12.66-12.66-5.68-12.66-12.66-12.66ZM27.04,30.59c-5.91,0-10.72-4.81-10.72-10.72s4.81-10.72,10.72-10.72,10.72,4.81,10.72,10.72-4.81,10.72-10.72,10.72Z"/>
    </g>
  </g>
</svg>