<?xml version="1.0" encoding="UTF-8"?>
<svg id="Layer_2" data-name="Layer 2" xmlns="http://www.w3.org/2000/svg" viewBox="0 0 49.76 57.52">
  <g id="Layer_1-2" data-name="Layer 1">
    <g>
      <path d="M22.84,17.83c-9.32,0-16.9,7.57-16.9,16.88,0,3.68,1.17,7.18,3.37,10.12,2.13,2.84,5.17,4.98,8.54,6.02.08.03.17.04.25.04.36,0,.69-.23.8-.59.14-.44-.11-.92-.56-1.05-6.42-1.97-10.73-7.81-10.73-14.52,0-8.38,6.82-15.19,15.21-15.19,6.09,0,11.58,3.61,13.98,9.2.18.43.68.62,1.11.44.43-.18.62-.68.44-1.11-2.67-6.21-8.77-10.22-15.53-10.22h0Z"/>
      <path d="M22.32,51.58c.17,0,.34,0,.51,0,9.32,0,16.9-7.57,16.9-16.88,0-.89-.07-1.78-.21-2.66-.07-.46-.5-.77-.96-.7-.46.07-.77.5-.7.96.12.79.19,1.59.19,2.39,0,8.38-6.82,15.19-15.21,15.19-.16,0-.31,0-.46,0-.47-.01-.85.35-.87.82-.01.47.35.85.82.87h0Z"/>
      <path d="M22.84,37.59c1.59,0,2.88-1.29,2.88-2.88,0-1.3-.86-2.4-2.04-2.76v-8.91c0-.47-.38-.84-.84-.84s-.84.38-.84.84v8.91c-.91.28-1.64,1-1.92,1.91h-5.1c-.47,0-.84.38-.84.84s.38.84.84.84h5.1c.36,1.18,1.46,2.04,2.76,2.04h0ZM22.84,33.52c.66,0,1.2.54,1.2,1.2s-.54,1.2-1.2,1.2-1.2-.54-1.2-1.2.54-1.2,1.2-1.2Z"/>
      <path d="M44.8,28.47c-2.65-9.29-11.07-16.18-21.12-16.55v-1.89c1.34-.06,3-.3,4.42-.96,1.86-.87,2.84-2.27,2.84-4.04s-.98-3.17-2.84-4.04c-1.73-.81-3.82-.98-5.26-.98-.77,0-1.52.05-2.23.15-.46.06-.78.49-.72.95.06.46.49.78.95.72.63-.09,1.31-.13,2-.13,1.07,0,6.41.16,6.41,3.34,0,2.65-3.71,3.2-5.57,3.31v-1.07c0-.47-.38-.84-.84-.84s-.84.38-.84.84v1.07c-1.85-.11-5.57-.66-5.57-3.31,0-.81.32-1.45.98-1.98.36-.29.42-.82.13-1.18-.29-.36-.82-.42-1.18-.13-1.06.84-1.61,1.98-1.61,3.3,0,1.78.98,3.17,2.84,4.04,1.42.66,3.07.9,4.42.96v1.89c-5.51.2-10.72,2.36-14.76,6.14-.34.32-.36.85-.04,1.19.32.34.85.36,1.19.04,3.93-3.68,9.07-5.7,14.46-5.7,11.66,0,21.15,9.48,21.15,21.12,0,11.65-9.49,21.12-21.15,21.12S1.69,46.36,1.69,34.71c0-4.52,1.41-8.83,4.08-12.47.28-.38.19-.9-.18-1.18-.38-.28-.9-.19-1.18.18C1.52,25.17,0,29.83,0,34.71c0,12.58,10.24,22.81,22.84,22.81,10.24,0,18.93-6.77,21.82-16.06,2.71-.1,5.1-1.11,5.1-6.5s-2.31-6.36-4.95-6.49h0ZM45.11,39.76c.37-1.62.56-3.31.56-5.05,0-1.56-.16-3.07-.45-4.54,1.53.13,2.86.86,2.86,4.79s-1.39,4.69-2.96,4.8Z"/>
      <circle cx="22.84" cy="46.38" r=".84"/>
      <circle cx="14.57" cy="42.96" r=".84"/>
      <circle cx="31.1" cy="42.96" r=".84"/>
      <circle cx="14.57" cy="26.46" r=".84"/>
      <circle cx="31.1" cy="26.46" r=".84"/>
      <circle cx="34.52" cy="34.71" r=".84"/>
      <circle cx="11.15" cy="34.71" r=".84"/>
    </g>
  </g>
</svg>