<?xml version="1.0" encoding="UTF-8"?>
<svg id="Layer_2" data-name="Layer 2" xmlns="http://www.w3.org/2000/svg" viewBox="0 0 49.03 49.03">
  <defs>
    <style>
      .cls-1 {
        fill-rule: evenodd;
      }
    </style>
  </defs>
  <g id="Layer_1-2" data-name="Layer 1">
    <g>
      <path class="cls-1" d="M33.57,19.49l.67-.24c.3-.1.54-.35.64-.65.1-.31.06-.63-.12-.9l-2.17-3.25c-.28-.42-.86-.54-1.28-.26-.42.28-.54.86-.26,1.28l1.59,2.38-.25.08c-5.15,1.68-10.59,1.68-15.74,0l-.25-.08,1.59-2.38c.28-.42.17-1-.26-1.28-.42-.28-1-.17-1.28.26l-1.77,2.66c-.27.4-.34.92-.18,1.38.15.45.5.82.94.98h.03c5.84,2.07,12.27,2.07,18.1.01Z"/>
      <path class="cls-1" d="M9.8,28.48l2.42.3c.79.09,1.58-.15,2.18-.67.6-.53.94-1.28.94-2.08,0-1.18-.8-2.19-1.93-2.48l-3.26-.81c-.5-.12-1,.18-1.12.67-.12.49.18,1,.67,1.12l3.26.81c.32.08.54.36.54.69,0,.27-.11.52-.31.7-.2.18-.46.26-.73.22l-2.42-.3s-.08,0-.12,0c-.2,0-.4.07-.56.19-.19.15-.32.37-.35.61-.03.25.04.49.19.68.15.19.37.32.61.35Z"/>
      <path class="cls-1" d="M40.01,23.41c-.1-.42-.48-.7-.9-.7-.07,0-.15,0-.22.03l-3.26.81c-1.14.29-1.93,1.3-1.93,2.48h0c0,.8.34,1.55.94,2.08.6.53,1.39.77,2.18.67l2.42-.3c.24-.03.46-.15.61-.35.15-.19.22-.44.19-.68-.03-.25-.15-.46-.35-.61-.19-.15-.43-.22-.68-.19l-2.42.3c-.27.03-.53-.05-.73-.22-.2-.18-.31-.43-.31-.69,0-.33.22-.61.54-.69l3.26-.81c.49-.12.79-.63.67-1.12Z"/>
      <g>
        <path class="cls-1" d="M46.78,16.65c0-.7-.27-1.35-.76-1.84-.49-.49-1.15-.76-1.84-.76h-2.23c-.54,0-1.07.14-1.53.4l-2.06,1.14-1.68-2.95c-.9-1.88-2.82-3.08-4.89-3.08h-14.52c-2.07,0-3.99,1.21-4.89,3.08l-.09.18h-.01c-.25.44-.98,1.7-1.49,2.6l-.1.17-2.06-1.14c-.47-.26-1-.4-1.53-.4h-2.23c-.7,0-1.35.27-1.84.76-.49.49-.76,1.15-.76,1.84v1.12c0,.7.27,1.35.76,1.84.49.49,1.15.76,1.84.76h1.95l-.89.89c-.93,1.03-1.42,2.32-1.42,3.66v2.4c0,1.45.56,2.81,1.59,3.83.16.16.33.29.52.43l.14.11v2.37c0,.85.33,1.64.93,2.24.6.6,1.39.93,2.24.93h1.12c.85,0,1.64-.33,2.24-.93.6-.6.93-1.39.93-2.24v-1.32h20.62v1.32c0,.85.33,1.64.93,2.24.6.6,1.39.93,2.24.93h1.12c.85,0,1.64-.33,2.24-.93.6-.6.93-1.39.93-2.24v-2.37l.14-.11c.19-.14.36-.27.52-.43,1.02-1.02,1.59-2.39,1.59-3.83v-2.4c0-1.34-.49-2.63-1.39-3.62-.15-.17-.35-.37-.56-.58l-.35-.34h1.94c.7,0,1.35-.27,1.84-.76.49-.49.76-1.15.76-1.84v-1.12ZM12.36,34.06c0,.35-.14.69-.39.94-.24.25-.59.39-.94.39h-1.12c-.35,0-.69-.14-.94-.39-.25-.24-.39-.59-.39-.94v-1.48l.24.05c.36.07.73.11,1.08.11h2.45v1.32ZM40.44,34.06c0,.35-.14.69-.39.94-.24.25-.59.39-.94.39h-1.12c-.35,0-.69-.14-.94-.39-.25-.24-.39-.59-.39-.94v-1.32h2.45c.35,0,.72-.04,1.08-.11l.24-.05v1.48ZM44.94,17.77c0,.2-.08.39-.22.54-.14.14-.34.22-.54.22h-4.19c-.07.02-.1.02-.13.03h-.05c-.06.02-.11.02-.16.04-.04.02-.08.04-.12.08l-.05.03s-.05.03-.08.05l-.05.04s-.06.08-.09.13l-.03.05s-.03.05-.05.07c-.01.02-.03.04-.03.05-.01.07-.02.09-.02.12-.03.11-.05.17-.05.23v.03c.02.06.02.09.03.12v.05c.02.06.02.11.04.16.02.04.05.09.09.14.04.06.06.09.07.12l-.13.17.16-.12c.38.4.83.83,1.26,1.25.46.44.89.86,1.18,1.18.59.66.92,1.5.92,2.39v2.4c0,.95-.37,1.85-1.05,2.52-.67.67-1.57,1.05-2.52,1.05H9.91c-.95,0-1.85-.37-2.52-1.05-.67-.67-1.05-1.57-1.05-2.52v-2.4c0-.87.32-1.71.89-2.36t2.47-2.46s0-.02.03-.04c.09-.1.14-.18.17-.26.05-.11.07-.23.07-.35h0s-.01-.03-.01-.06c0-.09-.02-.2-.06-.29-.04-.09-.09-.18-.18-.27l-.03-.04c-.08-.08-.18-.14-.29-.19-.11-.05-.23-.07-.35-.07h-4.19c-.2,0-.4-.08-.54-.22h0c-.14-.15-.22-.34-.22-.54v-1.12c0-.2.08-.39.22-.54.14-.14.34-.22.54-.22h2.23c.22,0,.45.06.64.17l2.86,1.58s.06.02.1.03l.08.02s.06.02.08.03c.03.01.06.02.08.03.03,0,.06,0,.1,0h.16s.07-.02.09-.02c.02,0,.05-.02.07-.04.02-.01.05-.03.07-.04l.07-.03s.08-.03.1-.05c.01,0,.03-.03.05-.05.02-.02.04-.05.06-.07l.06-.06s.06-.06.08-.09l2.16-3.78s.02-.04.03-.06c.59-1.25,1.86-2.05,3.23-2.05h14.52c1.38,0,2.64.81,3.23,2.05.01.02.02.04.03.06l2.16,3.78s.05.06.08.09l.06.06s.04.04.06.07c.01.02.03.04.04.05.02.02.06.03.1.05l.07.03s.05.03.07.04c.03.02.06.03.07.04.02,0,.06,0,.09,0h.16s.08.02.1.02c.02,0,.05-.01.08-.02.03-.01.06-.02.08-.03.03,0,.05-.02.08-.02.04,0,.08-.02.1-.03l2.86-1.58c.2-.11.42-.17.64-.17h2.23c.2,0,.4.08.54.22.14.15.22.34.22.54v1.12Z"/>
        <polygon class="cls-1" points="39.08 20.09 39.08 20.09 39.08 20.09 39.08 20.09"/>
      </g>
      <path class="cls-1" d="M11.03,0h-5.62c-1.45,0-2.81.56-3.83,1.59C.58,2.59,0,3.99,0,5.42v5.62c0,.51.41.92.92.92s.92-.41.92-.92v-5.62c0-.95.37-1.85,1.05-2.52.67-.67,1.57-1.05,2.52-1.05h5.62c.51,0,.92-.41.92-.92s-.41-.92-.92-.92Z"/>
      <path class="cls-1" d="M48.11,11.96c.51,0,.92-.41.92-.92v-5.62c0-1.43-.58-2.82-1.59-3.83h0c-1.02-1.02-2.38-1.59-3.83-1.59h-5.62c-.51,0-.92.41-.92.92s.41.92.92.92h5.62c.95,0,1.85.37,2.52,1.05.67.67,1.05,1.57,1.05,2.52v5.62c0,.51.41.92.92.92Z"/>
      <path class="cls-1" d="M.92,37.07c-.51,0-.92.41-.92.92v5.62c0,1.43.58,2.82,1.59,3.83,1.02,1.02,2.38,1.59,3.83,1.59h5.62c.51,0,.92-.41.92-.92s-.41-.92-.92-.92h-5.62c-.95,0-1.85-.37-2.52-1.05-.67-.67-1.05-1.57-1.05-2.52v-5.62c0-.51-.41-.92-.92-.92Z"/>
      <path class="cls-1" d="M48.11,37.07c-.51,0-.92.41-.92.92v5.62c0,.95-.37,1.85-1.05,2.52-.67.67-1.57,1.05-2.52,1.05h-5.62c-.51,0-.92.41-.92.92s.41.92.92.92h5.62c1.45,0,2.81-.56,3.83-1.59,1.01-1.01,1.59-2.41,1.59-3.83v-5.62c0-.51-.41-.92-.92-.92Z"/>
      <path class="cls-1" d="M9.91,4.49h-2.25c-1.75,0-3.17,1.42-3.17,3.17v2.25c0,.51.41.92.92.92s.92-.41.92-.92v-2.25c0-.73.59-1.32,1.32-1.32h2.25c.51,0,.92-.41.92-.92s-.41-.92-.92-.92Z"/>
      <path class="cls-1" d="M43.61,10.83c.51,0,.92-.41.92-.92v-2.25c0-1.75-1.42-3.17-3.17-3.17h-2.25c-.51,0-.92.41-.92.92s.41.92.92.92h2.25c.73,0,1.32.59,1.32,1.32v2.25c0,.51.41.92.92.92Z"/>
      <path class="cls-1" d="M5.42,38.2c-.51,0-.92.41-.92.92v2.25c0,1.75,1.42,3.17,3.17,3.17h2.25c.51,0,.92-.41.92-.92s-.41-.92-.92-.92h-2.25c-.73,0-1.32-.59-1.32-1.32v-2.25c0-.51-.41-.92-.92-.92Z"/>
      <path class="cls-1" d="M43.61,38.2c-.51,0-.92.41-.92.92v2.25c0,.73-.59,1.32-1.32,1.32h-2.25c-.51,0-.92.41-.92.92s.41.92.92.92h2.25c1.75,0,3.17-1.42,3.17-3.17v-2.25c0-.51-.41-.92-.92-.92Z"/>
    </g>
  </g>
</svg>