<?xml version="1.0" encoding="UTF-8"?>
<svg id="Layer_2" data-name="Layer 2" xmlns="http://www.w3.org/2000/svg" viewBox="0 0 42.75 43.98">
  <g id="Layer_2-2" data-name="Layer 2">
    <g id="Layer_1-2" data-name="Layer 1-2">
      <g>
        <path d="M7.66,13.11c0-2.08-1.76-3.83-3.83-3.83s-3.83,1.76-3.83,3.83,1.76,3.83,3.83,3.83,3.83-1.76,3.83-3.83ZM2.01,13.11c0-.97.85-1.81,1.81-1.81s1.81.85,1.81,1.81-.85,1.81-1.81,1.81-1.81-.85-1.81-1.81Z"/>
        <path d="M21.6,15.24c-.23-.06-.46-.1-.69-.1-1.44,0-2.65,1.2-2.65,2.62v11.48c0,.22-.01.47.02.74.17,1.29,1.31,2.27,2.64,2.27.45,0,.89-.12,1.28-.34l9.97-5.76c.25-.14.55-.31.82-.57.58-.56.86-1.39.76-2.21-.1-.83-.57-1.54-1.27-1.95h0l-9.98-5.76c-.24-.15-.54-.32-.9-.43h0ZM31.74,23.63c.02.15,0,.36-.16.51-.07.07-.21.15-.39.25l-10.01,5.78c-.08.05-.17.07-.27.07s-.2-.02-.3-.07c-.19-.09-.31-.26-.33-.44-.02-.12-.01-.24-.01-.36v-11.6c0-.4.48-.67.78-.57.08.02.2.09.4.21l10.01,5.78c.15.09.25.25.28.45h0Z"/>
        <path d="M4.64,18.35c-.6-.01-1.06.44-1.06,1v22.59c0,.56.45,1.01,1.01,1.01s1.01-.45,1.01-1.01v-21.77h.19c1.15-.08,2.24-.49,3.16-1.19l.32-.24v19.39c0,3.23,2.62,5.85,5.85,5.85h21.78c.56,0,1.01-.45,1.01-1.01s-.45-1.01-1.01-1.01H15.12c-2.11,0-3.83-1.72-3.83-3.83V5.84c0-2.11,1.72-3.82,3.83-3.82h13.23v3.83c0,.56.45,1.01,1.01,1.01s1.01-.45,1.01-1.01v-3.83h6.53c2.11,0,3.83,1.72,3.83,3.83v32.27c0,.56.46,1.01,1.01,1.01s1.01-.45,1.01-1.01V5.83c-.02-3.22-2.64-5.83-5.85-5.83H15.12c-3.22,0-5.84,2.61-5.85,5.82v8.5c0,2.11-1.73,3.83-3.84,3.83-.18,0-.36.06-.55.19l-.06.04h-.08s-.06-.02-.09-.03h0Z"/>
      </g>
    </g>
  </g>
</svg>