<?xml version="1.0" encoding="UTF-8"?>
<svg id="Layer_2" data-name="Layer 2" xmlns="http://www.w3.org/2000/svg" viewBox="0 0 43.97 42.76">
  <g id="Layer_1-2" data-name="Layer 1">
    <g>
      <path d="M13.11,35.09c-2.08,0-3.83,1.76-3.83,3.83s1.76,3.83,3.83,3.83,3.83-1.76,3.83-3.83-1.76-3.83-3.83-3.83ZM13.11,40.74c-.97,0-1.81-.85-1.81-1.81s.85-1.81,1.81-1.81,1.81.85,1.81,1.81-.85,1.81-1.81,1.81Z"/>
      <path d="M19.28,8.28c-.23-.06-.46-.1-.69-.1-1.44,0-2.65,1.2-2.65,2.62v11.48c0,.22-.01.47.02.74.17,1.29,1.31,2.27,2.64,2.27.45,0,.89-.12,1.28-.34l9.97-5.76c.25-.14.55-.31.82-.57.58-.56.86-1.39.76-2.21-.1-.83-.57-1.54-1.27-1.95h0l-9.98-5.76c-.24-.15-.54-.32-.9-.43ZM29.42,16.67c.02.15,0,.36-.16.51-.07.07-.21.15-.39.25l-10.01,5.78c-.08.05-.17.07-.27.07s-.2-.02-.3-.07c-.19-.09-.31-.26-.33-.44-.02-.12-.01-.24-.01-.36v-.07s0-11.53,0-11.53c0-.4.48-.67.78-.57.08.02.2.09.4.21l10.01,5.78c.15.09.25.25.28.45Z"/>
      <path d="M18.35,38.11c-.01.6.44,1.06,1,1.06h22.59c.56,0,1.01-.45,1.01-1.01s-.45-1.01-1.01-1.01h-21.77v-.19c-.08-1.15-.49-2.24-1.19-3.16l-.24-.32h19.39c3.23,0,5.85-2.62,5.85-5.85V5.85c0-.56-.45-1.01-1.01-1.01s-1.01.45-1.01,1.01v21.78c0,2.11-1.72,3.83-3.83,3.83H5.84c-2.11,0-3.82-1.72-3.82-3.83v-13.23h3.83c.56,0,1.01-.45,1.01-1.01s-.45-1.01-1.01-1.01h-3.83v-6.53c0-2.11,1.72-3.83,3.83-3.83h32.27c.56,0,1.01-.46,1.01-1.01s-.45-1.01-1.01-1.01H5.83C2.61.02,0,2.64,0,5.85v21.78c0,3.22,2.61,5.84,5.82,5.85h.04s8.46.01,8.46.01c2.11,0,3.83,1.72,3.83,3.83,0,.18.06.36.19.55l.04.06v.08s-.02.06-.03.09Z"/>
    </g>
  </g>
</svg>