<?xml version="1.0" encoding="UTF-8"?>
<svg id="Layer_2" data-name="Layer 2" xmlns="http://www.w3.org/2000/svg" viewBox="0 0 56.98 57.43">
  <defs>
    <style>
      .cls-1 {
        fill: #232020;
        fill-rule: evenodd;
      }
    </style>
  </defs>
  <g id="Layer_1-2" data-name="Layer 1">
    <path class="cls-1" d="M42.12,34.33c-.7-.38-4.15-2.24-4.79-2.51-.65-.26-1.12-.4-1.62.3-.5.69-1.93,2.25-2.36,2.71-.44.46-.85.51-1.56.12-.7-.38-2.97-1.22-5.61-3.76-2.05-1.97-3.4-4.36-3.79-5.09-.39-.73,0-1.1.37-1.44.33-.31.75-.81,1.12-1.21.37-.4.5-.7.76-1.16.26-.47.15-.89-.01-1.25-.16-.36-1.46-3.93-2-5.38-.54-1.45-1.15-1.24-1.56-1.25-.42-.01-.89-.09-1.37-.11-.48-.02-1.26.13-1.94.82-.68.69-2.59,2.35-2.72,5.86-.13,3.51,2.3,7,2.64,7.49.34.49,4.64,8.11,11.79,11.24,7.15,3.13,7.19,2.18,8.5,2.11,1.31-.07,4.29-1.57,4.95-3.21.66-1.64.71-3.07.54-3.38-.17-.3-.64-.5-1.34-.88h0ZM29.01,51.26c-4.73,0-9.13-1.42-12.81-3.85l-8.95,2.87,2.91-8.65c-2.79-3.84-4.43-8.56-4.43-13.65,0-12.84,10.45-23.29,23.28-23.29s23.29,10.45,23.29,23.29-10.45,23.29-23.29,23.29h0ZM29.01,0C13.56,0,1.04,12.52,1.04,27.97c0,5.29,1.47,10.23,4.01,14.44L0,57.43l15.49-4.96c4.01,2.22,8.62,3.48,13.52,3.48,15.45,0,27.98-12.53,27.98-27.97S44.46,0,29.01,0h0Z"/>
  </g>
</svg>