<?xml version="1.0" encoding="UTF-8"?>
<svg id="Layer_2" data-name="Layer 2" xmlns="http://www.w3.org/2000/svg" viewBox="0 0 24.16 24.29">
  <defs>
    <style>
      .cls-1 {
        fill: #fff;
      }
    </style>
  </defs>
  <g id="Layer_1-2" data-name="Layer 1">
    <g>
      <path class="cls-1" d="M12.21,0C5.62,0,.26,5.36.26,11.95c0,2.17.58,4.26,1.67,6.1l-1.93,6.24,6.6-1.79c1.72.92,3.65,1.4,5.61,1.4,6.59,0,11.95-5.36,11.95-11.95S18.8,0,12.21,0ZM12.21,21.96c-1.96,0-3.79-.57-5.34-1.54l-.14.04-3.82,1.03,1.15-3.73c-1.17-1.64-1.85-3.64-1.85-5.8C2.21,6.43,6.69,1.95,12.21,1.95s10,4.48,10,10-4.48,10-10,10Z"/>
      <path class="cls-1" d="M10.24,9.01s.35.54,0,.98c-.35.44-.64.77-.64.77,0,0-.31.23,0,.68.31.46,1.6,2.43,3.82,3.3,0,0,.68.29.98-.37l.7-.91s.17-.23.71,0c.54.23,2.24,1.06,2.24,1.06,0,0,.31.1.25.56-.06.46-.23,2.22-2.68,2.41,0,0-2.37.08-5.02-1.97-1.66-1.28-2.84-2.89-3.48-4-.04-.07-.08-.15-.12-.22-.34-.68-.59-1.43-.55-2.16,0-.08,0-.17.01-.26.05-.8.38-1.75,1.58-2.29,0,0,.98-.14,1.14,0l1.08,2.43Z"/>
    </g>
  </g>
</svg>